<svg id="Arabic" xmlns="http://www.w3.org/2000/svg" width="70" height="70" viewBox="0 0 70 70">
  <circle id="Ellipse_580" data-name="Ellipse 580" cx="34.999" cy="34.999" r="34.999" transform="translate(0.003 0.003)" fill="#fff"/>
  <path id="Path_8234" data-name="Path 8234" d="M335.783,157.873H314.218a96.77,96.77,0,0,1,.018,23.2h21.593a35.032,35.032,0,0,0-.046-23.2Z" transform="translate(-267.783 -134.543)" fill="#efecec"/>
  <path id="Path_8235" data-name="Path 8235" d="M266.4,24.159h21.564a.243.243,0,0,0-.011-.03A35.022,35.022,0,0,0,258.105.972C263.463,3.909,265.028,13.213,266.4,24.159Z" transform="translate(-219.962 -0.829)" fill="#429945"/>
  <path id="Path_8236" data-name="Path 8236" d="M258.113,338.192a35.023,35.023,0,0,0,29.869-23.224c.012-.034.022-.067.034-.1H266.423C265.064,325.873,263.492,335.243,258.113,338.192Z" transform="translate(-219.969 -268.337)" fill="#0b0b0b"/>
  <path id="Path_8237" data-name="Path 8237" d="M0,169.542a34.949,34.949,0,0,0,1.954,11.531h46.3a96.777,96.777,0,0,0-.017-23.2H2A34.928,34.928,0,0,0,0,169.542Z" transform="translate(0 -134.542)" fill="#efefef"/>
  <path id="Path_8238" data-name="Path 8238" d="M13.544,23.3c0,.01-.007.019-.011.03H59.771C58.4,12.385,55.034,3.081,49.676.145,48.64.053,47.592,0,46.533,0A35.006,35.006,0,0,0,13.544,23.3Z" transform="translate(-11.533 -0.001)" fill="#49a948"/>
  <path id="Path_8239" data-name="Path 8239" d="M59.52,314.867h-46.3c.012.033.023.066.034.1a35.009,35.009,0,0,0,33.012,23.369c1.06,0,2.108-.052,3.144-.145C54.789,335.242,58.161,325.872,59.52,314.867Z" transform="translate(-11.266 -268.336)" fill="#151515"/>
  <path id="Path_8240" data-name="Path 8240" d="M0,50.425A35.008,35.008,0,0,0,21.569,82.749V18.1A35.006,35.006,0,0,0,0,50.425Z" transform="translate(0 -15.424)" fill="#e73b36"/>
</svg>
