<svg xmlns="http://www.w3.org/2000/svg" width="87.999" height="88" viewBox="0 0 87.999 88">
    <defs>
        <clipPath id="clip-path">
            <path id="Path_8131" d="M628.755 192.654a44 44 0 0 0 44 44 44 44 0 0 0 44-44 44 44 0 0 0-44-44 44 44 0 0 0-44 44z" class="cls-1" transform="translate(-628.755 -148.655)"/>
        </clipPath>
        <style>
            .cls-1{fill:#fff}.cls-4{fill:#ffcea8}.cls-6{fill:#f7b881}.cls-7{fill:#247300}.cls-9{fill:#dd592d}.cls-10{fill:#d55126}
        </style>
    </defs>
    <g id="Group_2637" transform="translate(-628.755 -148.654)">
        <g id="Group_2632" transform="translate(628.756 148.654)">
            <path id="Path_8112" fill="#f5f6f6" d="M716.755 192.654a44 44 0 1 1-44-44 44 44 0 0 1 44 44z" transform="translate(-628.756 -148.654)"/>
        </g>
        <g id="Group_2616" clip-path="url(#clip-path)" transform="translate(628.755 148.655)">
            <path id="Path_8114" d="M694.172 247.719c2.136-3.957 4.226-3.085 3.666-8.861 0 0-6.968-2.056-6.936-8.9a13.169 13.169 0 0 1-4.56 1.35c-2.1.081-4.523-1.668-4.523-1.668s.55 7.379-5.366 8.935c-.725 6 .716 6.574 4.219 9.654 2.561 2.258 11.528 3.137 13.5-.51z" class="cls-4" transform="translate(-642.626 -172.298)"/>
            <path id="Path_8115" fill="#ffae2e" d="M703.149 246.363c-2.772-2.626-13.438-4.708-13.438-4.708s-.622 6.556-9.756 6.4c-8.915-.152-9.05-6.281-9.05-6.281s-10.865 1.893-14.109 4.587-2.625 8.607-2.625 8.607v8.712h51.592v-8.671l.012-.04s.146-5.98-2.626-8.606z" transform="translate(-636.161 -175.804)"/>
            <path id="Path_8116" d="M713.563 205.329s1.052-2.061 2.223-.666.941 7.084-2.784 7.091c-.002.001.541-5.074.561-6.425z" class="cls-4" transform="translate(-653.349 -164.863)"/>
            <path id="Path_8117" d="M713.819 208.213s.754-2.024 1.5-.981a2.417 2.417 0 0 1-.753 3.312s.51-3.679-.747-2.331z" class="cls-6" transform="translate(-653.587 -165.668)"/>
            <path id="Path_8118" d="M665.484 205.329s-1.052-2.061-2.223-.666-.835 7.084 2.887 7.091c0 .001-.648-5.074-.664-6.425z" class="cls-4" transform="translate(-638.653 -164.863)"/>
            <path id="Path_8119" d="M665.844 208.213s-.754-2.024-1.5-.981a2.416 2.416 0 0 0 .75 3.312s-.51-3.679.75-2.331z" class="cls-6" transform="translate(-639.03 -165.668)"/>
            <path id="Path_8120" d="M700.384 193.821c.773-23.847-16.985-22.12-16.991-22.12s-17.766-1.728-16.994 22.12c0 0-.024 9.956 2.65 13.681a19.156 19.156 0 0 0 14.341 7.456c4.39 0 10.887-2.237 14.344-7.456 2.729-4.12 2.65-13.681 2.65-13.681z" class="cls-4" transform="translate(-639.737 -155.375)"/>
            <path id="Path_8121" d="M691.8 214.965c0 .707-.91 1.28-2.03 1.28s-2.029-.574-2.029-1.28.909-1.281 2.029-1.281 2.03.573 2.03 1.281z" class="cls-6" transform="translate(-645.973 -167.638)"/>
            <path id="Path_8122" d="M704.765 207.223a2.146 2.146 0 1 1-2.148-2.145 2.146 2.146 0 0 1 2.148 2.145z" class="cls-7" transform="translate(-649.691 -165.126)"/>
            <path id="Path_8123" d="M704.883 206.439a.691.691 0 1 1-.69-.691.69.69 0 0 1 .69.691z" class="cls-1" transform="translate(-650.575 -165.322)"/>
            <path id="Line_402" d="M0 0L9.969 0.756" transform="translate(38.863 51.422)"/>
            <path id="Path_8124" fill="#ff6759" d="M690.689 223.876c-2.422 1.632-4.747.132-6.44-1.72h8.29a8.039 8.039 0 0 1-1.85 1.72zm2.694-2.606h-9.969a.348.348 0 0 0-.28.032.459.459 0 0 0-.159.719c1.712 2.145 4.314 4.348 7.225 3.091a7.974 7.974 0 0 0 3.564-3.18.448.448 0 0 0-.381-.662z" transform="translate(-644.551 -169.848)"/>
            <path id="Path_8125" d="M678.805 207.223a2.146 2.146 0 1 1-2.148-2.145 2.146 2.146 0 0 1 2.148 2.145z" class="cls-7" transform="translate(-642.113 -165.126)"/>
            <path id="Path_8126" d="M678.923 206.439a.691.691 0 1 1-.691-.691.69.69 0 0 1 .691.691z" class="cls-1" transform="translate(-642.997 -165.322)"/>
            <path id="Path_8127" d="M700.486 201.215a4.463 4.463 0 0 1 4.852.327c.386.308.937-.236.547-.548a5.265 5.265 0 0 0-5.791-.448c-.439.233-.049.902.392.669z" class="cls-9" transform="translate(-649.524 -163.611)"/>
            <path id="Path_8128" d="M677.882 201.215a4.464 4.464 0 0 0-4.853.327c-.384.308-.937-.236-.548-.548a5.266 5.266 0 0 1 5.791-.448c.442.233.051.902-.39.669z" class="cls-9" transform="translate(-641.481 -163.611)"/>
            <path id="Path_8129" d="M684.607 165.912s-2.267-7.423 3.9-9.06 14.8 3.7 18.559 12.311 9.6 3.487 8.6.5c0 0 3.131 5.574-.854 9.334s-9.393 1.411-12.738-1.648-17.467-11.437-17.467-11.437z" class="cls-10" transform="translate(-644.941 -150.962)"/>
            <path id="Path_8130" d="M663.718 194.361s-3.584-19.611 14.828-24.592a13.736 13.736 0 0 0 6.44 0s20.49 4.034 15.757 24.592a3.646 3.646 0 0 0-1.464.983 1.3 1.3 0 0 1-1.334-.2 16.132 16.132 0 0 1 0-1.889 10.3 10.3 0 0 0-.46-3.133c-.3-1.063-1.116-5.182-4.265-6.2-.838-.27-1.457.256-2.419-.176-.465-.209-2.244.295-2.495.176s-1.823.118-2.422-.058-1.5.058-2.1-.059-1.047.118-1.945-.059-2.1.414-2.844.236-1.647.295-2.472.058-1.8.236-2.319 0-.888-.086-2 .059c-3.317.434-4.738 3.547-5.187 4.846s-.526 6.329-.751 6.829-.767-.261-1.381-.754a3.843 3.843 0 0 0-1.167-.659z" class="cls-10" transform="translate(-638.879 -154.819)"/>
        </g>
    </g>
</svg>
