<svg xmlns="http://www.w3.org/2000/svg" width="18" height="18" viewBox="0 0 18 18">
    <g transform="translate(-5)">
        <g fill="none">
            <path d="M9 0a9 9 0 1 0 9 9 9.01 9.01 0 0 0-9-9z" transform="translate(5)"/>
            <path fill="#fecd00" d="M9 2C5.14 2 2 5.14 2 9s3.14 7 7 7 7-3.14 7-7-3.14-7-7-7m0-2c4.963 0 9 4.037 9 9s-4.037 9-9 9-9-4.037-9-9 4.037-9 9-9z" transform="translate(5)"/>
        </g>
        <circle cx="4" cy="4" r="4" fill="#fecd00" transform="translate(10 5)"/>
    </g>
</svg>
