<svg xmlns="http://www.w3.org/2000/svg" width="44" height="44" viewBox="0 0 44 44">
    <g fill="#898d8d">
        <path d="M5876.6 4923.391l-8.117-7.948-8.115 7.948a1.333 1.333 0 0 1-.972.4 1.383 1.383 0 0 1-1.395-1.395 1.433 1.433 0 0 1 .42-1l8.215-8-8.215-8a1.456 1.456 0 0 1-.42-1 1.383 1.383 0 0 1 1.399-1.396 1.333 1.333 0 0 1 .972.4l8.115 7.938 8.117-7.937a1.329 1.329 0 0 1 .972-.4 1.383 1.383 0 0 1 1.394 1.395 1.448 1.448 0 0 1-.422 1l-8.215 8 8.215 8a1.426 1.426 0 0 1 .422 1 1.383 1.383 0 0 1-1.394 1.395 1.329 1.329 0 0 1-.976-.4z" transform="translate(-65 -44) translate(-5781 -4847)"/>
    </g>
</svg>
