<svg xmlns="http://www.w3.org/2000/svg" width="88" height="88.001" viewBox="0 0 88 88.001">
    <defs>
        <clipPath id="clip-path">
            <path id="Path_8188" d="M90.335 391.132a44 44 0 0 0 44 44 44 44 0 0 0 44-44 44 44 0 0 0-44-44 44 44 0 0 0-44 44z" class="cls-1" transform="translate(-90.335 -347.132)"/>
        </clipPath>
        <clipPath id="clip-path-2">
            <path id="Path_8203" d="M147.03 370.121s-14.447-.723-14.447 19.343 8.858 27.252 14.447 27.252c5.59 0 14.447-7.186 14.447-27.252 0-18.718-12.57-19.346-14.26-19.346-.117-.001-.187.003-.187.003z" class="cls-1" transform="translate(-132.583 -370.117)"/>
        </clipPath>
        <style>
            .cls-1{fill:#fff}.cls-4{fill:#43454b}.cls-7{fill:#707176}.cls-10{fill:#ffce9d}.cls-11{fill:#f7b881}.cls-14{fill:#2f1f17}.cls-16{fill:#6b4a3f}
        </style>
    </defs>
    <g id="Group_2638" transform="translate(-90.335 -347.132)">
        <g id="Group_2621" clip-path="url(#clip-path)" transform="translate(90.335 347.132)">
            <path id="Path_8180" fill="#f5f6f6" d="M178.335 391.132a44 44 0 1 1-44-44 44 44 0 0 1 44 44z" transform="translate(-90.335 -347.132)"/>
            <path id="Path_8181" d="M163.275 393.665c0 13.6-8.227 24.634-18.377 24.634s-18.376-11.029-18.376-24.634 8.227-24.634 18.376-24.634 18.377 11.029 18.377 24.634z" class="cls-4" transform="translate(-100.898 -353.525)"/>
            <path id="Path_8182" fill="#ffc795" d="M157.746 449.68c2.164-4.108 4.283-3.2 3.715-9.2 0 0-7.061-2.135-7.029-9.235a13.115 13.115 0 0 1-4.621 1.4c-2.129.084-4.584-1.731-4.584-1.731s.557 7.661-5.437 9.277c-.735 6.228.725 6.824 4.275 10.022 2.596 2.342 11.685 3.254 13.681-.533z" transform="translate(-104.718 -371.589)"/>
            <path id="Path_8183" fill="#ffae2e" d="M166.845 448.273c-2.81-2.728-13.617-4.888-13.617-4.888s-.631 6.806-9.887 6.646c-9.034-.157-9.171-6.52-9.171-6.52s-11.01 1.965-14.3 4.762-2.66 8.935-2.66 8.935v9.045h52.283v-9l.012-.042s.149-6.211-2.66-8.938z" transform="translate(-98.167 -375.229)"/>
            <path id="Path_8184" d="M143.317 413.735c-5.59 0-14.447-7.186-14.447-27.252s14.447-19.343 14.447-19.343 14.447-.724 14.447 19.343-8.857 27.252-14.447 27.252zm15.478 1.289a42.273 42.273 0 0 0 7.737-30.574c-1.854-14.507-15.021-24.54-23.215-24.54s-21.362 10.033-23.215 24.54 7.737 30.574 7.737 30.574c-2.929 5.629-1.41 12.073-1.41 12.073 13.016 4.142 16.889 3.179 16.889 3.179s15.879 5 19.507-9.93c.511-2.105-4.679-4.386-4.025-5.322z" class="cls-7" transform="translate(-98.955 -350.862)"/>
            <path id="Path_8185" d="M164.426 438.2s-8.017 8.839-22.924 6.712c-3.332-.476-3.693 11.518 3.952 10.583 4.266-.522 20.108-7.5 19.758-16.387z" class="cls-4" transform="translate(-104.613 -373.717)"/>
            <path id="Path_8186" d="M126.5 432.543s-8.763 16.75-3.229 33.029 6.221 34.688 9.068 34.841 9.539-3.629 14.908-12.2c4.025-6.43 10.986-5.466 13.762-9.764s-.642-12.406 5-19.957c0 0-8.525-7.592-14.594-8.249s-16.375-17.7-24.915-17.7z" class="cls-7" transform="translate(-99.414 -372.064)"/>
            <path id="Path_8187" fill="#5c5e63" d="M163.5 395.546c0 13.335-7.936 24.147-17.725 24.147s-17.725-10.811-17.725-24.147 7.936-24.147 17.725-24.147 17.725 10.81 17.725 24.147z" transform="translate(-101.345 -354.216)"/>
        </g>
        <g id="Group_2622" clip-path="url(#clip-path-2)" transform="translate(120.25 363.407)">
            <path id="Path_8189" d="M177.4 405.673s1.067-2.14 2.252-.691.954 7.354-2.821 7.362c-.002 0 .547-5.268.569-6.671z" class="cls-10" transform="translate(-145.499 -380.147)"/>
            <path id="Path_8190" d="M177.657 408.666s.764-2.1 1.522-1.018a2.544 2.544 0 0 1-.762 3.438s.514-3.82-.76-2.42z" class="cls-11" transform="translate(-145.741 -380.982)"/>
            <path id="Path_8191" d="M128.675 405.673s-1.066-2.14-2.252-.691-.846 7.354 2.927 7.362c-.001 0-.659-5.268-.675-6.671z" class="cls-10" transform="translate(-130.607 -380.147)"/>
            <path id="Path_8192" d="M129.04 408.666s-.764-2.1-1.523-1.018a2.544 2.544 0 0 0 .76 3.438s-.513-3.82.763-2.42z" class="cls-11" transform="translate(-130.989 -380.982)"/>
            <path id="Path_8193" fill="#e8c4a3" d="M164.042 394.353c.783-25.432-17.213-23.59-17.217-23.59s-18-1.842-17.222 23.59c0 0-.025 10.617 2.686 14.591a19.11 19.11 0 0 0 14.534 7.951 18.037 18.037 0 0 0 14.536-7.951c2.764-4.395 2.683-14.591 2.683-14.591z" transform="translate(-131.706 -370.297)"/>
            <path id="Path_8194" fill="#ddaf87" d="M155.341 415.676c0 .733-.922 1.329-2.057 1.329s-2.057-.6-2.057-1.329.921-1.33 2.057-1.33 2.057.594 2.057 1.33z" transform="translate(-138.025 -383.028)"/>
            <path id="Path_8195" d="M168.482 407.639a2.176 2.176 0 1 1-2.176-2.228 2.2 2.2 0 0 1 2.176 2.228z" class="cls-14" transform="translate(-141.792 -380.42)"/>
            <path id="Path_8196" d="M168.6 406.825a.7.7 0 1 1-.7-.718.708.708 0 0 1 .7.718z" class="cls-1" transform="translate(-142.689 -380.623)"/>
            <path id="Path_8197" d="M142.175 407.639a2.176 2.176 0 1 1-2.175-2.228 2.2 2.2 0 0 1 2.175 2.228z" class="cls-14" transform="translate(-134.113 -380.42)"/>
            <path id="Path_8198" d="M142.295 406.825a.7.7 0 1 1-.7-.718.708.708 0 0 1 .7.718z" class="cls-1" transform="translate(-135.009 -380.623)"/>
            <path id="Line_403" d="M0 0L10.092 0" transform="translate(10.062 37.088)"/>
            <path id="Path_8199" fill="#ff6759" d="M154.015 424.468c-2.421 1.633-4.746.132-6.439-1.72h8.29a8.027 8.027 0 0 1-1.851 1.72zm2.694-2.605h-9.97a.344.344 0 0 0-.28.032.458.458 0 0 0-.159.718c1.713 2.146 4.314 4.348 7.226 3.092a7.981 7.981 0 0 0 3.563-3.18.448.448 0 0 0-.379-.662z" transform="translate(-136.555 -385.217)"/>
            <path id="Path_8200" d="M126.886 394.286s-3.631-20.359 15.026-25.53a13.591 13.591 0 0 0 6.526 0s20.765 4.188 15.967 25.53a3.68 3.68 0 0 0-1.483 1.021 1.293 1.293 0 0 1-1.352-.2 17.39 17.39 0 0 1 0-1.961 10.908 10.908 0 0 0-.466-3.252c-.3-1.1-1.131-5.379-4.321-6.442-.849-.281-1.476.265-2.452-.183-.472-.217-2.274.306-2.529.183s-1.846.122-2.454-.06-1.519.06-2.125-.062-1.06.122-1.971-.062-2.125.43-2.882.246-1.669.306-2.505.06-1.819.246-2.349 0-.9-.089-2.025.062c-3.361.45-4.8 3.681-5.256 5.031s-.532 6.57-.76 7.089-.776-.27-1.4-.783a3.875 3.875 0 0 0-1.189-.687z" class="cls-14" transform="translate(-130.837 -369.72)"/>
            <path id="Path_8201" d="M164.145 401.4a4.434 4.434 0 0 1 4.918.34c.392.32.95-.245.555-.569a5.231 5.231 0 0 0-5.869-.465c-.449.243-.049.937.396.694z" class="cls-16" transform="translate(-141.624 -378.847)"/>
            <path id="Path_8202" d="M141.24 401.4a4.434 4.434 0 0 0-4.918.34c-.39.32-.95-.245-.556-.569a5.232 5.232 0 0 1 5.869-.465c.447.243.052.937-.395.694z" class="cls-16" transform="translate(-133.473 -378.847)"/>
        </g>
    </g>
</svg>
