<svg xmlns="http://www.w3.org/2000/svg" width="40" height="40" viewBox="0 0 40 40">
    <g>
        <path fill="rgba(137,141,141,0)" d="M0 0H40V40H0z" transform="translate(-65 -47) translate(65 47)"/>
        <g>
            <path fill="#888b8d" d="M17.467 969.269a4.545 4.545 0 0 0-3.767 1.741 6.076 6.076 0 0 0-1.375 4.623c.053 2.057 1.915 5.536 2.614 6.337l1.329 1.821 1 1.127 1.516 1.516 1.288 1.236 2.01 1.734 2.51 1.939a.338.338 0 0 0 .248.108 20.816 20.816 0 0 0 1.708-1.289c.43-.328 1.639-1.188 2.448-1.933.87-.727 2.11-2 3.37-3.25a21.309 21.309 0 0 0 2.991-3.81c1.987-2.741 2.957-7.695.484-10.282a4.2 4.2 0 0 0-1.946-1.374 6.042 6.042 0 0 0-4.2.247 8.084 8.084 0 0 0-2.763 1.967l-2.089 1.721-2.11-1.721a8.636 8.636 0 0 0-2.491-1.783 6.912 6.912 0 0 0-2.773-.675zm0 2.6a5.193 5.193 0 0 1 1.421.326 5.057 5.057 0 0 1 1.815 1.251l2.445 1.878.9.507a2.94 2.94 0 0 0 .791.108 2.469 2.469 0 0 0 .725-.108l.656-.241 2.143-1.653a6.4 6.4 0 0 1 3.08-1.968c.41.02 1.618-.43 2.451.616a4.949 4.949 0 0 1 .684 3.85 13.316 13.316 0 0 1-1.516 3.421 15.539 15.539 0 0 1-2.443 3.178c-.574.675-.85.905-1.623 1.7-.221.214-1.139 1.043-1.839 1.6l-2.315 2.166-4.768-4.373-3.3-4.146c-.515-.8-.512-.86-.819-1.352a7.74 7.74 0 0 1-.84-2.357 6.734 6.734 0 0 1-.143-.818 5.356 5.356 0 0 1 .5-2.457 2.216 2.216 0 0 1 1.987-1.127z" transform="translate(-65 -47) translate(-798.46 -1975.576) translate(859.145 1062.333)"/>
        </g>
    </g>
</svg>
