<svg xmlns="http://www.w3.org/2000/svg" width="18" height="18" viewBox="0 0 18 18">
  <g id="Group_2456" data-name="Group 2456" transform="translate(-177 -434)">
    <circle id="Ellipse_540" data-name="Ellipse 540" cx="9" cy="9" r="9" transform="translate(177 434)" fill="#898d8d"/>
    <path id="Path_7982" data-name="Path 7982" d="M202.126,592.874a.253.253,0,0,0-.045,0l-2.926.551-2.3-1.327,2.3-1.327,2.926.551a.237.237,0,0,0,.045,0,.244.244,0,0,0,.045-.483L199.8,590.4l1.751-1.011a.244.244,0,0,0-.122-.455l-.03,0a.24.24,0,0,0-.092.031l-1.751,1.011.8-2.275a.244.244,0,0,0-.149-.31.237.237,0,0,0-.081-.014.244.244,0,0,0-.23.163l-.986,2.81-2.3,1.327v-2.654l1.941-2.258a.244.244,0,0,0-.369-.318l-1.571,1.828v-2.022a.244.244,0,0,0-.487,0v2.022l-1.571-1.828a.244.244,0,0,0-.37.318l1.94,2.258v2.654l-2.3-1.327-.986-2.81a.244.244,0,0,0-.23-.163.239.239,0,0,0-.081.014.244.244,0,0,0-.149.31l.8,2.275-1.751-1.011a.247.247,0,0,0-.092-.031l-.03,0a.246.246,0,0,0-.147.049.239.239,0,0,0-.064.073.244.244,0,0,0,.089.333l1.751,1.011-2.369.446a.244.244,0,0,0,.045.483.259.259,0,0,0,.045,0l2.926-.552,2.3,1.327-2.3,1.327-2.926-.551a.237.237,0,0,0-.045,0,.244.244,0,0,0-.045.483l2.369.446-1.751,1.011a.239.239,0,0,0-.073.064.244.244,0,0,0,.194.39l.03,0a.24.24,0,0,0,.092-.031l1.751-1.011-.8,2.275a.244.244,0,0,0,.149.31.239.239,0,0,0,.081.014.244.244,0,0,0,.23-.163l.986-2.81,2.3-1.327v2.654l-1.94,2.258a.244.244,0,0,0,.37.318l1.571-1.828v2.022a.244.244,0,0,0,.468.095.241.241,0,0,0,.019-.095v-2.022l1.571,1.828a.244.244,0,0,0,.37-.318l-1.941-2.258v-2.654l2.3,1.327.985,2.81a.244.244,0,0,0,.23.163.239.239,0,0,0,.081-.014.244.244,0,0,0,.149-.31l-.8-2.275,1.751,1.011a.238.238,0,0,0,.092.031l.03,0a.243.243,0,0,0,.194-.39.238.238,0,0,0-.073-.064L199.8,593.8l2.369-.446a.244.244,0,0,0-.045-.483Z" transform="translate(-10.369 -149.014)" fill="#fff"/>
  </g>
</svg>
