<svg xmlns="http://www.w3.org/2000/svg" width="145.722" height="27.996" viewBox="0 0 145.722 27.996">
    <g>
        <g>
            <path fill="#ffc000" fill-rule="evenodd" d="M59.523 86.2c-.847-2.745-.313-5.813 2.166-7.591a5.178 5.178 0 0 1 5-.69 11.915 11.915 0 0 0 3.6 1.2 11.9 11.9 0 0 0 3.6-1.2 5.178 5.178 0 0 1 5 .69c2.48 1.776 3.015 4.846 2.166 7.591-1.371 4.368-10.759 10.887-10.759 10.887S60.965 90.791 59.523 86.2zm10.761-17.112a3.876 3.876 0 1 1-3.876 3.876 3.876 3.876 0 0 1 3.876-3.876zM74.8 81.357a2.862 2.862 0 1 1-2.863 2.861 2.862 2.862 0 0 1 2.863-2.861zm.2 7.655c-3.051 1.191-9 1.422-11.086-1.383a2.908 2.908 0 0 1-.3-2.689 2.633 2.633 0 0 1 2.229-1.532c2.65-.169 4.565 5.039 9.163 5.604z" transform="translate(-59.148 -69.088) translate(59.148 69.088) translate(-59.148 -69.088)"/>
            <g>
                <path d="M224.507 127.115h3.207l1.9 6.337a25.387 25.387 0 0 1 .71 2.9h.077a21.9 21.9 0 0 1 .71-2.9l1.882-6.337h3.188l1.575 12.808h-2.592l-.557-6.2a35.433 35.433 0 0 1-.154-3.764h-.1a32.454 32.454 0 0 1-.922 3.629l-1.939 6.337h-2.285l-1.939-6.317a34.919 34.919 0 0 1-.922-3.648h-.1v.864a28 28 0 0 1-.154 2.9l-.576 6.2h-2.573z" transform="translate(-59.148 -69.088) translate(59.148 69.088) translate(29.447 9.645) translate(-222.951 -126.328)"/>
                <path d="M319.6 157.868a4.211 4.211 0 0 1-3.936 2.151 4.438 4.438 0 0 1 .057-8.871 3.883 3.883 0 0 1 4.071 4.225v.71h-5.357a1.777 1.777 0 0 1-.576-.058c.134 1.363.768 2.055 1.862 2.055a1.942 1.942 0 0 0 1.9-1.191zm-2.746-3.245a2.086 2.086 0 0 1 .6.058 1.706 1.706 0 0 0-1.786-1.766 1.735 1.735 0 0 0-1.824 1.766 3.28 3.28 0 0 1 .768-.058z" transform="translate(-59.148 -69.088) translate(59.148 69.088) translate(29.447 9.645) translate(-295.497 -146.039)"/>
                <path d="M370.992 135.256a3.4 3.4 0 0 1-2.784 1.363c-2.342 0-3.936-1.786-3.936-4.359s1.594-4.417 3.936-4.417a3.368 3.368 0 0 1 2.631 1.114l.058-.019a21.044 21.044 0 0 1-.1-2.5v-3.706h2.4v13.595h-2.266v-.461a1.474 1.474 0 0 1 .115-.6zm-4.224-3.053c0 1.363.768 2.439 2.016 2.439a2.23 2.23 0 0 0 2.17-2.477 2.169 2.169 0 0 0-2.154-2.365 2.141 2.141 0 0 0-2.033 2.4z" transform="translate(-59.148 -69.088) translate(59.148 69.088) translate(29.447 9.645) translate(-338.865 -122.736)"/>
                <path d="M430.366 157.868a4.211 4.211 0 0 1-3.937 2.151 4.438 4.438 0 0 1 .058-8.871 3.883 3.883 0 0 1 4.071 4.225v.71H425.2a1.778 1.778 0 0 1-.576-.058c.134 1.363.768 2.055 1.862 2.055a1.942 1.942 0 0 0 1.9-1.191zm-2.746-3.245a2.086 2.086 0 0 1 .6.058 1.707 1.707 0 0 0-1.786-1.766 1.735 1.735 0 0 0-1.824 1.766 3.279 3.279 0 0 1 .768-.058z" transform="translate(-59.148 -69.088) translate(59.148 69.088) translate(29.447 9.645) translate(-386.353 -146.039)"/>
                <path d="M478.352 122.736h2.4v13.595h-2.4z" transform="translate(-59.148 -69.088) translate(59.148 69.088) translate(29.447 9.645) translate(-432.438 -122.736)"/>
                <path d="M506.487 159.075a3.1 3.1 0 0 1-2.708 1.286c-2.63 0-3.955-1.728-3.955-4.263 0-2.612 1.594-4.417 3.936-4.417a3.344 3.344 0 0 1 2.765 1.344l.057-.019a1.339 1.339 0 0 1-.115-.576v-.461h2.343v8.1h-2.362v-.422a1.007 1.007 0 0 1 .115-.538zm-4.148-3a2.056 2.056 0 0 0 2.035 2.3 2.384 2.384 0 0 0 .019-4.743 2.168 2.168 0 0 0-2.054 2.447z" transform="translate(-59.148 -69.088) translate(59.148 69.088) translate(29.447 9.645) translate(-450.049 -146.478)"/>
                <path d="M586.238 127.115h7.124v2.266h-4.128a1.437 1.437 0 0 1-.422-.038 1.446 1.446 0 0 1 .038.422v2.074a1.446 1.446 0 0 1-.038.422 1.437 1.437 0 0 1 .422-.038h4.128v2.285h-4.128a1.444 1.444 0 0 1-.422-.038 1.445 1.445 0 0 1 .038.422v5.031h-2.611z" transform="translate(-59.148 -69.088) translate(59.148 69.088) translate(29.447 9.645) translate(-520.928 -126.328)"/>
                <path d="M637.551 159.075a3.1 3.1 0 0 1-2.707 1.286c-2.631 0-3.956-1.728-3.956-4.263 0-2.612 1.594-4.417 3.936-4.417a3.344 3.344 0 0 1 2.765 1.344l.058-.019a1.335 1.335 0 0 1-.115-.576v-.461h2.342v8.1h-2.362v-.422a1.007 1.007 0 0 1 .115-.538zm-4.148-3a2.056 2.056 0 0 0 2.035 2.3 2.384 2.384 0 0 0 .019-4.743 2.168 2.168 0 0 0-2.057 2.447z" transform="translate(-59.148 -69.088) translate(59.148 69.088) translate(29.447 9.645) translate(-557.551 -146.478)"/>
                <path d="M693.056 151.97h2.266v.518a1.654 1.654 0 0 1-.135.672l.077.019a2.973 2.973 0 0 1 2.611-1.5 2.327 2.327 0 0 1 2.362 1.5l.039.019a3.042 3.042 0 0 1 2.724-1.516 2.443 2.443 0 0 1 2.247 1.056 4.39 4.39 0 0 1 .384 2v5.338h-2.4v-4.746c0-1.133-.422-1.69-1.306-1.69s-1.363.6-1.363 1.69v4.743h-2.419v-4.8c0-1.095-.4-1.632-1.229-1.632-.96 0-1.459.614-1.459 1.728v4.7h-2.4z" transform="translate(-59.148 -69.088) translate(59.148 69.088) translate(29.447 9.645) translate(-608.543 -146.478)"/>
                <path d="M777.011 131.653a1.44 1.44 0 1 1-1.44-1.44 1.4 1.4 0 0 1 1.44 1.44zm-2.65 2.707h2.4v8.1h-2.4z" transform="translate(-59.148 -69.088) translate(59.148 69.088) translate(29.447 9.645) translate(-675.043 -128.869)"/>
                <path d="M801.477 122.736h2.4v13.595h-2.4z" transform="translate(-59.148 -69.088) translate(59.148 69.088) translate(29.447 9.645) translate(-697.473 -122.736)"/>
                <path d="M823.868 153.284l.883 2.458a14.217 14.217 0 0 1 .768 2.5h.077a16.471 16.471 0 0 1 .729-2.515l.826-2.439h2.631l-4.8 12h-2.765l1.958-4.474-3.149-7.527z" transform="translate(-59.148 -69.088) translate(59.148 69.088) translate(29.447 9.645) translate(-713.508 -147.792)"/>
            </g>
        </g>
    </g>
</svg>
