<svg width="128" height="128" viewBox="0 0 128 128" fill="none" xmlns="http://www.w3.org/2000/svg">
<path d="M64 0C76.658 0 89.0317 3.75353 99.5565 10.7859C110.081 17.8184 118.284 27.8138 123.128 39.5083C127.972 51.2027 129.24 64.071 126.77 76.4858C124.301 88.9006 118.205 100.304 109.255 109.255C100.304 118.205 88.9006 124.301 76.4858 126.77C64.071 129.24 51.2027 127.972 39.5083 123.128C27.8138 118.284 17.8184 110.081 10.7859 99.5565C3.75353 89.0317 0 76.658 0 64C0 47.0261 6.74284 30.7475 18.7452 18.7452C30.7475 6.74284 47.0261 0 64 0V0Z" fill="#D8D8D8"/>
<path d="M50.58 78.418C54.002 82.652 57.482 84.16 62.354 84.16C70.3 84.16 75.462 80.274 75.462 72.908C75.462 65.89 71.518 62.99 65.776 60.206C60.614 57.654 59.86 56.32 59.86 53.71C59.86 51.506 61.368 49.998 64.094 49.998C66.24 49.998 68.444 50.984 70.474 53.652L75.462 48.084C72.214 44.604 68.618 43.096 64.442 43.096C57.076 43.096 51.972 46.808 51.972 53.826C51.972 58.466 53.77 62.874 58.758 65.426L62.238 67.34C64.732 68.732 67.284 70.008 67.284 72.792C67.284 75.982 65.254 77.258 62.006 77.258C58.41 77.258 55.394 72.676 55.394 72.676L50.58 78.418Z" fill="#3E3E3E"/>
</svg>
