<svg width="128" height="128" viewBox="0 0 128 128" fill="none" xmlns="http://www.w3.org/2000/svg">
<path d="M64 0C76.658 0 89.0317 3.75353 99.5565 10.7859C110.081 17.8184 118.284 27.8138 123.128 39.5083C127.972 51.2027 129.24 64.071 126.77 76.4858C124.301 88.9006 118.205 100.304 109.255 109.255C100.304 118.205 88.9006 124.301 76.4858 126.77C64.071 129.24 51.2027 127.972 39.5083 123.128C27.8138 118.284 17.8184 110.081 10.7859 99.5565C3.75353 89.0317 0 76.658 0 64C0 47.0261 6.74284 30.7475 18.7452 18.7452C30.7475 6.74284 47.0261 0 64 0V0Z" fill="#D8D8D8"/>
<path d="M78.438 83H73.218V46.17H60.11C59.762 49.0313 59.3753 52.0473 58.95 55.218C58.5247 58.35 58.0993 61.3467 57.674 64.208C57.2487 67.0693 56.8233 69.5053 56.398 71.516C55.8953 74.1067 55.2767 76.3107 54.542 78.128C53.8073 79.9453 52.8213 81.318 51.584 82.246C50.3853 83.174 48.8 83.638 46.828 83.638C46.1707 83.638 45.494 83.5607 44.798 83.406C44.1407 83.29 43.5607 83.1353 43.058 82.942V78.592C43.4833 78.7853 43.9667 78.9593 44.508 79.114C45.0493 79.23 45.6293 79.288 46.248 79.288C47.408 79.288 48.3167 78.824 48.974 77.896C49.67 76.9293 50.2113 75.75 50.598 74.358C50.9847 72.9273 51.3133 71.516 51.584 70.124C51.8933 68.6547 52.2607 66.5087 52.686 63.686C53.15 60.8247 53.6333 57.4993 54.136 53.71C54.6773 49.9207 55.2187 45.88 55.76 41.588H78.438V83Z" fill="#3E3E3E"/>
</svg>
