<svg width="128" height="128" viewBox="0 0 128 128" fill="none" xmlns="http://www.w3.org/2000/svg">
<path d="M64 0C76.658 0 89.0317 3.75353 99.5565 10.7859C110.081 17.8184 118.284 27.8138 123.128 39.5083C127.972 51.2027 129.24 64.071 126.77 76.4858C124.301 88.9006 118.205 100.304 109.255 109.255C100.304 118.205 88.9006 124.301 76.4858 126.77C64.071 129.24 51.2027 127.972 39.5083 123.128C27.8138 118.284 17.8184 110.081 10.7859 99.5565C3.75353 89.0317 0 76.658 0 64C0 47.0261 6.74284 30.7475 18.7452 18.7452C30.7475 6.74284 47.0261 0 64 0V0Z" fill="#D8D8D8"/>
<path d="M83.818 62.758H65.49V69.66H71.348C73.146 69.66 73.494 69.66 75.118 69.486C74.19 71.98 73.552 73.024 72.16 74.242C70.072 76.04 67.288 77.084 64.388 77.084C57.138 77.084 52.15 71.69 52.15 63.86C52.15 56.03 57.254 50.056 64.504 50.056C68.506 50.056 71.406 51.622 75.002 55.856L80.918 51.1C78.772 48.606 77.67 47.562 76.046 46.402C72.856 44.14 69.086 43.096 64.62 43.096C52.556 43.096 43.972 52.086 43.972 64.034C43.972 75.576 52.556 84.16 64.156 84.16C75.64 84.16 83.818 75.866 83.818 64.15V62.758Z" fill="#3E3E3E"/>
</svg>
