<svg width="128" height="128" viewBox="0 0 128 128" fill="none" xmlns="http://www.w3.org/2000/svg">
<path d="M64 128C99.3462 128 128 99.3462 128 64C128 28.6538 99.3462 0 64 0C28.6538 0 0 28.6538 0 64C0 99.3462 28.6538 128 64 128Z" fill="#D8D8D8"/>
<path d="M48.654 83H56.542V67.166C56.542 66.528 56.542 66.412 56.426 65.89C56.948 66.006 57.064 66.006 57.702 66.006H71.39C72.028 66.006 72.144 66.006 72.666 65.89C72.55 66.412 72.55 66.528 72.55 67.166V83H80.496V44.314H72.55V58.06C72.55 58.698 72.55 58.814 72.666 59.336C72.144 59.22 72.028 59.22 71.39 59.22H57.702C57.064 59.22 56.948 59.22 56.426 59.336C56.542 58.814 56.542 58.698 56.542 58.06V44.314H48.654V83Z" fill="#3E3E3E"/>
</svg>
