<svg width="128" height="128" viewBox="0 0 128 128" fill="none" xmlns="http://www.w3.org/2000/svg">
<path d="M64 128C99.3462 128 128 99.3462 128 64C128 28.6538 99.3462 0 64 0C28.6538 0 0 28.6538 0 64C0 99.3462 28.6538 128 64 128Z" fill="#D8D8D8"/>
<path d="M48.77 83H60.544C65.068 83 68.722 82.362 71.448 81.144C77.712 78.244 81.598 71.458 81.598 63.454C81.598 57.364 79.336 51.97 75.45 48.722C71.564 45.532 67.388 44.314 59.848 44.314H48.77V83ZM59.848 50.752C63.154 50.752 66.112 51.39 68.026 52.608C71.448 54.696 73.536 58.814 73.536 63.512C73.536 67.862 71.738 71.922 68.838 74.126C66.808 75.634 63.85 76.446 60.544 76.446H57.818C57.18 76.446 57.064 76.446 56.542 76.562C56.658 76.04 56.658 75.924 56.658 75.286V51.912C56.658 51.274 56.658 51.158 56.542 50.636C57.064 50.752 57.18 50.752 57.818 50.752H59.848Z" fill="#3E3E3E"/>
</svg>
