<svg xmlns="http://www.w3.org/2000/svg" width="70" height="70" viewBox="0 0 70 70">
    <g>
        <path fill="#ffcd25" d="M35 0A35 35 0 1 1 0 35 35 35 0 0 1 35 0z" transform="translate(-196 -129) translate(196 129)"/>
        <path fill="#646363" stroke="rgba(0,0,0,0)" stroke-miterlimit="10" d="M-7372.316-28.858a7.006 7.006 0 0 1 7.006-7.008 6.962 6.962 0 0 1 3.645 1.028l1.028-1.028v3.114h-3.114l.94-.94a5.415 5.415 0 0 0-1.72-.551v.712a.779.779 0 0 1-.779.779.779.779 0 0 1-.777-.779v-.716a5.454 5.454 0 0 0-4.609 4.609h.716a.778.778 0 0 1 .779.779.777.777 0 0 1-.779.777h-.716a5.454 5.454 0 0 0 4.609 4.609v-.716a.779.779 0 0 1 .777-.779.779.779 0 0 1 .779.779v1.556a.779.779 0 0 1-.779.779 7.006 7.006 0 0 1-7.006-7.004zm-17.905 7.006a.779.779 0 0 1-.779-.779c0-.338.046-8.271 4.016-10.441a26.226 26.226 0 0 1 5.038-2.007 9.727 9.727 0 0 0-3.827-1.445.777.777 0 0 1-.66-.588.77.77 0 0 1 .317-.825c1.63-1.117 1.516-4.24 1.4-7.26-.028-.792-.058-1.584-.058-2.345 0-5.834 3.565-7.744 5.25-8.323l-.655-1.988a.773.773 0 0 1 .447-.857 19.869 19.869 0 0 1 7.027-1.29 19.881 19.881 0 0 1 7.026 1.289.769.769 0 0 1 .445.857l-.7 2.131c1.727.7 4.845 2.719 4.845 8.18 0 .761-.03 1.553-.06 2.345-.113 3.02-.23 6.143 1.4 7.26a.776.776 0 0 1 .2 1.081.772.772 0 0 1-.642.338.768.768 0 0 1-.44-.135c-2.341-1.6-2.209-5.16-2.081-8.6.03-.773.058-1.545.058-2.287 0-4.409-2.28-6.08-3.775-6.7l-.642 1.944a.764.764 0 0 1-.759.625.816.816 0 0 1-.406-.109 8.864 8.864 0 0 0-4.476-1.209 8.867 8.867 0 0 0-4.476 1.209.814.814 0 0 1-.4.109.767.767 0 0 1-.761-.625l-.691-2.1c-1.291.427-4.177 1.925-4.177 6.858 0 .742.029 1.514.057 2.287.1 2.786.21 5.652-1 7.488a9.133 9.133 0 0 1 4.02 2.2c.49-.119.913-.211 1.228-.276v-1.321c0-.028.015-.052.017-.078a8.533 8.533 0 0 1-2.767-6.286v-3.241a1.556 1.556 0 0 1 1.556-1.556h5.368c.352-.043 2.417-.349 2.417-1.651a1.565 1.565 0 0 1 1.376-1.556 1.53 1.53 0 0 1 .184-.011 1.544 1.544 0 0 1 1.508 1.195 3.006 3.006 0 0 0 3.161 2.15 1.557 1.557 0 0 1 1.556 1.556v3.114a8.573 8.573 0 0 1-8.562 8.564 8.486 8.486 0 0 1-4.255-1.143v.907a.778.778 0 0 1-.647.766c-.013 0-.449.08-1.137.234 1.517 2.252 4.882 2.484 4.917 2.487a.774.774 0 0 1 .729.824.776.776 0 0 1-.775.731h-.048a10.109 10.109 0 0 1-3.236-.845l4.061 8.017a.773.773 0 0 1-.032.759.776.776 0 0 1-.662.371zm3.982-9.853c-2.339 1.278-3.053 5.871-3.181 8.3h13.969l-5.268-10.4a26.38 26.38 0 0 0-5.52 2.099zm6.138-11.819a7.006 7.006 0 0 0 7.008 7.006 7.007 7.007 0 0 0 7.006-7.006v-3.116a4.6 4.6 0 0 1-4.672-3.333c0 2.9-3.892 3.207-3.892 3.207h-5.45zm11.815-10.044l1.31-3.969a19.387 19.387 0 0 0-5.729-.905 19.377 19.377 0 0 0-5.728.905l1.308 3.969a10.476 10.476 0 0 1 4.42-.981 10.468 10.468 0 0 1 4.42.98zm14.322 30.934v-.386h-2.975a.653.653 0 0 1-.376-.121.642.642 0 0 1-.262-.417.651.651 0 0 1 .107-.484l3.625-5.175a.649.649 0 0 1 .531-.276.648.648 0 0 1 .647.649v4.528h.442a.649.649 0 0 1 .591.646.648.648 0 0 1-.647.649h-.388v.386a.647.647 0 0 1-.647.647.648.648 0 0 1-.647-.647zm-1.73-1.682h1.73v-2.474zm-6.685 2.33a.645.645 0 0 1-.421-.154.633.633 0 0 1-.224-.44.643.643 0 0 1 .15-.473l3.205-3.769a.886.886 0 0 0-.225-1.163 1.154 1.154 0 0 0-.673-.213 1.155 1.155 0 0 0-.82.341 1.153 1.153 0 0 0-.337.822.648.648 0 0 1-.647.649.648.648 0 0 1-.649-.647 2.44 2.44 0 0 1 .467-1.441 2.456 2.456 0 0 1 3.428-.551 2.188 2.188 0 0 1 .5 2.977l-2.348 2.771h2.17a.642.642 0 0 1 .7.644.648.648 0 0 1-.649.647zm-3.228-5.375a.733.733 0 0 1-.252-.167l-1.558-1.556a.779.779 0 0 1 0-1.1.779.779 0 0 1 1.1 0l1.005 1.007 1.786-1.786a.777.777 0 0 1 1.1 0 .779.779 0 0 1 0 1.1l-2.333 2.335a.775.775 0 0 1-.254.167.752.752 0 0 1-.3.061.759.759 0 0 1-.293-.063zm-10.1-11.838a.781.781 0 0 1 .117-1.1.778.778 0 0 1 1.094.117 1.858 1.858 0 0 0 2.81 0 .779.779 0 0 1 1.095-.117.782.782 0 0 1 .117 1.1 3.355 3.355 0 0 1-2.617 1.252 3.355 3.355 0 0 1-2.617-1.253zm4.949-4.45a.779.779 0 0 1 .779-.779.779.779 0 0 1 .779.779.779.779 0 0 1-.779.779.779.779 0 0 1-.78-.781zm-6.227 0a.779.779 0 0 1 .777-.779.779.779 0 0 1 .779.779.779.779 0 0 1-.779.779.779.779 0 0 1-.778-.781zm3.894-12.066v-.39h-.392a.391.391 0 0 1-.39-.39.391.391 0 0 1 .39-.39h.392v-.39a.388.388 0 0 1 .388-.39.389.389 0 0 1 .389.39v.39h.39a.389.389 0 0 1 .39.39.389.389 0 0 1-.39.39h-.39v.39a.389.389 0 0 1-.389.388.387.387 0 0 1-.39-.39z" transform="translate(-196 -129) translate(7603 205)"/>
    </g>
</svg>
