<svg xmlns="http://www.w3.org/2000/svg" width="32" height="32" viewBox="0 0 32 32">
    <g transform="translate(.384)">
        <circle cx="16" cy="16" r="16" transform="translate(-.384)"/>
        <path fill="#898d8d" stroke="rgba(0,0,0,0)" stroke-miterlimit="10" d="M9.75 21a.438.438 0 1 1 0-.875h1.381l-1.845-1.75h1.393V2.621H9.286L11.131.875H9.75a.451.451 0 0 1-.464-.438A.451.451 0 0 1 9.75 0h2.786A.451.451 0 0 1 13 .437a.451.451 0 0 1-.464.437h-1.38L13 2.613h-1.393v15.77H13l-1.844 1.738h1.38a.438.438 0 1 1 0 .875zm-9.286-.875A.452.452 0 0 1 0 19.688V1.312A.452.452 0 0 1 .464.875h7.429a.452.452 0 0 1 .464.437v18.376a.452.452 0 0 1-.464.437zm.464-.875h6.5V17.5H5.107a.438.438 0 1 1 0-.875h2.322v-1.312H6.036a.438.438 0 1 1 0-.875h1.393v-1.313H5.107a.438.438 0 1 1 0-.875h2.322v-1.312H6.036a.438.438 0 1 1 0-.875h1.393V8.75H5.107a.438.438 0 1 1 0-.875h2.322V6.563H6.036a.438.438 0 1 1 0-.875h1.393V4.375H5.107a.438.438 0 1 1 0-.875h2.322V1.75H.928z" transform="translate(9.616 6)"/>
    </g>
</svg>
