<svg xmlns="http://www.w3.org/2000/svg" width="32" height="32" viewBox="0 0 32 32">
    <g transform="translate(.261)">
        <circle cx="16" cy="16" r="16"  transform="translate(-.261)"/>
        <path fill="#898d8d" stroke="rgba(0,0,0,0)" stroke-miterlimit="10" d="M10.533 20.958A11.534 11.534 0 0 1 4.823.085.438.438 0 0 1 5.08 0a.456.456 0 0 1 .42.619A11.536 11.536 0 0 0 15.174 16.2q.561.053 1.11.052a11.5 11.5 0 0 0 4.1-.75.468.468 0 0 1 .167-.032.45.45 0 0 1 .367.708A11.518 11.518 0 0 1 11.534 21q-.496 0-1.001-.042zM.914 10.393a10.728 10.728 0 0 0 9.693 9.693c.308.026.62.039.927.039a10.69 10.69 0 0 0 7.777-3.372 12.388 12.388 0 0 1-3.027.372c-.4 0-.8-.019-1.192-.056A12.415 12.415 0 0 1 4.247 1.685a10.6 10.6 0 0 0-3.333 8.708zm12.211.545h-1.313a.438.438 0 0 1-.375-.663l.915-1.525h-.54a.437.437 0 0 1 0-.875h1.312a.437.437 0 0 1 .375.663l-.915 1.525h.54a.437.437 0 0 1 0 .875zm3.938-2.625h-1.75a.437.437 0 0 1-.364-.68l1.3-1.945h-.933a.437.437 0 0 1 0-.875h1.75a.438.438 0 0 1 .364.68l-1.3 1.945h.933a.437.437 0 0 1 0 .875zm-4.376-2.188h-2.624a.438.438 0 0 1-.334-.725l2.084-2.779h-1.75a.438.438 0 1 1 0-.875h2.625a.438.438 0 0 1 .336.718L10.937 5.25h1.75a.438.438 0 0 1 0 .875z" transform="translate(5.74 6)"/>
    </g>
</svg>
