<svg xmlns="http://www.w3.org/2000/svg" width="32" height="32" viewBox="0 0 32 32">
    <g transform="translate(-.493)">
        <circle cx="16" cy="16" r="16" transform="translate(.493)"/>
        <path fill="#898d8d" stroke="rgba(0,0,0,0)" stroke-miterlimit="10" d="M1.749 21A1.749 1.749 0 0 1 0 19.251v-1.313h2.374l2.793-4.789a7.656 7.656 0 1 1 10.667 0l2.793 4.788H21v1.313A1.749 1.749 0 0 1 19.251 21zm-.874-1.749a.875.875 0 0 0 .874.874h17.5a.875.875 0 0 0 .874-.874v-.438H.875zm16.738-1.313l-2.453-4.206a7.658 7.658 0 0 1-9.32 0l-2.453 4.206zM3.719 7.656A6.781 6.781 0 1 0 10.5.875a6.789 6.789 0 0 0-6.781 6.781zm.875 0a5.906 5.906 0 1 1 5.906 5.906 5.906 5.906 0 0 1-5.906-5.906zm.875 0A5.031 5.031 0 1 0 10.5 2.625a5.037 5.037 0 0 0-5.031 5.031zm3.5 0a1.532 1.532 0 0 1 2.106-1.419l1.139-1.424h-.4a.437.437 0 0 1 0-.875h1.312a.438.438 0 0 1 .437.437v1.312a.437.437 0 1 1-.875 0v-.064l-.929 1.161a1.531 1.531 0 1 1-2.79.872zm.875 0A.656.656 0 1 0 10.5 7a.657.657 0 0 0-.656.656z" transform="translate(6.493 5)"/>
    </g>
</svg>
