<svg xmlns="http://www.w3.org/2000/svg" width="32" height="32" viewBox="0 0 32 32">
    <circle cx="16" cy="16" r="16" fill="#fff"/>
    <path fill="#898d8d" d="M1180 554.536a3.845 3.845 0 0 0-2.99-3.747c-.005-.009-.006-.019-.013-.028a8.8 8.8 0 0 0-4.918-3.389v-.075a4.314 4.314 0 1 0-.117.98 7.888 7.888 0 0 1 3.838 2.43 3.844 3.844 0 0 0-3.495 3.828c0 .078.007.155.012.233a8.741 8.741 0 0 0-6.38 2.96 4.26 4.26 0 0 1-.418-1.835.452.452 0 1 0-.9 0 5.168 5.168 0 0 0 .851 2.843c0 .01.011.019.017.029a5.2 5.2 0 0 0 7.907.908.452.452 0 1 0-.621-.657 4.29 4.29 0 0 1-6.334-.48 7.852 7.852 0 0 1 6.04-2.867 3.836 3.836 0 0 0 4.921 2.5 7.916 7.916 0 1 1-14.02-6.883.452.452 0 0 0-.735-.527 8.82 8.82 0 1 0 15.827 6.838 3.835 3.835 0 0 0 1.528-3.061zm-12.214-3.845a3.393 3.393 0 1 1 3.393-3.393 3.4 3.4 0 0 1-3.393 3.393zm5.429 3.845a2.941 2.941 0 1 1 2.941 2.941 2.944 2.944 0 0 1-2.942-2.941z" transform="translate(-1154 -538)"/>
</svg>
