<svg xmlns="http://www.w3.org/2000/svg" width="70" height="70" viewBox="0 0 70 70">
    <defs>
        <clipPath id="clip-path">
            <path id="Rectangle_1266" d="M0 0H46.922V46.923H0z" class="cls-1"/>
        </clipPath>
        <style>
            .cls-1{fill:#898d8d}
        </style>
    </defs>
    <g id="Group_2421" transform="translate(-24 -119)">
        <path id="Path_8017" fill="#fae7dd" d="M35 0A35 35 0 1 1 0 35 35 35 0 0 1 35 0z" transform="translate(24 119)"/>
        <g id="Group_2535" transform="translate(36 131)">
            <g id="Group_2534" clip-path="url(#clip-path)">
                <path id="Path_8018" d="M23.461 10.462a13 13 0 1 0 13 13 13.014 13.014 0 0 0-13-13m1 23.949v-9.05a5.009 5.009 0 0 0 4-4.9 1 1 0 0 0-2 0 3 3 0 0 1-6 0 1 1 0 0 0-2 0 5.009 5.009 0 0 0 4 4.9v9.05a11 11 0 1 1 2 0" class="cls-1"/>
                <path id="Path_8019" d="M46.031 27.413a3.972 3.972 0 0 1 0-7.9A1 1 0 0 0 46.9 18.3a23.8 23.8 0 0 0-3.219-7.762 1 1 0 0 0-1.468-.241 3.971 3.971 0 0 1-5.587-5.587 1 1 0 0 0-.241-1.469A23.785 23.785 0 0 0 28.621.024a1 1 0 0 0-1.208.869 3.972 3.972 0 0 1-7.9 0A1 1 0 0 0 18.3.024a23.785 23.785 0 0 0-7.763 3.218 1 1 0 0 0-.237 1.469A3.972 3.972 0 0 1 4.71 10.3a1 1 0 0 0-1.467.241A23.756 23.756 0 0 0 .024 18.3a1 1 0 0 0 .868 1.21 3.972 3.972 0 0 1 0 7.9 1 1 0 0 0-.868 1.209 23.756 23.756 0 0 0 3.219 7.762 1 1 0 0 0 1.467.241 3.972 3.972 0 0 1 5.59 5.59 1 1 0 0 0 .241 1.469A23.763 23.763 0 0 0 18.3 46.9a1 1 0 0 0 1.208-.869 3.972 3.972 0 0 1 7.9 0 1 1 0 0 0 .994.892.973.973 0 0 0 .214-.023 23.763 23.763 0 0 0 7.763-3.218 1 1 0 0 0 .241-1.469 3.971 3.971 0 0 1 5.587-5.587 1 1 0 0 0 1.468-.241 23.8 23.8 0 0 0 3.225-7.763 1 1 0 0 0-.868-1.209m-3.509 7.029a5.968 5.968 0 0 0-8.079 8.08 21.764 21.764 0 0 1-5.268 2.184 5.968 5.968 0 0 0-11.427 0 21.764 21.764 0 0 1-5.268-2.184 5.968 5.968 0 0 0-8.081-8.08 21.777 21.777 0 0 1-2.185-5.266 5.969 5.969 0 0 0 0-11.429A21.777 21.777 0 0 1 4.4 12.481 5.968 5.968 0 0 0 12.48 4.4a21.764 21.764 0 0 1 5.268-2.184 5.968 5.968 0 0 0 11.427 0A21.764 21.764 0 0 1 34.443 4.4a5.968 5.968 0 0 0 8.079 8.08 21.817 21.817 0 0 1 2.185 5.266 5.968 5.968 0 0 0 0 11.429 21.817 21.817 0 0 1-2.185 5.266" class="cls-1"/>
            </g>
        </g>
    </g>
</svg>
