<svg xmlns="http://www.w3.org/2000/svg" width="28" height="32" viewBox="0 0 28 32">
  <path id="ic-apricot" d="M14,31.524A8.8,8.8,0,0,1,11.2,32C5.015,32,0,25.508,0,17.5S5.015,3,11.2,3a8.418,8.418,0,0,1,1.8.206V1a1,1,0,0,1,2,0V3.206A8.425,8.425,0,0,1,16.8,3C22.986,3,28,9.492,28,17.5S22.986,32,16.8,32A8.8,8.8,0,0,1,14,31.524ZM15,29v.721A6.62,6.62,0,0,0,16.8,30c5.072,0,9.2-5.607,9.2-12.5S21.873,5,16.8,5a6.62,6.62,0,0,0-1.8.279V6a1,1,0,0,1-2,0V5.279A6.62,6.62,0,0,0,11.2,5C6.127,5,2,10.607,2,17.5S6.127,30,11.2,30a6.62,6.62,0,0,0,1.8-.279V29a1,1,0,0,1,2,0ZM8,17.5C8,12.805,14,9,14,9s6,3.805,6,8.5S14,26,14,26,8,22.194,8,17.5Zm2,0c0,2.329,2.367,4.728,4,6.035,1.659-1.319,4-3.7,4-6.035s-2.367-4.728-4-6.034C12.339,12.786,10,15.161,10,17.5Z"/>
</svg>
