<svg xmlns="http://www.w3.org/2000/svg" width="70" height="70" viewBox="0 0 70 70">
  <g id="ic-Breastfeeding_Confidence" data-name="ic-Breastfeeding Confidence" transform="translate(-24 -119)">
    <circle id="Ellipse_440" data-name="Ellipse 440" cx="35" cy="35" r="35" transform="translate(24 119)" fill="#fae7dd"/>
    <g id="Group_2119" data-name="Group 2119" transform="translate(-1651 -567.915)">
      <path id="Path_2152" data-name="Path 2152" d="M1702.11,707.788a.5.5,0,0,0,.649.132l5.3-3.058a.5.5,0,0,0,.211-.628l-2.537-6.013a.5.5,0,0,0-.91-.027l-1.113,2.251-1.685-.72a.5.5,0,0,0-.694.4l-.219,1.819-2.506-.162h-.035a.5.5,0,0,0-.4.8Zm.758-3.725.206-1.713,1.587.677.5-1.011.749,1.776-3,1.734-1.163-1.536Z" fill="#898d8d"/>
      <path id="Path_2153" data-name="Path 2153" d="M1723.461,730.539l-.064-.138c-.38-.838-.948-2.184-1.478-3.445-.379-.9-.739-1.755-1-2.357-.432-.985-1.577-3.6-3.916-3.6h-2.5a1.5,1.5,0,0,1-1.5-1.5c0-.02-.01-.037-.011-.057l.083-.088A.992.992,0,0,0,1714,720h.849a4,4,0,0,0,4-3.985l.075-5.015a8.972,8.972,0,0,0-8.924-9,1,1,0,0,0,0,2,6.968,6.968,0,0,1,6.924,6.985l-.075,5.015a2,2,0,0,1-2,2h-.771a10.929,10.929,0,0,0,1.649-5.273c-4.454-.636-8.272-5.727-8.272-5.727s-3.182,2.564-3.182,5.727a10.935,10.935,0,0,0,1.658,5.29.735.735,0,0,0-.082-.017H1705a2,2,0,0,1-2-2v-6.017a1,1,0,0,0-2,0V716a4,4,0,0,0,4,4h.849a.985.985,0,0,0,.955-.777c.067.078.138.146.207.22,0,.02-.011.037-.011.057a1.5,1.5,0,0,1-1.5,1.5H1703a4,4,0,0,0-4,3.826l-4,12.012V737a3.007,3.007,0,0,0,3.017,3l2.127-.035a4.979,4.979,0,0,0,8.392,4.571l3.224-3.224c.013.018.016.04.031.058a3.975,3.975,0,0,0,2.707,1.429c.126.012.251.017.375.017a3.992,3.992,0,0,0,2.4-.831V745a1,1,0,0,0,2,0v-4.956l4.348-4.359C1725.046,733.989,1723.976,731.659,1723.461,730.539ZM1707.4,709.965a17.382,17.382,0,0,0,6.131,4.253c-.576,2.311-2.272,4.782-3.526,4.782-1.533,0-3.727-3.693-3.727-6.273A4.9,4.9,0,0,1,1707.4,709.965Zm-.274,33.156a2.986,2.986,0,0,1-4.928-3.121H1706a3,3,0,0,0,3-3c0-.026-.005-.052-.005-.078s.005-.035.005-.054a2.988,2.988,0,0,0-1.518-2.592l.4-.4a2.968,2.968,0,0,1,1.263-.74h0a3.671,3.671,0,0,1,.392-.093A3,3,0,0,1,1710,733a3.035,3.035,0,0,1,.6.06c.053.011.1.034.155.047a2.933,2.933,0,0,1,.408.127c.061.026.116.064.175.094a2.922,2.922,0,0,1,.335.182,2.957,2.957,0,0,1,.449.369,3,3,0,0,1,.369.448,3.073,3.073,0,0,1,.187.344c.028.056.064.109.089.167a2.977,2.977,0,0,1,.128.412c.013.051.035.1.046.151a3.03,3.03,0,0,1,.06.6,3,3,0,0,1-.046.466,3.625,3.625,0,0,1-.093.392h0a2.958,2.958,0,0,1-.74,1.263Zm4.008-11.992a3,3,0,1,1,3.742,3.742,4.907,4.907,0,0,0-.225-.712c-.023-.058-.055-.112-.08-.169a4.939,4.939,0,0,0-.319-.607c-.05-.081-.1-.161-.157-.24a4.952,4.952,0,0,0-.507-.62c-.018-.019-.029-.04-.047-.059s-.04-.029-.059-.047a4.978,4.978,0,0,0-.62-.507c-.079-.055-.159-.107-.24-.157a4.929,4.929,0,0,0-.607-.319c-.057-.025-.111-.057-.169-.08A4.906,4.906,0,0,0,1711.129,731.129Zm11.02,3.206-4.562,4.576-.032.031-1.409,1.413a2,2,0,0,1-2.816-.262.949.949,0,0,0-.195-.158l.4-.4A22.145,22.145,0,0,1,1719,732a11.542,11.542,0,0,0-12.536.464l-1.4,1.4h-1.983l1.869-5.549a1,1,0,0,0-1.894-.638l-2.758,8.187h2.766l-.132.132H1706a.936.936,0,1,1-.017,1.868L1698,738a1,1,0,0,1-.991-.865L1701,725.162V725a2,2,0,0,1,2-2h1.551a3.494,3.494,0,0,0,3.449,3,1,1,0,0,0,0-2,1.5,1.5,0,0,1-1.462-1.175,3.5,3.5,0,0,0,2.226-2.091,3,3,0,0,0,2.472,0A3.5,3.5,0,0,0,1714.5,723h2.5c1.032,0,1.8,1.744,2.084,2.4.261.595.617,1.442.991,2.331.539,1.28,1.115,2.646,1.5,3.5l.067.145C1722.013,732.178,1722.7,733.674,1722.149,734.335Z" fill="#898d8d"/>
    </g>
  </g>
</svg>
