<svg xmlns="http://www.w3.org/2000/svg" id="Group_810" width="70" height="70" viewBox="0 0 70 70">
    <defs>
        <style>
            .cls-2{fill:#898d8d}
        </style>
    </defs>
    <circle id="Ellipse_219" cx="35" cy="35" r="35" fill="#fae7dd"/>
    <g id="Group_2186" transform="translate(-6900.139 -955.945)">
        <path id="Path_2220" d="M6950.138 971.942a3 3 0 0 0-3-3h-24.006a3 3 0 0 0-3 3v4.006a2.977 2.977 0 0 0 .783 2 3.071 3.071 0 0 0-.781 2.058l2 29.94a3 3 0 0 0 3 3h20.006a2.985 2.985 0 0 0 3-2.931l2-30.072a2.948 2.948 0 0 1 0-3.994zm-28 0a1 1 0 0 1 1-1h24.006a1 1 0 0 1 1 1v4.006a1 1 0 0 1-1 1h-24.006a1 1 0 0 1-1-1zm24 38.006a1 1 0 0 1-1 1h-20.006a1.017 1.017 0 0 1-1-1.064l-2-29.939a1 1 0 0 1 1-1h24.006a.99.99 0 0 1 1 .931z" class="cls-2"/>
        <path id="Path_2221" d="M6925.138 974.945h20a1 1 0 0 0 0-2h-20a1 1 0 0 0 0 2z" class="cls-2"/>
        <path id="Path_2222" d="M6938.138 1003.945a1 1 0 0 0 0-2h-4v-3h2a1 1 0 0 0 0-2h-2v-3h4a1 1 0 0 0 0-2h-4v-3h2a1 1 0 0 0 0-2h-2v-3h4a1 1 0 0 0 0-2h-6v22h6z" class="cls-2"/>
        <path id="Path_2223" d="M6943.868 1005.994c-.029.009-3.018.951-9.368.951-6 0-7.805-.84-7.882-.877a1 1 0 0 0-.982 1.742c.2.116 2.151 1.135 8.864 1.135s9.859-1.007 9.99-1.05a1 1 0 0 0-.622-1.9z" class="cls-2"/>
    </g>
</svg>
