<svg xmlns="http://www.w3.org/2000/svg" width="28"
     height="23.999" viewBox="0 0 28 23.999">
  <path id="ic-mybaby"
        d="M-6913.624-1252.068A3,3,0,0,1-6916-1255a3,3,0,0,1,2.376-2.932,11.959,11.959,0,0,1,2.123-4.377c.01-.016.022-.031.035-.047.173-.224.357-.439.547-.651.045-.052.092-.1.14-.155.177-.191.359-.377.549-.554.066-.064.137-.125.207-.187.184-.167.368-.33.562-.484.078-.062.162-.12.242-.181a11.794,11.794,0,0,1,1.192-.8c.078-.045.152-.1.234-.142.149-.082.3-.153.456-.229.174-.087.346-.175.526-.253.148-.064.3-.123.452-.182.192-.075.385-.148.583-.212.147-.05.3-.1.45-.139.21-.061.425-.116.64-.165.144-.033.288-.068.434-.094.243-.047.491-.082.739-.113.124-.016.247-.036.372-.049.376-.036.755-.057,1.142-.057.236,0,.469.017.7.029a2.365,2.365,0,0,1,.3-.029v.043c.048,0,.1.009.142.014.125.012.248.033.372.049.248.031.5.066.739.113.146.026.29.061.434.094.215.049.43.1.64.165.151.043.3.089.45.139.2.064.391.137.583.212.151.059.3.118.452.182.18.078.352.167.526.253.153.076.307.147.457.229.082.045.156.1.234.142a11.857,11.857,0,0,1,1.193.8c.08.061.163.118.241.181.194.154.378.318.562.484.07.063.141.123.207.187.189.177.372.363.549.554.048.052.1.1.141.155.189.212.371.427.546.651.012.016.024.031.035.047a11.959,11.959,0,0,1,2.123,4.377A3,3,0,0,1-6888-1255a3,3,0,0,1-2.376,2.933A11.994,11.994,0,0,1-6902-1243,11.994,11.994,0,0,1-6913.624-1252.068ZM-6915-1255a2.01,2.01,0,0,0,1.583,1.956l.611.128.152.606A10.978,10.978,0,0,0-6902-1244a10.978,10.978,0,0,0,10.654-8.31l.153-.606.611-.128A2.01,2.01,0,0,0-6889-1255a2,2,0,0,0-1.151-1.8,11.832,11.832,0,0,1,.151,1.8.5.5,0,0,1-.5.5.5.5,0,0,1-.5-.5,11.084,11.084,0,0,0-.221-2.189l-.109-.427a.739.739,0,0,0-.021-.083c-.075-.3-.164-.6-.264-.889v0a11,11,0,0,0-1.017-2.144c-.071-.113-.135-.231-.208-.342s-.151-.208-.226-.314c-.125-.172-.25-.345-.384-.512-.068-.083-.139-.163-.208-.245-.152-.181-.311-.356-.476-.524-.066-.068-.132-.132-.2-.2-.183-.179-.374-.351-.568-.517-.057-.049-.116-.1-.175-.148-.227-.184-.461-.361-.7-.528-.033-.023-.064-.047-.1-.069a11.016,11.016,0,0,0-1.784-.972c-.082-.036-.167-.066-.249-.1-.226-.09-.451-.175-.684-.25-.113-.036-.226-.069-.338-.1-.213-.062-.427-.118-.642-.165-.122-.03-.243-.056-.367-.08-.227-.043-.456-.076-.689-.1-.109-.014-.22-.033-.332-.043s-.236-.01-.354-.017a1.5,1.5,0,0,0-1.186,1.465,1.5,1.5,0,0,0,1.5,1.5.5.5,0,0,1,.5.5.5.5,0,0,1-.5.5,2.5,2.5,0,0,1-2.5-2.5,2.449,2.449,0,0,1,.313-1.186,2.492,2.492,0,0,0-1.312,2.185,2.5,2.5,0,0,0,2.5,2.5.5.5,0,0,1,.5.5.5.5,0,0,1-.5.5,3.5,3.5,0,0,1-3.5-3.5,3.466,3.466,0,0,1,.748-2.137c-.106.028-.211.05-.316.082s-.226.066-.338.1c-.232.075-.458.16-.684.25-.082.033-.167.063-.249.1a11.016,11.016,0,0,0-1.784.972c-.033.023-.064.047-.1.069-.243.167-.477.344-.7.528-.059.049-.118.1-.175.148-.194.167-.385.338-.568.517-.067.066-.133.132-.2.2-.165.17-.323.344-.476.524-.07.082-.141.161-.208.245-.134.167-.259.34-.383.512-.075.106-.153.207-.226.314s-.137.229-.208.342a11.029,11.029,0,0,0-1.017,2.144l0,0c-.1.29-.187.587-.262.889-.008.028-.016.056-.022.083l-.107.427A11.084,11.084,0,0,0-6913-1255a.5.5,0,0,1-.5.5.5.5,0,0,1-.5-.5,11.832,11.832,0,0,1,.151-1.8A2,2,0,0,0-6915-1255Zm9.04,4.072a.5.5,0,0,1,.425-.566.505.505,0,0,1,.566.423,3.012,3.012,0,0,0,2.97,2.571,3.012,3.012,0,0,0,2.97-2.571.506.506,0,0,1,.566-.423.5.5,0,0,1,.423.566A4.015,4.015,0,0,1-6902-1247.5,4.019,4.019,0,0,1-6905.961-1250.929ZM-6898-1255a1,1,0,0,1,1-1,1,1,0,0,1,1,1,1,1,0,0,1-1,1A1,1,0,0,1-6898-1255Zm-10,0a1,1,0,0,1,1-1,1,1,0,0,1,1,1,1,1,0,0,1-1,1A1,1,0,0,1-6908-1255Z"
        transform="translate(6916 1267)"/>
</svg>
