<svg xmlns="http://www.w3.org/2000/svg" width="159.019" height="122.161" viewBox="0 0 159.019 122.161">
    <defs>
        <style>
            .cls-10,.cls-8{fill:none}.cls-10,.cls-5,.cls-8{stroke:#898d8d}.cls-10,.cls-5{stroke-linecap:round}.cls-5{fill:#fff;stroke-linejoin:round}.cls-8{stroke-miterlimit:10}.cls-10,.cls-8{stroke-width:2px}
        </style>
    </defs>
    <g id="Group_1735" transform="translate(-103.733 -266.837)">
        <path id="Path_1866" fill="rgba(255,205,0,0.8)" d="M3.736 6.277A4.408 4.408 0 0 1 4.2 4.2a2.017 2.017 0 0 1 1.745-.827c1.378 0 2.143.949 2.143 2.664 0 2.2-1.194 3.246-3.675 3.215H4.1v5.42h3.678v-3.036c3.032-.8 4.318-2.48 4.318-5.451C12.1 2.388 9.707 0 5.941 0a6 6 0 0 0-4.686 1.929A6.811 6.811 0 0 0 0 6.277zM6 16.6a2.3 2.3 0 1 0-.09 4.59 2.186 2.186 0 0 0 2.327-2.266A2.214 2.214 0 0 0 6 16.6z" transform="rotate(28 -476.518 564.366)"/>
        <path id="Path_1867" fill="rgba(255,205,0,0.6)" d="M7.381 12.4c.181-2.238.363-3.267.907-4.114a3.985 3.985 0 0 1 3.448-1.633c2.722 0 4.235 1.875 4.235 5.263 0 4.356-2.359 6.413-7.26 6.352h-.6v10.711h7.26v-5.99c5.989-1.573 8.53-4.9 8.53-10.769C23.9 4.719 19.178 0 11.737 0 7.865 0 4.356 1.452 2.48 3.811.847 5.929.06 8.47 0 12.4zm4.477 20.39a4.538 4.538 0 1 0-.181 9.075 4.32 4.32 0 0 0 4.6-4.477 4.374 4.374 0 0 0-4.419-4.598z" transform="translate(175.263 266.837)"/>
        <path id="Path_1868" fill="none" stroke="#898d8d" stroke-dasharray="0 2" stroke-linecap="round" d="M0 30.233s3.316-6.589 7.134-14.151 12.381 3.139 7.518 6.332-9.467-2.26-4.109-5.714S11.562 0 11.562 0" opacity="0.4" transform="rotate(106 -27.598 225.034)"/>
        <g id="Group_1734" opacity="0.4" transform="translate(127.613 285.4)">
            <path id="Path_1752" d="M492.538 332.737l7.021-3.143-27.927-4.768z" class="cls-5" transform="translate(-471.632 -324.757)"/>
            <path id="Path_1753" d="M492.453 342.431v-9.9l-20.478-7.492z" class="cls-5" transform="translate(-471.671 -324.781)"/>
            <path id="Path_1751" d="M471.924 324.748l16.4 9.675v9.9z" class="cls-5" transform="translate(-471.665 -324.748)"/>
            <path id="Path_1754" fill="none" stroke="#898d8d" stroke-linecap="round" d="M490.416 335.713l4.1 7.778" transform="translate(-473.76 -325.99)"/>
        </g>
        <g id="Group_1736" opacity="0.2">
            <g id="Group_1732" transform="translate(-80.605 133.815)">
                <g id="Group_1730" transform="translate(247.273 206.378)">
                    <path id="Path_1855" d="M305.263 253.667c-2.168-3.2-1.264-7.507-2.578-11.031-.942-2.526-2.754-4.689-3.07-7.459a16.829 16.829 0 0 1 1.5-7.843 74.484 74.484 0 0 1-7.784-.062 33.084 33.084 0 0 1-11.215-3.142c-1.735-.786-3.385-2.2-5.195-3.008a9.585 9.585 0 0 1 .886 1.879 74.448 74.448 0 0 1 3.949 18.06c.069.7.135 1.411.193 2.12" class="cls-8" transform="translate(-276.92 -221.122)"/>
                </g>
                <path id="Path_1856" d="M328.966 203.854a4.6 4.6 0 0 0-6.935-1.266 7.88 7.88 0 0 0-2.243 4.286c-.451 1.713-1.061 3.39-.656 5.205a3.416 3.416 0 0 0 2.92 2.818" class="cls-8" transform="translate(-44.803 -7.688)"/>
                <path id="Path_1857" d="M395.816 191.295c1.777 2.227 3.574 4.947 3.37 7.828-.16 2.253.181 4.371-.571 6.586a7.643 7.643 0 0 1-5.44 5.405 11.416 11.416 0 0 1-8.56-.635 7.1 7.1 0 0 1-2.477-1.979 8.522 8.522 0 0 1-1.4-4.11 5.549 5.549 0 0 1 .422-3.508 4.4 4.4 0 0 1 1.567-1.478 8.234 8.234 0 0 1 5.906-.706c2.53.587 3.5 2.387 3.358 4.977a2.531 2.531 0 0 1-.759 1.88" class="cls-8" transform="translate(-67.006 -4.002)"/>
                <path id="Path_1858" d="M344.69 234.334a5.524 5.524 0 0 1-6.308-5.328" class="cls-8" transform="translate(-51.784 -17.584)"/>
                <path id="Path_1859" d="M370.734 260.622a5.524 5.524 0 0 1-5.243-6.379" class="cls-8" transform="translate(-61.524 -26.674)"/>
                <path id="Path_1860" fill="none" stroke="#898d8d" stroke-width="2px" d="M335.441 260.614c1.744-.11 2.421 1.557 1.237 2.794-.9.937-6.73 1.593-5.044-.628a6.48 6.48 0 0 1 3.807-2.166z" transform="translate(-49.244 -28.966)"/>
                <path id="Path_1861" d="M285.287 261.392c3.391-2.209 7.112-2.253 11.017-2.106a94.721 94.721 0 0 1 12.722 1.426 19.763 19.763 0 0 1 5.114 1.415 7.389 7.389 0 0 1 3.742 3.618 6.491 6.491 0 0 1 .207 4.206 5.829 5.829 0 0 1-5.189 4.449 7.376 7.376 0 0 1-4.8-1.344 11.757 11.757 0 0 1-1.2-1.364s-.587.317-.713.373a30.108 30.108 0 0 1-17.113 3.055 22.624 22.624 0 0 1-6.27-1.255 10.673 10.673 0 0 1-5.057-3.787c-3.366-4.941-1.113-11.662 1.552-16.355a33.55 33.55 0 0 1 3.933-5.355 43.77 43.77 0 0 1 10.678-9.637" class="cls-8" transform="translate(-29.334 -21.086)"/>
                <path id="Path_1862" d="M323.933 289.735q1.254-.55 2.456-1.211" class="cls-8" transform="translate(-46.58 -39.02)"/>
                <g id="Group_1731" transform="translate(194.606 230.69)">
                    <path id="Path_1863" d="M240.333 267.273a3.653 3.653 0 0 0-1.166-.737 3.947 3.947 0 0 0-1-.147c-5.544-.342-11.065-1-16.561-1.783-2.486-.356-4.968-.742-7.448-1.138a4.592 4.592 0 0 0-1.429-2.715 6.333 6.333 0 0 0-2.794-1.518 6.722 6.722 0 0 0-1.491-.116 12.6 12.6 0 0 0-6.27 1.719l.076.031a37.49 37.49 0 0 0-4.086 2.7c-3.44 2.518-4.624 6.357-2.492 10.223 3.906 7.086 12.606 4.158 17.835.578.991.742 3.361 2.047 3.6 2.187a31.393 31.393 0 0 0 20.265 3.877 22.53 22.53 0 0 0 10.3-4.315 31.124 31.124 0 0 0-7.339-8.846z" class="cls-8" transform="translate(-194.606 -259.12)"/>
                </g>
                <path id="Path_1864" d="M254.654 243.873a28.127 28.127 0 0 1 2.392-3.487c-.069-.948-.154-1.893-.246-2.832a74.447 74.447 0 0 0-3.949-18.06 6.306 6.306 0 0 0-3.4-4.053c-6.609-2.993-13.77-5.1-21.038-3.509a28.029 28.029 0 0 0-18.869 14.76q-.294.621-.534 1.246c-1.4 3.633-1.493 7.372-1.31 11.305a5.343 5.343 0 0 0 1.417 3.374 12.772 12.772 0 0 1 4.019-.688 6.722 6.722 0 0 1 1.491.116 6.334 6.334 0 0 1 2.794 1.518 4.586 4.586 0 0 1 1.426 2.7c2.481.4 4.964.781 7.451 1.138 5.5.787 11.017 1.44 16.561 1.782a3.977 3.977 0 0 1 1 .147 3.653 3.653 0 0 1 1.166.737 31.125 31.125 0 0 1 7.338 8.855l.01-.008c-2.234-4.768-.155-10.751 2.281-15.041z" class="cls-8" transform="translate(-4.691 -11.237)"/>
                <path id="Path_1865" d="M317.463 205.98a36.888 36.888 0 0 0-3.409 6.118c-1.064 2.511-2.01 5.577-1.7 8.335s2.128 4.932 3.07 7.459c1.314 3.524.41 7.83 2.578 11.031.02.029.044.052.064.081 1.34.186 2.678.389 4.011.622a19.765 19.765 0 0 1 5.114 1.415 7.389 7.389 0 0 1 3.742 3.618 5.981 5.981 0 0 1 .454 2.242c5.1 2.39 11.315 3.82 16.836 2.177 4.824-1.436 7.817-5.767 12.417-7.855 2.838-1.287 5.767-2.31 8.545-3.648a27.509 27.509 0 0 0 4.49-2.653c11.282-8.356 14.459-24.92 6.939-36.976-4.876-7.817-12.573-14.586-21.7-16.954-9.944-2.579-20.433 1.32-28.193 7.626a28.554 28.554 0 0 0-5.323 6.222" class="cls-8" transform="translate(-42.388)"/>
            </g>
            <path id="Path_1869" d="M9046.363 440.135h25.544" class="cls-10" transform="translate(-8816 -60)"/>
            <path id="Path_1870" d="M9046.363 440.135h10.174" class="cls-10" transform="translate(-8941.63 -60)"/>
        </g>
    </g>
</svg>
