<svg xmlns="http://www.w3.org/2000/svg" width="70" height="70" viewBox="0 0 70 70">
    <g transform="translate(-200 -395)">
        <circle cx="35" cy="35" r="35" fill="#fdf1d2" transform="translate(200 395)"/>
        <path fill="#898d8d" stroke="rgba(0,0,0,0)" stroke-miterlimit="10" d="M4 48a4 4 0 0 1-4-4V10a4 4 0 0 1 3-3.874V3a3 3 0 0 1 3-3h14a3 3 0 0 1 3 3v3.126A4 4 0 0 1 26 10v34a4 4 0 0 1-4 4zM2 10v34a2 2 0 0 0 2 2h18a2 2 0 0 0 2-2v-4h-5a1 1 0 1 1 0-2h5v-6h-5a1 1 0 0 1 0-2h5v-6h-5a1 1 0 0 1 0-2h5v-6h-5a1 1 0 1 1 0-2h5v-4a2 2 0 0 0-2-2H4a2 2 0 0 0-2 2zm3-7v3h16V3a1 1 0 0 0-1-1H6a1 1 0 0 0-1 1z" transform="translate(222 406)"/>
    </g>
</svg>
