<svg xmlns="http://www.w3.org/2000/svg" width="70" height="70" viewBox="0 0 70 70">
  <g id="ic-breastfeeding" transform="translate(-171 -163)">
    <circle id="Ellipse_426" data-name="Ellipse 426" cx="35" cy="35" r="35" transform="translate(171 163)"
            />
    <path id="ic-breastfeeding-2" data-name="ic-breastfeeding"
          d="M1203,568.5a8.5,8.5,0,0,0-6.609-8.282c-.012-.019-.014-.042-.028-.061a19.457,19.457,0,0,0-10.871-7.491c0-.056.008-.11.008-.166a9.537,9.537,0,1,0-.258,2.167,17.436,17.436,0,0,1,8.483,5.372A8.5,8.5,0,0,0,1186,568.5c0,.173.016.343.026.514a19.321,19.321,0,0,0-14.1,6.543A9.416,9.416,0,0,1,1171,571.5a1,1,0,0,0-2,0,11.423,11.423,0,0,0,1.882,6.285c.011.022.025.042.038.064a11.49,11.49,0,0,0,17.479,2.008,1,1,0,0,0-1.373-1.453,9.483,9.483,0,0,1-14-1.062A17.355,17.355,0,0,1,1186.376,571a8.479,8.479,0,0,0,10.877,5.531,17.5,17.5,0,1,1-30.99-15.215,1,1,0,0,0-1.625-1.164,19.5,19.5,0,1,0,34.985,15.115A8.477,8.477,0,0,0,1203,568.5Zm-27-8.5a7.5,7.5,0,1,1,7.5-7.5A7.509,7.509,0,0,1,1176,560Zm12,8.5a6.5,6.5,0,1,1,6.5,6.5A6.508,6.508,0,0,1,1188,568.5Z"
          transform="translate(-975 -369)" fill="#898d8d"/>
  </g>
</svg>

