<svg id="Horizontal" xmlns="http://www.w3.org/2000/svg" width="8" height="16" viewBox="0 0 8 16">
  <path id="Union_19" data-name="Union 19" d="M1,16a1,1,0,0,1-1-1V3A1,1,0,0,1,1,2H2V2A2,2,0,0,1,6,2V2H7A1,1,0,0,1,8,3V15a1,1,0,0,1-1,1Zm0-1H7V3H1ZM5,2V2A1,1,0,0,0,3,2V2Z" transform="translate(0 0)" fill="#898d8d"/>
  <path id="Path_8236" data-name="Path 8236" d="M.036-.176h4V10.141h-4Z" transform="translate(2 4)" fill="#ffcd00"/>
  <path id="Path_8235" data-name="Path 8235" d="M41.5,27.853H39.933l.743-4.2-2.9,5.8h1.567l-.743,4.2Z" transform="translate(-35.583 -19.646)" fill="#fff" stroke="#707070" stroke-width="0.5"/>
</svg>
