<svg xmlns="http://www.w3.org/2000/svg" width="32" height="32" viewBox="0 0 32 32">
  <g id="Button" transform="translate(-7499 1205)">
    <path id="Path_8086" data-name="Path 8086" d="M18,34A16,16,0,1,0,2,18,16,16,0,0,0,18,34ZM18,4.029c7.069,0,13.915,6.9,13.915,13.971S25.069,32,18,32,4.054,25.069,4.054,18,10.931,4.029,18,4.029Z" transform="translate(7497 -1207)"/>
    <path id="Path_8087" data-name="Path 8087" d="M158,25.077a4,4,0,1,0-4-4,4,4,0,0,0,4,4M158,19a1.945,1.945,0,0,1,2,2.077,2,2,0,1,1-4,0A1.945,1.945,0,0,1,158,19" transform="translate(7353 -1206.077)"/>
    <path id="Path_8088" data-name="Path 8088" d="M158,25.077a4,4,0,1,0-4-4,4,4,0,0,0,4,4M158,19a1.945,1.945,0,0,1,2,2.077,2,2,0,1,1-4,0A1.945,1.945,0,0,1,158,19" transform="translate(7362 -1214.077)"/>
  </g>
</svg>
