<svg xmlns="http://www.w3.org/2000/svg" width="70" height="70" viewBox="0 0 70 70">
  <g id="ic-bottle" transform="translate(-200 -395)">
    <circle id="Ellipse_111" data-name="Ellipse 111" cx="35" cy="35" r="35" transform="translate(200 395)"/>
    <path id="ic-bottle-2" data-name="ic-bottle" d="M4,48a4,4,0,0,1-4-4V10A4,4,0,0,1,3,6.126V3A3,3,0,0,1,6,0H20a3,3,0,0,1,3,3V6.126A4,4,0,0,1,26,10V44a4,4,0,0,1-4,4ZM2,10V44a2,2,0,0,0,2,2H22a2,2,0,0,0,2-2V40H19a1,1,0,1,1,0-2h5V32H19a1,1,0,0,1,0-2h5V24H19a1,1,0,0,1,0-2h5V16H19a1,1,0,1,1,0-2h5V10a2,2,0,0,0-2-2H4A2,2,0,0,0,2,10ZM5,3V6H21V3a1,1,0,0,0-1-1H6A1,1,0,0,0,5,3Z" transform="translate(222 406)" fill="#898d8d" stroke="rgba(0,0,0,0)" stroke-miterlimit="10" stroke-width="1"/>
  </g>
</svg>
