<svg xmlns="http://www.w3.org/2000/svg" width="16" height="16" viewBox="0 0 16 16">
    <g transform="translate(-312.263 -408.175)">
        <circle cx="8" cy="8" r="8" fill="#898d8d" transform="translate(312.263 408.175)"/>
        <path fill="#fff" stroke="rgba(0,0,0,0)" stroke-miterlimit="10" d="M-7384.652-8785.878a.376.376 0 0 1-.318-.426 3.014 3.014 0 0 1 2.97-2.57 3.013 3.013 0 0 1 2.97 2.57.376.376 0 0 1-.317.426.378.378 0 0 1-.424-.317 2.263 2.263 0 0 0-2.229-1.929 2.259 2.259 0 0 0-2.227 1.929.379.379 0 0 1-.376.32zm5.653-5.622a.75.75 0 0 1 .75-.751.75.75 0 0 1 .748.751.749.749 0 0 1-.748.75.749.749 0 0 1-.751-.75zm-7.5 0a.75.75 0 0 1 .75-.751.75.75 0 0 1 .748.751.749.749 0 0 1-.748.75.749.749 0 0 1-.751-.75z" transform="translate(7702.263 9206.175)"/>
    </g>
</svg>
