<svg xmlns="http://www.w3.org/2000/svg" width="70" height="70" viewBox="0 0 70 70">
  <g id="ic-backtowork" transform="translate(-24 -371)">
    <circle id="Ellipse_440" data-name="Ellipse 440" cx="35" cy="35" r="35" transform="translate(24 371)" fill="#cdf6f7"/>
    <path id="ic-backtowork-2" data-name="ic-backtowork" d="M5455-10370.5c0-.17.021-.334.026-.5H5436a2,2,0,0,1-2-2v-20a2,2,0,0,1,2-2h7v-2a3,3,0,0,1,3-3h10a3,3,0,0,1,3,3v2h7a2,2,0,0,1,2,2v9.025c.167-.008.332-.026.5-.026a13.5,13.5,0,0,1,13.5,13.5,13.5,13.5,0,0,1-13.5,13.5A13.5,13.5,0,0,1,5455-10370.5Zm13-11.477a11.487,11.487,0,0,0-10.976,10.973c0,.17-.023.334-.023.5a11.513,11.513,0,0,0,11.5,11.5,11.515,11.515,0,0,0,11.5-11.5,11.513,11.513,0,0,0-11.5-11.5C5468.331-10382,5468.167-10381.983,5468-10381.976Zm-32,8.977h19.242c.047-.262.109-.515.175-.771.034-.138.068-.273.1-.409.058-.2.118-.407.186-.605q.122-.365.264-.721c.042-.107.078-.214.125-.318a13.352,13.352,0,0,1,5.322-6.176h-6.167a2,2,0,0,1-2,2h-4.5a2,2,0,0,1-2-2H5436Zm12.75-9h4.5v-2h-4.5Zm4.5-4a2,2,0,0,1,2,2H5466v-9h-30v9h10.751a2,2,0,0,1,2-2Zm-8.25-11v2h12v-2a1,1,0,0,0-1-1h-10A1,1,0,0,0,5445-10397Zm22.5,35a1,1,0,0,1,1-1,1,1,0,0,1,1,1,1,1,0,0,1-1,1A1,1,0,0,1,5467.5-10362Zm4.382-.637a1,1,0,0,1,.368-1.367,1,1,0,0,1,1.365.365,1,1,0,0,1-.365,1.365,1,1,0,0,1-.5.135A1,1,0,0,1,5471.883-10362.638Zm-8.133.363a1,1,0,0,1-.366-1.365,1,1,0,0,1,1.365-.365,1,1,0,0,1,.365,1.367,1,1,0,0,1-.864.5A.991.991,0,0,1,5463.75-10362.274Zm11.609-3.108a1,1,0,0,1-.366-1.368,1,1,0,0,1,1.368-.365,1,1,0,0,1,.366,1.365,1,1,0,0,1-.868.5A1.008,1.008,0,0,1,5475.36-10365.383Zm-15.086-.368a1,1,0,0,1,.366-1.365,1,1,0,0,1,1.365.365,1,1,0,0,1-.365,1.368,1,1,0,0,1-.5.133A1,1,0,0,1,5460.273-10365.751Zm5.727-4.748a2.5,2.5,0,0,1,1.5-2.289V-10376a1,1,0,0,1,1-1,1,1,0,0,1,1,1v3.213a2.5,2.5,0,0,1,1.29,1.287H5473a1,1,0,0,1,1,1,1,1,0,0,1-1,1h-2.211a2.5,2.5,0,0,1-2.289,1.5A2.5,2.5,0,0,1,5466-10370.5Zm2,0a.5.5,0,0,0,.5.5.5.5,0,0,0,.5-.5.5.5,0,0,0-.5-.5A.5.5,0,0,0,5468-10370.5Zm8,0a1,1,0,0,1,1-1,1,1,0,0,1,1,1,1,1,0,0,1-1,1A1,1,0,0,1,5476-10370.5Zm-17,0a1,1,0,0,1,1-1,1,1,0,0,1,1,1,1,1,0,0,1-1,1A1,1,0,0,1,5459-10370.5Zm15.994-3.751a1,1,0,0,1,.366-1.367,1,1,0,0,1,1.368.368,1,1,0,0,1-.366,1.365,1,1,0,0,1-.5.134A1,1,0,0,1,5474.994-10374.25Zm-14.355.366a1,1,0,0,1-.366-1.365,1,1,0,0,1,1.365-.368,1,1,0,0,1,.365,1.367.994.994,0,0,1-.866.5A.994.994,0,0,1,5460.639-10373.884Zm11.612-3.111a1,1,0,0,1-.368-1.365,1,1,0,0,1,1.368-.365,1,1,0,0,1,.365,1.365,1,1,0,0,1-.867.5A1,1,0,0,1,5472.251-10377Zm-8.866-.365a1,1,0,0,1,.366-1.365,1,1,0,0,1,1.365.365,1,1,0,0,1-.365,1.365,1,1,0,0,1-.5.134A1,1,0,0,1,5463.385-10377.36Zm4.116-1.64a1,1,0,0,1,1-1,1,1,0,0,1,1,1,1,1,0,0,1-1,1A1,1,0,0,1,5467.5-10379Z" transform="translate(-5399 10785)" fill="#898d8d" stroke="rgba(0,0,0,0)" stroke-miterlimit="10" stroke-width="1"/>
  </g>
</svg>
