<svg xmlns="http://www.w3.org/2000/svg" width="70" height="70" viewBox="0 0 70 70">
    <g transform="translate(0 -8)">
        <circle cx="35" cy="35" r="35" fill="#e0e4e5" transform="translate(0 8)"/>
        <path fill="#898d8d" d="M3.322 24a4.636 4.636 0 0 1 0-8.893A19.565 19.565 0 0 1 21.076.066a5.77 5.77 0 0 1 .8-.068.5.5 0 0 1 .09.021C22.1.014 22.222 0 22.344 0c.317 0 .621.037.932.053.159-.016.312-.053.471-.053a.963.963 0 0 1 .387.09 19.585 19.585 0 0 1 17.237 15.021 4.636 4.636 0 0 1 0 8.893A19.531 19.531 0 0 1 3.322 24zm-1.465-4.443a2.794 2.794 0 0 0 2.307 2.756h.008a.914.914 0 0 1 .828.728 17.7 17.7 0 0 0 34.7 0c0-.01.008-.016.008-.031h.007a.906.906 0 0 1 .788-.7 2.789 2.789 0 0 0 1.276-4.941 21.041 21.041 0 0 1 .128 2.186.93.93 0 1 1-1.859 0 17.906 17.906 0 0 0-.348-3.451V16.1A17.719 17.719 0 0 0 23.275 1.908a2.328 2.328 0 0 0 .471 4.607.934.934 0 0 1 0 1.867 4.2 4.2 0 0 1-4.2-4.189 4.23 4.23 0 0 1 .41-1.783 3.716 3.716 0 0 0 1.92 6.9.929.929 0 1 1 0 1.857 5.58 5.58 0 0 1-4.742-8.527A17.73 17.73 0 0 0 4.65 19.557a.93.93 0 1 1-1.859 0 18.7 18.7 0 0 1 .13-2.176 2.818 2.818 0 0 0-1.064 2.176zm14.06 6.654a.928.928 0 0 1 .767-1.068.918.918 0 0 1 1.07.766 4.657 4.657 0 0 0 9.187.008.931.931 0 1 1 1.836.3 6.518 6.518 0 0 1-12.859-.01zm12.95-6.654a1.863 1.863 0 1 1 1.859 1.867 1.857 1.857 0 0 1-1.859-1.867zm-16.766 0a1.862 1.862 0 1 1 1.865 1.867 1.857 1.857 0 0 1-1.866-1.867z" transform="translate(12.679 23.85)"/>
    </g>
</svg>
