<svg xmlns="http://www.w3.org/2000/svg" width="15.996" height="15.996" viewBox="0 0 15.996 15.996">
  <g id="Group_2373" data-name="Group 2373" transform="translate(-2037.685 -3324.907)">
    <circle id="Ellipse_234" data-name="Ellipse 234" cx="7.998" cy="7.998" r="7.998" transform="translate(2037.685 3324.907)" fill="#898d8d"/>
    <g id="Group_762" data-name="Group 762" transform="translate(2040.748 3327.701)">
      <g id="Group_760" data-name="Group 760" transform="translate(0 0)">
        <path id="Path_798" data-name="Path 798" d="M2059.694,3334.288a1.926,1.926,0,0,0,1.551-1.352" transform="translate(-2055.1 -3332.936)" fill="none" stroke="#f5faff" stroke-linecap="round" stroke-linejoin="round" stroke-width="0.5"/>
        <path id="Path_799" data-name="Path 799" d="M2056.359,3341.174a1.1,1.1,0,0,0-.928-1.086,4.092,4.092,0,0,0-8.015,0,1.1,1.1,0,0,0,.166,2.189,4.068,4.068,0,0,0,7.682,0A1.1,1.1,0,0,0,2056.359,3341.174Z" transform="translate(-2046.488 -3335.471)" fill="#f5faff"/>
      </g>
      <g id="Group_761" data-name="Group 761" transform="translate(2.922 4.552)">
        <circle id="Ellipse_235" data-name="Ellipse 235" cx="0.52" cy="0.52" r="0.52" fill="#898d8d"/>
        <circle id="Ellipse_236" data-name="Ellipse 236" cx="0.52" cy="0.52" r="0.52" transform="translate(2.987)" fill="#898d8d"/>
      </g>
      <path id="Path_800" data-name="Path 800" d="M2057.034,3352.554a1.278,1.278,0,0,0,2.533,0" transform="translate(-2053.365 -3345.729)" fill="none" stroke="#898d8d" stroke-linecap="round" stroke-miterlimit="10" stroke-width="0.25"/>
    </g>
  </g>
</svg>
