<?xml version="1.0" encoding="utf-8"?>
<!-- Generator: Adobe Illustrator 24.3.0, SVG Export Plug-In . SVG Version: 6.00 Build 0)  -->
<svg version="1.1" id="Layer_1" xmlns="http://www.w3.org/2000/svg" xmlns:xlink="http://www.w3.org/1999/xlink" x="0px" y="0px"
	 viewBox="0 0 77.5 77.5" style="enable-background:new 0 0 77.5 77.5;" xml:space="preserve">
<style type="text/css">
	.st0{fill:#FFCD00;}
	.st1{fill:#1D1D1B;}
</style>
<g id="ic-track" transform="translate(-148.683 4.317)">
	<g transform="matrix(1, 0, 0, 1, 148.68, -4.32)">
		<circle id="Ellipse_261-2" class="st0" cx="38.8" cy="38.8" r="34.4"/>
	</g>
	<path id="Union_14" class="st1" d="M175.7,43.9l9.9-9.9l-9.9-9.9c-0.4-0.4-0.4-1,0-1.4c0.4-0.4,1-0.4,1.4,0l9.9,9.9l9.9-9.9
		c0.4-0.4,1-0.4,1.4,0c0.4,0.4,0.4,1,0,1.4l-9.9,9.9l9.9,9.9c0.4,0.4,0.4,1,0,1.4c-0.4,0.4-1,0.4-1.4,0l-9.9-9.9l-9.9,9.9
		c-0.4,0.4-1,0.4-1.4,0C175.3,44.9,175.3,44.3,175.7,43.9z"/>
</g>
</svg>
