<svg xmlns="http://www.w3.org/2000/svg" width="32" height="32" viewBox="0 0 32 32">
  <path id="ic-coconut" d="M18.25,31.987a1.057,1.057,0,0,1-.936-.645A11.551,11.551,0,0,1,13.5,32C6.044,32,0,24.836,0,16c0-2.049,2.314-3.856,5.841-4.939a.985.985,0,0,1-.008-.557C7.77,4.221,12.861,0,18.5,0,25.944,0,32,7.178,32,16S25.944,32,18.5,32C18.416,32,18.333,31.994,18.25,31.987ZM13.5,30c5.381,0,9.9-4.529,11.146-10.616C22.215,20.963,18.131,22,13.5,22S4.785,20.963,2.353,19.383C3.6,25.471,8.119,30,13.5,30ZM27,16a16.717,16.717,0,0,1-6.681,13.792C25.826,28.7,30,22.939,30,16,30,8.28,24.84,2,18.5,2,13.909,2,9.73,5.41,7.935,10.538A28.255,28.255,0,0,1,13.5,10C20.956,10,27,12.687,27,16ZM2,16c0,1.357,4.058,4,11.5,4S25,17.357,25,16s-4.059-4-11.5-4S2,14.643,2,16Zm1,0c0-1.657,4.7-3,10.5-3S24,14.343,24,16s-4.7,3-10.5,3S3,17.657,3,16Zm2.97,0a24.074,24.074,0,0,0,7.53,1,24.074,24.074,0,0,0,7.53-1,24.074,24.074,0,0,0-7.53-1A24.074,24.074,0,0,0,5.97,16ZM17.5,7a1,1,0,1,1,1,1A1,1,0,0,1,17.5,7Zm2-2a1,1,0,1,1,1,1A1,1,0,0,1,19.5,5Zm-4,0a1,1,0,1,1,1,1A1,1,0,0,1,15.5,5Z"/>
</svg>
