<svg xmlns="http://www.w3.org/2000/svg" width="32" height="32" viewBox="0 0 32 32">
    <circle cx="16" cy="16" r="16"  />
    <path fill="#898d8d" stroke="rgba(0,0,0,0)" stroke-miterlimit="10" d="M0 13.291a8.52 8.52 0 0 1 1.851-5.322.472.472 0 0 1 .655-.082.452.452 0 0 1 .084.643 7.626 7.626 0 0 0-1.656 4.761 7.877 7.877 0 0 0 7.943 7.792 7.877 7.877 0 0 0 7.943-7.792 7.778 7.778 0 0 0-4.39-6.965A4.22 4.22 0 0 1 8.877 8.25a4.165 4.165 0 0 1-4.2-4.125 4.206 4.206 0 0 1 8.41 0 4.043 4.043 0 0 1-.25 1.375 8.7 8.7 0 0 1 4.917 7.79A8.8 8.8 0 0 1 8.877 22 8.8 8.8 0 0 1 0 13.291zm5.606-9.166a3.271 3.271 0 0 0 6.541 0 3.271 3.271 0 0 0-6.541 0zm2.865 14.149a1.37 1.37 0 0 1-.936-1.714 1.4 1.4 0 0 1 1.341-.977 1.421 1.421 0 0 1 .407.059 1.37 1.37 0 0 1 .935 1.714 1.4 1.4 0 0 1-1.341.977 1.416 1.416 0 0 1-.406-.059zm-.041-1.449a.457.457 0 0 0 .312.571.468.468 0 0 0 .582-.306.457.457 0 0 0-.312-.571.474.474 0 0 0-.135-.02.469.469 0 0 0-.447.326zm12.345.984l-2.327-1.375a.454.454 0 0 1-.159-.629.471.471 0 0 1 .642-.156l2.327 1.375a.453.453 0 0 1 .159.629.47.47 0 0 1-.4.222.465.465 0 0 1-.243-.066zM8.411 14.667a.464.464 0 0 1-.468-.46l-.467-4.123a.464.464 0 0 1 .468-.46H9.81a.463.463 0 0 1 .468.46l-.467 4.123a.463.463 0 0 1-.468.46zm.42-.917h.092l.364-3.208h-.82zm10.325-.458a.458.458 0 1 1 0-.917h2.3a.458.458 0 1 1 0 .917zm-.867-3.43a.453.453 0 0 1 .159-.629l2.327-1.375a.471.471 0 0 1 .641.156.452.452 0 0 1-.159.629l-2.327 1.375a.473.473 0 0 1-.641-.156z" transform="translate(7 5)"/>
</svg>
