<svg xmlns="http://www.w3.org/2000/svg" width="70" height="70" viewBox="0 0 70 70">
    <defs>
        <style>
            .cls-2{fill:#898d8d}
        </style>
    </defs>
    <g id="ic-growth" transform="translate(-153 -266)">
        <circle id="Ellipse_216" cx="35" cy="35" r="35" fill="#fdf1d2" transform="translate(153 266)"/>
        <g id="Group_2531" transform="translate(219.494 -326.601)">
            <path id="Path_8011" d="M-36.173 636.33a11.148 11.148 0 0 0 3.547.922h.053a.852.852 0 0 0 .849-.8.852.852 0 0 0-.8-.9c-.039 0-3.72-.256-5.381-2.719.754-.169 1.229-.252 1.244-.256a.851.851 0 0 0 .708-.839v-1.043a6.779 6.779 0 0 0 3.8 1.163 6.822 6.822 0 0 0 6.814-6.814v-.33a2.939 2.939 0 0 0 1.278.3 2.985 2.985 0 0 0 2.981-2.981v-6.357A11.085 11.085 0 0 0-32.149 604.6a11.085 11.085 0 0 0-11.073 11.073v2.555a.825.825 0 0 0 .031.152 3 3 0 0 0-.031.3v3.346a2.984 2.984 0 0 0 2.981 2.981 2.942 2.942 0 0 0 1.278-.3v.33a6.773 6.773 0 0 0 1.419 4.146.838.838 0 0 0-.112.4v1.446a34.356 34.356 0 0 0-8.839 3.027c-4.344 2.374-4.393 11.055-4.393 11.424a.852.852 0 0 0 .852.852h17.546a.852.852 0 0 0 .726-.406.853.853 0 0 0 .034-.831zm4.024-6.177a5.116 5.116 0 0 1-5.11-5.111v-6.936h2.559a2.539 2.539 0 0 0 1.7-.664 2.539 2.539 0 0 0 1.7.664h4.259v6.053h-3.526A2.549 2.549 0 0 0-33 622.335a2.558 2.558 0 0 0-2.555 2.555v.122A2.557 2.557 0 0 0-33 627.567a2.551 2.551 0 0 0 2.4-1.7h3.491a5.114 5.114 0 0 1-5.04 4.286zm5.11-13.75H-31.3a.853.853 0 0 1-.852-.852.852.852 0 0 0-.848-.851.852.852 0 0 0-.852.852.853.853 0 0 1-.852.852h-2.555v-.73a5.116 5.116 0 0 1 5.11-5.11 5.116 5.116 0 0 1 5.11 5.11zm-5.11 8.609a.853.853 0 0 1-.852.852.853.853 0 0 1-.852-.852v-.122a.853.853 0 0 1 .852-.852.853.853 0 0 1 .852.852zm9.369-2.981a1.279 1.279 0 0 1-1.278 1.278 1.279 1.279 0 0 1-1.278-1.278v-3.346a1.279 1.279 0 0 1 1.278-1.278 1.279 1.279 0 0 1 1.278 1.278zm-9.369-15.731a9.38 9.38 0 0 1 9.369 9.369V616a2.942 2.942 0 0 0-1.278-.3 2.939 2.939 0 0 0-1.278.3v-.33a6.821 6.821 0 0 0-6.814-6.814 6.821 6.821 0 0 0-6.814 6.814v.33a2.942 2.942 0 0 0-1.278-.3 2.939 2.939 0 0 0-1.278.3v-.33a9.379 9.379 0 0 1 9.371-9.37zm-8.092 17a1.279 1.279 0 0 1-1.278-1.278v-3.346a1.279 1.279 0 0 1 1.278-1.278 1.279 1.279 0 0 1 1.278 1.278v3.346a1.279 1.279 0 0 1-1.277 1.287zm-8.919 21.324c.141-2.654.922-7.678 3.481-9.076a28.673 28.673 0 0 1 6.04-2.3l5.762 11.372z" class="cls-2"/>
            <path id="Path_8012" d="M-19.221 647.525a.851.851 0 0 0-.852.852v.784a5.965 5.965 0 0 1-5.042-5.042h.784a.852.852 0 0 0 .852-.852.851.851 0 0 0-.852-.852h-.784a5.966 5.966 0 0 1 5.042-5.043v.784a.852.852 0 0 0 .852.852.852.852 0 0 0 .852-.852v-.78a5.905 5.905 0 0 1 1.881.6l-1.029 1.029h3.407V635.6l-1.124 1.124a7.615 7.615 0 0 0-3.986-1.124 7.665 7.665 0 0 0-7.665 7.666 7.666 7.666 0 0 0 7.666 7.666.852.852 0 0 0 .852-.852v-1.7a.851.851 0 0 0-.854-.855z" class="cls-2" transform="translate(-3.558 -4.596)"/>
            <path id="Path_8013" d="M-16.379 641.85l-1.953 1.953-1.1-1.1a.851.851 0 0 0-1.2 0 .851.851 0 0 0 0 1.2l1.7 1.7a.852.852 0 0 0 .278.185.853.853 0 0 0 .318.064h.015a.857.857 0 0 0 .319-.064.849.849 0 0 0 .277-.185l2.555-2.554a.852.852 0 0 0 0-1.2.851.851 0 0 0-1.209.001z" class="cls-2" transform="translate(-4.448 -5.486)"/>
            <path id="Path_8014" d="M-2.16 649.449h-.425v-4.955a.709.709 0 0 0-.709-.709.708.708 0 0 0-.581.3l-3.964 5.662a.711.711 0 0 0 .173.989.7.7 0 0 0 .407.129H-4v.423a.709.709 0 0 0 .7.712.709.709 0 0 0 .709-.708v-.423h.423a.709.709 0 0 0 .709-.709.711.711 0 0 0-.701-.711zM-4 646.744v2.705h-1.9z" class="cls-2" transform="translate(-6.363 -5.809)"/>
            <path id="Path_8015" d="M-10.336 650.585h-2.374l2.57-3.031a2.4 2.4 0 0 0-.548-3.258 2.667 2.667 0 0 0-2-.476 2.671 2.671 0 0 0-1.752 1.08 2.66 2.66 0 0 0-.51 1.576.709.709 0 0 0 .709.709.71.71 0 0 0 .709-.71 1.263 1.263 0 0 1 .369-.9 1.26 1.26 0 0 1 .9-.375 1.257 1.257 0 0 1 .736.234.969.969 0 0 1 .245 1.273l-3.5 4.122a.7.7 0 0 0-.167.518.7.7 0 0 0 .246.48.7.7 0 0 0 .452.17h3.973a.709.709 0 0 0 .709-.708.7.7 0 0 0-.767-.704z" class="cls-2" transform="translate(-5.327 -5.809)"/>
        </g>
    </g>
</svg>
