<svg xmlns="http://www.w3.org/2000/svg" width="21.998" height="21.998" viewBox="0 0 21.998 21.998">
    <g>
        <path stroke="rgba(0,0,0,0)" stroke-miterlimit="10" d="M1.75 21A1.749 1.749 0 0 1 0 19.25V3.5a1.749 1.749 0 0 1 1.75-1.749h2.626V.876a.875.875 0 1 1 1.75 0v.875h8.749V.876a.875.875 0 0 1 1.75 0v.875h2.625A1.749 1.749 0 0 1 21 3.5v15.75A1.749 1.749 0 0 1 19.25 21zm0-1.749h17.5V8.75H1.751zM1.75 7h17.5V3.5h-2.625v.875a.875.875 0 0 1-1.75 0V3.5h-8.75v.875a.875.875 0 1 1-1.75 0V3.5H1.75zM14.4 17.5a.4.4 0 0 1-.4-.4v-1.826a.4.4 0 0 1 .4-.4h1.826a.4.4 0 0 1 .4.4V17.1a.4.4 0 0 1-.4.4zm-4.811 0a.4.4 0 0 1-.4-.4v-1.826a.4.4 0 0 1 .4-.4h1.825a.4.4 0 0 1 .4.4V17.1a.4.4 0 0 1-.4.4zm-4.812 0a.4.4 0 0 1-.4-.4v-1.826a.4.4 0 0 1 .4-.4H6.6a.4.4 0 0 1 .4.4V17.1a.4.4 0 0 1-.4.4zm9.623-4.375a.4.4 0 0 1-.4-.4V10.9a.4.4 0 0 1 .4-.4h1.826a.4.4 0 0 1 .4.4v1.825a.4.4 0 0 1-.4.4zm-4.811 0a.4.4 0 0 1-.4-.4V10.9a.4.4 0 0 1 .4-.4h1.825a.4.4 0 0 1 .4.4v1.825a.4.4 0 0 1-.4.4zm-4.812 0a.4.4 0 0 1-.4-.4V10.9a.4.4 0 0 1 .4-.4H6.6a.4.4 0 0 1 .4.4v1.825a.4.4 0 0 1-.4.4z" transform="translate(-250.868 -330.868) translate(251.367 331.367)"/>
    </g>
</svg>
