<svg xmlns="http://www.w3.org/2000/svg" width="24" height="24" viewBox="0 0 24 24">
    <g transform="translate(-308.263 -404.175)">
        <circle cx="12" cy="12" r="12" fill="#646363" transform="translate(308.263 404.175)"/>
        <path fill="#fff" stroke="rgba(0,0,0,0)" stroke-miterlimit="10" d="M-9097.738 1251.174a9 9 0 0 1 9-9 9 9 0 0 1 9 9 9 9 0 0 1-9 9 9 9 0 0 1-9-9zm9.5 7.5v.475a7.914 7.914 0 0 0 3.055-.82l-.237-.411a.5.5 0 0 1 .183-.683.5.5 0 0 1 .683.183l.24.416a8.029 8.029 0 0 0 2.237-2.238l-.416-.24a.5.5 0 0 1-.183-.683.5.5 0 0 1 .684-.183l.41.237a7.909 7.909 0 0 0 .82-3.055h-.476a.5.5 0 0 1-.5-.5.5.5 0 0 1 .5-.5h.476a7.921 7.921 0 0 0-.82-3.055l-.41.237a.5.5 0 0 1-.684-.183.5.5 0 0 1 .183-.683l.416-.24a8.028 8.028 0 0 0-2.237-2.238l-.24.416a.5.5 0 0 1-.683.183.5.5 0 0 1-.183-.683l.237-.411a7.91 7.91 0 0 0-3.055-.82v.475a.5.5 0 0 1-.5.5.5.5 0 0 1-.5-.5v-.475a7.919 7.919 0 0 0-3.055.82l.239.411a.5.5 0 0 1-.185.683.5.5 0 0 1-.683-.183l-.24-.416a8.054 8.054 0 0 0-2.237 2.238l.415.24a.5.5 0 0 1 .184.683.5.5 0 0 1-.684.183l-.41-.237a7.921 7.921 0 0 0-.82 3.055h.476a.5.5 0 0 1 .5.5.5.5 0 0 1-.5.5h-.476a7.909 7.909 0 0 0 .82 3.055l.41-.237a.5.5 0 0 1 .684.183.5.5 0 0 1-.184.683l-.415.24a8.055 8.055 0 0 0 2.237 2.238l.24-.416a.5.5 0 0 1 .683-.183.5.5 0 0 1 .185.683l-.239.411a7.923 7.923 0 0 0 3.055.82v-.475a.5.5 0 0 1 .5-.5.5.5 0 0 1 .501.501zm0-7.5h-1v-5.5a.5.5 0 0 1 .5-.5.5.5 0 0 1 .5.5v4.5h4.5a.5.5 0 0 1 .5.5.5.5 0 0 1-.5.5z" transform="translate(9409.001 -835)"/>
    </g>
</svg>
