<svg xmlns="http://www.w3.org/2000/svg" width="18.693" height="32.001" viewBox="0 0 18.693 32.001">
  <g id="Chair" transform="translate(-14.735 -6)">
    <path id="Path_8136" data-name="Path 8136" d="M33.04,23.783,31.7,21.771V8.286A2.286,2.286,0,0,0,29.413,6H18.747a2.286,2.286,0,0,0-2.286,2.286V21.771L15.12,23.783a2.232,2.232,0,0,0,.579,3.109V37.238c0,.421.611.69,1.032.69s.975-.268.975-.689v-4.1l12.694.008v4.082c0,.421.715.77,1.136.77s.926-.342.926-.763V26.907a2.244,2.244,0,0,0,.579-3.124ZM18.5,15.088l11.205.05v5.61L18.5,20.7Zm0-6.351a.762.762,0,0,1,.762-.762l9.681.05a.762.762,0,0,1,.762.762v4.38L18.5,13.054ZM17.073,24.678l1.242-1.867H30.007l1.242,1.867a.785.785,0,0,1-.67,1.166H17.705a.752.752,0,0,1-.632-1.166Zm.632,3.078,12.694.1v3.282l-12.694.008Z"/>
  </g>
</svg>
