<svg xmlns="http://www.w3.org/2000/svg" width="27" height="32" viewBox="0 0 27 32">
  <path id="ic-cherry" d="M13.132,28.441a7.5,7.5,0,1,1-2.785-11.878A20.106,20.106,0,0,1,22.885,9.255a8.617,8.617,0,0,1-3.193-1.947C16.931,4.546,17,0,17,0h.03c.4,0,4.649.063,7.278,2.692C27.066,5.451,27,9.991,27,10h0a1,1,0,0,1-1,1,5.506,5.506,0,0,0-5.5,5.5v.574a7.5,7.5,0,1,1-7.368,11.367Zm1.643-6.753c.005.023.008.046.013.068.055.229.1.461.131.7.009.062.02.122.028.184A7.794,7.794,0,0,1,15,23.5a7.48,7.48,0,0,1-.622,2.987,5.495,5.495,0,1,0,.4-4.8ZM2,23.5a5.5,5.5,0,0,0,10.783,1.515c.012-.038.021-.076.03-.113.047-.178.084-.36.114-.545.009-.057.018-.113.025-.171a5.152,5.152,0,0,0-.049-1.691l0-.031A5.5,5.5,0,0,0,2,23.5Zm10.091-5.922a7.527,7.527,0,0,1,1.782,1.983A7.472,7.472,0,0,1,18.5,17.075V16.5a7.444,7.444,0,0,1,1.477-4.45A18.109,18.109,0,0,0,12.091,17.578ZM21.106,5.894a7.453,7.453,0,0,0,3.61,1.823,7.478,7.478,0,0,0-1.822-3.611,7.469,7.469,0,0,0-3.61-1.822A7.474,7.474,0,0,0,21.106,5.894ZM3,23.5A4.506,4.506,0,0,1,7.5,19a1,1,0,1,1,0,2A2.5,2.5,0,0,0,5,23.5a1,1,0,0,1-2,0Z"/>
</svg>
