<svg id="contraction" xmlns="http://www.w3.org/2000/svg" xmlns:xlink="http://www.w3.org/1999/xlink" width="70" height="70" viewBox="0 0 70 70">
  <defs>
    <clipPath id="clip-path">
      <rect id="Rectangle_1192" data-name="Rectangle 1192" width="46.922" height="48" fill="#898d8d"/>
    </clipPath>
  </defs>
  <circle id="Ellipse_219" data-name="Ellipse 219" cx="35" cy="35" r="35" transform="translate(0 0)" fill="#e0e4e5"/>
  <g id="contraction-2" data-name="contraction" transform="translate(15 10)">
    <g id="Group_2449" data-name="Group 2449" clip-path="url(#clip-path)">
      <path id="Path_7966" data-name="Path 7966" d="M19.869,34.129a3,3,0,1,0,2,3.74,2.989,2.989,0,0,0-2-3.74m.088,3.161A1,1,0,1,1,19,36a1,1,0,0,1,.958,1.291" fill="#898d8d"/>
      <path id="Path_7967" data-name="Path 7967" d="M27.476,12a9,9,0,1,0-.872,1.8A16.992,16.992,0,1,1,5.543,18.609a1,1,0,0,0-1.582-1.222A18.821,18.821,0,0,0,0,29,19,19,0,1,0,27.476,12M19,16a7,7,0,1,1,7-7,7.009,7.009,0,0,1-7,7" fill="#898d8d"/>
      <path id="Path_7968" data-name="Path 7968" d="M45.922,27H41a1,1,0,0,0,0,2h4.922a1,1,0,0,0,0-2" fill="#898d8d"/>
      <path id="Path_7969" data-name="Path 7969" d="M40,22a.987.987,0,0,0,.515-.144l4.98-3a1,1,0,1,0-1.031-1.712l-4.981,3A1,1,0,0,0,40,22" fill="#898d8d"/>
      <path id="Path_7970" data-name="Path 7970" d="M45.5,37.144l-4.98-3a1,1,0,1,0-1.032,1.713l4.981,3a.985.985,0,0,0,.514.143,1,1,0,0,0,.517-1.856" fill="#898d8d"/>
      <path id="Path_7971" data-name="Path 7971" d="M21,21H17a1,1,0,0,0-1,1l1,9a1,1,0,0,0,1,1h2a1,1,0,0,0,1-1l1-9a1,1,0,0,0-1-1m-1.9,9h-.2l-.779-7h1.754Z" fill="#898d8d"/>
    </g>
  </g>
</svg>
