<svg xmlns="http://www.w3.org/2000/svg" width="32.705" height="31.816" viewBox="0 0 32.705 31.816">
  <g id="Cat" transform="translate(0.347 0.379)">
    <path id="Path_8121" data-name="Path 8121" d="M32.358,12.664a2.112,2.112,0,0,0-.609-1.563,2.137,2.137,0,0,0-1.633-.731,2.251,2.251,0,0,0-2.233,2.238C27.7,25.949,24.694,26.471,23.2,26.864v-.447c-.422-15.026-6.379-16.147-8.734-16.9-.227-.073-.509-.13-.625-.187A28.142,28.142,0,0,0,11.8,6.641a6.471,6.471,0,0,0,.094-1.4L11.734.594a.978.978,0,0,0-.5-.844.907.907,0,0,0-1.062.094L7.625,2.152l-1.156-.4a2.5,2.5,0,0,0-1.359,0l-1.187.4L1.453-.047A1.041,1.041,0,0,0,.328-.281.771.771,0,0,0-.25.578L-.344,5.244c-.062,2.722.969,4.3,2.094,5.131-.027.045.093.025.078.078A12.319,12.319,0,0,0,3.5,19.978v7.084a3.432,3.432,0,0,0-2.281,3.391.965.965,0,0,0,.988.984h9.344l10.684-.054a.841.841,0,0,0,.163,0C29.369,31.277,32.2,25.626,32.358,12.664ZM1.6,5.353l.1-2.478,1.484,1.25a1.014,1.014,0,0,0,.953,0L5.516,3.71A.731.731,0,0,1,6,3.71l1.69.524a1.105,1.105,0,0,0,.95-.344l1.2-1.016V5.244c.085,3.762-2.212,3.989-2.7,4.338H4.422C3.98,9.472,1.944,9.151,1.6,5.353ZM14.844,27.822c-.259-1.014-.687-3.729.3-5.244.383-.493.812-.562,1.578-.562.8-.3.828-.75.781-1.094a.936.936,0,0,0-.969-.859,3.461,3.461,0,0,0-2.969,1.344c-1.268,1.631-.906,4.313-.828,5.719-.305.1-.172.016-.187,0V19.978a.962.962,0,0,0-.969-1.01c-.347,0-.922.109-1,1.01l.016,9.428H7.039a1.834,1.834,0,0,1,1.422-.687c.323-.029.548-.572.548-.9V19.663a1.006,1.006,0,0,0-1.016-.985.939.939,0,0,0-.954.985v7.4a3.529,3.529,0,0,0-2.191,2.344H3.5a2.2,2.2,0,0,1,1.27-.687.906.906,0,0,0,.7-.766l-.016-8.289a1.554,1.554,0,0,0-.156-.57,10.8,10.8,0,0,1-1.676-7.674c.466.206.535.176.546.178a.632.632,0,0,0,.125.012l2.953.012a.634.634,0,0,0,.125-.012,6.534,6.534,0,0,0,3.64-2.722,14.515,14.515,0,0,1,1.313,1.734c.213.368.875.56,1.516.766,2.316.742,7.156,2.346,7.327,15.178v2.889h0l-8.265-.05a2.3,2.3,0,0,1,1.391-.687c.183-.017.316-.256.422-.406A.585.585,0,0,0,14.844,27.822ZM23.2,29.391v-.531c3.241-.183,6.439-2.409,6.625-16.2.063-.132-.031-.164.288-.3.168,0-.038-.047.2.078l.078.169v.057C29.919,27.145,27.552,27.859,23.2,29.391Z" transform="translate(0 0)"/>
  </g>
</svg>
