<svg xmlns="http://www.w3.org/2000/svg" width="32.982" height="33.179" viewBox="0 0 32.982 33.179">
  <g id="Chia_seed_" data-name="Chia seed " transform="translate(-38.511 4.148)">
    <path id="Path_8009" data-name="Path 8009" d="M4.4,33.03a5.075,5.075,0,0,0,4.264-1.984l1.9-2.437a16.21,16.21,0,0,1,11.507-7.823,13.812,13.812,0,0,0,6.859-3.968c4.2-4.2,4.758-11.341,1.3-14.8S19.47-.649,15.267,3.554a13.518,13.518,0,0,0-3.345,7.087,16.279,16.279,0,0,1-4.9,9.069A16.117,16.117,0,0,1,4.4,22.317l-2.56,1.36A5.338,5.338,0,0,0-.322,29.311,5.3,5.3,0,0,0,4.4,33.03Zm-.981-7.66,2-1.25a20.761,20.761,0,0,0,3.245-2.877,20.5,20.5,0,0,0,5.507-10.6A9.066,9.066,0,0,1,17.121,5.3a9.376,9.376,0,0,1,6.943-3.019,5.37,5.37,0,0,1,4.383,1.613c3.037,3.041,2.389,7.816-1.4,11.6a9.364,9.364,0,0,1-5.443,2.987,20.106,20.106,0,0,0-10.4,5.642A19.027,19.027,0,0,0,8.6,27.349L7.022,29.311a2.579,2.579,0,0,1-3.2,1.308c-1.248-.48-1.733-.8-1.983-2.342A2.641,2.641,0,0,1,3.417,25.37Zm.405.643" transform="translate(39 -4)"/>
    <path id="Path_8010" data-name="Path 8010" d="M314.707,45.948h2a3,3,0,1,0,0-6h-2a3,3,0,0,0,0,6Zm0-4h2a1,1,0,0,1,0,2h-2a1,1,0,1,1,0-2Zm0,0" transform="translate(-254.026 -40.9)"/>
    <path id="Path_8012" data-name="Path 8012" d="M310.454,116.467a3,3,0,1,0,4.243-4.243l-1.414-1.415a3.075,3.075,0,0,0-4.243,0,3,3,0,0,0,0,4.244Zm0-4.244a1,1,0,0,1,1.414,0l1.414,1.415a1,1,0,0,1-1.414,1.414l-1.414-1.414a1,1,0,0,1,0-1.415Zm0,0" transform="translate(-255.688 -102.448)"/>
    <path id="Path_8016" data-name="Path 8016" d="M378.363,150.842h2a3,3,0,0,0,0-6h-2a3,3,0,0,0,0,6Zm0-4h2a1,1,0,1,1,0,2h-2a1,1,0,1,1,0-2Zm0,0" transform="translate(-316.02 -139.226)"/>
    <path id="Path_8018" data-name="Path 8018" d="M414.028,277.353v-2a3,3,0,1,0-6,0v2a3,3,0,1,0,6,0Zm-4,0v-2a1,1,0,0,1,2,0v2a1,1,0,0,1-2,0Zm0,0" transform="translate(-343.019 -258.199)"/>
    <path id="Path_8020" data-name="Path 8020" d="M74.535,161.527l-1.568,1.567a3.217,3.217,0,1,0,4.549,4.55l1.569-1.568a3.218,3.218,0,0,0,0-4.55,3.3,3.3,0,0,0-4.549,0Zm3.491,2.274a1.21,1.21,0,0,1-.356.862L76.1,166.23a1.244,1.244,0,0,1-1.72,0,1.217,1.217,0,0,1,0-1.721l1.568-1.567a1.217,1.217,0,0,1,2.077.86Zm0,0" transform="translate(-30.872 -154.905)"/>
    <path id="Path_8021" data-name="Path 8021" d="M363.028,376.352a3,3,0,0,0,0,6h2a3,3,0,1,0,0-6Zm3,3a1,1,0,0,1-1,1h-2a1,1,0,1,1,0-2h2A1,1,0,0,1,366.028,379.353Zm0,0" transform="translate(-298.02 -353.89)"/>
    <path id="Path_8022" data-name="Path 8022" d="M280.027,403.353v2a3,3,0,0,0,6,0v-2a3,3,0,0,0-6,0Zm4,0v2a1,1,0,1,1-2,0v-2a1,1,0,0,1,2,0Zm0,0" transform="translate(-224.174 -379.89)"/>
    <path id="Path_8023" data-name="Path 8023" d="M43.028,86.353h2a3,3,0,0,0,0-6h-2a3,3,0,1,0,0,6Zm0-4h2a1,1,0,0,1,0,2h-2a1,1,0,1,1,0-2Zm0,0" transform="translate(3.973 -82.078)"/>
  </g>
</svg>
