<svg xmlns="http://www.w3.org/2000/svg" width="70" height="70" viewBox="0 0 70 70">
  <g id="ic-contentpersonalization" transform="translate(-24 -205)">
    <circle id="Ellipse_439" data-name="Ellipse 439" cx="35" cy="35" r="35" transform="translate(24 205)" fill="#eaf2de"/>
    <path id="ic-contentpersonalization-2" data-name="ic-contentpersonalization" d="M-20888-13v-8.008l-3,.005,4-4.025,4,4-3,.01v6.969a22,22,0,0,0,20.822-19.15,1.008,1.008,0,0,1,1.119-.866,1,1,0,0,1,.865,1.118A24.026,24.026,0,0,1-20887-12,1,1,0,0,1-20888-13Zm-3.4.6A23.99,23.99,0,0,1-20911-36a1,1,0,0,1,1-1h8.02l.01-3.018,4,4-4.031,4,.01-2.986h-6.963a21.971,21.971,0,0,0,17.922,20.63,1,1,0,0,1,.8,1.165,1,1,0,0,1-.986.819A1.039,1.039,0,0,1-20891.4-12.4ZM-20897-27a10,10,0,0,1,6.564-9.383A4.957,4.957,0,0,1-20892-40a5,5,0,0,1,5-5,5,5,0,0,1,5,5,4.957,4.957,0,0,1-1.564,3.616A10,10,0,0,1-20877-27Zm2.256-2h15.492a8.013,8.013,0,0,0-7.746-6A8.008,8.008,0,0,0-20894.744-29Zm4.744-11a3,3,0,0,0,3,3,3,3,0,0,0,3-3,3,3,0,0,0-3-3A3,3,0,0,0-20890-40Zm13.734.95v-3.186h-4.025a.731.731,0,0,1-.709-.745V-57.408a.58.58,0,0,1,.563-.593h16.867a.59.59,0,0,1,.57.6v14.421a.721.721,0,0,1-.7.74h-8.779l-3.014,3.574a.451.451,0,0,1-.293.115A.493.493,0,0,1-20876.266-39.05Zm-2.734-5.185h2.734a2,2,0,0,1,1.842,1.212l.42-.5a2,2,0,0,1,1.527-.714h7.479V-56h-14Zm-30.826,5.222a1.006,1.006,0,0,1-.814-1.16A23.953,23.953,0,0,1-20887-60a1,1,0,0,1,1,1v8.014l3,.01-4,4-4-4.025,3,.01v-6.969a21.934,21.934,0,0,0-20.666,18.132,1.011,1.011,0,0,1-.988.829A.952.952,0,0,1-20909.826-39.013ZM-20876-47a1,1,0,0,1-1-1,1,1,0,0,1,1-1h6a1,1,0,0,1,1,1,1,1,0,0,1-1,1Zm0-4a1,1,0,0,1-1-1,1,1,0,0,1,1-1h8a1,1,0,0,1,1,1,1,1,0,0,1-1,1Z" transform="translate(20946 276)" fill="#898d8d" stroke="rgba(0,0,0,0)" stroke-miterlimit="10" stroke-width="1"/>
  </g>
</svg>
