<svg xmlns="http://www.w3.org/2000/svg" width="23.272" height="32" viewBox="0 0 23.272 32">
  <g id="Credit_card_" data-name="Credit card " transform="translate(0 32) rotate(-90)">
    <path id="Path_8105" data-name="Path 8105" d="M4.635,291.708a4.4,4.4,0,0,0-4.371,4.368v14.533a4.4,4.4,0,0,0,4.371,4.371H27.9a4.4,4.4,0,0,0,4.368-4.371V296.076a4.4,4.4,0,0,0-4.368-4.368Zm0,2.007H27.9A3.1,3.1,0,0,1,30.21,295.9v2.641L2.281,298.52v-2.444a3.373,3.373,0,0,1,2.354-2.361Zm-2.354,6.7L30.21,300.4v10.213c0,.831-1.209,2.365-2.04,2.365l-23.536.071a3.5,3.5,0,0,1-2.373-2.436ZM25.063,306.9a1.234,1.234,0,0,0-1.344,1.214c0,.8.468,1.114,1.272,1.114s1.369-.311,1.369-1.114a1.177,1.177,0,0,0-1.3-1.214ZM6.032,308.211c.041.791.578.95,1.511.95H19.179c.993-.015,1.456-.147,1.456-.95s-.291-1.05-1.347-1.083H7.652C6.422,307.145,5.991,307.42,6.032,308.211Z" transform="translate(-0.264 -291.708)" fill-rule="evenodd"/>
  </g>
</svg>
