<svg xmlns="http://www.w3.org/2000/svg" width="70" height="70" viewBox="0 0 70 70">
    <g transform="translate(-110 -129)">
        <circle cx="35" cy="35" r="35" fill="#ffcd00" transform="translate(110 129)"/>
        <path fill="#646363" stroke="rgba(0,0,0,0)" stroke-miterlimit="10" d="M-7390.178-19.814a.822.822 0 0 1-.822-.822v-33.622a.823.823 0 0 1 .822-.822h4.919v-1.638a.822.822 0 0 1 .822-.822h4.736a3.681 3.681 0 0 1 3.464-2.46 3.677 3.677 0 0 1 3.463 2.461h4.736a.821.821 0 0 1 .821.822v1.638h4.919a.822.822 0 0 1 .822.822v33.622a.821.821 0 0 1-.822.822zm.818-1.64h26.245V-53.44h-4.1v.82a.822.822 0 0 1-.821.822h-16.4a.823.823 0 0 1-.822-.822v-.82h-4.1zm5.741-33.626v1.228a.412.412 0 0 0 .412.412h13.939a.412.412 0 0 0 .412-.412V-55.9h-5.075l-.388-1.091a2.047 2.047 0 0 0-1.918-1.371 2.049 2.049 0 0 0-1.92 1.371l-.388 1.091h-5.075zm6.563 27.885a.82.82 0 0 1-.822-.82.82.82 0 0 1 .822-.82h6.561a.82.82 0 0 1 .82.82.82.82 0 0 1-.82.82zm-9.021 0a.821.821 0 0 1-.822-.822v-4.1a.822.822 0 0 1 .822-.822h4.1a.823.823 0 0 1 .821.822v4.1a.822.822 0 0 1-.821.822zm.818-1.64h2.459V-31.3h-2.459zm8.2-2.461a.82.82 0 0 1-.822-.82.82.82 0 0 1 .822-.82h9.84a.82.82 0 0 1 .82.82.82.82 0 0 1-.82.82zm0-9.02a.82.82 0 0 1-.822-.82.822.822 0 0 1 .822-.822h6.561a.822.822 0 0 1 .82.822.82.82 0 0 1-.82.82zm-7.537-.82a.745.745 0 0 1-.543-.241l-1.538-1.64a.858.858 0 0 1 0-1.159.734.734 0 0 1 1.087 0l.992 1.057 2.508-2.7a.731.731 0 0 1 1.09-.001.86.86 0 0 1 0 1.159l-3.051 3.281a.747.747 0 0 1-.543.243zm7.537-3.281a.82.82 0 0 1-.822-.82.82.82 0 0 1 .822-.82h9.84a.82.82 0 0 1 .82.82.82.82 0 0 1-.82.82z" transform="translate(7521 203)"/>
    </g>
</svg>
