<svg xmlns="http://www.w3.org/2000/svg" width="70" height="70" viewBox="0 0 70 70">
    <g transform="translate(-24 -119)">
        <circle cx="35" cy="35" r="35" fill="#daeffa" transform="translate(24 119)"/>
        <path fill="#898d8d" d="M7337 696v-.024a22.085 22.085 0 1 1 2 0V696zm0-2.023V693h-5.266a19.846 19.846 0 0 0 5.266.976zm2 0a20 20 0 0 0 0-39.952zm-11.5-2.949V691h9.5v-1h-11q.724.548 1.5 1.027zM7337 688v-1h-14.2q.441.514.918 1zm0-3v-1h-16.326q.294.51.618 1zm0-3v-1h-17.74q.148.395.313.785l.093.216zm0-3v-1h-18.6q.1.5.23 1zm0-3v-1h-18.975q.025.5.074 1zm0-3v-1h-18.9q-.049.5-.074 1zm0-3v-1h-18.371q-.128.5-.23 1zm0-3v-1h-17.335l-.093.216q-.165.39-.312.785zm0-3v-1h-15.708q-.324.491-.618 1zm0-3v-1h-13.283q-.476.486-.917 1zm0-3v-1h-9.5v-.028q-.776.479-1.5 1.027zm0-3v-.975a19.847 19.847 0 0 0-5.266.975z" transform="translate(-7279 -519.999)"/>
    </g>
</svg>
