<svg xmlns="http://www.w3.org/2000/svg" width="19.003" height="19.003" viewBox="0 0 19.003 19.003">
    <defs>
        <style>
            .cls-1{fill:#767676}
        </style>
    </defs>
    <g id="Group_2113" transform="translate(-410.983 -332.395)">
        <path id="Path_2113" d="M429.194 346.4a.792.792 0 0 0-.792.792v4.751a.792.792 0 0 1-.791.791h-14.253a.792.792 0 0 1-.791-.791v-4.751a.792.792 0 1 0-1.584 0v4.751a2.377 2.377 0 0 0 2.375 2.375h14.254a2.377 2.377 0 0 0 2.375-2.375v-4.751a.792.792 0 0 0-.793-.792z" class="cls-1" transform="translate(0 -2.915)"/>
        <path id="Path_2114" d="M421.942 332.4l3.727 3.727a.792.792 0 0 1-1.12 1.12l-1.816-1.816v10.757a.792.792 0 0 1-1.584 0v-10.762l-1.816 1.816a.792.792 0 0 1-1.12-1.12z" class="cls-1" transform="translate(-1.458)"/>
    </g>
</svg>
