<svg xmlns="http://www.w3.org/2000/svg" width="19.002" height="17" viewBox="0 0 19.002 17">
    <path fill="#767676" stroke="rgba(0,0,0,0)" stroke-miterlimit="10" d="M-10926-46a2 2 0 0 1 2-2 2 2 0 0 1 2 2 2 2 0 0 1-2 2 2 2 0 0 1-2-2zm6 1a1 1 0 0 1-1-1 1 1 0 0 1 1-1h11a1 1 0 0 1 1 1 1 1 0 0 1-1 1zm-6-7a2 2 0 0 1 2-2 2 2 0 0 1 2 2 2 2 0 0 1-2 2 2 2 0 0 1-2-2zm6 1a1 1 0 0 1-1-1 1 1 0 0 1 1-1h11a1 1 0 0 1 1 1 1 1 0 0 1-1 1zm-6-7a2 2 0 0 1 2-2 2 2 0 0 1 2 2 2 2 0 0 1-2 2 2 2 0 0 1-2-2zm6 1a1 1 0 0 1-1-1 1 1 0 0 1 1-1h11a1 1 0 0 1 1 1 1 1 0 0 1-1 1z" transform="translate(10926.501 60.499)"/>
</svg>
