<svg xmlns="http://www.w3.org/2000/svg" width="82" height="39.001" viewBox="0 0 82 39.001">
    <g>
        <path fill="#898d8d" d="M3.855 36.889A10 10 0 0 1 9.5 19.013V17h-2a.5.5 0 0 1-.5-.5v-2a.5.5 0 0 1 .5-.5h5a.5.5 0 0 1 .5.5v2a.5.5 0 0 1-.5.5h-2v2.012a9.952 9.952 0 0 1 3.5.82V6a4 4 0 0 1 4-4h3V1a1 1 0 0 1 2 0v1h6.25V1a1 1 0 0 1 2 0v1h6.25V1a1 1 0 1 1 2 0v1h6.25V1a1 1 0 0 1 2 0v1H54V1a1 1 0 0 1 2 0v1h3a4 4 0 0 1 4 4v2h1a2 2 0 0 1 2-2h8.009A2 2 0 0 1 76 8h2a4 4 0 0 1 4 4v23a4 4 0 0 1-4 4H62a3.99 3.99 0 0 1-1.511-.3A3.909 3.909 0 0 1 59 39H18a3.959 3.959 0 0 1-2.978-1.35 10.008 10.008 0 0 1-11.171-.76zM2.9 23.469A9.009 9.009 0 0 0 4.469 36.1a9.017 9.017 0 0 0 9.991.724v-.007A9 9 0 0 0 15.532 21.9l-.045-.035A9.063 9.063 0 0 0 14 20.937a9.01 9.01 0 0 0-11.1 2.532zM62 38h16a3 3 0 0 0 3-3V12a3 3 0 0 0-3-3h-2v1h1a3 3 0 0 1 3 3v21a3 3 0 0 1-3 3H63a3 3 0 0 1-3-3V13a3 3 0 0 1 3-3h1V9h-2a3 3 0 0 0-3 3v23a2.976 2.976 0 0 0 2.657 2.968l-.012.011A3.018 3.018 0 0 0 62 38zm-44 0h41a2.974 2.974 0 0 0 .336-.02A3.954 3.954 0 0 1 58 35.019V11.982a3.975 3.975 0 0 1 .122-.982H15v9.339a10.008 10.008 0 0 1 .875 16.761A2.963 2.963 0 0 0 18 38zm43-25v21a2.006 2.006 0 0 0 2 2h14a2.006 2.006 0 0 0 2-2V13a2.007 2.007 0 0 0-2-2h-1v.005A2 2 0 0 1 74.005 13H66a2 2 0 0 1-2-1.994V11h-1a2.006 2.006 0 0 0-2 2zM8 16h4v-1H8zm58-4h8a1 1 0 0 0 1-1V8a1 1 0 0 0-.994-1H66a1 1 0 0 0-1 1v3a1 1 0 0 0 1 1zm-7.469-2a3.985 3.985 0 0 1 3.453-2H62V6a3.008 3.008 0 0 0-3-3h-3v1a1 1 0 1 1-2 0V3h-6.25v1a1 1 0 1 1-2 0V3H39.5v1a1 1 0 1 1-2 0V3h-6.25v1a1 1 0 1 1-2 0V3H23v1a1 1 0 1 1-2 0V3h-3a3.008 3.008 0 0 0-3 3v4zM55 4V3zm-8.25 0V3zM38.5 4V3zm-8.25 0V3zM22 4V3zm33-2V1v1zm-8.25 0V1v1zM38.5 2V1v1zm-8.25 0V1v1zM22 2V1v1zM5.084 35.311A8 8 0 1 1 10 37a8 8 0 0 1-4.916-1.689zM4.479 24.7A7.007 7.007 0 0 0 5.7 34.522a7 7 0 0 0 9.824-1.22 7.008 7.008 0 0 0-1.22-9.823A7 7 0 0 0 4.479 24.7zM64.5 33a.5.5 0 0 1-.5-.5v-2a.5.5 0 0 1 .5-.5h2a.5.5 0 0 1 .5.5v2a.5.5 0 0 1-.5.5zm.5-1h1v-1h-1zm-21.5 1a.5.5 0 0 1-.5-.5v-1a.5.5 0 0 1 .5-.5h1a.5.5 0 0 1 .5.5v1a.5.5 0 0 1-.5.5zm-5 0a.5.5 0 0 1-.5-.5v-1a.5.5 0 0 1 .5-.5h1a.5.5 0 0 1 .5.5v1a.5.5 0 0 1-.5.5zm-5 0a.5.5 0 0 1-.5-.5v-1a.5.5 0 0 1 .5-.5h1a.5.5 0 0 1 .5.5v1a.5.5 0 0 1-.5.5zm-5 0a.5.5 0 0 1-.5-.5v-1a.5.5 0 0 1 .5-.5h1a.5.5 0 0 1 .5.5v1a.5.5 0 0 1-.5.5zm-5 0a.5.5 0 0 1-.5-.5v-1a.5.5 0 0 1 .5-.5h1a.5.5 0 0 1 .5.5v1a.5.5 0 0 1-.5.5zm46-1a.5.5 0 0 1 0-1h6a.5.5 0 0 1 0 1zm-58.149-1.566l-.923-.53A1.007 1.007 0 0 1 10 30a.987.987 0 0 1-.614-.211 1 1 0 0 1-.382-.7l-3.753-2.155a.5.5 0 0 1 .5-.869l3.682 2.112a1 1 0 0 1 1.566.9l.853.49a.5.5 0 0 1-.5.868zM69.5 28a.5.5 0 0 1 0-1h3a.5.5 0 0 1 0 1zm-5 0a.5.5 0 0 1-.5-.5v-2a.5.5 0 0 1 .5-.5h2a.5.5 0 0 1 .5.5v2a.5.5 0 0 1-.5.5zm.5-1h1v-1h-1zm-11.5 1a.5.5 0 0 1-.5-.5v-1a.5.5 0 0 1 .5-.5h1a.5.5 0 0 1 .5.5v1a.5.5 0 0 1-.5.5zm-10 0a.5.5 0 0 1-.5-.5v-1a.5.5 0 0 1 .5-.5h1a.5.5 0 0 1 .5.5v1a.5.5 0 0 1-.5.5zm-5 0a.5.5 0 0 1-.5-.5v-1a.5.5 0 0 1 .5-.5h1a.5.5 0 0 1 .5.5v1a.5.5 0 0 1-.5.5zm-5 0a.5.5 0 0 1-.5-.5v-1a.5.5 0 0 1 .5-.5h1a.5.5 0 0 1 .5.5v1a.5.5 0 0 1-.5.5zm-5 0a.5.5 0 0 1-.5-.5v-1a.5.5 0 0 1 .5-.5h1a.5.5 0 0 1 .5.5v1a.5.5 0 0 1-.5.5zm-5 0a.5.5 0 0 1-.5-.5v-1a.5.5 0 0 1 .5-.5h1a.5.5 0 0 1 .5.5v1a.5.5 0 0 1-.5.5zm46-2a.5.5 0 0 1 0-1h6a.5.5 0 0 1 0 1zm0-3a.5.5 0 0 1 0-1h3a.5.5 0 0 1 0 1zm-5 0a.5.5 0 0 1-.5-.5v-2a.5.5 0 0 1 .5-.5h2a.5.5 0 0 1 .5.5v2a.5.5 0 0 1-.5.5zm.5-1h1v-1h-1zm-11.5 1a.5.5 0 0 1-.5-.5v-1a.5.5 0 0 1 .5-.5h1a.5.5 0 0 1 .5.5v1a.5.5 0 0 1-.5.5zm-5 0a.5.5 0 0 1-.5-.5v-1a.5.5 0 0 1 .5-.5h1a.5.5 0 0 1 .5.5v1a.5.5 0 0 1-.5.5zm-5 0a.5.5 0 0 1-.5-.5v-1a.5.5 0 0 1 .5-.5h1a.5.5 0 0 1 .5.5v1a.5.5 0 0 1-.5.5zm-5 0a.5.5 0 0 1-.5-.5v-1a.5.5 0 0 1 .5-.5h1a.5.5 0 0 1 .5.5v1a.5.5 0 0 1-.5.5zm-5 0a.5.5 0 0 1-.5-.5v-1a.5.5 0 0 1 .5-.5h1a.5.5 0 0 1 .5.5v1a.5.5 0 0 1-.5.5zm-5 0a.5.5 0 0 1-.5-.5v-1a.5.5 0 0 1 .5-.5h1a.5.5 0 0 1 .5.5v1a.5.5 0 0 1-.5.5zm-5 0a.5.5 0 0 1-.5-.5v-1a.5.5 0 0 1 .5-.5h1a.5.5 0 0 1 .5.5v1a.5.5 0 0 1-.5.5zm-4.947-1.668a11.4 11.4 0 0 0-2.2-1.916.5.5 0 1 1 .552-.833 12.39 12.39 0 0 1 2.395 2.084.5.5 0 1 1-.746.666zm-17.816.04a.5.5 0 0 1-.037-.706 12.59 12.59 0 0 1 2.4-2.083.5.5 0 1 1 .553.833 11.555 11.555 0 0 0-2.209 1.917.5.5 0 0 1-.706.039zM69.5 21a.5.5 0 0 1 0-1h6a.5.5 0 0 1 0 1zm0-3a.5.5 0 0 1 0-1h3a.5.5 0 0 1 0 1zm-5 0a.5.5 0 0 1-.5-.5v-2a.5.5 0 0 1 .5-.5h2a.5.5 0 0 1 .5.5v2a.5.5 0 0 1-.5.5zm.5-1h1v-1h-1zm-11.5 1a.5.5 0 0 1-.5-.5v-1a.5.5 0 0 1 .5-.5h1a.5.5 0 0 1 .5.5v1a.5.5 0 0 1-.5.5zm-5 0a.5.5 0 0 1-.5-.5v-1a.5.5 0 0 1 .5-.5h1a.5.5 0 0 1 .5.5v1a.5.5 0 0 1-.5.5zm-5 0a.5.5 0 0 1-.5-.5v-1a.5.5 0 0 1 .5-.5h1a.5.5 0 0 1 .5.5v1a.5.5 0 0 1-.5.5zm-5 0a.5.5 0 0 1-.5-.5v-1a.5.5 0 0 1 .5-.5h1a.5.5 0 0 1 .5.5v1a.5.5 0 0 1-.5.5zm31-2a.5.5 0 0 1 0-1h6a.5.5 0 0 1 0 1z" transform="translate(-294 19) translate(294 -19)"/>
        <path fill="#ffcd00" d="M3 6a3 3 0 1 1 3-3 3 3 0 0 1-3 3zm0-2.25a.5.5 0 1 0 .5.5.5.5 0 0 0-.5-.5zm0-2.5a.5.5 0 0 0-.5.5v1a.5.5 0 0 0 1 0v-1a.5.5 0 0 0-.5-.5z" transform="translate(-294 19) translate(340 5)"/>
    </g>
</svg>
