<svg xmlns="http://www.w3.org/2000/svg" width="25.6" height="32" viewBox="0 0 25.6 32">
  <g id="Earphones" transform="translate(-93 -136.043)">
    <g id="Group_2611" data-name="Group 2611" transform="translate(79 -821.362)">
      <path id="Path_8089" data-name="Path 8089" d="M18.622,957.405a4.62,4.62,0,1,0,0,9.24,1.108,1.108,0,0,0,1.067-1.066H20.4V967a2.867,2.867,0,0,0,1.778,2.632v18.691a1.067,1.067,0,1,0,2.133,0V969.633A2.867,2.867,0,0,0,26.089,967v-5.686a2.861,2.861,0,0,0-2.844-2.843H19.689a1.108,1.108,0,0,0-1.067-1.066Zm-1.067,2.377v4.476a2.472,2.472,0,0,1,0-4.476Zm2.133.822H20.4v2.843h-.711Zm2.844,0h.711a.687.687,0,0,1,.711.711V967a.711.711,0,0,1-1.422,0Zm12.333,4.62a1.1,1.1,0,0,0-.956,1.066H30.356a2.861,2.861,0,0,0-2.844,2.843v5.686a2.867,2.867,0,0,0,1.778,2.632v10.873a1.067,1.067,0,1,0,2.133,0V977.451a2.867,2.867,0,0,0,1.778-2.632V973.4h.711a1.108,1.108,0,0,0,1.067,1.066,4.62,4.62,0,1,0,0-9.24C34.941,965.222,34.9,965.222,34.867,965.224Zm1.178,2.377a2.472,2.472,0,0,1,0,4.476Zm-5.689.822h.711v6.4a.711.711,0,0,1-1.422,0v-5.686a.687.687,0,0,1,.711-.711Zm2.844,0h.711v2.843H33.2Z"/>
    </g>
  </g>
</svg>
