<svg xmlns="http://www.w3.org/2000/svg" width="70" height="70" viewBox="0 0 70 70">
  <g id="ic-equipment-life-newborn" transform="translate(-24 -119)">
    <circle id="Ellipse_343" data-name="Ellipse 343" cx="35" cy="35" r="35" transform="translate(24 119)" fill="#eddced"/>
    <path id="Path_7879" data-name="Path 7879" d="M44.948,26.152a1,1,0,0,0-.8-.67l-2.99-.458-1.253-2.68V14.653a1,1,0,0,0-.548-.892c-.232-.118-5.652-2.791-15.86-2.96V8.685a4.4,4.4,0,1,0-2,0V10.8c-10.208.169-15.628,2.842-15.861,2.96a1,1,0,0,0-.548.892v7.691l-1.252,2.68-2.991.458a1,1,0,0,0-.565,1.685l2.195,2.257-.52,3.2A1,1,0,0,0,3.43,33.659l2.661-1.476L8.754,33.66a1,1,0,0,0,1.472-1.036l-.52-3.2L11.9,27.167a1,1,0,0,0-.565-1.685l-2.991-.458L7.091,22.346V15.3a31.784,31.784,0,0,1,6.2-1.723v2.46a3.829,3.829,0,1,0,2,0V13.262a52.124,52.124,0,0,1,6.2-.464V27.309a8.482,8.482,0,0,0-1.181.222,1,1,0,0,0-.042,1.921,4.09,4.09,0,1,1-4.329,6.523,1,1,0,0,0-1.758.775,8.353,8.353,0,1,0,9.31-9.435V12.8a52.14,52.14,0,0,1,6.2.464v2.779a3.829,3.829,0,1,0,2,0v-2.46a31.789,31.789,0,0,1,6.2,1.723v7.042l-1.254,2.678-2.99.458a1,1,0,0,0-.566,1.685l2.2,2.257-.521,3.2a1,1,0,0,0,.987,1.161,1.014,1.014,0,0,0,.486-.125l2.662-1.477,2.661,1.476a1,1,0,0,0,1.473-1.035l-.521-3.2,2.195-2.257a1,1,0,0,0,.232-1.015M9.114,27.164,7.921,28.391a1,1,0,0,0-.271.857l.271,1.663-1.344-.747a1.014,1.014,0,0,0-.486-.125,1,1,0,0,0-.485.126l-1.344.746.271-1.663a1,1,0,0,0-.271-.857L3.07,27.164l1.6-.245a1,1,0,0,0,.754-.564l.667-1.428.669,1.428a1,1,0,0,0,.754.564Zm7.011-7.434A1.83,1.83,0,1,1,14.3,17.892a1.836,1.836,0,0,1,1.829,1.838M20.1,4.406a2.395,2.395,0,1,1,2.4,2.4,2.4,2.4,0,0,1-2.4-2.4m8.713,31.216a6.345,6.345,0,0,1-11.639,3.531,5.98,5.98,0,0,0,1.889.306,6.1,6.1,0,0,0,4.6-10.1,6.382,6.382,0,0,1,5.151,6.263M32.533,19.73A1.829,1.829,0,1,1,30.7,17.892a1.835,1.835,0,0,1,1.829,1.838m8.2,8.661a1,1,0,0,0-.271.857l.271,1.663-1.344-.746a1,1,0,0,0-.97,0l-1.344.747.27-1.663a1,1,0,0,0-.27-.857l-1.194-1.227,1.6-.245a1,1,0,0,0,.754-.564l.669-1.428.667,1.428a1,1,0,0,0,.755.564l1.6.245Z" transform="translate(37 132)" fill="#898d8d"/>
  </g>
</svg>
