<svg xmlns="http://www.w3.org/2000/svg" id="Group_2450" width="117.143" height="94.548" viewBox="0 0 117.143 94.548">
    <defs>
        <style>
            .cls-1{fill:#898d8d}.cls-2{fill:#ffcd00}.cls-3{fill:rgba(137,141,141,.4)}
        </style>
    </defs>
    <g id="Group_2452">
        <path id="Path_7965" d="M15.943 114.621v-2.73H19.2a.543.543 0 0 0 .543-.543v-3.8A.543.543 0 0 0 19.2 107h-7.6a.543.543 0 0 0-.543.543v3.8a.543.543 0 0 0 .543.543h3.26v2.73a14.4 14.4 0 1 0 1.087 0m-3.8-6.534h6.513v2.718h-6.521zM15.4 142.32a13.313 13.313 0 1 1 13.313-13.313A13.327 13.327 0 0 1 15.4 142.32" class="cls-1" transform="translate(-.457 -48.859)"/>
        <path id="Path_7966" d="M17.683 126a11.683 11.683 0 1 0 11.683 11.683A11.7 11.7 0 0 0 17.683 126m0 22.279a10.6 10.6 0 1 1 10.6-10.6 10.608 10.608 0 0 1-10.6 10.6" class="cls-1" transform="translate(-2.74 -57.534)"/>
        <path id="Path_7967" d="M47 123.266a.543.543 0 0 0-.7.832 16.08 16.08 0 0 1 3.579 4.265.543.543 0 1 0 .94-.544A17.133 17.133 0 0 0 47 123.266" class="cls-1" transform="translate(-21.051 -56.228)"/>
        <path id="Path_7968" d="M1.1 128.363a16.07 16.07 0 0 1 3.582-4.263.543.543 0 1 0-.7-.832 17.132 17.132 0 0 0-3.819 4.552.543.543 0 1 0 .94.544" class="cls-1" transform="translate(-.041 -56.228)"/>
        <path id="Path_7969" d="M23.054 142.286a1.352 1.352 0 0 0-1.262-1.852 1.343 1.343 0 0 0-.494.1l-5.371-5.371a.543.543 0 1 0-.768.768l5.371 5.369a1.352 1.352 0 0 0 1.756 1.756l1.567 1.567a.543.543 0 1 0 .768-.768z" class="cls-1" transform="translate(-6.849 -61.644)"/>
        <path id="Path_7970" d="M165.683 69a11.683 11.683 0 1 0 11.683 11.683A11.7 11.7 0 0 0 165.683 69m0 22.279a10.6 10.6 0 1 1 10.6-10.6 10.608 10.608 0 0 1-10.6 10.6" class="cls-1" transform="translate(-70.32 -31.507)"/>
        <path id="Path_7971" d="M116.347 65.981l-8.934-8.935a14.356 14.356 0 0 0 .176-15.465V2.715A2.724 2.724 0 0 0 104.862 0H2.726A2.724 2.724 0 0 0 0 2.715v40.757a2.724 2.724 0 0 0 2.726 2.715h13.586l.073 8.7a.543.543 0 0 0 .922.385l9.361-9.084h54.61a14.376 14.376 0 0 0 0 5.977H44.012A2.718 2.718 0 0 0 41.3 54.88v5.629l-8.526 8.106a.544.544 0 0 0 .375.937H41.3v22.28a2.718 2.718 0 0 0 2.715 2.715H99.44a2.718 2.718 0 0 0 2.715-2.715V61.869l.06-.03 9.138 9.137a2.715 2.715 0 0 0 3.84 0l1.154-1.154a2.715 2.715 0 0 0 0-3.84m-20.984-3.493a13.313 13.313 0 1 1 13.313-13.313 13.327 13.327 0 0 1-13.313 13.313M26.447 45.1a.545.545 0 0 0-.379.153l-8.607 8.353-.067-7.968a.544.544 0 0 0-.543-.538H2.726a1.636 1.636 0 0 1-1.639-1.629V2.715a1.636 1.636 0 0 1 1.639-1.628h102.136a1.636 1.636 0 0 1 1.64 1.629v37.346A14.39 14.39 0 0 0 81.555 45.1zm74.621 46.732a1.631 1.631 0 0 1-1.629 1.629H44.012a1.631 1.631 0 0 1-1.629-1.629V69.009a.543.543 0 0 0-.543-.543h-7.334l7.708-7.33a.543.543 0 0 0 .169-.394V54.88a1.631 1.631 0 0 1 1.629-1.629h37.543a14.39 14.39 0 0 0 19.514 9.143zm14.51-22.78l-1.154 1.154a1.667 1.667 0 0 1-2.3 0l-8.946-8.945a14.5 14.5 0 0 0 3.6-3.318l8.8 8.805a1.629 1.629 0 0 1 0 2.3" class="cls-1"/>
        <path id="Path_7972" d="M174.676 76.5h-1.092a1.085 1.085 0 0 0-1.084 1.084v8.7a1.085 1.085 0 0 0 1.084 1.084h1.092a1.085 1.085 0 0 0 1.084-1.084v-8.7a1.085 1.085 0 0 0-1.084-1.084" class="cls-2" transform="translate(-78.767 -34.932)"/>
        <path id="Path_7973" d="M174.676 98h-1.092a1.085 1.085 0 0 0-1.084 1.084v1.092a1.085 1.085 0 0 0 1.084 1.084h1.092a1.085 1.085 0 0 0 1.084-1.084v-1.092A1.085 1.085 0 0 0 174.676 98" class="cls-2" transform="translate(-78.767 -44.749)"/>
        <path id="Path_7974" d="M15.543 22.174h90.2a.543.543 0 0 0 .543-.543v-1.088a.543.543 0 0 0-.543-.543h-90.2a.543.543 0 0 0-.543.543v1.087a.543.543 0 0 0 .543.543" class="cls-1" transform="translate(-6.849 -9.132)"/>
        <path id="Path_7975" d="M15.543 40.174h90.2a.543.543 0 0 0 .543-.543v-1.088a.543.543 0 0 0-.543-.543h-90.2a.543.543 0 0 0-.543.543v1.087a.543.543 0 0 0 .543.543" class="cls-3" transform="translate(-6.849 -17.352)"/>
        <path id="Path_7976" d="M15.543 50.174h90.2a.543.543 0 0 0 .543-.543v-1.088a.543.543 0 0 0-.543-.543h-90.2a.543.543 0 0 0-.543.543v1.087a.543.543 0 0 0 .543.543" class="cls-3" transform="translate(-6.849 -21.918)"/>
        <path id="Path_7977" d="M106.288 59.63v-1.087a.543.543 0 0 0-.543-.543h-90.2a.543.543 0 0 0-.543.543v1.087a.543.543 0 0 0 .543.543h90.2a.543.543 0 0 0 .543-.543" class="cls-3" transform="translate(-6.849 -26.484)"/>
        <path id="Path_7978" d="M90.543 116.174h35.863a.543.543 0 0 0 .543-.543v-1.087a.543.543 0 0 0-.543-.543H90.543a.543.543 0 0 0-.543.543v1.087a.543.543 0 0 0 .543.543" class="cls-1" transform="translate(-41.096 -52.055)"/>
        <path id="Path_7979" d="M134.557 132H90.543a.543.543 0 0 0-.543.543v1.087a.543.543 0 0 0 .543.543h44.014a.543.543 0 0 0 .543-.543v-1.087a.543.543 0 0 0-.543-.543" class="cls-3" transform="translate(-41.096 -60.274)"/>
        <path id="Path_7980" d="M134.557 142H90.543a.543.543 0 0 0-.543.543v1.087a.543.543 0 0 0 .543.543h44.014a.543.543 0 0 0 .543-.543v-1.087a.543.543 0 0 0-.543-.543" class="cls-3" transform="translate(-41.096 -64.84)"/>
        <path id="Path_7981" d="M134.557 152H90.543a.543.543 0 0 0-.543.543v1.087a.543.543 0 0 0 .543.543h44.014a.543.543 0 0 0 .543-.543v-1.087a.543.543 0 0 0-.543-.543" class="cls-3" transform="translate(-41.096 -69.406)"/>
    </g>
</svg>
