<svg xmlns="http://www.w3.org/2000/svg" width="40" height="40" viewBox="0 0 40 40">
    <g>
        <path fill="rgba(137,141,141,0)" d="M0 0H40V40H0z" transform="translate(-65 -44) translate(65 44)"/>
        <path fill="#ef0053" d="M880.5 2033.082a5.48 5.48 0 0 1 .652-.037 7.179 7.179 0 0 1 4.992 2.176l2.455 2 2.459-2a7.041 7.041 0 0 1 5.644-2.14 4.432 4.432 0 0 1 3.4 2.226c4.668 7.914-8.384 17.816-11.5 20.025-3.118-2.209-16.17-12.111-11.5-20.025a4.435 4.435 0 0 1 3.398-2.225z" transform="translate(-65 -44) translate(-803.107 -1980.044)"/>
    </g>
</svg>
