<svg xmlns="http://www.w3.org/2000/svg" width="70" height="70" viewBox="0 0 70 70">
    <defs>
        <clipPath id="clip-path">
            <path id="Rectangle_1243" d="M0 0H39.758V39.948H0z" class="cls-1"/>
        </clipPath>
        <style>
            .cls-1{fill:#898d8d}
        </style>
    </defs>
    <g id="ic-growth" transform="translate(-153 -266)">
        <circle id="Ellipse_216" cx="35" cy="35" r="35" fill="#eddced" transform="translate(153 266)"/>
        <g id="Group_2515" transform="translate(167.271 280.277)">
            <g id="Group_2514" clip-path="url(#clip-path)">
                <path id="Path_8000" d="M39.713 38.809l-2.059-6.155a12.688 12.688 0 0 0-7.515-19.3A15.119 15.119 0 1 0 2.555 23.531l-2.51 7.5a.864.864 0 0 0 1.129 1.081L9.2 29.04a15 15 0 0 0 5.929 1.207c.034 0 .067-.005.1-.005a12.7 12.7 0 0 0 16.754 7.121l6.6 2.527a.851.851 0 0 0 .309.057.863.863 0 0 0 .819-1.138M8.913 27.3l-6.649 2.544 2.066-6.175a.865.865 0 0 0-.116-.776 13.376 13.376 0 1 1 5.366 4.426.868.868 0 0 0-.667-.021m23.355 8.323a.867.867 0 0 0-.667.021 10.971 10.971 0 0 1-14.56-5.53A15.137 15.137 0 0 0 30.25 15.167a10.967 10.967 0 0 1 5.744 16.851.862.862 0 0 0-.116.776l1.615 4.827z" class="cls-1"/>
                <path id="Path_8001" d="M18.226 18.609a4.6 4.6 0 0 1 1.209-1.309 11.89 11.89 0 0 0 2.294-2.3 3.169 3.169 0 0 0 .513-1.717 3.8 3.8 0 0 0-1.416-2.906A5.655 5.655 0 0 0 16.958 9.1a5.449 5.449 0 0 0-3.727 1.248 4.276 4.276 0 0 0-1.5 2.816l2.289.283a3.489 3.489 0 0 1 1.058-1.864 3.008 3.008 0 0 1 2-.686 2.879 2.879 0 0 1 1.983.664 2.115 2.115 0 0 1 .754 1.625 2.042 2.042 0 0 1-.43 1.256 12.659 12.659 0 0 1-1.568 1.4 6.32 6.32 0 0 0-1.652 1.806 4.468 4.468 0 0 0-.4 2.027c0 .067 0 .227.007.482H18a3.859 3.859 0 0 1 .226-1.555" class="cls-1" transform="translate(-1.593 -1.236)"/>
                <path id="Rectangle_1242" d="M0 0H2.495V2.495H0z" class="cls-1" transform="translate(14.185 20.369)"/>
            </g>
        </g>
    </g>
</svg>
