<svg xmlns="http://www.w3.org/2000/svg" width="26.666" height="32" viewBox="0 0 26.666 32">
  <g id="Finger_nail_" data-name="Finger nail " transform="translate(-16.667 -10)">
    <path id="Path_8085" data-name="Path 8085" d="M38,18.018v-4.7a11.311,11.311,0,0,0-16,0v4.7a13.3,13.3,0,0,0-5.333,10.648V42H43.332V28.666A13.3,13.3,0,0,0,38,18.018ZM24,14.25a11.408,11.408,0,0,1,6.156-2.172A10.72,10.72,0,0,1,36.079,14.3l.069,16.464a24.321,24.321,0,0,1-6.158,1.142h0a23.449,23.449,0,0,1-6.033-1.126L24,14.25ZM41.417,40.062l-22.468-.2-.2-11.194A12.889,12.889,0,0,1,22,21.005V32.4a20.837,20.837,0,0,0,16,0V20.834c1.654,1.88,3.417,5.047,3.417,7.742V40.062Z" transform="translate(0 0)"/>
  </g>
</svg>
