<svg xmlns="http://www.w3.org/2000/svg" width="70" height="70" viewBox="0 0 70 70">
    <g transform="translate(-28 -129)">
        <circle cx="35" cy="35" r="35" fill="#ffcd00" transform="translate(28 129)"/>
        <path fill="#646363" d="M229.958 609.115a.853.853 0 0 0-.151.014l-9.854 1.857-7.74-4.468 7.74-4.468 9.853 1.856a.8.8 0 0 0 .152.015.821.821 0 0 0 .152-1.627l-7.976-1.5 5.9-3.4a.82.82 0 0 0-.411-1.53.7.7 0 0 0-.1.007.814.814 0 0 0-.308.1l-5.9 3.4 2.685-7.66a.821.821 0 0 0-.5-1.045.8.8 0 0 0-.271-.047.821.821 0 0 0-.773.548l-3.319 9.462-7.74 4.468v-8.937l6.535-7.6a.821.821 0 0 0-1.244-1.07l-5.291 6.157v-6.808a.82.82 0 1 0-1.64 0v6.808l-5.289-6.156a.821.821 0 0 0-1.245 1.069l6.534 7.6v8.94l-7.739-4.468-3.319-9.461a.82.82 0 0 0-1.548.542l2.687 7.66-5.9-3.4a.82.82 0 0 0-.9.056.82.82 0 0 0 .084 1.365l5.9 3.4-7.976 1.5a.821.821 0 0 0 .152 1.627.859.859 0 0 0 .151-.014l9.854-1.857 7.739 4.468-7.739 4.468-9.853-1.856a.8.8 0 0 0-.152-.015.82.82 0 0 0-.153 1.626l7.977 1.5-5.9 3.4a.818.818 0 0 0-.3 1.12.823.823 0 0 0 .71.41.683.683 0 0 0 .1-.007.816.816 0 0 0 .309-.1l5.9-3.4-2.687 7.659a.822.822 0 0 0 .5 1.045.812.812 0 0 0 .272.047.821.821 0 0 0 .773-.548l3.319-9.462 7.739-4.468v8.937l-6.534 7.6a.821.821 0 0 0 1.245 1.069l5.289-6.156v6.813a.82.82 0 1 0 1.64 0v-6.808l5.29 6.156a.821.821 0 0 0 1.245-1.069l-6.535-7.6v-8.937l7.74 4.468 3.318 9.461a.823.823 0 0 0 .774.549.812.812 0 0 0 .272-.047.821.821 0 0 0 .5-1.045l-2.686-7.659 5.9 3.4a.811.811 0 0 0 .309.1.683.683 0 0 0 .1.007.823.823 0 0 0 .71-.41.82.82 0 0 0-.3-1.12l-5.9-3.4 7.976-1.5a.821.821 0 0 0-.152-1.627z" transform="translate(-147.369 -443.014)"/>
    </g>
</svg>
