<svg xmlns="http://www.w3.org/2000/svg" width="70" height="70" viewBox="0 0 70 70">
    <defs>
        <style>
            .cls-2{fill:#898d8d}
        </style>
    </defs>
    <g id="ic-formula" transform="translate(-281 -163)">
        <circle id="Ellipse_427" cx="35" cy="35" r="35" fill="rgba(137,141,141,0.2)" transform="translate(281 163)"/>
        <g id="Group_2185" transform="translate(-6547.139 -793.188)">
            <path id="Path_2218" d="M6878.062 989.458a1.967 1.967 0 0 0 .076-.517v-1.993a2 2 0 0 0-2-2h-12.993a2 2 0 0 0-2 2v1.993a1.967 1.967 0 0 0 .076.517 3.982 3.982 0 0 0-2.076 3.486v18a4 4 0 0 0 4 4h13a4 4 0 0 0 4-4v-18a3.982 3.982 0 0 0-2.083-3.486zm-14.921-2.513h12.993v2h-13zm0 4h13a2 2 0 0 1 2 2v2h-5a1 1 0 0 0 0 2h5v4.016c-1.137.182-3.812.316-8.181-1.157-4.271-1.442-7.183-1.086-8.819-.58v-6.28a2 2 0 0 1 1.996-1.999zm13 22h-13a2 2 0 0 1-2-2v-9.593c.963-.421 3.622-1.19 8.18.346a23.016 23.016 0 0 0 7.3 1.371 12.047 12.047 0 0 0 1.518-.092v3.967h-5a1 1 0 0 0 0 2h5v2a2 2 0 0 1-2 2.001z" class="cls-2"/>
            <path id="Path_2219" d="M6863.487 977.909a6.27 6.27 0 0 0 6.165 5.036c.2 0 .4-.01.6-.029a6.451 6.451 0 0 0 5.665-6.476v-2a1.5 1.5 0 0 0-1.466-1.494 12.4 12.4 0 0 0-4.106-4.537 1.226 1.226 0 0 0-1.413 0 12.4 12.4 0 0 0-4.1 4.534h-1.468v.023a1.83 1.83 0 0 0-.225-.023h-14.993a2 2 0 0 0-2 2v.993a2 2 0 0 0 2 2h14.993a1.953 1.953 0 0 0 .348-.027zm10.429-1.469a4.436 4.436 0 0 1-3.854 4.485 4.247 4.247 0 0 1-3.3-1.091 4.292 4.292 0 0 1-1.4-3.167v-1.722h8.557zm-4.278-6.068a11.546 11.546 0 0 1 2.55 2.573h-5.1a11.5 11.5 0 0 1 2.55-2.573zm-21.5 5.569v-1h14.993v1z" class="cls-2"/>
        </g>
    </g>
</svg>
