<svg xmlns="http://www.w3.org/2000/svg" width="32" height="31.948" viewBox="0 0 32 31.948">
  <path id="ic-grape-fruit" d="M14.425,31.319a1,1,0,0,1-.925.629A13.5,13.5,0,0,1,8.588,5.879C7.8,4.272,7.148,2.049,7.994,1.2s2.849-.233,4.365.441a.972.972,0,0,1,.392.338A14.528,14.528,0,0,1,18.511,0a1.063,1.063,0,0,1,.739.2c.592.592-.235,3.445-1.256,5.521A13.471,13.471,0,0,1,27,18.448h5A13.5,13.5,0,0,1,14.425,31.319ZM18.5,29.948a11.519,11.519,0,0,0,11.326-9.5H28.805a10.5,10.5,0,0,1-20.61,0H7.174A11.52,11.52,0,0,0,18.5,29.948ZM2,18.448a11.514,11.514,0,0,0,8.984,11.214A13.488,13.488,0,0,1,5,18.448H18.22a.836.836,0,0,1,.1-.01.967.967,0,0,1,.182-.019.985.985,0,0,1,.193.02c.029.005.058,0,.086.009H25A11.473,11.473,0,0,0,16.911,7.471c-.046.054-.094.114-.139.159a3.5,3.5,0,0,1-4.367.469.983.983,0,0,1-.736.347.893.893,0,0,1-.129-.009A3.26,3.26,0,0,1,9.723,7.59,11.525,11.525,0,0,0,2,18.448Zm16,8a.5.5,0,0,1-.3.46c.265.025.533.04.8.04s.538-.014.8-.04a.5.5,0,1,1,.7-.46.488.488,0,0,1-.21.4,8.254,8.254,0,0,0,1.232-.286.492.492,0,0,1,.916-.339c.187-.084.372-.176.552-.273a.5.5,0,0,1-.49-.5.493.493,0,0,1,.07-.241l-.3-.352a.485.485,0,0,1-.274.093.5.5,0,0,1-.5-.5.494.494,0,0,1,.142-.346l-.273-.324a.494.494,0,0,1-.369.17.5.5,0,0,1-.5-.5.492.492,0,0,1,.241-.417l-.3-.358a.5.5,0,1,1-.585-.7l-.373-.443a.488.488,0,0,1-.964,0l-.373.443a.494.494,0,0,1,.355.471.5.5,0,0,1-.5.5.5.5,0,0,1-.439-.275l-.3.358a.492.492,0,0,1,.241.417.5.5,0,0,1-.5.5.5.5,0,0,1-.369-.17l-.273.324a.494.494,0,0,1,.142.346.5.5,0,0,1-.5.5.485.485,0,0,1-.274-.093l-.3.352a.493.493,0,0,1,.07.241.5.5,0,0,1-.491.5c.18.1.365.189.553.273a.488.488,0,0,1,.915.339,8.254,8.254,0,0,0,1.232.286.488.488,0,0,1-.21-.4.5.5,0,1,1,1,0Zm5.651-2.471a.489.489,0,0,1,.334.4l.269.318a8.555,8.555,0,0,0,1.495-1.823.481.481,0,0,1-.249.076.5.5,0,1,1,.5-.5c.1-.182.187-.37.272-.56A.494.494,0,0,1,26,21.448a.5.5,0,0,1,.5-.5.508.508,0,0,1,.112.022c.054-.172.108-.345.151-.522H26a.5.5,0,1,1-1,0H24a.5.5,0,1,1-1,0H22a.5.5,0,1,1-1,0h-.317ZM12.746,24.7l.269-.318a.489.489,0,0,1,.334-.4l2.968-3.53H16a.5.5,0,1,1-1,0H14a.5.5,0,1,1-1,0H12a.5.5,0,1,1-1,0h-.763c.043.177.1.35.151.522a.508.508,0,0,1,.113-.022.5.5,0,0,1,.5.5.494.494,0,0,1-.271.437c.086.19.174.378.272.56a.5.5,0,1,1,.5.5.481.481,0,0,1-.249-.076A8.555,8.555,0,0,0,12.746,24.7ZM13.232,4.09a1.5,1.5,0,0,0,2.126,2.127,12.325,12.325,0,0,0,1.85-3.981A12.572,12.572,0,0,0,13.232,4.09Zm-2.6,1.422a1.082,1.082,0,0,1,.212.162A3.491,3.491,0,0,1,11.3,3.366a9.507,9.507,0,0,0-1.682-.538A10.56,10.56,0,0,0,10.631,5.512ZM20,25.448a.5.5,0,1,1,.5.5A.5.5,0,0,1,20,25.448Zm-2,0a.5.5,0,1,1,.5.5A.5.5,0,0,1,18,25.448Zm-2,0a.5.5,0,1,1,.5.5A.5.5,0,0,1,16,25.448Zm3-1a.5.5,0,1,1,.5.5A.5.5,0,0,1,19,24.448Zm-2,0a.5.5,0,1,1,.5.5A.5.5,0,0,1,17,24.448Zm7-1a.5.5,0,1,1,.5.5A.5.5,0,0,1,24,23.448Zm-6,0a.5.5,0,1,1,.5.5A.5.5,0,0,1,18,23.448Zm-6,0a.5.5,0,1,1,.5.5A.5.5,0,0,1,12,23.448Zm11-1a.5.5,0,1,1,.5.5A.5.5,0,0,1,23,22.448Zm-10,0a.5.5,0,1,1,.5.5A.5.5,0,0,1,13,22.448Zm11-1a.5.5,0,1,1,.5.5A.5.5,0,0,1,24,21.448Zm-2,0a.5.5,0,1,1,.5.5A.5.5,0,0,1,22,21.448Zm-8,0a.5.5,0,1,1,.5.5A.5.5,0,0,1,14,21.448Zm-2,0a.5.5,0,1,1,.5.5A.5.5,0,0,1,12,21.448Z"/>
</svg>
