<svg xmlns="http://www.w3.org/2000/svg" width="24.999" height="24.999" viewBox="0 0 24.999 24.999">
  <path id="ic-good"
        d="M-7391-8787a12,12,0,0,1,12-12,12,12,0,0,1,12,12,12,12,0,0,1-12,12A12,12,0,0,1-7391-8787Zm1,0a11.014,11.014,0,0,0,11,11,11.014,11.014,0,0,0,11-11,11.013,11.013,0,0,0-11-11A11.013,11.013,0,0,0-7390-8787Zm7.04,2.071a.5.5,0,0,1,.424-.565.5.5,0,0,1,.565.425,3.012,3.012,0,0,0,2.97,2.57,3.012,3.012,0,0,0,2.97-2.57.507.507,0,0,1,.565-.425.5.5,0,0,1,.424.565,4.017,4.017,0,0,1-3.959,3.43A4.017,4.017,0,0,1-7382.959-8784.93ZM-7375-8789a1,1,0,0,1,1-1,1,1,0,0,1,1,1,1,1,0,0,1-1,1A1,1,0,0,1-7375-8789Zm-10,0a1,1,0,0,1,1-1,1,1,0,0,1,1,1,1,1,0,0,1-1,1A1,1,0,0,1-7385-8789Z"
        transform="translate(7391.5 8799.5)"  stroke="rgba(0,0,0,0)" stroke-miterlimit="10"
        stroke-width="1"/>
</svg>
