<svg xmlns="http://www.w3.org/2000/svg" width="44" height="44" viewBox="0 0 44 44">
    <defs>
        <style>
            .cls-2{fill:#898d8d}
        </style>
    </defs>
    <g id="Group_1770" transform="translate(-24 -839)">
        <circle id="Ellipse_280" cx="22" cy="22" r="22" fill="#daeffa" transform="translate(24 839)"/>
        <g id="service-call" transform="translate(34.969 849.968)">
            <g id="Group_1719" transform="translate(0 6.577)">
                <path id="Path_1848" d="M11.283 164.159a10.378 10.378 0 0 1-6.209-2.618 15.128 15.128 0 0 1-4.423-5.692c-1.08-2.606-.809-4.905.761-6.476l.872-.872a1.776 1.776 0 0 1 2.511 0l1.745 1.741a1.776 1.776 0 0 1 0 2.513l-.322.322a1.734 1.734 0 0 0-.136 1.93c.7 1.7 2.683 3.3 4.077 3.3a1.24 1.24 0 0 0 .923-.363l.319-.319a1.776 1.776 0 0 1 2.512 0l1.743 1.743a1.776 1.776 0 0 1 0 2.512l-.871.871a4.777 4.777 0 0 1-3.5 1.411zM3.54 149.314a.44.44 0 0 0-.313.13l-.872.872c-1.492 1.492-1.08 3.555-.472 5.023a13.76 13.76 0 0 0 4.028 5.161 9.211 9.211 0 0 0 5.372 2.322 3.488 3.488 0 0 0 2.56-1.021l.871-.871a.443.443 0 0 0 0-.626l-1.743-1.743a.443.443 0 0 0-.626 0l-.319.319a2.579 2.579 0 0 1-1.866.754 5.205 5.205 0 0 1-3.13-1.311 7.478 7.478 0 0 1-2.178-2.81 2.941 2.941 0 0 1 .425-3.383l.322-.322a.443.443 0 0 0 0-.627l-1.745-1.741a.44.44 0 0 0-.313-.129z" class="cls-2" transform="translate(0 -147.981)"/>
            </g>
            <g id="Group_1720" transform="translate(9.9)">
                <path id="Path_1849" d="M222.735 12.879l.922-4.054a6.179 6.179 0 0 1-.556-2.579 6.245 6.245 0 1 1 6.245 6.245 6.182 6.182 0 0 1-2.539-.538zm4.23-2.33l.212.1a4.862 4.862 0 0 0 2.169.5 4.911 4.911 0 1 0-4.911-4.911 4.86 4.86 0 0 0 .52 2.2l.107.214-.557 2.447z" class="cls-2" transform="translate(-222.735 -.002)"/>
            </g>
            <g id="Group_1721" transform="translate(14.459 2.644)">
                <path id="Path_1850" d="M328.036 64.67H326.7v-1.358a1.107 1.107 0 0 1 .842-1.071.718.718 0 0 0 .54-.748.726.726 0 0 0-.663-.664.718.718 0 0 0-.77.716h-1.333a2.051 2.051 0 1 1 2.718 1.94z" class="cls-2" transform="translate(-325.318 -59.493)"/>
            </g>
            <g id="Group_1722" transform="translate(15.814 8.625)">
                <path id="Path_1851" d="M355.8 194.042h1.393v1.393H355.8z" class="cls-2" transform="translate(-355.798 -194.042)"/>
            </g>
        </g>
    </g>
</svg>
