<svg xmlns="http://www.w3.org/2000/svg" width="18.926" height="32" viewBox="0 0 18.926 32">
  <g id="Hand_cream_" data-name="Hand cream " transform="translate(-20 -0.195)">
    <path id="Path_8108" data-name="Path 8108" d="M34.3,23.892a38.59,38.59,0,0,1-4.4.287h-.8a40.1,40.1,0,0,1-4.464-.287L22.072,4.548l14.7.23Zm-4.841,6.318a10.926,10.926,0,0,1-4.352-.639l.039-.8a7,7,0,0,0,.7.183,18.219,18.219,0,0,0,3.61.32,18.219,18.219,0,0,0,3.61-.32,7,7,0,0,0,.7-.183l.039.8a10.926,10.926,0,0,1-4.352.639ZM26.9,26.065l.23.017.078.005.2.012.118.007.162.009.155.007.13.006.185.007.107,0,.206.006.09,0,.22,0,.08,0,.238,0h.743l.238,0,.08,0,.221,0,.09,0,.206-.006.106,0,.185-.007.13-.006.155-.007.162-.009.118-.007.2-.012.078-.005.23-.017.037,0c.622-.048,1.2-.114,1.71-.2v.908a10.958,10.958,0,0,1-4.274.571,10.512,10.512,0,0,1-4.352-.692v-.787c.511.082,1.088.148,1.71.2l.036,0ZM21.224,2.755H37.7V2.213L21.224,2.135ZM38.926.8A.61.61,0,0,0,38.314.2h-17.7A.61.61,0,0,0,20,.8V3.075s0,0,0,.005,0,.018,0,.028,0,.024,0,.036,0,0,0,.006L22.7,24.61a.6.6,0,0,0,.062.2c.136.34.5.591,1.168.791v3.97a3.051,3.051,0,0,0,1.926,2.3,18.212,18.212,0,0,0,3.61.32,18.212,18.212,0,0,0,3.61-.32C33.9,31.7,35,31.37,35,30.542V25.6c.666-.2,1.031-.451,1.168-.791a.6.6,0,0,0,.062-.2L38.922,3.15s0,0,0-.006,0-.024,0-.036,0-.019,0-.028,0,0,0-.005ZM32.7,10.074l-.727,5.773H26.955l-.682-5.773Zm-7.586,7.2a.61.61,0,0,0,.609.547h7.487a.61.61,0,0,0,.609-.547l.848-8.5a.6.6,0,0,0-.155-.468.614.614,0,0,0-.453-.2H24.872a.614.614,0,0,0-.453.2.6.6,0,0,0-.155.468Z" fill-rule="evenodd"/>
  </g>
</svg>
