<svg xmlns="http://www.w3.org/2000/svg" width="23" height="22.162" viewBox="0 0 23 22.162">
  <g id="Group_1924" data-name="Group 1924" transform="translate(-482 -434.96)">
    <path id="Path_1976" data-name="Path 1976" d="M493.5,457.122a1,1,0,0,1-.6-.2c-.445-.336-10.9-8.3-10.9-15.711a5.917,5.917,0,0,1,6.25-6.25,6.25,6.25,0,0,1,5.25,2.862,6.25,6.25,0,0,1,5.25-2.862,6.414,6.414,0,0,1,6.25,6.25c0,7.413-10.453,15.375-10.9,15.711A1,1,0,0,1,493.5,457.122Zm-5.25-20.162a3.905,3.905,0,0,0-4.25,4.25c0,5.492,7.323,11.864,9.5,13.636,2.177-1.772,9.5-8.144,9.5-13.636a4.421,4.421,0,0,0-4.25-4.25,4.254,4.254,0,0,0-4.25,4.25,1,1,0,0,1-2,0A4.254,4.254,0,0,0,488.25,436.96Z"/>
  </g>
</svg>
