<svg xmlns="http://www.w3.org/2000/svg" width="33.211" height="33.356" viewBox="0 0 33.211 33.356">
  <g id="Hairpin" transform="translate(-10.475 -90.348)">
    <path id="Path_8090" data-name="Path 8090" d="M6.953,34.616c-.031.047-.422.25-.953-.187s-.375-.719-.375-.812a.978.978,0,0,1,.281-.609L31.99,6.926a1.9,1.9,0,0,0,.626-2.268,1.943,1.943,0,0,0-1.56-1.32c-.582-.162-1.286.142-2.05.865l-3.575,5.941a3.55,3.55,0,0,1-1.727,1.6l-2.3.68c-.719.25-.969.359-1.266,1.2l-.219,1.813c-.186,1.333-1.451,2.943-2.8,2.968H15.99c-1.062.047-1.125.375-1.484,1.047l-.156,1.125a3.494,3.494,0,0,1-2.516,2.859l-1.568.173a1.7,1.7,0,0,0-1.406.813l-.719,2.063a4.224,4.224,0,0,1-1.578,2.016L2.859,30.4a.916.916,0,0,1-1.25-.344,1.018,1.018,0,0,1,.3-1.328l3.578-1.8a1.91,1.91,0,0,0,.906-1.187l.7-1.953a3.329,3.329,0,0,1,2.641-2.016l1.443-.157c1.078-.531,1.174-.612,1.313-1.547l.156-1.172a3.309,3.309,0,0,1,3.125-2.406h1.15a1.578,1.578,0,0,0,1.141-1.39l.2-1.75a3.477,3.477,0,0,1,2.266-2.656l2.4-.689c.5-.151.753-.609,1.016-1.06L27.421,3.2a3.8,3.8,0,0,1,3.634-1.83A4.041,4.041,0,0,1,34.4,3.926a3.756,3.756,0,0,1-.9,4.188L7.328,34.319C7.268,34.379,6.984,34.569,6.953,34.616Z" transform="translate(9 89)"/>
  </g>
</svg>
