<svg xmlns="http://www.w3.org/2000/svg" width="32" height="30.745" viewBox="0 0 32 30.745">
  <g id="Highlighter_pen_" data-name="Highlighter pen " transform="translate(-30.997 -218.023)">
    <path id="Path_8106" data-name="Path 8106" d="M26.886,1.3a1.055,1.055,0,0,0-1.435,0L8.387,16.015h0a2.255,2.255,0,0,0-.243.348h0L5.221,24.626l-3.9,3.746A1.055,1.055,0,0,0,1.644,30.1l3.788,1.583a1.055,1.055,0,0,0,1.14-.211l2.6-2.48h.095l8.347-3.05h0a1.984,1.984,0,0,0,.348-.243h0L32.764,8.481a1.055,1.055,0,0,0-.106-1.435Zm-7.2,19.174-6.152-6.152,9.5-8.189L27.9,10.929Zm-7.756-4.77,6.332,6.332-1.119,1.3-6.564-6.511Zm-2.49,3.029L15.3,24.51,9.168,26.758,8.5,26.093,7.332,24.922ZM5.612,29.491l-1.678-.7,2.111-2.111,1.287,1.182ZM29.271,9.314,24.638,4.755,26.1,3.489l4.443,4.369Z" transform="translate(30 217)"/>
  </g>
</svg>
