<svg xmlns="http://www.w3.org/2000/svg" width="70" height="70" viewBox="0 0 70 70">
    <g transform="translate(-153 -266)">
        <circle cx="35" cy="35" r="35" fill="#eaf2de" transform="translate(153 266)"/>
        <g>
            <g>
                <path fill="#898d8d" fill-rule="evenodd" d="M32.339 600.527a8.331 8.331 0 0 1 2.712-9.5 6.487 6.487 0 0 1 6.255-.864 14.954 14.954 0 0 0 4.506 1.507 14.91 14.91 0 0 0 4.5-1.507 6.487 6.487 0 0 1 6.255.864 8.315 8.315 0 0 1 2.712 9.5c-1.712 5.473-13.466 13.632-13.466 13.632s-11.675-7.879-13.474-13.632zm13.474-21.421a4.853 4.853 0 1 1-4.853 4.853 4.853 4.853 0 0 1 4.853-4.853zm5.659 15.36a3.583 3.583 0 1 1-3.584 3.581 3.582 3.582 0 0 1 3.584-3.581zm.254 9.584c-3.82 1.492-11.27 1.78-13.882-1.732a3.646 3.646 0 0 1-.37-3.361 3.3 3.3 0 0 1 2.791-1.919c3.3-.215 5.708 6.305 11.459 7.012z" transform="translate(141.766 -295.638) translate(31.815 579.106) translate(-31.815 -579.106)"/>
            </g>
        </g>
    </g>
</svg>
