<svg xmlns="http://www.w3.org/2000/svg" width="31.483" height="32" viewBox="0 0 31.483 32">
  <g id="Kitchen_paper_" data-name="Kitchen paper " transform="translate(109 -118)">
    <path id="Path_8112" data-name="Path 8112" d="M46.629,28.291a22.9,22.9,0,0,1-6.159.794,16.9,16.9,0,0,1-10.015-3.047C32.029,24.964,34.225,23,40.47,23s10.142,1.708,10.142,3.038c0,.706-1.307,1.517-3.984,2.253Zm3.914,19.452a.743.743,0,0,1-.036.212c0,.013-.007.025-.012.038a1.191,1.191,0,0,1-.106.219l-.029.044a1.833,1.833,0,0,1-.185.236l-.018.018a2.932,2.932,0,0,1-.254.236l-.043.037c-.1.081-.212.163-.334.245l-.072.047c-.128.082-.266.165-.418.247l-.054.028c-.15.079-.313.158-.487.236l-.057.027c-.181.079-.377.157-.582.233l-.061.023c0-4.043.158-16.745.158-19.826.023-.007.043-.015.065-.023.22-.07.431-.145.636-.221.064-.023.127-.047.189-.072q.292-.113.562-.234c.029-.014.06-.025.088-.039.2-.092.391-.188.574-.287.05-.027.1-.055.147-.083.139-.079.272-.159.4-.242.028-.018.061-.036.088-.054ZM40.47,51.025c-6.246,0-10.015-1.733-10.015-3.062V28.781c2.257,1.511,6.109,2.293,10.015,2.293a25.66,25.66,0,0,0,5.5-.566L45.79,50.027c0,.084,0,.172,0,.25a21.6,21.6,0,0,1-5.32.748ZM28.457,26.037V44.259l-5.378.124-.108-.124h0l.108-21.185c0-.164.03-.058,0-.075H31.2c-1.644.818-2.746,1.689-2.746,3.038ZM40.47,21H23.079A2.079,2.079,0,0,0,21,23.074V44.259a2.08,2.08,0,0,0,2.079,2.074h5.378v1.63C28.457,51.234,34.647,53,40.47,53a26.282,26.282,0,0,0,6.829-.839c3.343-.919,5.183-2.41,5.183-4.2V26.037c0-3.272-6.19-5.037-12.013-5.037Zm0,3.969c-1.582,0-2.865.514-2.865,1.037s1.283,1.009,2.865,1.009,2.863-.486,2.863-1.009-1.282-1.037-2.863-1.037Z" transform="translate(-130 97)" fill-rule="evenodd"/>
  </g>
</svg>
