<svg xmlns="http://www.w3.org/2000/svg" width="32" height="30" viewBox="0 0 32 30">
  <path id="ic-lemon" d="M5.63,28.756a3.617,3.617,0,0,1-1.786.484,3.055,3.055,0,0,1-2.206-.905,3.406,3.406,0,0,1-.415-4.055A12.476,12.476,0,0,1,3.8,10,12.61,12.61,0,0,1,12.752,6.14a10.9,10.9,0,0,1,5.1,1.242,3.722,3.722,0,0,1,1-.387A3.325,3.325,0,0,1,18,5.674c-.866-2.4.625-5.674.625-5.674s3.227,1.516,4.093,3.913c.016.046.025.089.039.134a6.1,6.1,0,0,0,.273-2.655,1,1,0,0,1,.8-1.166.993.993,0,0,1,1.167.784,8.567,8.567,0,0,1-.757,4.765,3.921,3.921,0,0,1,1.641-.349C28.939,5.426,32,8.538,32,8.538s-3.062,3.109-6.125,3.109a4,4,0,0,1-3.148-1.508,3.744,3.744,0,0,1-.468,1.721,12.482,12.482,0,0,1-2.579,14.275A12.623,12.623,0,0,1,10.731,30,10.876,10.876,0,0,1,5.63,28.756Zm.936-1.767A8.931,8.931,0,0,0,10.731,28a10.686,10.686,0,0,0,7.524-3.268A10.523,10.523,0,0,0,20.48,12.773L20,11.826l.514-.932a1.456,1.456,0,0,0-.046-1.621c-.013-.01-.026-.013-.039-.023s-.032-.057-.055-.081a1.089,1.089,0,0,0-.731-.27,1.615,1.615,0,0,0-.795.221l-.955.545-.971-.515A8.924,8.924,0,0,0,12.752,8.14a10.684,10.684,0,0,0-7.523,3.267A10.521,10.521,0,0,0,3,23.367l.486.948-.514.932a1.437,1.437,0,0,0,.088,1.686,1.072,1.072,0,0,0,.781.309,1.627,1.627,0,0,0,.8-.221l.954-.544ZM24.013,8.539a2.222,2.222,0,0,0,1.863,1.109,5.867,5.867,0,0,0,2.939-1.107,5.883,5.883,0,0,0-2.939-1.115A2.218,2.218,0,0,0,24.013,8.539ZM19.879,4.994a1.419,1.419,0,0,0,.844.849,1.494,1.494,0,0,0,.113-1.25A3.8,3.8,0,0,0,19.784,3.18,3.928,3.928,0,0,0,19.879,4.994ZM13.186,25.4a1.051,1.051,0,0,1,0-1.467,1.008,1.008,0,0,1,1.442,0,1.047,1.047,0,0,1,0,1.467,1.01,1.01,0,0,1-1.442,0Zm.712-.765a.047.047,0,0,0,0,.063c.034-.016.034-.048.019-.063l-.009-.005Zm1.473-1.455a1,1,0,0,1-.011-1.415,5.605,5.605,0,0,0,.392-7.8,1,1,0,1,1,1.427-1.4c2.767,2.812,2.591,7.568-.393,10.6a1,1,0,0,1-1.415.012Z"/>
</svg>
