<svg xmlns="http://www.w3.org/2000/svg" width="32" height="19.86" viewBox="0 0 32 19.86">
  <g id="Laptop" transform="translate(-23.641 -61)">
    <path id="Path_8118" data-name="Path 8118" d="M34.74,35.82H33.375l-.012-16.96A.852.852,0,0,0,32.5,18H6.7a.852.852,0,0,0-.86.86l.023,16.96H4.46a.94.94,0,0,0-.82.992c0,.482.338,1.048.82,1.048H34.74a1.028,1.028,0,0,0,0-2.04ZM19.594,18.53a.529.529,0,0,1,.516.516.516.516,0,1,1-1.032,0A.529.529,0,0,1,19.594,18.53ZM31.34,35.82H7.878L7.818,20.044l23.522-.021Z" transform="translate(20 43)"/>
  </g>
</svg>
