<svg xmlns="http://www.w3.org/2000/svg" width="19.083" height="23.989" viewBox="0 0 19.083 23.989">
  <g id="_Layer_" data-name="&lt;Layer&gt;" transform="translate(-59.148 -69.088)">
    <g id="Group_2" data-name="Group 2" transform="translate(59.148 69.088)">
      <path id="Path_1" data-name="Path 1" d="M59.469,83.748a5.7,5.7,0,0,1,1.856-6.5,4.437,4.437,0,0,1,4.281-.591,10.209,10.209,0,0,0,3.084,1.031,10.2,10.2,0,0,0,3.082-1.031,4.437,4.437,0,0,1,4.281.591,5.691,5.691,0,0,1,1.856,6.5c-1.175,3.743-9.219,9.329-9.219,9.329S60.7,87.685,59.469,83.748Zm9.221-14.66a3.321,3.321,0,1,1-3.321,3.321,3.321,3.321,0,0,1,3.321-3.321ZM72.563,79.6a2.452,2.452,0,1,1-2.453,2.451A2.452,2.452,0,0,1,72.563,79.6Zm.174,6.559c-2.614,1.021-7.713,1.218-9.5-1.185a2.492,2.492,0,0,1-.253-2.3,2.256,2.256,0,0,1,1.91-1.313C67.155,81.214,68.8,85.676,72.736,86.16Z" transform="translate(-59.148 -69.088)" fill-rule="evenodd"/>
    </g>
  </g>
</svg>
