<svg xmlns="http://www.w3.org/2000/svg" width="11" height="16.001" viewBox="0 0 11 16.001">
  <path id="ic-lock" d="M-7387-45a4,4,0,0,1-4-4v-4a1,1,0,0,1,1-1h0v-2a4,4,0,0,1,4-4,4,4,0,0,1,4,4v2h0a1,1,0,0,1,1,1v4a4,4,0,0,1-4,4Zm.621-6.928a1,1,0,0,0-.551,1.3.948.948,0,0,0,.3.384L-7387-48h2l-.373-2.241a.988.988,0,0,0,.3-1.135A1,1,0,0,0-7386-52,1,1,0,0,0-7386.376-51.928ZM-7384-54v-2a2,2,0,0,0-2-2,2,2,0,0,0-2,2v2Z" transform="translate(7391.5 60.5)" fill="#ffcd25" stroke="rgba(0,0,0,0)" stroke-miterlimit="10" stroke-width="1"/>
</svg>
