<svg xmlns="http://www.w3.org/2000/svg" width="44" height="44" viewBox="0 0 44 44">
    <g>
        <path fill="#fff" d="M0 0H44V44H0z" transform="translate(-65 -44) translate(65 44)"/>
        <path fill="#898d8d" stroke="rgba(0,0,0,0)" stroke-miterlimit="10" d="M-10926-46a2 2 0 0 1 2-2 2 2 0 0 1 2 2 2 2 0 0 1-2 2 2 2 0 0 1-2-2zm6 1a1 1 0 0 1-1-1 1 1 0 0 1 1-1h11a1 1 0 0 1 1 1 1 1 0 0 1-1 1zm-6-7a2 2 0 0 1 2-2 2 2 0 0 1 2 2 2 2 0 0 1-2 2 2 2 0 0 1-2-2zm6 1a1 1 0 0 1-1-1 1 1 0 0 1 1-1h11a1 1 0 0 1 1 1 1 1 0 0 1-1 1zm-6-7a2 2 0 0 1 2-2 2 2 0 0 1 2 2 2 2 0 0 1-2 2 2 2 0 0 1-2-2zm6 1a1 1 0 0 1-1-1 1 1 0 0 1 1-1h11a1 1 0 0 1 1 1 1 1 0 0 1-1 1z" transform="translate(-65 -44) translate(11004 118)"/>
    </g>
</svg>
