<svg xmlns="http://www.w3.org/2000/svg" width="24.511" height="32" viewBox="0 0 24.511 32">
  <g id="Ladybug" transform="translate(-6 -1005.358)">
    <path id="Path_8064" data-name="Path 8064" d="M12.628,1017.359a4.52,4.52,0,0,0-.766,0c-4.334,2.23-5.86,6.8-5.862,11.573a11.865,11.865,0,0,0,12.255,12.255,11.865,11.865,0,0,0,12.255-12.255c-.005-4.78-2.015-9.274-6.356-11.5a.681.681,0,0,0-.463-.059,26.973,26.973,0,0,1-10.928-.007.678.678,0,0,0-.136-.01Zm.136,1.939a39.056,39.056,0,0,0,5.52.515,23.2,23.2,0,0,0,5.408-.515c3.717,1.993,4.8,5.293,4.808,9.634,0,2.875-.279,3.771-1.826,6.505-.953,1.625-4.847,3.828-8.418,3.828-3.159,0-5.232-1.39-7.326-3.037a9.952,9.952,0,0,1-2.93-7.3c0-4.345,1.039-7.64,4.763-9.634Z" transform="translate(0 -3.83)"/>
    <path id="Path_8065" data-name="Path 8065" d="M21.134,1008.359a5.687,5.687,0,0,0-3.1.919A6.952,6.952,0,0,0,15,1015.143a.681.681,0,0,0,.681.681l.784-.564.3-.1a4.891,4.891,0,0,1,2.153-4.425,4.051,4.051,0,0,1,2.212-.609,3.323,3.323,0,0,1,2.155.609,4.9,4.9,0,0,1,2.194,4.413c0,.376.715.693,1.091.693a.681.681,0,0,0,.681-.681,6.956,6.956,0,0,0-3.028-5.872,5.676,5.676,0,0,0-3.093-.927Z" transform="translate(-2.872 -0.957)"/>
    <path id="Path_8066" data-name="Path 8066" d="M14.644,1005.359a1.256,1.256,0,0,0-.813.448.706.706,0,0,0,0,.687l2.086,3.644c.193.322.83.075,1.152-.118a.681.681,0,0,0,.233-.934L15.27,1005.7a.681.681,0,0,0-.626-.338Z" transform="translate(-2.553)" fill-rule="evenodd"/>
    <path id="Path_8067" data-name="Path 8067" d="M31.743,1005.36a.681.681,0,0,0-.606.338l-2.032,3.388a.681.681,0,0,0,.233.934.917.917,0,0,0,1.13-.146l2.031-3.406a.634.634,0,0,0,0-.656,1.106,1.106,0,0,0-.756-.452Z" transform="translate(-7.343 0)" fill-rule="evenodd"/>
    <path id="Path_8081" data-name="Path 8081" d="M158,25.077a4,4,0,1,0-4-4,4,4,0,0,0,4,4M158,19a1.945,1.945,0,0,1,2,2.077,2,2,0,1,1-4,0A1.945,1.945,0,0,1,158,19" transform="matrix(-1, 0.017, -0.017, -1, 176.381, 1038.725)"/>
    <path id="Path_8083" data-name="Path 8083" d="M158,25.077a4,4,0,1,0-4-4,4,4,0,0,0,4,4M158,19a1.945,1.945,0,0,1,2,2.077,2,2,0,1,1-4,0A1.945,1.945,0,0,1,158,19" transform="matrix(-1, 0.017, -0.017, -1, 180.538, 1046.744)"/>
    <path id="Path_8084" data-name="Path 8084" d="M158.661,25.13a4,4,0,1,0-4-4,4,4,0,0,0,4,4m0-6.077a1.945,1.945,0,0,1,2,2.077,2,2,0,1,1-4,0,1.945,1.945,0,0,1,2-2.077" transform="matrix(-1, 0.017, -0.017, -1, 172.54, 1046.785)"/>
  </g>
</svg>
