<svg xmlns="http://www.w3.org/2000/svg" width="70" height="70" viewBox="0 0 70 70">
    <g transform="translate(-153 -266)">
        <circle cx="35" cy="35" r="35" fill="#e0e4e5" transform="translate(153 266)"/>
        <path fill="#646363" stroke="rgba(0,0,0,0)" stroke-miterlimit="10" d="M-7372.32-28.858a7.006 7.006 0 0 1 7.006-7.008 6.962 6.962 0 0 1 3.645 1.028l1.028-1.028v3.114h-3.114l.94-.94a5.416 5.416 0 0 0-1.72-.551v.712a.779.779 0 0 1-.779.779.779.779 0 0 1-.777-.779v-.716a5.455 5.455 0 0 0-4.609 4.609h.716a.778.778 0 0 1 .551.228.776.776 0 0 1 .228.551.778.778 0 0 1-.228.55.778.778 0 0 1-.551.227h-.716a5.455 5.455 0 0 0 4.609 4.609v-.716a.778.778 0 0 1 .777-.779.779.779 0 0 1 .779.779v1.556a.779.779 0 0 1-.779.779 7.006 7.006 0 0 1-7.006-7zm-17.9 7.006a.779.779 0 0 1-.779-.779c0-.338.046-8.271 4.017-10.441a26.246 26.246 0 0 1 5.038-2.007 9.73 9.73 0 0 0-3.827-1.445.776.776 0 0 1-.66-.588.772.772 0 0 1 .317-.825c1.629-1.117 1.516-4.24 1.4-7.26-.028-.792-.058-1.584-.058-2.345 0-5.834 3.565-7.744 5.25-8.323l-.655-1.988a.774.774 0 0 1 .448-.857 19.88 19.88 0 0 1 7.025-1.29 19.878 19.878 0 0 1 7.025 1.289.769.769 0 0 1 .445.857l-.7 2.131c1.727.7 4.845 2.719 4.845 8.18 0 .761-.03 1.553-.06 2.345-.113 3.02-.23 6.143 1.4 7.26a.777.777 0 0 1 .324.5.775.775 0 0 1-.125.582.771.771 0 0 1-.641.338.769.769 0 0 1-.441-.135c-2.34-1.6-2.208-5.16-2.081-8.6.03-.773.058-1.545.058-2.287 0-4.409-2.28-6.08-3.775-6.7l-.642 1.944a.763.763 0 0 1-.759.625.816.816 0 0 1-.406-.109 8.865 8.865 0 0 0-4.476-1.209 8.867 8.867 0 0 0-4.477 1.209.817.817 0 0 1-.4.109.767.767 0 0 1-.761-.625l-.691-2.1c-1.291.427-4.177 1.925-4.177 6.858 0 .742.029 1.514.057 2.287.1 2.786.21 5.652-1 7.488a9.135 9.135 0 0 1 4.02 2.2c.49-.119.913-.211 1.228-.276v-1.321c0-.028.015-.052.017-.078a8.536 8.536 0 0 1-2.767-6.286v-3.241a1.555 1.555 0 0 1 1.556-1.556h5.369c.352-.043 2.417-.349 2.417-1.651a1.566 1.566 0 0 1 1.376-1.556 1.525 1.525 0 0 1 .184-.011 1.544 1.544 0 0 1 1.508 1.2 3.006 3.006 0 0 0 3.161 2.15 1.557 1.557 0 0 1 1.557 1.556v3.114a8.573 8.573 0 0 1-8.562 8.564 8.488 8.488 0 0 1-4.255-1.143v.907a.779.779 0 0 1-.647.766c-.013 0-.449.08-1.137.234 1.517 2.252 4.882 2.484 4.917 2.487a.773.773 0 0 1 .536.26.773.773 0 0 1 .193.564.776.776 0 0 1-.776.731h-.047a10.11 10.11 0 0 1-3.236-.851l4.061 8.017a.773.773 0 0 1-.033.759.776.776 0 0 1-.662.371zm3.982-9.853c-2.339 1.278-3.053 5.871-3.181 8.3h13.969l-5.268-10.4a26.38 26.38 0 0 0-5.518 2.1zm6.138-11.819a7.007 7.007 0 0 0 7.008 7.006 7.007 7.007 0 0 0 7.005-7.006v-3.116a4.6 4.6 0 0 1-4.671-3.333c0 2.9-3.893 3.207-3.893 3.207h-5.45zm11.815-10.044l1.31-3.969a19.382 19.382 0 0 0-5.729-.9 19.376 19.376 0 0 0-5.728.9l1.308 3.969a10.477 10.477 0 0 1 4.42-.981 10.468 10.468 0 0 1 4.417.98zm14.322 30.934v-.386h-2.975a.654.654 0 0 1-.375-.121.642.642 0 0 1-.262-.417.654.654 0 0 1 .107-.484l3.625-5.175a.651.651 0 0 1 .531-.276.648.648 0 0 1 .646.649v4.528h.442a.649.649 0 0 1 .591.646.649.649 0 0 1-.647.649h-.388v.386a.648.648 0 0 1-.647.647.648.648 0 0 1-.64-.647zm-1.73-1.682h1.73v-2.474zm-6.685 2.33a.644.644 0 0 1-.421-.154.632.632 0 0 1-.224-.44.641.641 0 0 1 .15-.473l3.205-3.769a.887.887 0 0 0-.225-1.163 1.153 1.153 0 0 0-.672-.213 1.155 1.155 0 0 0-.82.341 1.151 1.151 0 0 0-.337.822.644.644 0 0 1-.189.459.648.648 0 0 1-.458.19.648.648 0 0 1-.648-.647 2.444 2.444 0 0 1 .467-1.441 2.456 2.456 0 0 1 3.428-.551 2.188 2.188 0 0 1 .5 2.977l-2.348 2.771h2.17a.643.643 0 0 1 .494.167.644.644 0 0 1 .208.477.649.649 0 0 1-.191.458.647.647 0 0 1-.459.189zm-3.228-5.375a.736.736 0 0 1-.251-.167l-1.559-1.556a.778.778 0 0 1 0-1.1.778.778 0 0 1 1.1 0l1.005 1.007 1.786-1.786a.778.778 0 0 1 .55-.228.778.778 0 0 1 .55.228.779.779 0 0 1 0 1.1l-2.333 2.335a.773.773 0 0 1-.254.167.75.75 0 0 1-.3.061.758.758 0 0 1-.293-.063zm-10.1-11.838a.78.78 0 0 1-.169-.574.781.781 0 0 1 .287-.526.778.778 0 0 1 1.093.117 1.858 1.858 0 0 0 1.405.643 1.858 1.858 0 0 0 1.405-.643.779.779 0 0 1 1.1-.117.782.782 0 0 1 .117 1.1 3.354 3.354 0 0 1-2.617 1.252 3.355 3.355 0 0 1-2.616-1.253zm4.949-4.45a.778.778 0 0 1 .778-.779.779.779 0 0 1 .779.779.779.779 0 0 1-.779.779.778.778 0 0 1-.776-.781zm-6.227 0a.78.78 0 0 1 .776-.779.779.779 0 0 1 .779.779.779.779 0 0 1-.779.779.78.78 0 0 1-.552-.229.779.779 0 0 1-.227-.552zm3.894-12.066v-.39h-.392a.391.391 0 0 1-.39-.39.391.391 0 0 1 .39-.39h.392v-.39a.387.387 0 0 1 .113-.276.389.389 0 0 1 .276-.114.388.388 0 0 1 .275.114.389.389 0 0 1 .114.276v.39h.39a.389.389 0 0 1 .276.114.391.391 0 0 1 .114.276.391.391 0 0 1-.114.276.389.389 0 0 1-.276.114h-.39v.39a.385.385 0 0 1-.114.275.391.391 0 0 1-.276.113.387.387 0 0 1-.383-.39z" transform="translate(7559.004 342)"/>
    </g>
</svg>
