<svg xmlns="http://www.w3.org/2000/svg" width="27.506" height="32" viewBox="0 0 27.506 32">
  <g id="Lipstick_" data-name="Lipstick " transform="translate(2 -137)">
    <path id="Path_8091" data-name="Path 8091" d="M252.938,110.859a9.478,9.478,0,0,0,8.688.109l-.016,10.29c0,.912-1.4,1.429-4.288,1.429-3,0-4.227-.466-4.227-1.318Zm-.477-2.8c.032-.318.361-.561.834-.839.467,1.07,2.357,1.627,4.23,1.627,1.83,0,3.675-.536,4.193-1.565a.837.837,0,0,1,.5.825c0,.766-1.9,1.878-4.886,1.878-2.869,0-4.736-1.029-4.873-1.788Zm4.734-12.244a5.439,5.439,0,0,1,3.15-1.133A5.242,5.242,0,0,1,258,97.1a6.976,6.976,0,0,1-3.318,1.276A6.156,6.156,0,0,1,257.195,95.811Zm2.683,10.391c-.134.262-.728.652-2.352.652s-2.259-.454-2.382-.652l.06-6.312a4.65,4.65,0,0,0,1,.063,5.305,5.305,0,0,0,2.625-.969,6.951,6.951,0,0,0,1.164-.97Zm-8.864,15.284c0,1.925,2.535,3.218,6.308,3.218,3.693,0,6.273-1.372,6.273-3.336l-.014-12.714a1.938,1.938,0,0,0,.087-.551,2.433,2.433,0,0,0-1.534-2.258c-.093-.051-.181-.1-.267-.157V95.532a.706.706,0,0,0-.042-.208,1.931,1.931,0,0,0-.315-1.506c-.925-1.251-3.334-1.05-5.606.47a5.857,5.857,0,0,0-2.7,3.432,2.229,2.229,0,0,0-.012.656c0,.017-.01.032-.01.049v7.183a.692.692,0,0,0-.089.039c-.108.076-.241.15-.382.232a3.178,3.178,0,0,0-1.61,1.621.712.712,0,0,0-.09.331v.148c0,.043-.014.08-.014.124s.01.1.014.149Zm8.455-.643c.4,0,.95-.314.95-.713v-6.511c0-.4-.55-.728-.95-.728s-1.047.329-1.047.728v6.511C258.422,120.529,259.069,120.844,259.469,120.844Zm8.817-9.631a1.7,1.7,0,0,0,.091.538V119a.657.657,0,0,0-.014.066c0,.058.009.111.014.167v2.727c0,2,2.547,3.039,5.064,3.039,2.439,0,5.064-.97,5.064-3.1V111.448a.719.719,0,0,0-.071-.3c-.03-.765-.62-2.376-5.073-2.376C268.78,108.77,268.286,110.478,268.286,111.213Zm8.542.236c0,.312-.751.76-3.466.76-2.273,0-3.284-.318-3.346-.76,0-.183.826-.714,3.346-.714C276.077,110.734,276.828,111.137,276.828,111.448Zm-.359,7.442c0,.023,0-.024,0,0,0,1.022-1.288,1.156-3.027,1.156-1.678,0-2.849-.088-2.987-.979l-.017-5.223a6.557,6.557,0,0,0,2.924.344c1.782,0,2.35.015,3.107-.344Zm.516,3.215a9.186,9.186,0,0,1-3.543.91c-1.747,0-3.128-.5-3.551-1.116l-.067-.64a8.094,8.094,0,0,0,7.235-.012Z" transform="translate(-253 44)" fill-rule="evenodd"/>
  </g>
</svg>
