<svg xmlns="http://www.w3.org/2000/svg" width="70" height="70" viewBox="0 0 70 70">
    <defs>
        <style>
            .cls-2{fill:#898d8d}
        </style>
    </defs>
    <g id="ic-growth" transform="translate(-153 -266)">
        <circle id="Ellipse_216" cx="35" cy="35" r="35" fill="#fdf1d2" transform="translate(153 266)"/>
        <g id="Group_2634" transform="translate(-2067.544 -351)">
            <circle id="Ellipse_559" cx="1" cy="1" r="1" class="cls-2" transform="translate(2256 644)"/>
            <circle id="Ellipse_560" cx="1" cy="1" r="1" class="cls-2" transform="translate(2248 644)"/>
            <path id="Path_8048" d="M2275.861 673.354l-6.164-7.3 3.666-3.666a6.087 6.087 0 0 0-8.608-8.609l-5.132 5.132a3.116 3.116 0 0 1-.883-.592l-.127-.108a3.321 3.321 0 0 1-1.382-2.69 1 1 0 0 0-.075-.377 10.5 10.5 0 0 0 6.319-9.143 3.51 3.51 0 0 0-.073-7h-.021a10.5 10.5 0 0 0-5.464-7.78 4.974 4.974 0 0 0-9.835 0 10.5 10.5 0 0 0-5.463 7.779h-.021a3.51 3.51 0 0 0-.073 7 10.484 10.484 0 0 0 5.988 8.983.983.983 0 0 0-.177.537 3.312 3.312 0 0 1-3.31 3.309h-4.31c-3.476 0-6.172 3.856-6.172 7.172v6.748h.789V674a1 1 0 0 0 2 0v-1.252h4V674a1 1 0 0 0 2 0v-1.252h1.167v-4.729a1 1 0 0 0-2 0v2.729h-5.956V666c0-2.328 1.925-5.172 4.172-5.172h3.324a5.308 5.308 0 0 0 5.3 5.172 1 1 0 0 0 0-2 3.311 3.311 0 0 1-3.306-3.273 5.308 5.308 0 0 0 4.293-5.084 10.266 10.266 0 0 0 4.922.11 5.324 5.324 0 0 0 2.139 4.035 5.442 5.442 0 0 0 .767.593l-5.283 5.283a6.088 6.088 0 1 0 8.61 8.608l3.268-3.272h.448l3.033 3.641a1 1 0 1 0 1.538-1.282l-3.333-4a1 1 0 0 0-.769-.359h-4.167a1.5 1.5 0 0 1 0-3h5.535l.5.594a.956.956 0 0 0 .081.123c.015.015.035.02.05.033l6.666 7.9a1 1 0 0 0 1.527-1.292zm-11.194-30.849a1.515 1.515 0 0 1-1.167 1.466v-2.933a1.512 1.512 0 0 1 1.167 1.467zM2253 629a3 3 0 0 1 2.462 1.3 10.19 10.19 0 0 0-4.921 0A3.005 3.005 0 0 1 2253 629zm-8.5 11.5a8.5 8.5 0 0 1 17 0v.376c-2.557-1.8-7.333-1.876-8-1.876a2.5 2.5 0 0 1-2.5-2.5 1 1 0 0 0-2 0 4.506 4.506 0 0 1-4.5 4.5zm-3.167 2.005a1.512 1.512 0 0 1 1.167-1.467v2.933a1.515 1.515 0 0 1-1.167-1.466zm3.167 2.995V643a6.5 6.5 0 0 0 5.727-3.431A4.475 4.475 0 0 0 2253.5 641c2.212 0 6.968.566 7.552 2.316a.985.985 0 0 0 .448.539v1.645a8.5 8.5 0 0 1-17 0zm23 11.5a2.5 2.5 0 1 1-2.5 2.5 2.5 2.5 0 0 1 2.5-2.5zm1.56-3.005a4.086 4.086 0 0 1 2.889 6.977l-.33.33a4.459 4.459 0 0 0-5.5-6.065l.046-.046a4.062 4.062 0 0 1 2.895-1.196zM2261.5 664a3.5 3.5 0 0 0 0 7h.422l-1.859 1.858a4.184 4.184 0 0 1-5.781 0 4.091 4.091 0 0 1 0-5.78l6.259-6.259a.968.968 0 0 0 .278-.278l2.418-2.418a4.453 4.453 0 0 0-.237 1.377 4.492 4.492 0 0 0 6.3 4.119l-.9.9-.138-.165a1 1 0 0 0-.764-.354z" class="cls-2"/>
            <circle id="Ellipse_561" cx=".5" cy=".5" r=".5" class="cls-2" transform="translate(2266 658)"/>
            <circle id="Ellipse_562" cx=".5" cy=".5" r=".5" class="cls-2" transform="translate(2268 660)"/>
            <path id="Path_8049" d="M2255.075 649a1.019 1.019 0 0 0-1.051.776 1.751 1.751 0 0 1-1.062.221 1.787 1.787 0 0 1-.979-.182A1 1 0 0 0 2250 650c0 .082.033 2 2.962 2 2.857 0 3.029-1.847 3.035-1.925a1 1 0 0 0-.922-1.075z" class="cls-2"/>
        </g>
    </g>
</svg>
