<svg xmlns="http://www.w3.org/2000/svg" width="29.072" height="31.902" viewBox="0 0 29.072 31.902">
  <g id="Magazine" transform="translate(-42.728 -15.549)">
    <path id="Path_8113" data-name="Path 8113" d="M71.711,20.663a.82.82,0,0,0-.569-.531l-2.458-.526h0a.916.916,0,0,0-.894-.975H64.236L50.578,15.624a2.1,2.1,0,0,0-2.594,1.544L47.75,18.28l1.916.438.209-1.047c.03-.138,0-.084.109-.172h.25l4.683,1.141H47.076a2.018,2.018,0,0,0-2,1.906v4.688h1.906l.092-4.453c0-.285-.285-.2,0-.2h19.7V33.139L60,39.452c-.112.1.078-.094-.312.438s-.34.361-.219.453l-.578.078.3,1.922,3.375-.516c.078.578.188.453,0,.969s-.547.531-1.02.625l-11.324.031.266-2.266a2.148,2.148,0,0,1,2.062-1.5h3.47a.916.916,0,0,0,.8-.954V36.967A5.752,5.752,0,0,0,59,37.046v2.141h1.25l.734-.625v-.422h.359L62,37.53l-.029-9.579a1.827,1.827,0,0,0-.937-1.718l-4.657-2.764c-.231-.139-1.626.842-1.783,1.061l-.656.938c-.687.2.016-.625,0-.656.438-.437.859-.109,1.344-.812a8.359,8.359,0,0,1,2.879-.854,4.485,4.485,0,0,1,4.23,2.807,8.286,8.286,0,0,1,.282,1.414l-.021,8.207h1.991l-.081-8.207a6.93,6.93,0,0,0-.589-2.62L62.814,23.08a6.714,6.714,0,0,0-1.137-.914l-1.083-.573a7.235,7.235,0,0,0-1.187-.266l-1.094-.078h-1.2l-.917.078a8.951,8.951,0,0,0-1.275.453l-.98.531a6.95,6.95,0,0,0-1.125.969l-1.031,1.531a5.394,5.394,0,0,0-.5,2.313v.242a2.55,2.55,0,0,0-1.031,2.067,2.434,2.434,0,0,0,1.031,2v3.047a5.806,5.806,0,0,0,.984,3.266l-.328.078c-1.631,0-2.9,1.478-3.329,3.051a.518.518,0,0,0-.014.074l-.3,2.5h-.922c-.176,0-.209-.059-.375,0L46.984,25.4H45.078l-.016,13.924v1.857h-.343c-.135-.029-.027.116-.1,0s-.03,0,0-.13l.445-1.727V35.754l-1.115-.244-1.2,5.241a2.428,2.428,0,0,0,.345,1.462,2.059,2.059,0,0,0,1.117.813l.851.183v2.24a1.986,1.986,0,0,0,2.014,2l20.674-.016a.986.986,0,0,0,.969-.937V40.874H66.781v2.547H65a5.923,5.923,0,0,0,.656-1.594L66.781,38.9v1.786h1.938V34.436L71.781,21.4A1.586,1.586,0,0,0,71.711,20.663ZM56.193,25.578l3.854,2.372c.155.094,0-.084,0,.1v.435a1.079,1.079,0,0,0-.8.478,1.272,1.272,0,0,0,0,1.5c.281.357.406.346.8.455V34.53a3.893,3.893,0,0,1-3.5.391A3.681,3.681,0,0,1,54.22,31.53v-3.3Zm-3.865,3.5v.672c-.281-.484-.172.254-.172-.317S51.984,29.671,52.328,29.077Zm1.3,7.288a3.491,3.491,0,0,1-.386-1.64L52.921,33.2c-.007,1.848,1.28,2.5,1.991,3.066v1.566l-.325-.244c-.575-.449-.325-.3-.955-1.219Zm13.594,9.6H47.076a.517.517,0,1,1,0-1.033h20.15Zm-3.2-5.389c-.922-1.141-1.531-.984-1.287-.984l2.584-2.453Zm4.7-14.719-.049-4.234,1,.188Z"/>
    <rect id="Rectangle_1145" data-name="Rectangle 1145" width="1.938" height="4.133" transform="translate(48.239 21.165)"/>
    <path id="Path_8116" data-name="Path 8116" d="M-.191-.114H1.746V4.02H-.191Z" transform="translate(64.643 21.165)"/>
    <path id="Path_8114" data-name="Path 8114" d="M224.752,217.8a1,1,0,1,0-1-1A1,1,0,0,0,224.752,217.8Z" transform="translate(-169.174 -187.085)"/>
    <path id="Path_8115" data-name="Path 8115" d="M249.393,266.027a2.087,2.087,0,0,0,1.98-2.437h-1.7c0,.371.009.578-.277.578s-.27-.207-.27-.578h-1.7A2.051,2.051,0,0,0,249.393,266.027Z" transform="translate(-191.624 -231.985)"/>
    <rect id="Rectangle_1147" data-name="Rectangle 1147" width="1.938" height="4.165" transform="matrix(0.124, -0.992, 0.992, 0.124, 52.179, 42.28)"/>
  </g>
</svg>
