<svg xmlns="http://www.w3.org/2000/svg" width="70" height="70" viewBox="0 0 70 70">
    <g transform="translate(-281 -163)">
        <circle cx="35" cy="35" r="35" fill="#cdf6f7" transform="translate(281 163)"/>
        <path fill="#898d8d" stroke="rgba(0,0,0,0)" stroke-miterlimit="10" d="M-15223.724-9000.633a6.288 6.288 0 0 1-1.928-3.4 1.813 1.813 0 0 1-.353.038H-15241a2 2 0 0 1-2-2V-9007a2 2 0 0 1 2-2h15a1.618 1.618 0 0 1 .227.022v-.022h1.415a12.421 12.421 0 0 1 4.154-4.771 1.208 1.208 0 0 1 .708-.229 1.213 1.213 0 0 1 .707.229 12.4 12.4 0 0 1 4.159 4.778 1.5 1.5 0 0 1 1.411 1.488v2a6.449 6.449 0 0 1-5.665 6.477c-.2.02-.4.031-.6.031a6.32 6.32 0 0 1-4.24-1.636zm-.054-4.645a4.276 4.276 0 0 0 1.4 3.164 4.254 4.254 0 0 0 3.3 1.094 4.435 4.435 0 0 0 3.852-4.487V-9007h-8.554zM-15241-9006h15v-1h-15zm18.9-3.064h5.2a11.612 11.612 0 0 0-2.6-2.731 11.515 11.515 0 0 0-2.6 2.727zm2.127-8.932v-2h-2a1 1 0 0 1-1-1 1 1 0 0 1 1-1h2v-2a1 1 0 0 1 1-1 1 1 0 0 1 1 1v2h2a1 1 0 0 1 1 1 1 1 0 0 1-1 1h-2v2a1 1 0 0 1-1 1 1 1 0 0 1-1.002-1.004zm-4-15.5c0-3.038 5.5-10.5 5.5-10.5s5.5 7.459 5.5 10.5a5.5 5.5 0 0 1-5.5 5.5 5.5 5.5 0 0 1-5.5-5.504zm2 0a3.5 3.5 0 0 0 3.5 3.5 3.5 3.5 0 0 0 3.5-3.5c0-1.109-1.618-4.128-3.5-6.993-1.884 2.86-3.499 5.879-3.499 6.989z" transform="translate(15540 9218.998)"/>
    </g>
</svg>
