<svg xmlns="http://www.w3.org/2000/svg" width="70" height="70" viewBox="0 0 70 70">
    <g transform="translate(-106 -395)">
        <circle cx="35" cy="35" r="35" fill="#cdf6f7" transform="translate(106 395)"/>
        <path fill="#898d8d" stroke="rgba(0,0,0,0)" stroke-miterlimit="10" d="M16.176 47.426a1 1 0 0 1-.842-.988 2.889 2.889 0 0 0-.363-1.385 1.007 1.007 0 0 1 0-.9 3.21 3.21 0 0 0-.474-3.644 1 1 0 0 1-.222-.894 3.219 3.219 0 0 0 .1-.765 3.29 3.29 0 0 0-1.838-2.947 1 1 0 0 1-.444-.445 3.292 3.292 0 0 0-2.947-1.838 1.306 1.306 0 0 1-.185.022.981.981 0 0 1-.885-.447 3.307 3.307 0 0 0-2.763-1.492 3.287 3.287 0 0 0-1.033.186 1 1 0 0 1-1-.225A3.287 3.287 0 0 0 1 30.75a1 1 0 0 1-1-1.013l.011-.9c.058-5.406.14-13.045 4.264-15.8a3.987 3.987 0 0 1-2.358-3.415V4.836A4.841 4.841 0 0 1 6.753 0h34.494a4.841 4.841 0 0 1 4.836 4.836v4.786a3.987 3.987 0 0 1-2.358 3.419c4.125 2.754 4.208 10.392 4.264 15.8l.011.9a1 1 0 0 1-1 1.013 3.287 3.287 0 0 0-2.276.919 1 1 0 0 1-1 .225 3.219 3.219 0 0 0-3.8 1.306 1.029 1.029 0 0 1-.884.447c-.064 0-.13-.011-.193-.02h-.006a3.283 3.283 0 0 0-2.934 1.835 1 1 0 0 1-.445.445 3.224 3.224 0 0 0-1.737 3.712 1 1 0 0 1-.221.894 3.213 3.213 0 0 0-.475 3.644 1 1 0 0 1 0 .9 2.887 2.887 0 0 0-.362 1.385 1 1 0 0 1-.843.988A53.948 53.948 0 0 1 24 48a53.961 53.961 0 0 1-7.824-.574zM9.4 31.631a5.274 5.274 0 0 1 4.326 2.644 5.276 5.276 0 0 1 2.65 4.578 4.855 4.855 0 0 1-.058.738 5.267 5.267 0 0 1 1.016 3.1 5.178 5.178 0 0 1-.371 1.913 4.911 4.911 0 0 1 .291.963A54.754 54.754 0 0 0 24 46a54.739 54.739 0 0 0 6.746-.437 4.915 4.915 0 0 1 .292-.963 5.161 5.161 0 0 1-.372-1.913 5.267 5.267 0 0 1 1.016-3.1 4.854 4.854 0 0 1-.058-.738 5.276 5.276 0 0 1 2.65-4.578 5.276 5.276 0 0 1 4.326-2.64 5.143 5.143 0 0 1 5.19-1.794 5.264 5.264 0 0 1 2.2-.99C45.9 20.723 45.388 14 40 14a1 1 0 0 1 0-2c1.645 0 4.083-1 4.083-2.378V4.836A2.839 2.839 0 0 0 41.247 2H6.753a2.84 2.84 0 0 0-2.836 2.836v4.786C3.917 11 6.355 12 8 12a1 1 0 0 1 0 2c-5.388 0-5.9 6.723-5.99 14.847a5.268 5.268 0 0 1 2.2.99A5.332 5.332 0 0 1 5.4 29.7a5.174 5.174 0 0 1 4 1.931zM27 42a1 1 0 1 1 1 1 1 1 0 0 1-1-1zm-8 0a1 1 0 1 1 1 1 1 1 0 0 1-1-1zm8-3c0-6.561 6.439-13 13-13a1 1 0 1 1 0 2c-5.448 0-11 5.552-11 11a1 1 0 0 1-2 0zm-8 0c0-5.448-5.552-11-11-11a1 1 0 1 1 0-2c6.561 0 13 6.439 13 13a1 1 0 0 1-2 0zm23-12a1 1 0 1 1 1 1 1 1 0 0 1-1-1zM4 27a1 1 0 1 1 1 1 1 1 0 0 1-1-1zm29-13a1 1 0 0 1 0-2h3a1 1 0 0 1 0 2zm-7 0a1 1 0 0 1 0-2h3a1 1 0 0 1 0 2zm-7 0a1 1 0 0 1 0-2h3a1 1 0 1 1 0 2zm-7 0a1 1 0 0 1 0-2h3a1 1 0 0 1 0 2z" transform="translate(117 407)"/>
    </g>
</svg>
