<svg xmlns="http://www.w3.org/2000/svg" width="13.492" height="33.599" viewBox="0 0 13.492 33.599">
  <g id="Nail_polish_" data-name="Nail polish " transform="translate(-34.278 -4.218)">
    <path id="Path_8102" data-name="Path 8102" d="M41.024,37v-.02s-.014.832-.016.832c-.21,0-2.551.012-5.19,0-.79-.173-1.524-.533-1.54-1.5,0-.131.094-10.45.082-13.654a.419.419,0,0,1,0-.081c.518-2.076,2.08-1.81,1.861-1.992.036-.088,0-.064,0-.082,0-.056.029-5.787.186-14.705.266-1.687,3.757-1.562,4.611-1.562h0s4.326-.281,4.576,1.5c.161,8.952.234,14.688.234,14.743a.714.714,0,0,1,0,.106c-.057.186-.037-.095,0,0,1.043.262,1.438.572,1.851,1.888-.055-.17-.011-.037.032.1a.177.177,0,0,1,.008.052c-.012,3.2.05,13.567.051,13.671a1.622,1.622,0,0,1-1.551,1.516c-2.659.012-5.028,0-5.211,0Zm-4.7-14.343c.011,3.237-.1,13.083-.1,13.186.048.313-.038,0,0,0,2.672.012,4.653,0,4.8,0s2.14.012,4.828,0c.033,0-.049.337,0,0,0-.077-.107-9.889-.1-13.125a1.843,1.843,0,0,0-1.091-.312c-.079-.006-.069-.862-.085-.939a.525.525,0,0,0-.357-.389.176.176,0,0,1-.134-.171c0-.081-.079-.152,0-.171s-.325-.093-.255-.257c0-.463.035-5.469-.116-14.04-.875-.2-.059-.3-2.7-.266s-1.486-.078-2.658.188c-.147,8.54-.121,13.557-.125,14.023.07.16-.091.337,0,.353s.075.2.078.28-.856.451-.859.463c-.017.076-.02.921-.1.926A5.6,5.6,0,0,0,36.328,22.657Z"/>
    <path id="Path_8103" data-name="Path 8103" d="M41.178,49.575V48.117c1.927-.122,3.059-.191,3.824-.192h.015c.8,0,1.978.072,3.824.189v1.461c-1.845-.117-3.039,0-3.824,0C44.263,49.576,43.1,49.454,41.178,49.575Z" transform="translate(-3.917 -29.879)"/>
    <path id="Path_8104" data-name="Path 8104" d="M45.135,51.49l-3.751-.1V49.943l3.751-.1,3.729.1.161,1.451Z" transform="translate(-4.087 -28.951)"/>
  </g>
</svg>
