<svg xmlns="http://www.w3.org/2000/svg" width="44" height="44" viewBox="0 0 44 44">
    <defs>
        <style>
            .cls-2{fill:#898d8d}
        </style>
    </defs>
    <g id="Group_1767" transform="translate(0 -8)">
        <circle id="Ellipse_280" cx="22" cy="22" r="22" fill="#fdf1d2" transform="translate(0 8)"/>
        <g id="shop-2" transform="translate(10.301 -11.041)">
            <g id="Group_2585" transform="translate(0 31.05)">
                <path id="Path_8026" d="M252.908 263.75h-3.147a1.563 1.563 0 0 0-1.562 1.562v2.413a1.563 1.563 0 0 0 1.562 1.562h3.147a1.563 1.563 0 0 0 1.562-1.562v-2.413a1.563 1.563 0 0 0-1.562-1.562zm.426 3.975a.427.427 0 0 1-.426.426h-3.147a.427.427 0 0 1-.426-.426v-2.413a.427.427 0 0 1 .426-.426h3.147a.427.427 0 0 1 .426.426z" class="cls-2" transform="translate(-236.455 -252.738)"/>
                <path id="Path_8027" d="M23.159 37.675a.527.527 0 0 0-.076-.279l-3.445-6.057a.571.571 0 0 0-.492-.289H4.008a.561.561 0 0 0-.492.289L.076 37.4a.574.574 0 0 0-.076.275 3.322 3.322 0 0 0 1.987 3.038V50.7a.57.57 0 0 0 .568.568H20.6a.57.57 0 0 0 .568-.568v-9.916a.25.25 0 0 0 0-.062 3.331 3.331 0 0 0 1.991-3.047zM4.339 32.19h14.476l2.693 4.737H1.652zm12.143 5.868a2.182 2.182 0 0 1-4.3 0zm-5.5 0a2.185 2.185 0 0 1-4.3 0zm-9.8 0h4.3a2.185 2.185 0 0 1-4.3 0zM9.54 50.135H6.275v-6.128a.809.809 0 0 1 .809-.809h1.651a.809.809 0 0 1 .809.809v6.128zm10.491 0h-9.355v-6.128a1.948 1.948 0 0 0-1.945-1.945H7.079a1.948 1.948 0 0 0-1.945 1.945v6.133H3.123v-9.148h.2a3.318 3.318 0 0 0 2.753-1.462 3.319 3.319 0 0 0 5.508 0 3.31 3.31 0 0 0 5.5 0A3.318 3.318 0 0 0 19.837 41h.194v9.142zm-.194-10.273a2.181 2.181 0 0 1-2.148-1.8h4.3a2.195 2.195 0 0 1-2.152 1.799z" class="cls-2" transform="translate(0 -31.05)"/>
            </g>
        </g>
    </g>
</svg>
