<svg xmlns="http://www.w3.org/2000/svg" width="21.252" height="22.461" viewBox="0 0 21.252 22.461">
  <g id="Pump_Icon_Blue" data-name="Pump Icon Blue" transform="translate(-5449.5 2185.5)">
    <path id="Path_8137" data-name="Path 8137" d="M1461.523,699.3l-.007,18.819h-9.211l.007-18.819h9.211m.661-1.3h-10.527c-.363,0-.658.219-.658.488v20.486c0,.269.295.488.658.488h10.527c.363,0,.658-.219.658-.488V698.488c0-.269-.295-.488-.658-.488Z" transform="translate(3999 -2883)" fill="#0770E9" stroke="rgba(0,0,0,0)" stroke-miterlimit="10" stroke-width="1"/>
    <g id="Group_2635" data-name="Group 2635" transform="translate(-420.805 82)">
      <g id="wifi" transform="translate(5884.102 -2262)">
        <g id="Group_2634" data-name="Group 2634" transform="translate(0 0)">
          <g id="Group_2633" data-name="Group 2633">
            <g id="Group_2632" data-name="Group 2632">
              <path id="Path_8141" data-name="Path 8141" d="M413.479,86.248a.662.662,0,1,0-.936.936,6.988,6.988,0,0,1,0,9.871.662.662,0,1,0,.936.936,8.315,8.315,0,0,0,0-11.743Z" transform="translate(-408.451 -86.054)" fill="#0770E9"/>
              <path id="Path_8142" data-name="Path 8142" d="M335.3,146.807a.662.662,0,0,0,0,.936,3.931,3.931,0,0,1,0,5.549.662.662,0,1,0,.936.936,5.254,5.254,0,0,0,0-7.42A.661.661,0,0,0,335.3,146.807Z" transform="translate(-335.102 -144.452)" fill="#0770E9"/>
              <path id="Path_8143" data-name="Path 8143" d="M408.134,109.819a.662.662,0,1,0-.936.936c2.722,2.722,2.693,5.48-.029,8.2a.662.662,0,1,0,.936.936c1.565-1.565,2.365-2.789,2.365-5.01A6.429,6.429,0,0,0,408.134,109.819Z" transform="translate(-405.32 -108.791)" fill="#0770E9"/>
            </g>
          </g>
        </g>
      </g>
    </g>
    <g id="Rectangle_1153" data-name="Rectangle 1153" transform="translate(5454.4 -2179)" fill="none" stroke="#0770E9" stroke-width="0.8">
      <rect width="3" height="8" rx="1.5" stroke="none"/>
      <rect x="0.4" y="0.4" width="2.2" height="7.2" rx="1.1" fill="none"/>
    </g>
    <g id="Path_8144" data-name="Path 8144" transform="matrix(0.017, 1, -1, 0.017, 5459.399, -2176.57)" fill="none">
      <path d="M1.488-.5A1.5,1.5,0,0,1,2.988,1V6a1.5,1.5,0,1,1-3,0V1A1.5,1.5,0,0,1,1.488-.5Z" stroke="none"/>
      <path d="M 1.487871289253235 0.3048958778381348 C 1.101891279220581 0.3048958778381348 0.7878713607788086 0.6189155578613281 0.7878713607788086 1.004895687103271 L 0.7878713607788086 6.004895687103271 C 0.7878713607788086 6.390875816345215 1.101891279220581 6.704895496368408 1.487871289253235 6.704895496368408 C 1.873851299285889 6.704895496368408 2.187871217727661 6.390875816345215 2.187871217727661 6.004895687103271 L 2.187871217727661 1.004895687103271 C 2.187871217727661 0.6189155578613281 1.873851299285889 0.3048958778381348 1.487871289253235 0.3048958778381348 M 1.487871289253235 -0.4951043128967285 C 2.316301345825195 -0.4951043128967285 2.987871170043945 0.1764655113220215 2.987871170043945 1.004895687103271 L 2.987871170043945 6.004895687103271 C 2.987871170043945 6.833325862884521 2.316301345825195 7.504895687103271 1.487871289253235 7.504895687103271 C 0.6594412326812744 7.504895687103271 -0.01212859153747559 6.833325862884521 -0.01212859153747559 6.004895687103271 L -0.01212859153747559 1.004895687103271 C -0.01212859153747559 0.1764655113220215 0.6594412326812744 -0.4951043128967285 1.487871289253235 -0.4951043128967285 Z" stroke="none" fill="#0770E9"/>
    </g>
  </g>
</svg>
