<svg xmlns="http://www.w3.org/2000/svg" width="70" height="70" viewBox="0 0 70 70">
    <g transform="translate(-24 -119)">
        <circle cx="35" cy="35" r="35" fill="#daeffa" transform="translate(24 119)"/>
        <path fill="#898d8d" d="M6376.242 2929.422c-1.71-.791-10.242-4.992-10.242-10.094v-15.1l1.182-.531c1.852-.833 6.525-2.77 9.9-2.77a11.476 11.476 0 0 1 1.516.11v-14.005h6.054v-.571a.793.793 0 0 1 .761-.822h2.268v-.813a.792.792 0 0 1 .759-.823h7.56a.794.794 0 0 1 .761.823v.813h2.267a.793.793 0 0 1 .761.822v.571h6.058v36.333H6386.5c-2.438 3-6.87 5.264-8.571 6.058l-.843.392zm-8.243-23.9v13.81c0 2.929 4.938 6.363 9.08 8.278a28.249 28.249 0 0 0 6.644-4.244h-.285a9.8 9.8 0 0 0 2.376-3.027h-.012a3.766 3.766 0 0 0 .365-1.516v-13.141a30.9 30.9 0 0 0-7.569-2.6v-.021a10.081 10.081 0 0 0-1.516-.129c-2.506-.009-6.268 1.319-9.082 2.586zm35.849 15.844v-32.333h-3.569v.967h2.542v30.332h-14.761a5.686 5.686 0 0 1-.326 1.027zm-3.027-3.027V2892h-1.029v.175a.792.792 0 0 1-.761.822h-13.618a.792.792 0 0 1-.761-.822V2892h-1.027v10.34c.644.229 1.249.462 1.786.679v-.1h13.625v1.513h-10.869v1.514h10.868v1.514h-10.868v1.514h10.868v1.513h-10.868v1.514h10.868v1.513h-10.868v4.813zm-19.2-16.638V2890h2.542v-.974h-3.563v12.393c.342.087.686.181 1.026.281zm5.3-10.935h10.591a.76.76 0 0 0 .273-.051v-3.074h-3.027V2886h-5.083v1.637h-3.029v3.074a.758.758 0 0 0 .282.05zm-10.789 35.145c-.694-.367-6.77-3.675-6.9-6.614v-13.1l1.257-.5a13.669 13.669 0 0 1 13.167 0l1.255.5v13.1c-.121 2.908-6.212 6.239-6.9 6.611l-.939.5zm-4.9-18.358v11.659c.029.723 2.05 2.926 5.831 4.932 3.8-2.024 5.82-4.22 5.849-4.929v-11.662a11.789 11.789 0 0 0-11.68 0zm4.051 10.381l-2.142-2.141a1 1 0 0 1 1.415-1.413l1.434 1.434 3.6-3.6a1 1 0 1 1 1.415 1.415l-4.3 4.3a1 1 0 0 1-1.415 0zm10.117-16.519v-1.515h13.625v1.514zm.756-4.542v-2.273h12.112v2.272z" transform="translate(-6330 -2753)"/>
    </g>
</svg>
