<svg xmlns="http://www.w3.org/2000/svg" width="70" height="70" viewBox="0 0 70 70">
    <g transform="translate(-171 -163)">
        <circle cx="35" cy="35" r="35" fill="rgba(137,141,141,0.2)" transform="translate(171 163)"/>
        <path fill="#898d8d" stroke="rgba(0,0,0,0)" stroke-miterlimit="10" d="M17.091 40a5.132 5.132 0 0 1-.347-10.249 5.137 5.137 0 0 1 3.741-8.608h1.363A4.714 4.714 0 0 1 21.333 19c0-9 9.334-9 9.334-9v9a4.7 4.7 0 0 1-.515 2.143h1.364a5.137 5.137 0 0 1 3.74 8.608A5.132 5.132 0 0 1 34.909 40zM14 34.857A3.12 3.12 0 0 0 17.091 38h17.818a3.143 3.143 0 0 0 0-6.286H17.091A3.12 3.12 0 0 0 14 34.857zm3.394-8.571a3.121 3.121 0 0 0 3.091 3.143h11.03a3.144 3.144 0 0 0 0-6.286h-11.03a3.121 3.121 0 0 0-3.091 3.143zM23.333 19a2.736 2.736 0 0 0 .726 1.857h3.88A2.733 2.733 0 0 0 28.667 19v-6.738A6.437 6.437 0 0 0 23.333 19zM0 14.235C0 9.947 8 0 8 0s8 9.947 8 14.235A7.885 7.885 0 0 1 8 22a7.885 7.885 0 0 1-8-7.765zm2 0A5.893 5.893 0 0 0 8 20a5.893 5.893 0 0 0 6-5.764c0-2.078-3.137-7.1-6-10.959-2.864 3.863-6 8.88-6 10.958z" transform="translate(186 178)"/>
    </g>
</svg>
