<svg xmlns="http://www.w3.org/2000/svg" width="70" height="70" viewBox="0 0 70 70">
    <g transform="translate(-171 -163)">
        <circle cx="35" cy="35" r="35" fill="#fae7dd" transform="translate(171 163)"/>
        <path fill="#898d8d" d="M1925.443 714.022A5.993 5.993 0 0 0 1921 704h-1.606a5.456 5.456 0 0 0 .606-2.5V691s-11 0-11 10.5a5.456 5.456 0 0 0 .606 2.5H1908a5.993 5.993 0 0 0-4.443 10.022A6 6 0 0 0 1904 726h21a6 6 0 0 0 .443-11.978zM1911 701.5c0-3.524 1.393-5.923 4.258-7.332a11.543 11.543 0 0 1 2.742-.919v8.251a3.5 3.5 0 0 1-1.056 2.5h-4.888a3.5 3.5 0 0 1-1.056-2.5zm-3 4.5h13a4 4 0 0 1 0 8h-13a4 4 0 0 1 0-8zm17 18h-21a4 4 0 0 1 0-8h21a4 4 0 0 1 0 8z" transform="translate(-1708 -510)"/>
    </g>
</svg>
