<svg xmlns="http://www.w3.org/2000/svg" width="70" height="70" viewBox="0 0 70 70">
    <g transform="translate(-106 -672)">
        <circle cx="35" cy="35" r="35" fill="#fbefd0" transform="translate(106 672)"/>
        <path fill="#898d8d" d="M1316 537a3.037 3.037 0 0 1-2.266-.9c-1.677-1.685-1.681-5.116-1.681-5.15v-.015-.021a.972.972 0 0 0-.1-.394 1.034 1.034 0 0 0-.089-.12 1.01 1.01 0 0 0-.161-.2c-.018-.016-.026-.04-.045-.055l-13.053-9.947a1 1 0 1 0-1.212 1.59l2.644 2.015a1.018 1.018 0 0 0-.038.19v5.269l-6.463-4.113c-.024-.015-.051-.016-.076-.029a3.954 3.954 0 0 0-1.648-4.329l-1.394-.8-7.418 12.854 1.393.8a3.326 3.326 0 0 0 1.68.443 4.692 4.692 0 0 0 3.684-2.052l5.391 3.594A6.476 6.476 0 0 0 1295 537a11.235 11.235 0 0 0 .088 1.231c.13 1.186.224 2.042-.8 3.062a.979.979 0 0 0-.126.17A3.982 3.982 0 0 0 1292 545v19a4 4 0 0 0 4 4h10a4 4 0 0 0 4-4v-19a3.982 3.982 0 0 0-2.167-3.535.979.979 0 0 0-.126-.17c-1.019-1.02-.925-1.876-.8-3.062A11.235 11.235 0 0 0 1307 537c0-.084-.009-.166-.013-.25 0-.022.013-.04.013-.062v-4.618l3.11-.093a9.39 9.39 0 0 0 2.2 5.531A5.006 5.006 0 0 0 1316 539a1 1 0 0 0 0-2zm-10.862 4h-8.276a6 6 0 0 0 .214-2.987A9.34 9.34 0 0 1 1297 537a3.87 3.87 0 0 1 4-4 3.962 3.962 0 0 1 2.075.6l.239.152A3.989 3.989 0 0 1 1305 537a9.34 9.34 0 0 1-.076 1.013 6 6 0 0 0 .214 2.987zm-19.065-8.908a1.426 1.426 0 0 1-.31-.033l5.358-9.281a2.658 2.658 0 0 1-.014 2.995l-2.759 4.778a2.848 2.848 0 0 1-2.275 1.541zm4.716-1.768l1.919-3.324 6.632 4.22a5.764 5.764 0 0 0-3.428 2.52zM1308 564a2 2 0 0 1-2 2h-10a2 2 0 0 1-2-2v-15h14zm0-17h-14v-2a2 2 0 0 1 2-2h10a2 2 0 0 1 2 2zm-2.03-16.9a1 1 0 0 0-.97 1v1.439q-.2-.183-.426-.348c-.014-.01-.022-.026-.037-.036l-.071-.045a6.156 6.156 0 0 0-.561-.357l-1.905-1.211V525.3l6.2 4.728z" transform="translate(-1159 163.006)"/>
    </g>
</svg>
