<svg xmlns="http://www.w3.org/2000/svg" width="70" height="70" viewBox="0 0 70 70">
    <g>
        <path fill="#ffcd25" d="M35 0A35 35 0 1 1 0 35 35 35 0 0 1 35 0z" transform="translate(-281 -129) translate(281 129)"/>
        <path fill="#646363" stroke="rgba(0,0,0,0)" stroke-miterlimit="10" d="M-7377.511-24.312l-4.226-2.883h-7.423a1.84 1.84 0 0 1-1.84-1.84v-19.48a1.644 1.644 0 0 1 1.644-1.643h14.759a.82.82 0 0 1 .82.82.819.819 0 0 1-.82.82h-14.759v19.484a.2.2 0 0 0 .2.2h7.665a.827.827 0 0 1 .467.145l3.15 2.176v-1.5a.822.822 0 0 1 .822-.82h12.1a.2.2 0 0 0 .2-.2v-6.587a.82.82 0 0 1 .82-.82.82.82 0 0 1 .82.82v6.587a1.84 1.84 0 0 1-1.84 1.84h-11.281v2.213a.81.81 0 0 1-.434.718.819.819 0 0 1-.38.095.816.816 0 0 1-.464-.145zm-7.748-8.623a.82.82 0 0 1-.82-.82.82.82 0 0 1 .82-.82h10.662a.82.82 0 0 1 .82.82.82.82 0 0 1-.82.82zm0-4.921a.82.82 0 0 1-.82-.82.82.82 0 0 1 .82-.82h13.943a.82.82 0 0 1 .82.82.82.82 0 0 1-.82.82zm32.566-.94l-3.033-1.1a10.6 10.6 0 0 1-4.93 1.217 10.675 10.675 0 0 1-10.662-10.662A10.675 10.675 0 0 1-7360.656-60a10.674 10.674 0 0 1 10.662 10.662 10.619 10.619 0 0 1-1.215 4.93l1.095 3.031a2.013 2.013 0 0 1-.245 1.842 2.012 2.012 0 0 1-1.647.859 2.019 2.019 0 0 1-.687-.124zm.559-1.543a.345.345 0 0 0 .128.024.377.377 0 0 0 .351-.5l-1.354-3.745a8.979 8.979 0 0 0 1.376-4.775 9.023 9.023 0 0 0-9.022-9.022 9.021 9.021 0 0 0-9.021 9.022 9.021 9.021 0 0 0 9.021 9.022 8.975 8.975 0 0 0 4.774-1.376zm-33.125-2.437a.82.82 0 0 1-.82-.82.82.82 0 0 1 .82-.82h9.842a.82.82 0 0 1 .82.82.82.82 0 0 1-.82.82zm23.875-1.18a1 1 0 0 1 1-1 1 1 0 0 1 1 1 1 1 0 0 1-1 1 1 1 0 0 1-1.001-1.001zm-1.73-4.765c0-1.326 1.76-2.309 2.3-2.58a3.346 3.346 0 0 0 1.393-1.126 1.1 1.1 0 0 0-1.025-1.011 1.016 1.016 0 0 0-1.026.822h-1.64a2.636 2.636 0 0 1 2.666-2.461 2.736 2.736 0 0 1 2.665 2.665c0 1.326-1.76 2.309-2.3 2.58a3.335 3.335 0 0 0-1.393 1.126 1.094 1.094 0 0 0 1.026 1.009 1.014 1.014 0 0 0 1.025-.82h1.64a2.636 2.636 0 0 1-2.665 2.461 2.736 2.736 0 0 1-2.667-2.667z" transform="translate(-281 -129) translate(7687 206)"/>
    </g>
</svg>
