<svg xmlns="http://www.w3.org/2000/svg" width="24" height="24" viewBox="0 0 24 24">
  <path id="Union_16" data-name="Union 16" d="M0,12A12,12,0,1,1,12,24,12,12,0,0,1,0,12Zm2,0A10,10,0,1,0,12,2,10.011,10.011,0,0,0,2,12Zm8.5,5.5A1.5,1.5,0,1,1,12,19,1.5,1.5,0,0,1,10.5,17.5ZM9,12c0-1.5,1.954-2.595,2.553-2.894a3.77,3.77,0,0,0,1.452-1.15A1.075,1.075,0,0,0,12,7a1,1,0,0,0-1,1H9a3,3,0,0,1,3-3,3.078,3.078,0,0,1,3,3c0,1.5-1.954,2.595-2.553,2.9A3.755,3.755,0,0,0,11,12.045,1.073,1.073,0,0,0,12,13a1,1,0,0,0,1-1h2a3,3,0,0,1-3,3A3.079,3.079,0,0,1,9,12Z"/>
</svg>
