<svg xmlns="http://www.w3.org/2000/svg" width="30.886" height="32.293" viewBox="0 0 30.886 32.293">
  <g id="rice_grain_" data-name="rice grain " transform="matrix(1, -0.017, 0.017, 1, -7358.258, 1334.984)">
    <path id="Path_8075" data-name="Path 8075" d="M7382.656-1206.121s.188,5.668,1.717,8.891c.971,1.652,1.933,3.215,5.87,5.355.014-.17-1.492-2.969-1.837-3.578a8.408,8.408,0,0,1-2.375-3.156,14.265,14.265,0,0,1-1-3.766,7.9,7.9,0,0,1,2.609,3.078,9.921,9.921,0,0,1,.766,3.844c0-.012,1.837,3.578,1.837,3.578s.9-5.192-1-8.754S7382.656-1206.121,7382.656-1206.121Z"/>
    <path id="Path_8076" data-name="Path 8076" d="M7382.656-1206.121s.188,5.668,1.717,8.891c.971,1.652,1.933,3.215,5.87,5.355.014-.17-1.492-2.969-1.837-3.578a8.408,8.408,0,0,1-2.375-3.156,14.265,14.265,0,0,1-1-3.766,7.9,7.9,0,0,1,2.609,3.078,9.921,9.921,0,0,1,.766,3.844c0-.012,1.837,3.578,1.837,3.578s.9-5.192-1-8.754S7382.656-1206.121,7382.656-1206.121Z" transform="translate(997.013 2680.746) rotate(-22)"/>
    <path id="Path_8077" data-name="Path 8077" d="M7382.656-1206.121s.188,5.668,1.717,8.891c.971,1.652,1.933,3.215,5.87,5.355.014-.17-1.492-2.969-1.837-3.578a8.408,8.408,0,0,1-2.375-3.156,14.265,14.265,0,0,1-1-3.766,7.9,7.9,0,0,1,2.609,3.078,9.921,9.921,0,0,1,.766,3.844c0-.012,1.837,3.578,1.837,3.578s.9-5.192-1-8.754S7382.656-1206.121,7382.656-1206.121Z" transform="matrix(0.996, -0.087, 0.087, 0.996, 152.608, 640.218)"/>
    <path id="Path_8078" data-name="Path 8078" d="M7382.656-1206.121s.188,5.668,1.717,8.891c.971,1.652,1.933,3.215,5.87,5.355.014-.17-1.492-2.969-1.837-3.578a8.408,8.408,0,0,1-2.375-3.156,14.265,14.265,0,0,1-1-3.766,7.9,7.9,0,0,1,2.609,3.078,9.921,9.921,0,0,1,.766,3.844c0-.012,1.837,3.578,1.837,3.578s.9-5.192-1-8.754S7382.656-1206.121,7382.656-1206.121Z" transform="matrix(0.829, -0.559, 0.559, 0.829, 1949.295, 3936.526)"/>
    <path id="Path_8079" data-name="Path 8079" d="M7382.656-1206.121s.188,5.668,1.717,8.891c.971,1.652,1.933,3.215,5.87,5.355.014-.17-1.492-2.969-1.837-3.578a8.408,8.408,0,0,1-2.375-3.156,14.265,14.265,0,0,1-1-3.766,7.9,7.9,0,0,1,2.609,3.078,9.921,9.921,0,0,1,.766,3.844c0-.012,1.837,3.578,1.837,3.578s.9-5.192-1-8.754S7382.656-1206.121,7382.656-1206.121Z" transform="translate(5618.083 6087.849) rotate(-67)"/>
    <path id="Path_8080" data-name="Path 8080" d="M7382.656-1206.121s.188,5.668,1.717,8.891c.971,1.652,1.933,3.215,5.87,5.355.014-.17-1.492-2.969-1.837-3.578a8.408,8.408,0,0,1-2.375-3.156,14.265,14.265,0,0,1-1-3.766,7.9,7.9,0,0,1,2.609,3.078,9.921,9.921,0,0,1,.766,3.844c0-.012,1.837,3.578,1.837,3.578s.9-5.192-1-8.754S7382.656-1206.121,7382.656-1206.121Z" transform="translate(9225.773 6068.951) rotate(-95)"/>
  </g>
</svg>
