<svg xmlns="http://www.w3.org/2000/svg" id="Group_2668" width="26.211" height="24" viewBox="0 0 26.211 24">
    <defs>
        <style>
            .cls-1{fill:#898d8d}
        </style>
    </defs>
    <path id="Path_8222" d="M19.468 11.263a10.753 10.753 0 0 1 10.642 9.284.619.619 0 0 0 .632.537h.095a.609.609 0 0 0 .537-.695 12.013 12.013 0 0 0-22.611-3.821l-2.463-.6L8.1 22l4.326-4.579-2.368-.568a10.741 10.741 0 0 1 9.41-5.59z" class="cls-1" transform="translate(-6.3 -10)"/>
    <path id="Path_8223" d="M33.221 47.9l-4.295 4.579 2.368.568a10.671 10.671 0 0 1-9.411 5.621h-.032a10.721 10.721 0 0 1-10.611-9.253.638.638 0 0 0-.726-.537.622.622 0 0 0-.537.726 12.009 12.009 0 0 0 11.876 10.328h.032a11.935 11.935 0 0 0 10.674-6.568l2.463.568z" class="cls-1" transform="translate(-8.811 -35.932)"/>
</svg>
