<svg xmlns="http://www.w3.org/2000/svg" width="44" height="44" viewBox="0 0 44 44">
    <g>
        <path fill="rgba(137,141,141,0)" d="M0 0H44V44H0z" transform="translate(-65 -44) translate(65 44)"/>
        <g>
            <path fill="none" stroke="#898d8d" stroke-width="2px" d="M10.837 15.714a2.7 2.7 0 0 1 .542-1.626l-6.263-3.631a2.71 2.71 0 1 1 .3-1.245 2.709 2.709 0 0 1-.3 1.245l6.263 3.631a2.709 2.709 0 1 1-.542 1.626zm.421-11.553a2.71 2.71 0 1 1 2.288 1.258 2.7 2.7 0 0 1-2.288-1.258L5.158 7.7z" transform="translate(-65 -44) translate(-783.034 -1976.163) translate(861.907 2032.95)"/>
        </g>
    </g>
</svg>
