<svg xmlns="http://www.w3.org/2000/svg" width="21.281" height="32.689" viewBox="0 0 21.281 32.689">
  <g id="spaghetti" transform="translate(108.813 -79.185)">
    <path id="Path_8117" data-name="Path 8117" d="M99.1,4.737a1.1,1.1,0,0,0-1.3.078l-5.211,7.064,3.041-7.611a.972.972,0,0,0-1.812-.687L91.954,8.129l.8-4.548a1.016,1.016,0,0,0-.8-.953,1,1,0,0,0-1.11.673l-.476,4.3.476-4.3a.925.925,0,0,0-.937-.8.956.956,0,0,0-.969.8l-.374,7.687L86.781,2.84a.934.934,0,0,0-1.172-.617.964.964,0,0,0-.672,1.156l.484,1.641-.547-1.641c-.119-.338-.75-.531-1.141-.422a1.075,1.075,0,0,0-.625,1.109l.422,1.359L82.75,3.989a.956.956,0,0,0-1.7.859L87.969,18.02l-.172.422L78.391,31.223a.967.967,0,0,0,.188,1.344,1.027,1.027,0,0,0,1.406-.187l4.781-6.516-2.7,6.813a1.014,1.014,0,0,0,.563,1.2.981.981,0,0,0,1.313-.641L86.252,27.6l-1.127,6.12c-.234.646.476,1.079.828,1.146a.992.992,0,0,0,1.078-.781l.658-3.5-.08,2.547c.125.828.6.937.958.953h0a.9.9,0,0,0,1.01-.844l.327-6.577,1.548,7.17a.926.926,0,0,0,1.141.719.989.989,0,0,0,.75-1.187l-.422-1.719.531,1.969a.988.988,0,0,0,1.281.641.932.932,0,0,0,.594-1.235l-.881-2.713,1.413,2.713a1.01,1.01,0,0,0,1.422.219,1.032,1.032,0,0,0,.313-1.2L90.313,18.3,99.368,6A1.094,1.094,0,0,0,99.1,4.737Z" transform="translate(-187 77)"/>
  </g>
</svg>
