<svg xmlns="http://www.w3.org/2000/svg" width="32" height="32" viewBox="0 0 32 32">
    <g transform="translate(-.123)">
        <circle cx="16" cy="16" r="16" fill="#fff" transform="translate(.123)"/>
        <path fill="#898d8d" stroke="rgba(0,0,0,0)" stroke-miterlimit="10" d="M6.806 21a6.836 6.836 0 0 1-4.812-1.95A6.532 6.532 0 0 1 0 14.347 8.665 8.665 0 0 1 1.064 10.9 36.561 36.561 0 0 1 3.4 6.888C5 4.47 6.621 2.418 6.8 2.192l.005-.006a.086.086 0 0 1 .016.018c.29.365 1.326 1.689 2.513 3.4A52.469 52.469 0 0 1 12.95 0s.007 0 .009.009c.221.3 1.382 1.874 2.516 3.708a29.292 29.292 0 0 1 1.736 3.168A7.163 7.163 0 0 1 18 9.614a5.2 5.2 0 0 1-4.415 5.215 6.576 6.576 0 0 1-2.138 4.378A6.844 6.844 0 0 1 6.806 21zm0-17.387A63.826 63.826 0 0 0 3.044 9.1C1.608 11.5.879 13.262.879 14.347a5.86 5.86 0 0 0 5.926 5.778 5.992 5.992 0 0 0 4.008-1.525 5.709 5.709 0 0 0 1.9-3.732c-.025 0-.049 0-.073-.007l-.055-.006c-.089-.007-.18-.016-.268-.027-.064-.01-.132-.02-.2-.033-.109-.019-.218-.042-.326-.068l-.049-.013-.053-.014A5.226 5.226 0 0 1 7.9 9.613v-.025-.023-.027-.027a7.759 7.759 0 0 1 .921-3.105C8.2 5.5 7.521 4.558 6.8 3.613zm6.147-2.125a46.282 46.282 0 0 0-2.757 4.376 9.717 9.717 0 0 0-1.413 3.712 4.637 4.637 0 0 0 1.241 3.13A3.993 3.993 0 0 0 12.951 14c.126 0 .252-.011.335-.018.126-.014.218-.026.3-.039a4.13 4.13 0 0 0 2.52-1.463 4.5 4.5 0 0 0 1.02-2.865 9.423 9.423 0 0 0-1.4-3.718 46.122 46.122 0 0 0-2.776-4.408z" transform="translate(7.123 5)"/>
    </g>
</svg>
