<svg xmlns="http://www.w3.org/2000/svg" width="70" height="70" viewBox="0 0 70 70">
  <g id="ic-weight" transform="translate(-59 -266)">
    <ellipse id="Ellipse_211" data-name="Ellipse 211" cx="35" cy="35" rx="35" ry="35" transform="translate(59 266)" />
    <path id="ic-weight-2" data-name="ic-weight" d="M4,48a4,4,0,0,1-4-4V41H5.425l6.384-10.945a17.5,17.5,0,1,1,24.381,0L42.574,41H48v3a4,4,0,0,1-4,4ZM2,44a2,2,0,0,0,2,2H44a2,2,0,0,0,2-2V43H2Zm38.259-3-5.608-9.614a17.5,17.5,0,0,1-21.3,0L7.741,41ZM8.5,17.5A15.5,15.5,0,1,0,24,2,15.518,15.518,0,0,0,8.5,17.5Zm2,0A13.5,13.5,0,1,1,24,31,13.5,13.5,0,0,1,10.5,17.5Zm2,0A11.5,11.5,0,1,0,24,6,11.513,11.513,0,0,0,12.5,17.5Zm8,0a3.5,3.5,0,0,1,4.814-3.244L27.919,11H27a1,1,0,0,1,0-2h3a1,1,0,0,1,1,1v3a1,1,0,1,1-2,0v-.147l-2.123,2.653A3.5,3.5,0,1,1,20.5,17.5Zm2,0A1.5,1.5,0,1,0,24,16,1.5,1.5,0,0,0,22.5,17.5Z" transform="translate(70 277)" fill="#898d8d" stroke="rgba(0,0,0,0)" stroke-miterlimit="10" stroke-width="1"/>
  </g>
</svg>
