<svg xmlns="http://www.w3.org/2000/svg" width="13.672" height="33.309" viewBox="0 0 13.672 33.309">
  <g id="soft_drink" data-name="soft drink" transform="translate(-11.792 -3.355)">
    <path id="Path_8120" data-name="Path 8120" d="M17.816,32.641a1.317,1.317,0,0,1-1.356-1.31V29.415c0-.323.241-.987.547-1.055V27.234A10.611,10.611,0,0,1,14.335,23.2a13.339,13.339,0,0,1-1.141-4.746c0-.011,0-.025,0-.035,0-.03-.035-.712-.062-1.452a10.872,10.872,0,0,1,.063-2.251,7.008,7.008,0,0,1,.813-2.016,3.172,3.172,0,0,0,.625-1.515A2.666,2.666,0,0,0,14.069,9.8a6.693,6.693,0,0,1-.843-1.951,13.4,13.4,0,0,1-.074-2.5c.028-.743.072-1.294.074-1.314s0,.008,0,0A4.648,4.648,0,0,1,17.7-.669H22.07a4.636,4.636,0,0,1,4.6,4.676c0,.008,0-.008,0,0s.056.643.084,1.387a10.938,10.938,0,0,1-.078,2.262,7.138,7.138,0,0,1-.812,2.031,3.1,3.1,0,0,0-.609,1.5,2.282,2.282,0,0,0,.484,1.312,8.165,8.165,0,0,1,.93,2.163,2.115,2.115,0,0,1,.024.435.339.339,0,0,1,0,.059,21.977,21.977,0,0,1,0,3.118c0,.011,0,.025,0,.035a11.561,11.561,0,0,1-.316,2.292l-.012.023c-.547,2.359-1.8,5.258-3.531,6.656v1.063c.315.06.563.654.563.984v1.99a1.335,1.335,0,0,1-1.339,1.322H17.816ZM18.5,30.7H21.4c.01,0,0,0,0-.012v-.625c0-.01.01-.012,0-.012H18.5c-.01,0-.012,0-.012.012v.625C18.491,30.7,18.493,30.7,18.5,30.7Zm.477-2.637h1.886l.011-1.5a.339.339,0,0,1,.129-.27c1.482-1.12,2.266-2.766,3.078-4.875h-5.2a.338.338,0,0,1-.071,0c-.746-.469-.594-.829-.635-.937,0,0,0-.012,0-.012a.632.632,0,0,1-.024-.117l.024-5.418a1.687,1.687,0,0,1,.612-.738l.035-.012a.334.334,0,0,1,.059,0H24.46a6.119,6.119,0,0,1-.719-1.219,3.881,3.881,0,0,1-.453-1.937,5.081,5.081,0,0,1,.8-2.2A4.773,4.773,0,0,0,24.724,7.3a8.906,8.906,0,0,0,.064-1.9c-.028-.736-.064-1.328-.064-1.328s0,.012,0,0c-.163-1.343-.834-2.725-2.653-2.725H17.7a2.657,2.657,0,0,0-2.56,2.689.344.344,0,0,1,0,.036s.028.637,0,1.373a10.691,10.691,0,0,0,0,2.03,5.823,5.823,0,0,0,.823,1.578,4.677,4.677,0,0,1,.657,2.141,4.928,4.928,0,0,1-.734,2.187,5.15,5.15,0,0,0-.7,1.563A10.1,10.1,0,0,0,15.1,16.97c.028.739.078,1.335.078,1.335s0,.016,0,.023a11.347,11.347,0,0,0,1.016,4.25A13.92,13.92,0,0,0,18.851,26.3a.339.339,0,0,1,.129.27v1.495Zm1.136-8.656h4.469a5.158,5.158,0,0,0,.109-1.367c0-.008,0-.016,0-.023a10.3,10.3,0,0,0,0-1.828H20.116v3.219Z" transform="translate(38.569 35.995) rotate(180)"/>
  </g>
</svg>
