<svg xmlns="http://www.w3.org/2000/svg" id="Group_1831" width="44" height="44" viewBox="0 0 44 44">
    <defs>
        <style>
            .cls-4{stroke:none}
        </style>
    </defs>
    <g id="Union_1" fill="#fff">
        <path d="M11 22a11 11 0 0 1 0-22h14a11 11 0 0 1 0 22z" class="cls-4" transform="translate(4 11)"/>
        <path fill="#757575" d="M25 20c4.963 0 9-4.038 9-9 0-4.963-4.037-9-9-9H11c-4.963 0-9 4.037-9 9 0 4.962 4.037 9 9 9h14m0 2H11C4.925 22 0 17.075 0 11S4.925 0 11 0h14c6.075 0 11 4.925 11 11s-4.925 11-11 11z" transform="translate(4 11)"/>
    </g>
    <circle id="Ellipse_243" cx="7" cy="7" r="7" fill="#757575" transform="translate(8 15)"/>
</svg>
