<svg xmlns="http://www.w3.org/2000/svg" width="32" height="32" viewBox="0 0 32 32">
  <path id="ic-sunflower-seed" d="M21.919,30.633c-.012-.014-.022-.027-.034-.041A4.6,4.6,0,0,1,20,31a5.268,5.268,0,0,1-5-5.5c0-3.038,2.238-7.5,5-7.5,1.738,0,3.266,1.766,4.163,3.832a9.519,9.519,0,0,1,4.4-1.28,3.51,3.51,0,0,1,2.548.887c1.953,1.953.381,6.692-1.768,8.839A5.741,5.741,0,0,1,25.308,32,4.748,4.748,0,0,1,21.919,30.633Zm5.3-2.475a13.343,13.343,0,0,1-2.238,1.814,2.744,2.744,0,0,0,.323.027,3.764,3.764,0,0,0,2.622-1.135,8.094,8.094,0,0,0,1.981-4.024A22.445,22.445,0,0,1,27.223,28.158ZM25.1,26.037c-.053.053-.094.1-.146.154a5.712,5.712,0,0,1-1.422,3.2,2.054,2.054,0,0,0,.205.145,11.15,11.15,0,0,0,2.777-2.085,20.071,20.071,0,0,0,3.31-4.419.8.8,0,0,0-.128-.177.7.7,0,0,0-.179-.124A19.938,19.938,0,0,0,25.1,26.037Zm-5.318-6A20.139,20.139,0,0,0,19,25.5a10.762,10.762,0,0,0,.492,3.441,2.206,2.206,0,0,0,1.017,0A10.771,10.771,0,0,0,21,25.5a20.142,20.142,0,0,0-.783-5.466.7.7,0,0,0-.433,0ZM17,25.5a3.69,3.69,0,0,0,1.3,2.876A13.364,13.364,0,0,1,18,25.5a22.584,22.584,0,0,1,.445-4.247A8.106,8.106,0,0,0,17,25.5Zm5,0a13.453,13.453,0,0,1-.277,2.788,4.11,4.11,0,0,0,1.27-2.97,8.222,8.222,0,0,0-1.436-4.065A22.581,22.581,0,0,1,22,25.5Zm2.862-1.77a8.483,8.483,0,0,1,.119,1.049,23.164,23.164,0,0,1,2.742-2.144A8.516,8.516,0,0,0,24.862,23.729ZM6.378,21.622A6.993,6.993,0,0,1,1.876,21,6.993,6.993,0,0,1,3.589,16.79,7,7,0,0,1,0,14a7,7,0,0,1,3.589-2.79A7,7,0,0,1,1.876,7a6.993,6.993,0,0,1,4.5-.622A7,7,0,0,1,7,1.875a7,7,0,0,1,4.21,1.714A7,7,0,0,1,14,0a7,7,0,0,1,2.79,3.589A7,7,0,0,1,21,1.875a7,7,0,0,1,.622,4.5,6.993,6.993,0,0,1,4.5.622,7,7,0,0,1-1.714,4.21A7,7,0,0,1,28,14s-1.818,3-5,3a5.42,5.42,0,0,1-3.287-1.17,5.993,5.993,0,0,1-6.986,4.032,5.416,5.416,0,0,1-.63,3.432C10.507,26.05,7,26.125,7,26.125A7,7,0,0,1,6.378,21.622Zm2.255-.328a3.652,3.652,0,0,0-.319,2.552,3.644,3.644,0,0,0,2.051-1.552,3.649,3.649,0,0,0,.319-2.552A3.644,3.644,0,0,0,8.634,21.294Zm-2.928-3.66a3.649,3.649,0,0,0-1.553,2.051,3.653,3.653,0,0,0,2.553-.319,3.647,3.647,0,0,0,1.552-2.051,4.666,4.666,0,0,0-.911-.094A3.252,3.252,0,0,0,5.706,17.634ZM14,17.5a.5.5,0,0,1-.333.466c.111.01.219.034.333.034s.221-.024.333-.034A.494.494,0,0,1,14,17.5a.5.5,0,0,1,.5-.5.5.5,0,1,1,.5-.5.5.5,0,0,1-.5.5.5.5,0,0,1,.5.5.5.5,0,0,1-.251.425,3.7,3.7,0,0,0,.373-.105A.494.494,0,0,1,15.5,17a.5.5,0,1,1,.5-.5.5.5,0,0,1-.5.5.5.5,0,0,1,.49.449l.023-.013a.448.448,0,0,1,.582-.418c.019-.017.041-.033.06-.05A.489.489,0,0,1,16.5,17a.5.5,0,0,1,0-1,.5.5,0,1,1,.5-.5.5.5,0,0,1-.5.5.5.5,0,0,1,.5.5.51.51,0,0,1-.031.157c.017-.021.033-.041.051-.061a.428.428,0,0,1-.02-.1.493.493,0,0,1,.436-.487l.013-.023A.5.5,0,0,1,17.5,15a.488.488,0,0,1,.319.123c.037-.124.08-.246.105-.374A.494.494,0,0,1,17.5,15a.5.5,0,1,1,.467-.667c.009-.112.033-.22.033-.333s-.024-.222-.033-.333a.506.506,0,1,1-.042-.417c-.025-.129-.068-.249-.105-.374A.493.493,0,0,1,17.5,13a.5.5,0,0,1-.05-.99l-.013-.023A.493.493,0,0,1,17,11.5a.428.428,0,0,1,.02-.1c-.018-.02-.034-.04-.051-.061A.51.51,0,0,1,17,11.5a.5.5,0,1,1-.5-.5.489.489,0,0,1,.156.031c-.02-.017-.041-.033-.06-.05a.448.448,0,0,1-.582-.418l-.023-.013a.5.5,0,1,1-.868-.37,3.471,3.471,0,0,0-.373-.1A.492.492,0,0,1,15,10.5a.5.5,0,1,1-.667-.466c-.112-.01-.22-.034-.333-.034s-.222.024-.333.034a.506.506,0,1,1-.417.042,3.53,3.53,0,0,0-.373.1.5.5,0,1,1-.868.37l-.023.013A.494.494,0,0,1,11.5,11a.5.5,0,1,1-.5.5.51.51,0,0,1,.031-.157c-.017.021-.033.041-.051.061a.428.428,0,0,1,.02.1.493.493,0,0,1-.437.487l-.013.023a.5.5,0,0,1-.05.99.5.5,0,0,1,0,1,.5.5,0,0,1,0,1,.5.5,0,0,1,.05.99l.013.023A.493.493,0,0,1,11,16.5a.428.428,0,0,1-.02.1c.018.02.034.041.051.061A.51.51,0,0,1,11,16.5a.5.5,0,0,1,.5-.5.5.5,0,1,1,.5-.5.5.5,0,0,1-.5.5.5.5,0,0,1,0,1,.494.494,0,0,1,.487.436l.023.013A.5.5,0,0,1,12.5,17a.5.5,0,1,1,.5-.5.5.5,0,0,1-.5.5.494.494,0,0,1,.377.819,3.763,3.763,0,0,0,.373.105A.5.5,0,0,1,13,17.5a.5.5,0,0,1,.5-.5.5.5,0,1,1,.5-.5.5.5,0,0,1-.5.5A.5.5,0,0,1,14,17.5Zm-2.6-.481A.5.5,0,0,1,11.5,17a.484.484,0,0,1-.155-.031C11.364,16.986,11.386,17,11.4,17.019Zm-1.224-1.9A.493.493,0,0,1,10.5,15a.492.492,0,0,1-.424-.251A3.776,3.776,0,0,0,10.181,15.124ZM20.631,14A3.644,3.644,0,0,0,23,15a3.646,3.646,0,0,0,2.37-1A3.651,3.651,0,0,0,23,13,3.645,3.645,0,0,0,20.631,14Zm-18,0A3.644,3.644,0,0,0,5,15a3.646,3.646,0,0,0,2.37-1A3.651,3.651,0,0,0,5,13,3.645,3.645,0,0,0,2.631,14ZM10,14c0,.113.024.221.033.333A.5.5,0,0,1,10.5,14a.5.5,0,0,1-.467-.333C10.024,13.778,10,13.886,10,14Zm.076-.75A.492.492,0,0,1,10.5,13a.493.493,0,0,1-.319-.123A3.846,3.846,0,0,0,10.076,13.251Zm1.269-2.219A.484.484,0,0,1,11.5,11a.5.5,0,0,1-.1-.019C11.386,11,11.364,11.014,11.345,11.031Zm9.949-2.4a3.642,3.642,0,0,0-1.552,2.051,3.649,3.649,0,0,0,2.552-.319,3.652,3.652,0,0,0,1.553-2.051,4.674,4.674,0,0,0-.911-.094A3.255,3.255,0,0,0,21.294,8.634ZM4.153,8.315a3.649,3.649,0,0,0,1.553,2.051,3.652,3.652,0,0,0,2.552.319A3.65,3.65,0,0,0,6.706,8.634a3.246,3.246,0,0,0-1.641-.413A4.693,4.693,0,0,0,4.153,8.315ZM17.634,5.706a3.65,3.65,0,0,0-.319,2.552,3.652,3.652,0,0,0,2.051-1.552,3.653,3.653,0,0,0,.319-2.553A3.647,3.647,0,0,0,17.634,5.706Zm-9,1a3.649,3.649,0,0,0,2.052,1.552,3.658,3.658,0,0,0-.319-2.552A3.638,3.638,0,0,0,8.315,4.154,3.649,3.649,0,0,0,8.634,6.706ZM13,5a3.649,3.649,0,0,0,1,2.37A3.653,3.653,0,0,0,15,5,3.648,3.648,0,0,0,14,2.63,3.649,3.649,0,0,0,13,5Zm2,10.5a.5.5,0,1,1,.5.5A.5.5,0,0,1,15,15.5Zm-1,0a.5.5,0,1,1,.5.5A.5.5,0,0,1,14,15.5Zm-1,0a.5.5,0,1,1,.5.5A.5.5,0,0,1,13,15.5Zm-1,0a.5.5,0,1,1,.5.5A.5.5,0,0,1,12,15.5Zm4-1a.5.5,0,1,1,.5.5A.5.5,0,0,1,16,14.5Zm-1,0a.5.5,0,1,1,.5.5A.5.5,0,0,1,15,14.5Zm-1,0a.5.5,0,1,1,.5.5A.5.5,0,0,1,14,14.5Zm-1,0a.5.5,0,1,1,.5.5A.5.5,0,0,1,13,14.5Zm-1,0a.5.5,0,1,1,.5.5A.5.5,0,0,1,12,14.5Zm-1,0a.5.5,0,1,1,.5.5A.5.5,0,0,1,11,14.5Zm5-1a.5.5,0,0,1,.5-.5.5.5,0,1,1,.5-.5.5.5,0,0,1-.5.5.5.5,0,1,1-.5.5Zm-1,0a.5.5,0,0,1,.5-.5.5.5,0,1,1,.5-.5.5.5,0,0,1-.5.5.5.5,0,1,1-.5.5Zm-1,0a.5.5,0,0,1,.5-.5.5.5,0,1,1,.5-.5.5.5,0,0,1-.5.5.5.5,0,1,1-.5.5Zm-1,0a.5.5,0,1,1,.5.5A.5.5,0,0,1,13,13.5Zm-1,0a.5.5,0,1,1,.5.5A.5.5,0,0,1,12,13.5Zm-1,0a.5.5,0,1,1,.5.5A.5.5,0,0,1,11,13.5Zm2-1a.5.5,0,1,1,.5.5A.5.5,0,0,1,13,12.5Zm-1,0a.5.5,0,1,1,.5.5A.5.5,0,0,1,12,12.5Zm-1,0a.5.5,0,1,1,.5.5A.5.5,0,0,1,11,12.5Zm4-1a.5.5,0,1,1,.5.5A.5.5,0,0,1,15,11.5Zm-1,0a.5.5,0,1,1,.5.5A.5.5,0,0,1,14,11.5Zm-1,0a.5.5,0,1,1,.5.5A.5.5,0,0,1,13,11.5Zm-1,0a.5.5,0,1,1,.5.5A.5.5,0,0,1,12,11.5Z"/>
</svg>
