<svg xmlns="http://www.w3.org/2000/svg" width="33.453" height="33.5" viewBox="0 0 33.453 33.5">
  <g id="snow_crystal" data-name="snow crystal" transform="translate(-28.781 -152.75)">
    <path id="Path_8007" data-name="Path 8007" d="M36.813,18.48l-1.7-1-1.766,2.984H30.781l1.109-1.988-1.719-1-1.75,2.984H24.734c-.109-.453-.25-.547-.25-.547l.969-.937,2.313.672.547-1.944-1.219-.368.781-.766,2.3.656.547-1.922L29.5,14.938l1.031-1.016-1.453-1.469-.991,1.063-.4-1.219-1.922.563.625,2.281-.7.766-.4-1.2-1.945.531.672,2.328-.937.922c-.453-.266-.578-.2-.562-.2v-3.7l3.016-1.719L24.52,11.094l-2,1.141L22.5,9.688l3.031-1.766L24.52,6.172,22.5,7.359V4.75h-2V7.359L18.48,6.172l-1.011,1.75L20.5,9.688l-.016,2.547-2-1.141-1.011,1.766,3.016,1.719v3.7a1.3,1.3,0,0,0-.562.2L19,17.563l.641-2.375-1.929-.531-.4,1.219-.718-.687.625-2.406-1.907-.531-.374,1.281-1.016-1.062-1.453,1.453,1.047.991-1.219.4.5,1.907,2.406-.641.719.75-1.234.313.516,2,2.375-.672.906.953a3.467,3.467,0,0,0-.234.547H14.578l-1.687-2.984L11.141,18.5,12.3,20.469H9.656l-1.7-2.984L6.172,18.5l1.141,1.969H4.781v2.078H7.313L6.172,24.52l1.75.98,1.734-2.953H12.2L11.141,24.52l1.656.98,1.781-2.953H18.25a5.176,5.176,0,0,0,.234.516L17.5,24l-2.3-.609-.5,1.9,1.188.4-.687.7L12.8,25.8l-.5,1.891,1.234.4-1.047,1.022,1.422,1.422L14.969,29.5l.343,1.2,1.907-.516-.641-2.312.734-.75.4,1.2,1.914-.516L19,25.422l.922-.922a1.916,1.916,0,0,0,.563.25v3.656L17.5,30.125l1,1.8L20.484,30.8v2.578L17.5,35.109l1,1.7,1.984-1.125.031,2.563H22.5V35.688l2.019,1.125.981-1.7-2.984-1.734V30.8l2,1.063.981-1.687-2.984-1.766V24.75a1.209,1.209,0,0,0,.563-.25l.953.969L23.375,27.8l1.914.547.4-1.219.75.734L25.8,30.172l1.891.563.4-1.187,1.006.938L30.5,29.078l-1.016-1.031,1.219-.358-.531-1.876-2.312.625-.766-.75,1.219-.4-.547-1.9L25.453,24l-.969-.937a1.144,1.144,0,0,0,.25-.516l3.688-.016,1.75,3.016,1.719-1.016-1.109-2h2.563l1.766,3.016,1.7-1.026-1.125-1.99h2.547V20.469H35.688Zm-14.3,3.973a1.7,1.7,0,0,1-1.013.406,1.632,1.632,0,0,1-1.018-.406,1.567,1.567,0,0,1-.359-.951,1.715,1.715,0,0,1,.453-1.033,1.442,1.442,0,0,1,.924-.344,1.656,1.656,0,0,1,1.013.406,1.563,1.563,0,0,1,.375.971A1.381,1.381,0,0,1,22.516,22.453Z" transform="translate(24 148)"/>
  </g>
</svg>
