<svg xmlns="http://www.w3.org/2000/svg" width="44" height="44" viewBox="0 0 44 44">
    <defs>
        <style>
            .cls-2{fill:#898d8d}
        </style>
    </defs>
    <g id="Group_1770" transform="translate(-24 -839)">
        <circle id="Ellipse_280" cx="22" cy="22" r="22" fill="#fdf1d2" transform="translate(24 839)"/>
        <g id="Group_2367" transform="translate(-22.299 419.234)">
            <g id="Group_1708" transform="translate(56.299 417.299)">
                <g id="Group_1701" transform="translate(0 12.468)">
                    <g id="Group_1700">
                        <path id="Path_1841" d="M23.065 169.351h-.686a.613.613 0 0 1-.577-.4c-.076-.2-.158-.395-.246-.588a.615.615 0 0 1 .125-.7l.489-.489a1.874 1.874 0 0 0 0-2.643l-1.762-1.762a1.874 1.874 0 0 0-2.643 0l-.489.488a.617.617 0 0 1-.7.125c-.193-.088-.388-.17-.588-.249a.613.613 0 0 1-.4-.579v-.686a1.87 1.87 0 0 0-1.87-1.87h-2.497a1.87 1.87 0 0 0-1.87 1.87v.686a.613.613 0 0 1-.4.577c-.2.076-.395.158-.588.246a.616.616 0 0 1-.7-.125l-.489-.489a1.875 1.875 0 0 0-2.642 0L2.77 164.53a1.874 1.874 0 0 0 0 2.643l.488.489a.615.615 0 0 1 .125.7c-.088.193-.17.388-.246.588a.613.613 0 0 1-.582.4H1.87A1.87 1.87 0 0 0 0 171.221v2.493a1.87 1.87 0 0 0 1.87 1.87h.686a.613.613 0 0 1 .577.4c.076.2.158.395.246.588a.615.615 0 0 1-.125.7l-.489.489a1.875 1.875 0 0 0 0 2.643l1.762 1.762a1.874 1.874 0 0 0 2.643 0l.489-.488a.617.617 0 0 1 .7-.125c.193.088.388.17.588.249a.613.613 0 0 1 .408.579v.686a1.87 1.87 0 0 0 1.87 1.87h2.494a1.87 1.87 0 0 0 1.87-1.87v-.686a.613.613 0 0 1 .4-.577c.2-.076.395-.158.588-.246a.616.616 0 0 1 .7.125l.489.489a1.875 1.875 0 0 0 2.642 0l1.762-1.762a1.874 1.874 0 0 0 0-2.643l-.488-.489a.615.615 0 0 1-.125-.7c.088-.193.17-.388.249-.588a.613.613 0 0 1 .578-.4h.686a1.87 1.87 0 0 0 1.87-1.87v-2.493a1.87 1.87 0 0 0-1.875-1.876zm.623 4.364a.623.623 0 0 1-.623.623h-.686a1.876 1.876 0 0 0-1.745 1.206q-.1.262-.214.516a1.876 1.876 0 0 0 .374 2.092l.487.488a.623.623 0 0 1 0 .882l-1.762 1.762a.623.623 0 0 1-.881 0l-.489-.488a1.874 1.874 0 0 0-2.092-.374c-.169.077-.341.148-.514.214a1.876 1.876 0 0 0-1.2 1.744v.686a.623.623 0 0 1-.623.623h-2.499a.623.623 0 0 1-.623-.623v-.686a1.876 1.876 0 0 0-1.206-1.745q-.262-.1-.516-.214a1.876 1.876 0 0 0-2.092.374l-.488.488a.623.623 0 0 1-.882 0l-1.762-1.76a.623.623 0 0 1 0-.881l.488-.489a1.876 1.876 0 0 0 .374-2.092c-.077-.169-.148-.341-.214-.514a1.876 1.876 0 0 0-1.744-1.207H1.87a.623.623 0 0 1-.623-.623v-2.493a.623.623 0 0 1 .623-.623h.686a1.876 1.876 0 0 0 1.744-1.209q.1-.262.214-.516a1.876 1.876 0 0 0-.374-2.092l-.49-.488a.623.623 0 0 1 0-.882l1.762-1.762a.623.623 0 0 1 .881 0l.489.488a1.874 1.874 0 0 0 2.092.374c.169-.077.341-.148.514-.214a1.876 1.876 0 0 0 1.207-1.744v-.686a.623.623 0 0 1 .623-.623h2.494a.623.623 0 0 1 .623.623v.686a1.876 1.876 0 0 0 1.206 1.745q.262.1.516.214a1.874 1.874 0 0 0 2.092-.374l.488-.487a.627.627 0 0 1 .882 0l1.762 1.762a.623.623 0 0 1 0 .881l-.488.489a1.876 1.876 0 0 0-.374 2.092c.077.169.148.341.214.514a1.876 1.876 0 0 0 1.744 1.2h.686a.623.623 0 0 1 .623.623v2.493z" class="cls-2" transform="translate(0 -160)"/>
                    </g>
                </g>
                <g id="Group_1703" transform="translate(6.854 19.325)">
                    <g id="Group_1702">
                        <path id="Path_1842" d="M99.17 253.361c-.006-.15-.017-.3-.035-.447s-.044-.318-.077-.473c-.022-.1-.05-.2-.078-.3q-.052-.193-.118-.38c-.031-.087-.062-.173-.095-.258a5.551 5.551 0 0 0-.275-.583c-.008-.014-.013-.03-.021-.044a5.53 5.53 0 0 0-.561-.817l-.057-.065c-.086-.1-.175-.2-.267-.294-.049-.05-.1-.1-.151-.146s-.125-.115-.187-.17-.153-.129-.231-.191l-.1-.076A5.571 5.571 0 0 0 93.572 248c-.062 0-.125.009-.187.012-.133 0-.266.011-.4.025-.07.007-.142.016-.212.026a5.715 5.715 0 0 0-.6.113 5.614 5.614 0 0 0 0 10.871.143.143 0 0 1 .031.006 5.947 5.947 0 0 0 .653.125c.145.018.29.022.436.029.1.005.187.019.289.019.178 0 .362-.012.55-.031a.609.609 0 0 0 .062-.008c.151-.017.3-.039.461-.07.062-.012.12-.027.18-.041.11-.026.219-.052.331-.085.087-.026.172-.057.257-.087s.174-.062.262-.1.163-.072.243-.11c.1-.048.209-.1.312-.151a7.377 7.377 0 0 0 1.6-1.154 1.961 1.961 0 0 0 .334-.409 6.655 6.655 0 0 0 .939-2.562c.017-.12.033-.241.042-.363s.015-.225.017-.337v-.1c.011-.091.002-.172-.002-.257zm-1.242.408c0 .052 0 .1-.007.155-.011.151-.031.3-.056.453a4.373 4.373 0 0 1-2.191 3.055c-.077.041-.153.079-.229.113l-.052.025a4.5 4.5 0 0 1-1.137.344l-.084.013c-.078.011-.155.021-.231.027-.1.009-.2.014-.3.016h-.13a4.362 4.362 0 0 1-.441-.027l-.075-.009a4.617 4.617 0 0 1-.509-.1 4.364 4.364 0 0 1 0-8.454 4.514 4.514 0 0 1 1.1-.137 4.309 4.309 0 0 1 .533.036l.141.021c.135.021.268.048.4.082l.128.033a4.4 4.4 0 0 1 .951.4c.048.028.095.057.142.087.1.062.194.125.288.2.05.037.1.073.15.112a4.5 4.5 0 0 1 .351.312c.044.045.085.094.128.141.072.078.142.158.208.242.046.058.09.118.134.178.062.09.125.183.181.278l.094.155a4.279 4.279 0 0 1 .214.457c.025.062.046.125.069.187.041.115.075.231.106.348.016.062.033.118.046.178a4.392 4.392 0 0 1 .079.511c0 .046 0 .092.007.137-.005.143-.003.287-.008.431z" class="cls-2" transform="translate(-87.959 -248)"/>
                    </g>
                </g>
            </g>
        </g>
    </g>
</svg>
