<svg xmlns="http://www.w3.org/2000/svg" width="70" height="70" viewBox="0 0 70 70">
    <g transform="translate(-247 -266)">
        <circle cx="35" cy="35" r="35"  transform="translate(247 266)"/>
        <path fill="#898d8d" stroke="rgba(0,0,0,0)" stroke-miterlimit="10" d="M24.077 47.9A26.364 26.364 0 0 1 11.024.2a1 1 0 0 1 .587-.2 1.042 1.042 0 0 1 .96 1.415 26.368 26.368 0 0 0 22.112 35.61q1.281.12 2.538.119a26.279 26.279 0 0 0 9.364-1.715 1.069 1.069 0 0 1 .381-.072 1.027 1.027 0 0 1 .84 1.618A26.326 26.326 0 0 1 26.365 48q-1.134 0-2.288-.1zM2.09 23.755A24.521 24.521 0 0 0 24.245 45.91c.7.06 1.418.09 2.12.09a24.435 24.435 0 0 0 17.775-7.708 28.315 28.315 0 0 1-6.918.851c-.9 0-1.819-.042-2.725-.128A28.377 28.377 0 0 1 9.708 3.851 24.226 24.226 0 0 0 2.09 23.755zM30 25h-3a1 1 0 0 1-.857-1.515L28.234 20H27a1 1 0 0 1 0-2h3a1 1 0 0 1 .857 1.515L28.765 23H30a1 1 0 1 1 0 2zm9-6h-4a1 1 0 0 1-.832-1.554L37.132 13H35a1 1 0 0 1 0-2h4a1 1 0 0 1 .832 1.555L36.868 17H39a1 1 0 0 1 0 2zm-10-5h-6a1 1 0 0 1-.763-1.647L27 6h-4a1 1 0 1 1 0-2h6a1 1 0 0 1 .768 1.641L25 12h4a1 1 0 0 1 0 2z" transform="translate(258 277)"/>
    </g>
</svg>
