<svg xmlns="http://www.w3.org/2000/svg" width="32" height="32" viewBox="0 0 32 32">
    <g transform="translate(-24 -154)">
        <circle cx="16" cy="16" r="16" fill="#fff" transform="translate(24 154)"/>
        <path fill="#898d8d" d="M-13803.42-1461.984a10.49 10.49 0 0 1-.2-10.748c.01-.021.01-.038.018-.055s.021-.021.027-.031c.056-.094.1-.194.152-.284a10.408 10.408 0 0 1 3.6-3.472c.014-.007.021-.021.034-.028s.021-.007.028-.01a10.49 10.49 0 0 1 5.1-1.369.341.341 0 0 1 .086-.021.513.513 0 0 1 .1.021 10.347 10.347 0 0 1 5.03 1.355.268.268 0 0 1 .076.024c.024.01.035.031.056.045.1.059.2.1.295.166a10.46 10.46 0 0 1 3.288 14.406.506.506 0 0 1-.427.236.494.494 0 0 1-.267-.076.492.492 0 0 1-.2-.579l-1.8-1.036a.5.5 0 0 1-.184-.686.5.5 0 0 1 .686-.187l1.771 1.026a9.384 9.384 0 0 0 1-3.787h-2.03a.5.5 0 0 1-.5-.5.5.5 0 0 1 .5-.5h2.023a9.743 9.743 0 0 0-.215-1.566 9.568 9.568 0 0 0-.808-2.2l-1.743 1a.512.512 0 0 1-.253.069.5.5 0 0 1-.433-.253.5.5 0 0 1 .184-.686l1.739-1a9.412 9.412 0 0 0-2.762-2.751l-1 1.736a.506.506 0 0 1-.434.25.514.514 0 0 1-.253-.066.5.5 0 0 1-.184-.686l1-1.736a9.282 9.282 0 0 0-3.763-1v2a.5.5 0 0 1-.5.5.5.5 0 0 1-.5-.5v-2a9.684 9.684 0 0 0-1.6.218 9.439 9.439 0 0 0-2.162.786l1 1.732a.5.5 0 0 1-.184.686.5.5 0 0 1-.249.066.505.505 0 0 1-.437-.25l-1-1.736a9.41 9.41 0 0 0-2.761 2.751l1.742 1a.5.5 0 0 1 .181.686.493.493 0 0 1-.434.253.5.5 0 0 1-.249-.069l-1.729-1a9.367 9.367 0 0 0-1.015 3.759h2a.5.5 0 0 1 .5.5.5.5 0 0 1-.5.5h-2.007a9.43 9.43 0 0 0 .991 3.776l1.757-1.015a.5.5 0 0 1 .683.187.5.5 0 0 1-.181.686l-1.8 1.036a.493.493 0 0 1-.2.579.482.482 0 0 1-.264.078.51.51 0 0 1-.419-.23zm7.145-5.554a1.7 1.7 0 0 1 1.7-1.7 1.676 1.676 0 0 1 .929.281l2.8-2.318a.5.5 0 0 1 .707.066.5.5 0 0 1-.066.707l-2.8 2.314a1.623 1.623 0 0 1 .132.648 1.7 1.7 0 0 1-1.7 1.7 1.7 1.7 0 0 1-1.702-1.698zm1 0a.7.7 0 0 0 .692.7.7.7 0 0 0 .7-.7.7.7 0 0 0-.7-.693.7.7 0 0 0-.688.693z" transform="translate(13834.536 1638.417)"/>
    </g>
</svg>
