<svg xmlns="http://www.w3.org/2000/svg" width="32" height="32" viewBox="0 0 32 32">
    <g transform="translate(-.369)">
        <circle cx="16" cy="16" r="16" transform="translate(.369)"/>
        <path fill="#898d8d" stroke="rgba(0,0,0,0)" stroke-miterlimit="10" d="M7.077 20.749a.438.438 0 0 1-.369-.432 1.264 1.264 0 0 0-.159-.606.44.44 0 0 1 0-.392 1.4 1.4 0 0 0-.208-1.594.438.438 0 0 1-.1-.391A1.408 1.408 0 0 0 6.289 17a1.439 1.439 0 0 0-.8-1.289.438.438 0 0 1-.194-.195 1.44 1.44 0 0 0-1.29-.8.571.571 0 0 1-.081.01.429.429 0 0 1-.387-.2 1.447 1.447 0 0 0-1.209-.653 1.438 1.438 0 0 0-.452.082.438.438 0 0 1-.439-.1 1.438 1.438 0 0 0-1-.4A.438.438 0 0 1 0 13.01v-.393c.03-2.365.066-5.707 1.87-6.912A1.744 1.744 0 0 1 .839 4.21V2.116A2.118 2.118 0 0 1 2.954 0h15.092a2.118 2.118 0 0 1 2.116 2.116V4.21a1.744 1.744 0 0 1-1.032 1.5c1.8 1.2 1.841 4.547 1.866 6.912v.393a.438.438 0 0 1-.437.443 1.438 1.438 0 0 0-1 .4.437.437 0 0 1-.439.1 1.408 1.408 0 0 0-1.661.571.45.45 0 0 1-.387.2c-.028 0-.057 0-.084-.009a1.436 1.436 0 0 0-1.284.8.438.438 0 0 1-.195.195 1.411 1.411 0 0 0-.76 1.624.437.437 0 0 1-.1.391 1.406 1.406 0 0 0-.208 1.594.438.438 0 0 1 0 .392 1.263 1.263 0 0 0-.158.606.438.438 0 0 1-.369.432A23.6 23.6 0 0 1 10.5 21a23.608 23.608 0 0 1-3.423-.251zm-2.965-6.91A2.308 2.308 0 0 1 6 15a2.308 2.308 0 0 1 1.16 2 2.124 2.124 0 0 1-.025.323 2.3 2.3 0 0 1 .445 1.355 2.265 2.265 0 0 1-.162.837 2.149 2.149 0 0 1 .127.421 23.955 23.955 0 0 0 2.952.191 23.948 23.948 0 0 0 2.952-.191 2.15 2.15 0 0 1 .128-.421 2.258 2.258 0 0 1-.163-.837 2.3 2.3 0 0 1 .445-1.355 2.124 2.124 0 0 1-.023-.323A2.308 2.308 0 0 1 15 15a2.308 2.308 0 0 1 1.893-1.157 2.25 2.25 0 0 1 2.271-.785 2.3 2.3 0 0 1 .961-.433c-.039-3.554-.263-6.5-2.62-6.5a.438.438 0 0 1 0-.875c.72 0 1.786-.437 1.786-1.04V2.116A1.242 1.242 0 0 0 18.046.875H2.954a1.242 1.242 0 0 0-1.24 1.241V4.21c0 .6 1.067 1.04 1.786 1.04a.438.438 0 0 1 0 .875c-2.357 0-2.582 2.941-2.62 6.5a2.3 2.3 0 0 1 .962.433 2.333 2.333 0 0 1 .521-.06 2.264 2.264 0 0 1 1.749.841zm7.7 4.536a.437.437 0 1 1 .437.437.437.437 0 0 1-.436-.437zm-3.5 0a.437.437 0 1 1 .437.437.438.438 0 0 1-.436-.437zm3.5-1.313a6.073 6.073 0 0 1 5.688-5.687.437.437 0 1 1 0 .875 5.213 5.213 0 0 0-4.812 4.812.437.437 0 1 1-.875 0zm-3.5 0A5.213 5.213 0 0 0 3.5 12.25a.437.437 0 0 1 0-.875 6.073 6.073 0 0 1 5.687 5.687.437.437 0 1 1-.875 0zm10.063-5.25a.437.437 0 1 1 .437.437.437.437 0 0 1-.437-.436zm-16.625 0a.438.438 0 1 1 .438.437.438.438 0 0 1-.438-.436zm12.688-5.687a.438.438 0 0 1 0-.875h1.312a.438.438 0 0 1 0 .875zm-3.063 0a.438.438 0 0 1 0-.875h1.312a.438.438 0 0 1 0 .875zm-3.063 0a.438.438 0 0 1 0-.875h1.313a.438.438 0 1 1 0 .875zm-3.063 0a.438.438 0 0 1 0-.875h1.314a.438.438 0 0 1 0 .875z" transform="translate(6.369 6)"/>
    </g>
</svg>
