<svg xmlns="http://www.w3.org/2000/svg" width="44" height="44" viewBox="0 0 44 44">
    <defs>
        <style>
            .cls-2{fill:#898d8d}
        </style>
    </defs>
    <g id="Group_1767" transform="translate(0 -8)">
        <circle id="Ellipse_280" cx="22" cy="22" r="22" fill="#efdae3" transform="translate(0 8)"/>
        <g id="pin" transform="translate(13 18)">
            <g id="Group_1716">
                <g id="Group_1715">
                    <path id="Path_1846" d="M78.988 6.351A9.035 9.035 0 0 0 73.13.445a9.287 9.287 0 0 0-12.159 8.83 9.156 9.156 0 0 0 1.843 5.536l7.391 9.428 7.382-9.416.009-.012a9.336 9.336 0 0 0 1.392-8.46zm-2.524 7.6l-6.259 7.985-6.259-7.985a7.747 7.747 0 0 1-1.554-4.678A7.867 7.867 0 0 1 72.71 1.8a7.6 7.6 0 0 1 4.921 4.97 7.931 7.931 0 0 1-1.167 7.183z" class="cls-2" transform="translate(-60.971)"/>
                </g>
            </g>
            <g id="Group_1718" transform="translate(4.262 4.303)">
                <g id="Group_1717">
                    <path id="Path_1847" d="M155.966 90.895a4.972 4.972 0 1 0 4.972 4.972 4.978 4.978 0 0 0-4.972-4.972zm0 8.524a3.552 3.552 0 1 1 3.552-3.552 3.556 3.556 0 0 1-3.552 3.552z" class="cls-2" transform="translate(-150.994 -90.895)"/>
                </g>
            </g>
        </g>
    </g>
</svg>
