<svg xmlns="http://www.w3.org/2000/svg" width="44" height="44" viewBox="0 0 44 44">
    <g transform="translate(-24 -703)">
        <circle cx="22" cy="22" r="22" fill="#fae7dd" transform="translate(24 703)"/>
        <g>
            <g>
                <path fill="#898d8d" d="M32.781 14.285a3.869 3.869 0 0 0-3.114 1.574l-6.079-3.106a3.872 3.872 0 0 0-.126-2.544l6.371-3.828a3.857 3.857 0 1 0-.662-1.108L22.784 9.11a3.872 3.872 0 1 0 .237 4.8l6.061 3.1a3.873 3.873 0 1 0 3.7-2.724zm0-12.994A2.582 2.582 0 1 1 30.2 3.872a2.585 2.585 0 0 1 2.581-2.581zM19.872 14.242a2.582 2.582 0 1 1 2.582-2.582 2.585 2.585 0 0 1-2.582 2.582zm12.908 6.5a2.582 2.582 0 1 1 2.582-2.582 2.585 2.585 0 0 1-2.581 2.579z" transform="translate(36 714) translate(-16)"/>
            </g>
        </g>
    </g>
</svg>
