<svg xmlns="http://www.w3.org/2000/svg" width="32" height="32" viewBox="0 0 32 32">
    <g transform="translate(-.246)">
        <circle cx="16" cy="16" r="16" fill="#fff" transform="translate(.246)"/>
        <path fill="#898d8d" stroke="rgba(0,0,0,0)" stroke-miterlimit="10" d="M1.846 21A1.8 1.8 0 0 1 0 19.251V4.375A1.77 1.77 0 0 1 1.384 2.68V1.314A1.352 1.352 0 0 1 2.771 0h6.458a1.352 1.352 0 0 1 1.386 1.314V2.68A1.77 1.77 0 0 1 12 4.375v14.876A1.8 1.8 0 0 1 10.154 21zM.923 4.375v14.876a.9.9 0 0 0 .923.875h8.309a.9.9 0 0 0 .923-.875V17.5H8.769a.438.438 0 1 1 0-.875h2.308V14H8.769a.438.438 0 1 1 0-.875h2.308V10.5H8.769a.438.438 0 1 1 0-.875h2.308V7H8.769a.438.438 0 1 1 0-.875h2.308v-1.75a.9.9 0 0 0-.923-.875H1.846a.9.9 0 0 0-.923.875zm1.385-3.061v1.311h7.384V1.314a.452.452 0 0 0-.463-.439H2.771a.452.452 0 0 0-.463.439z" transform="translate(10.246 6)"/>
    </g>
</svg>
