<svg xmlns="http://www.w3.org/2000/svg" width="17.551" height="32.005" viewBox="0 0 17.551 32.005">
  <g id="iPhone" transform="translate(110.006 -22.998)">
    <path id="Path_8110" data-name="Path 8110" d="M41.857,8H29.667C27.628,7.94,26.917,9.118,27,10.667V37.333c-.03,1.925.973,2.717,2.667,2.667h12.19c1.7.024,2.858-.821,2.667-2.667V10.667A2.368,2.368,0,0,0,41.857,8Zm.7,29.333c0,.631-.072.7-.7.7H29.667c-.631,0-.5-.068-.5-.7l-.082-26.667c0-.631,0-.7.635-.7h1.9c.21,0,.327.726.327.936A1.143,1.143,0,0,0,33.1,12.048h5.333A1.143,1.143,0,0,0,39.571,10.9c-.056-.436.116-.983.381-.936h1.9c.631,0,.658.067.658.7Z" transform="translate(-137 15)"/>
  </g>
</svg>
