<svg xmlns="http://www.w3.org/2000/svg" width="26.117" height="37.75" viewBox="0 0 26.117 37.75">
    <path fill="#FFFFFF" d="M998.867 1127.926c-.663-.891-1.363-1.767-2.092-2.614a10.112 10.112 0 0 0 4.863-1.579 9.252 9.252 0 0 0 4.522-8.413c0-6.864-3.957-10.8-10.856-10.8h-11.5v37.75h6.213v-11.774c0-2.131-.022-3.28-.088-4.594.846 1.278 1.745 2.519 2.683 3.7l9.388 12.663h7.921zm-8.843-18.05c.071 0 .14 0 .208-.007h4.106c3.705 0 5.506 1.712 5.506 5.234s-1.8 5.234-5.506 5.234h-4.049c-.088-.006-.175-.008-.263-.009 0-.068 0-.137-.007-.2v-9.995c.002-.087.005-.172.005-.257z" transform="translate(-983.806 -1104.519)"/>
</svg>
