<svg xmlns="http://www.w3.org/2000/svg" xmlns:xlink="http://www.w3.org/1999/xlink" width="77.494" height="77.494" viewBox="0 0 77.494 77.494">
  <defs>
    <filter id="Ellipse_261" x="0" y="0" width="77.494" height="77.494" filterUnits="userSpaceOnUse">
      <feOffset input="SourceAlpha"/>
      <feGaussianBlur stdDeviation="1.439" result="blur"/>
      <feFlood flood-color="#1d1d1b" flood-opacity="0.302"/>
      <feComposite operator="in" in2="blur"/>
      <feComposite in="SourceGraphic"/>
    </filter>
  </defs>
  <g id="ic-track" transform="translate(-148.683 4.317)">
    <g transform="matrix(1, 0, 0, 1, 148.68, -4.32)" filter="url(#Ellipse_261)">
      <circle id="Ellipse_261-2" data-name="Ellipse 261" cx="34.43" cy="34.43" r="34.43" transform="translate(4.32 4.32)" fill="#ffcd00"/>
    </g>
    <path id="Union_14" data-name="Union 14" d="M-6901-1236v-14h-14a1,1,0,0,1-1-1,1,1,0,0,1,1-1h14v-14a1,1,0,0,1,1-1,1,1,0,0,1,1,1v14h14a1,1,0,0,1,1,1,1,1,0,0,1-1,1h-14v14a1,1,0,0,1-1,1A1,1,0,0,1-6901-1236Z" transform="translate(7087 1285)" fill="#1d1d1b"/>
  </g>
</svg>
