<svg xmlns="http://www.w3.org/2000/svg" width="340" height="340" viewBox="0 0 340 340">
    <defs>
        <clipPath id="clip-path">
            <rect id="Mask" width="19.048" height="19.048" fill="#d8d8d8" rx="6"/>
        </clipPath>
        <filter id="Rectangle_1296" width="259" height="95" x="41.5" y="151.5" filterUnits="userSpaceOnUse">
            <feOffset dy="1"/>
            <feGaussianBlur result="blur" stdDeviation="1.5"/>
            <feFlood flood-opacity=".161"/>
            <feComposite in2="blur" operator="in"/>
            <feComposite in="SourceGraphic"/>
        </filter>
        <style>
            .cls-3{fill:#fff}.cls-12{font-family:FuturaSBMedela-DemiBold,FuturaSB Medela;font-weight:300;font-size:11px;fill:#c8c8ca}
        </style>
    </defs>
    <g id="Group_2690" transform="translate(-18 -130)">
        <circle id="Ellipse_553" cx="170" cy="170" r="170" fill="#f9f9f9" transform="translate(18 130)"/>
        <g id="Group_2683" transform="translate(-11.75 10)">
            <rect id="Rectangle_1295" width="289" height="167" class="cls-3" rx="10" transform="translate(55.75 207)"/>
            <text id="Cancel" fill="#0d7cff" font-family="FuturaSBMedela-DemiBold, FuturaSB Medela" font-size="12px" font-weight="300" transform="translate(73.75 231)">
                <tspan x="0" y="0">Cancel</tspan>
            </text>
            <text id="Next" fill="#0d7cff" font-family="FuturaSBMedela-DemiBold, FuturaSB Medela" font-size="11px" font-weight="300" transform="translate(301.75 230)">
                <tspan x="0" y="0">Next</tspan>
            </text>
            <text id="New_Shortut" font-family="FuturaSBMedela-DemiBold, FuturaSB Medela" font-size="25px" font-weight="800" transform="translate(73.75 266)">
                <tspan x="0" y="0">New Shortcut</tspan>
            </text>
        </g>
        <g filter="url(#Rectangle_1296)" transform="translate(18 130)">
            <rect id="Rectangle_1296-2" width="250" height="86" class="cls-3" rx="10" transform="translate(46 155)"/>
        </g>
        <g id="Group_2684" transform="translate(190 -97)">
            <circle id="Ellipse_564" cx="10" cy="10" r="10" fill="#0d7cff" transform="translate(100 347)"/>
            <g id="Group_2685" transform="translate(1)">
                <circle id="Ellipse_565" cx="1.5" cy="1.5" r="1.5" class="cls-3" transform="translate(108 356)"/>
                <circle id="Ellipse_566" cx="1.5" cy="1.5" r="1.5" class="cls-3" transform="translate(103 356)"/>
                <circle id="Ellipse_567" cx="1.5" cy="1.5" r="1.5" class="cls-3" transform="translate(113 356)"/>
            </g>
        </g>
        <g id="Thumbnail" transform="translate(72 292)">
            <g id="Group" clip-path="url(#clip-path)" transform="translate(0 -1.048)">
                <path id="Image" d="M0 0H19.048V19.048H0z" class="cls-3"/>
                <g id="_Layer_" transform="translate(4.286 2.857)">
                    <g id="Group_2">
                        <path id="Path_1" fill="#ffc000" fill-rule="evenodd" d="M59.327 77.235a3.165 3.165 0 0 1 1.031-3.615 2.466 2.466 0 0 1 2.379-.328 5.673 5.673 0 0 0 1.714.573 5.668 5.668 0 0 0 1.713-.573 2.466 2.466 0 0 1 2.379.328 3.162 3.162 0 0 1 1.031 3.615c-.653 2.08-5.123 5.184-5.123 5.184s-4.438-2.996-5.124-5.184zm5.124-8.147a1.846 1.846 0 1 1-1.846 1.846 1.846 1.846 0 0 1 1.846-1.846zm2.149 5.843a1.363 1.363 0 1 1-1.363 1.362 1.363 1.363 0 0 1 1.363-1.362zm.1 3.645c-1.453.567-4.287.677-5.279-.659a1.385 1.385 0 0 1-.141-1.28 1.254 1.254 0 0 1 1.061-.73c1.259-.08 2.169 2.399 4.359 2.669z" transform="translate(-59.148 -69.088)"/>
                    </g>
                </g>
            </g>
        </g>
        <text id="Start_Breastfeeding" font-family="FuturaSBMedela-DemiBold, FuturaSB Medela" font-size="18px" font-weight="800" transform="translate(75 334)">
            <tspan x="0" y="0">Start Breastfeeding</tspan>
        </text>
        <text id="MYMEDELA" class="cls-12" transform="translate(99 304)">
            <tspan x="0" y="0">MYMEDELA</tspan>
        </text>
        <path id="Chevron" fill="#c8c8ca" d="M7.2-13.855a.671.671 0 0 1-.231.513L2.58-9.047a.642.642 0 0 1-.468.192.665.665 0 0 1-.671-.671.688.688 0 0 1 .2-.479l3.959-3.85-3.952-3.85a.7.7 0 0 1-.2-.479.665.665 0 0 1 .671-.671.642.642 0 0 1 .468.192l4.386 4.29a.691.691 0 0 1 .227.518z" transform="translate(288.733 371.413)"/>
        <path id="Line_112" fill="none" stroke="#c8c8ca" d="M0 0L249 0" opacity="0.33" transform="translate(64.5 345.5)"/>
        <text id="Show_More" class="cls-12" transform="translate(78 362)">
            <tspan x="0" y="0">Show More</tspan>
        </text>
        <g id="Group_2684-2" transform="rotate(45 267.684 556.85)">
            <circle id="Ellipse_564-2" cx="7.5" cy="7.5" r="7.5" fill="#e0e0e3" transform="translate(100 347)"/>
            <g id="Group_2682" transform="translate(104 351)">
                <path id="Rectangle_1293" d="M0 0H0.768V7.685H0z" class="cls-3" transform="translate(3.169)"/>
                <path id="Rectangle_1294" d="M0 0H0.84V7H0z" class="cls-3" transform="rotate(90 1.824 5.176)"/>
            </g>
        </g>
    </g>
</svg>
