<svg xmlns="http://www.w3.org/2000/svg" width="70" height="70" viewBox="0 0 70 70">
    <defs>
        <style>
            .cls-2{fill:#898d8d}
        </style>
    </defs>
    <g id="ic-growth" transform="translate(-153 -266)">
        <circle id="Ellipse_216" cx="35" cy="35" r="35" fill="#eddced" transform="translate(153 266)"/>
        <g id="Group_2591" transform="translate(-1714.967 -200)">
            <path id="Path_8028" d="M1898 501v9a5 5 0 0 0 10 0v-9a5 5 0 0 0-10 0zm8 0v9a3 3 0 0 1-6 0v-9a3 3 0 0 1 6 0z" class="cls-2"/>
            <path id="Path_8029" d="M1913 508a1 1 0 0 0-1 1v2a9 9 0 0 1-18 0v-2a1 1 0 0 0-2 0v2a11.01 11.01 0 0 0 10 10.949v2.034a1 1 0 0 0 2 0v-2.034A11.01 11.01 0 0 0 1914 511v-2a1 1 0 0 0-1-1z" class="cls-2"/>
            <path id="Path_8030" d="M1910.858 495.619a1 1 0 1 0 1.746-.974 10.992 10.992 0 0 0-19.208 0 1 1 0 1 0 1.746.974 8.994 8.994 0 0 1 15.716 0z" class="cls-2"/>
            <path id="Path_8031" d="M1903 483a17.778 17.778 0 0 0-13.695 6.512 1 1 0 1 0 1.539 1.277 15.657 15.657 0 0 1 24.312 0 1 1 0 1 0 1.539-1.277A17.778 17.778 0 0 0 1903 483z" class="cls-2"/>
            <path id="Path_8032" d="M1920.76 484.585a24.585 24.585 0 0 0-35.52 0 1 1 0 0 0 1.453 1.375 22.583 22.583 0 0 1 32.614 0 1 1 0 0 0 1.453-1.375z" class="cls-2"/>
        </g>
    </g>
</svg>
