<?xml version="1.0" standalone="no"?>
<!DOCTYPE svg PUBLIC "-//W3C//DTD SVG 20010904//EN"
 "http://www.w3.org/TR/2001/REC-SVG-20010904/DTD/svg10.dtd">
<svg version="1.0" xmlns="http://www.w3.org/2000/svg"
 width="1020.000000pt" height="1020.000000pt" viewBox="0 0 1020.000000 1020.000000"
 preserveAspectRatio="xMidYMid meet">
<metadata>
Created by potrace 1.16, written by Peter Selinger 2001-2019
</metadata>
<g transform="translate(0.000000,1020.000000) scale(0.100000,-0.100000)"
fill="#000000" stroke="none">
<path d="M8180 7015 c0 -108 1 -115 20 -115 17 0 19 8 22 81 l3 82 55 -81 c41
-61 61 -81 78 -82 22 0 22 2 22 115 0 108 -1 115 -20 115 -17 0 -19 -8 -22
-81 l-3 -82 -55 81 c-41 61 -61 81 -77 82 -23 0 -23 -2 -23 -115z"/>
<path d="M1423 7113 c-12 -2 -36 -20 -53 -39 -24 -28 -30 -44 -30 -80 0 -82
43 -129 119 -128 53 0 71 10 71 39 0 25 -1 25 -22 11 -27 -19 -48 -20 -81 -5
-63 29 -60 133 4 160 28 11 43 10 82 -6 13 -5 17 -2 17 13 0 12 -3 23 -8 26
-13 8 -76 14 -99 9z"/>
<path d="M1595 7018 c-11 -6 -23 -16 -27 -22 -11 -16 -10 -74 2 -96 13 -24 55
-33 82 -19 17 9 23 9 26 0 2 -6 12 -11 23 -11 17 0 19 8 19 75 0 68 -2 75 -20
75 -11 0 -20 -5 -20 -11 0 -5 -10 -3 -22 5 -26 19 -36 19 -63 4z"/>
<path d="M2139 7019 c-54 -20 -61 -100 -12 -139 31 -24 45 -25 85 -4 22 11 27
19 19 27 -7 7 -18 7 -38 -2 -25 -11 -29 -10 -46 11 l-19 23 56 3 c51 3 56 5
56 27 0 23 -23 55 -40 55 -5 0 -14 2 -22 4 -7 3 -25 0 -39 -5z"/>
<path d="M8403 6590 c-228 -46 -316 -334 -152 -499 83 -84 222 -109 330 -59
228 104 231 430 4 533 -60 27 -125 36 -182 25z"/>
<path d="M3320 6085 l0 -265 45 0 45 0 0 109 c0 107 1 110 27 130 28 23 59 20
81 -7 8 -10 12 -53 12 -124 l0 -108 45 0 45 0 0 120 c0 146 -12 182 -64 200
-45 14 -88 6 -125 -25 l-28 -24 5 130 5 129 -47 0 -46 0 0 -265z"/>
<path d="M3055 6321 c-73 -18 -105 -59 -105 -131 0 -72 36 -118 128 -164 64
-32 82 -64 58 -101 -24 -36 -80 -35 -119 3 l-28 27 -30 -35 -29 -35 30 -27
c84 -78 246 -50 278 47 28 86 -7 150 -116 207 -28 15 -59 39 -68 53 -15 23
-15 27 0 50 21 31 72 34 108 5 l25 -19 27 27 c34 36 33 46 -6 70 -38 23 -110
34 -153 23z"/>
<path d="M1370 6070 l0 -250 51 0 51 0 -4 176 c-3 158 -2 174 12 156 8 -11 64
-90 124 -176 l110 -156 48 0 c36 0 48 4 49 15 0 8 1 116 1 240 0 124 -1 230
-1 235 -1 6 -21 10 -46 10 l-45 0 0 -180 0 -181 -56 83 c-31 46 -88 127 -126
181 l-69 97 -49 0 -50 0 0 -250z"/>
<path d="M4390 6190 c0 -43 -3 -50 -20 -50 -16 0 -20 -7 -20 -35 0 -28 4 -35
20 -35 19 0 20 -7 20 -125 l0 -125 45 0 45 0 0 125 0 125 25 0 c22 0 25 4 25
35 0 31 -3 35 -25 35 -23 0 -25 3 -25 50 l0 50 -45 0 -45 0 0 -50z"/>
<path d="M4990 6190 c0 -47 -2 -50 -25 -50 -22 0 -25 -4 -25 -34 0 -28 4 -35
23 -38 21 -3 22 -7 25 -125 l3 -123 39 0 c45 0 41 -16 43 150 l2 95 28 3 c24
3 27 8 27 38 0 31 -3 34 -30 34 -27 0 -29 2 -28 38 1 62 0 62 -42 62 l-40 0 0
-50z"/>
<path d="M1995 6135 c-96 -35 -132 -158 -75 -253 42 -69 164 -88 240 -38 22
15 40 32 40 39 0 7 -16 21 -35 30 -30 14 -36 15 -41 3 -3 -8 -19 -20 -35 -26
-40 -17 -84 2 -98 41 l-10 29 115 0 114 0 0 43 c0 104 -109 171 -215 132z"/>
<path d="M3811 6140 c-80 -20 -124 -84 -118 -173 6 -97 67 -152 167 -151 97 0
159 48 174 134 21 125 -94 223 -223 190z m109 -94 c32 -35 33 -96 1 -130 -30
-32 -78 -34 -112 -7 -20 16 -24 29 -24 71 0 42 4 55 24 71 33 27 82 25 111 -5z"/>
<path d="M4247 6139 c-10 -6 -27 -25 -38 -42 l-19 -32 0 38 c0 37 0 37 -40 37
l-40 0 0 -160 0 -160 45 0 45 0 0 100 c0 88 2 102 21 121 16 16 29 20 54 16
35 -6 45 7 45 59 0 32 -38 43 -73 23z"/>
<path d="M2230 6132 c0 -5 24 -76 53 -158 l53 -149 45 -3 44 -3 29 108 c15 59
30 115 33 123 2 8 18 -37 34 -100 17 -63 34 -119 38 -123 5 -5 25 -7 46 -5
l38 3 53 150 c29 83 53 154 53 158 1 4 -20 7 -46 5 l-48 -3 -25 -107 c-14 -60
-27 -108 -30 -108 -3 0 -11 24 -17 53 -6 28 -18 78 -28 110 l-16 57 -49 0 -48
0 -28 -104 c-16 -58 -31 -102 -34 -99 -3 2 -16 48 -30 101 l-26 97 -47 3 c-26
2 -47 -1 -47 -6z"/>
<path d="M4590 6015 c0 -122 1 -125 28 -156 53 -59 181 -59 234 0 27 31 28 34
28 156 l0 125 -45 0 -45 0 0 -113 c0 -124 -5 -137 -55 -137 -50 0 -55 13 -55
137 l0 113 -45 0 -45 0 0 -125z"/>
</g>
</svg>
