<svg xmlns="http://www.w3.org/2000/svg" width="340" height="340" viewBox="0 0 340 340">
    <defs>
        <style>
            .cls-2{fill:none}
        </style>
    </defs>
    <g id="Group_2691" transform="translate(-18 -130)">
        <circle id="Ellipse_553" cx="170" cy="170" r="170" fill="#f9f9f9" transform="translate(18 130)"/>
        <g id="Thumbs_Up" transform="translate(20 79)">
            <path id="Path_1908" d="M86.131 0A86.131 86.131 0 1 1 0 86.131 86.131 86.131 0 0 1 86.131 0z" class="cls-2" transform="translate(82 135)"/>
            <g id="noun_like_2357936" transform="translate(117.888 179.501)">
                <path id="Path_8051" fill="#ffc000" d="M91.65 38.047H69.412a39.991 39.991 0 0 0 4.545-11.524c.934-4.6.538-8.711-1.144-11.9a10.971 10.971 0 0 0-9.794-5.976h-.043a7.052 7.052 0 0 0-6.32 3.09 16.877 16.877 0 0 0-1.956 5.791c-1.167 5.4-2.757 12.763-14 20.519h-8.825a8.846 8.846 0 0 0-8.325-5.888H2.943A2.943 2.943 0 0 0 0 35.1v52.99a2.943 2.943 0 0 0 2.943 2.943h20.606a8.845 8.845 0 0 0 8.325-5.888h3.442c9.885 2.748 20.131 5.888 30.794 5.888h13.763a8.827 8.827 0 0 0 8.207-12.087 8.834 8.834 0 0 0 5.888-11.775 8.833 8.833 0 0 0 4.256-14.407 8.837 8.837 0 0 0-6.576-14.719zM69.08 55.709h22.57a2.943 2.943 0 0 1 0 5.887H69.08a2.943 2.943 0 0 0 0 5.887h16.682a2.943 2.943 0 1 1 0 5.887H69.08a2.943 2.943 0 1 0 0 5.887h10.794a2.943 2.943 0 0 1 0 5.887H66.111c-9.937 0-19.947-3.1-29.607-5.78-.5-.138-.446-.068-4.123-.068v-35.4c4.507 0 9.24.039 9.24.039a2.946 2.946 0 0 0 1.617-.494c13.891-9.26 15.973-18.906 17.218-24.669.917-4.245 1.071-4.243 2.54-4.239a5.045 5.045 0 0 1 4.604 2.828c.923 1.752 3.225 8.515-5.926 21.97a2.946 2.946 0 0 0 2.434 4.6h27.54a2.943 2.943 0 0 1 0 5.887h-22.57a2.943 2.943 0 0 0 0 5.887z" transform="translate(0 -8.644)"/>
                <rect id="Rectangle_1291" width="23" height="49" class="cls-2" rx="2" transform="translate(4.243 28.63)"/>
            </g>
        </g>
    </g>
</svg>
