<svg xmlns="http://www.w3.org/2000/svg" width="44" height="44" viewBox="0 0 44 44">
    <g transform="translate(0 -8)">
        <circle cx="22" cy="22" r="22" fill="#eaf2de" transform="translate(0 8)"/>
        <path fill="#898d8d" d="M2175.069 636.518v-.008a.466.466 0 0 0-.031-.153c-.007-.019-.018-.035-.027-.053a.456.456 0 0 0-.029-.057l-3.678-5.057a.46.46 0 0 0-.145-.127l-.011-.008a.453.453 0 0 0-.177-.05h-13.869a.452.452 0 0 0-.177.05l-.011.008a.46.46 0 0 0-.145.127l-3.678 5.057a.43.43 0 0 0-.029.057.485.485 0 0 0-.027.052.454.454 0 0 0-.031.153v.008a.47.47 0 0 0 .033.162.422.422 0 0 0 .025.049.455.455 0 0 0 .032.063l10.569 14.253.01.009a.455.455 0 0 0 .141.118s.008.008.012.01.016 0 .023.006a.436.436 0 0 0 .115.033c.007 0 .012.005.019.006H2164.092c.007 0 .012 0 .019-.006a.445.445 0 0 0 .115-.033l.034-.016a.449.449 0 0 0 .142-.119s.007 0 .01-.008l10.569-14.253a.476.476 0 0 0 .032-.062.4.4 0 0 0 .058-.211zm-17.768.459l4.55 10.085-7.478-10.085zm16.394 0l-7.463 10.053 4.536-10.053zm-9.661 10.877l-1.759-10.877h3.517zm1.009-.426l1.681-10.451h3.034zm2.329-11.371l1.12-1.232 1.008 1.232zm-1.039-.224l-1.677-1.845 1.658-1.825 1.589 1.943zm-1.04.224h-2.519l1.259-1.386zm-3.558-.224l-1.571-1.728 1.589-1.943 1.658 1.825zm-1.039.224h-2.129l1.008-1.232zm.647.919l1.681 10.451-4.716-10.451zm12.362-.919h-3.018l-1.571-1.92 1.773-1.951zm-5.177-2.64l-1.226-1.5h2.589zm-4.495-.114l-1.259-1.385h2.518zm-4.495.114l-1.362-1.5h2.589zm-.589.72l-1.57 1.92h-3.018l2.815-3.871z" transform="translate(-2142 -610)"/>
    </g>
</svg>
