<svg xmlns="http://www.w3.org/2000/svg" width="340" height="340" viewBox="0 0 340 340">
    <defs>
        <clipPath id="clip-path">
            <rect id="Mask" width="14.286" height="14.286" fill="#d8d8d8" rx="4"/>
        </clipPath>
        <style>
            .cls-5{fill:#d8d8d8;opacity:0}.cls-6{clip-path:url(#clip-path)}.cls-7{fill:#fff}.cls-8{fill:#ffc000;fill-rule:evenodd}
        </style>
    </defs>
    <g id="Group_2689" transform="translate(-18 -130)">
        <circle id="Ellipse_553" cx="170" cy="170" r="170" fill="#f9f9f9" transform="translate(18 130)"/>
        <g id="Group_2683" transform="translate(-8.75 10)">
            <rect id="Rectangle_1295" width="255" height="230" fill="#ebebeb" rx="10" transform="translate(69.75 175)"/>
            <text id="Start_breastfeeding_Pause_breastfeeding_Continue_breastfeeding_Stop_breastfeeding_Start_sleep_Stop_sleep_Track_a_diaper_Track_length_Track_weight_Start_Pumping_Stop_Pumping" font-family="FuturaSBMedela-DemiBold, FuturaSB Medela" font-size="12px" font-weight="300" letter-spacing="0.015em" transform="translate(113.75 194)">
                <tspan x="0" y="0">Start breastfeeding</tspan><tspan x="0" y="20.1">Pause breastfeeding</tspan><tspan x="0" y="40.2">Continue breastfeeding</tspan><tspan x="0" y="60.3">Stop breastfeeding</tspan><tspan x="0" y="80.4">Start sleep</tspan><tspan x="0" y="100.5">Stop sleep</tspan><tspan x="0" y="120.6">Track a diaper</tspan><tspan x="0" y="140.7">Track length</tspan><tspan x="0" y="160.8">Track weight</tspan><tspan x="0" y="180.9">Start Pumping</tspan><tspan x="0" y="201">Stop Pumping</tspan>
            </text>
        </g>
        <g id="Thumbnail" transform="translate(80 195)">
            <rect id="Mask-12" width="14.286" height="15" class="cls-5" rx="5" transform="translate(0 -2)"/>
            <g id="Group" class="cls-6" transform="translate(0 -1.286)">
                <path id="Image" d="M0 0H14.286V14.286H0z" class="cls-7"/>
                <g id="_Layer_" transform="translate(3.214 2.143)">
                    <g id="Group_2">
                        <path id="Path_1" d="M59.282 75.2a2.374 2.374 0 0 1 .774-2.711 1.849 1.849 0 0 1 1.784-.246 4.255 4.255 0 0 0 1.285.43 4.251 4.251 0 0 0 1.285-.43 1.849 1.849 0 0 1 1.784.246 2.372 2.372 0 0 1 .773 2.711c-.49 1.56-3.843 3.888-3.843 3.888S59.8 76.839 59.282 75.2zm3.843-6.11a1.384 1.384 0 1 1-1.384 1.384 1.384 1.384 0 0 1 1.384-1.384zm1.614 4.382a1.022 1.022 0 1 1-1.022 1.022 1.022 1.022 0 0 1 1.022-1.022zm.072 2.734c-1.09.425-3.215.508-3.959-.494a1.039 1.039 0 0 1-.106-.96.94.94 0 0 1 .8-.547c.94-.063 1.624 1.795 3.266 1.995z" class="cls-8" transform="translate(-59.148 -69.088)"/>
                    </g>
                </g>
            </g>
        </g>
        <g id="Thumbnail-2" transform="translate(80 215)">
            <rect id="Mask-13" width="14.286" height="15" class="cls-5" rx="5" transform="translate(0 -2)"/>
            <g id="Group-2" class="cls-6" transform="translate(0 -1.286)">
                <path id="Image-2" d="M0 0H14.286V14.286H0z" class="cls-7"/>
                <g id="_Layer_2" transform="translate(3.214 2.143)">
                    <g id="Group_2-2">
                        <path id="Path_1-2" d="M59.282 75.2a2.374 2.374 0 0 1 .774-2.711 1.849 1.849 0 0 1 1.784-.246 4.255 4.255 0 0 0 1.285.43 4.251 4.251 0 0 0 1.285-.43 1.849 1.849 0 0 1 1.784.246 2.372 2.372 0 0 1 .773 2.711c-.49 1.56-3.843 3.888-3.843 3.888S59.8 76.839 59.282 75.2zm3.843-6.11a1.384 1.384 0 1 1-1.384 1.384 1.384 1.384 0 0 1 1.384-1.384zm1.614 4.382a1.022 1.022 0 1 1-1.022 1.022 1.022 1.022 0 0 1 1.022-1.022zm.072 2.734c-1.09.425-3.215.508-3.959-.494a1.039 1.039 0 0 1-.106-.96.94.94 0 0 1 .8-.547c.94-.063 1.624 1.795 3.266 1.995z" class="cls-8" transform="translate(-59.148 -69.088)"/>
                    </g>
                </g>
            </g>
        </g>
        <g id="Thumbnail-3" transform="translate(80 235)">
            <rect id="Mask-14" width="14.286" height="15" class="cls-5" rx="5" transform="translate(0 -2)"/>
            <g id="Group-3" class="cls-6" transform="translate(0 -1.286)">
                <path id="Image-3" d="M0 0H14.286V14.286H0z" class="cls-7"/>
                <g id="_Layer_3" transform="translate(3.214 2.143)">
                    <g id="Group_2-3">
                        <path id="Path_1-3" d="M59.282 75.2a2.374 2.374 0 0 1 .774-2.711 1.849 1.849 0 0 1 1.784-.246 4.255 4.255 0 0 0 1.285.43 4.251 4.251 0 0 0 1.285-.43 1.849 1.849 0 0 1 1.784.246 2.372 2.372 0 0 1 .773 2.711c-.49 1.56-3.843 3.888-3.843 3.888S59.8 76.839 59.282 75.2zm3.843-6.11a1.384 1.384 0 1 1-1.384 1.384 1.384 1.384 0 0 1 1.384-1.384zm1.614 4.382a1.022 1.022 0 1 1-1.022 1.022 1.022 1.022 0 0 1 1.022-1.022zm.072 2.734c-1.09.425-3.215.508-3.959-.494a1.039 1.039 0 0 1-.106-.96.94.94 0 0 1 .8-.547c.94-.063 1.624 1.795 3.266 1.995z" class="cls-8" transform="translate(-59.148 -69.088)"/>
                    </g>
                </g>
            </g>
        </g>
        <g id="Thumbnail-4" transform="translate(80 255)">
            <rect id="Mask-15" width="14.286" height="15" class="cls-5" rx="5" transform="translate(0 -2)"/>
            <g id="Group-4" class="cls-6" transform="translate(0 -1.286)">
                <path id="Image-4" d="M0 0H14.286V14.286H0z" class="cls-7"/>
                <g id="_Layer_4" transform="translate(3.214 2.143)">
                    <g id="Group_2-4">
                        <path id="Path_1-4" d="M59.282 75.2a2.374 2.374 0 0 1 .774-2.711 1.849 1.849 0 0 1 1.784-.246 4.255 4.255 0 0 0 1.285.43 4.251 4.251 0 0 0 1.285-.43 1.849 1.849 0 0 1 1.784.246 2.372 2.372 0 0 1 .773 2.711c-.49 1.56-3.843 3.888-3.843 3.888S59.8 76.839 59.282 75.2zm3.843-6.11a1.384 1.384 0 1 1-1.384 1.384 1.384 1.384 0 0 1 1.384-1.384zm1.614 4.382a1.022 1.022 0 1 1-1.022 1.022 1.022 1.022 0 0 1 1.022-1.022zm.072 2.734c-1.09.425-3.215.508-3.959-.494a1.039 1.039 0 0 1-.106-.96.94.94 0 0 1 .8-.547c.94-.063 1.624 1.795 3.266 1.995z" class="cls-8" transform="translate(-59.148 -69.088)"/>
                    </g>
                </g>
            </g>
        </g>
        <g id="Thumbnail-5" transform="translate(80 275)">
            <rect id="Mask-16" width="14.286" height="15" class="cls-5" rx="5" transform="translate(0 -2)"/>
            <g id="Group-5" class="cls-6" transform="translate(0 -1.286)">
                <path id="Image-5" d="M0 0H14.286V14.286H0z" class="cls-7"/>
                <g id="_Layer_5" transform="translate(3.214 2.143)">
                    <g id="Group_2-5">
                        <path id="Path_1-5" d="M59.282 75.2a2.374 2.374 0 0 1 .774-2.711 1.849 1.849 0 0 1 1.784-.246 4.255 4.255 0 0 0 1.285.43 4.251 4.251 0 0 0 1.285-.43 1.849 1.849 0 0 1 1.784.246 2.372 2.372 0 0 1 .773 2.711c-.49 1.56-3.843 3.888-3.843 3.888S59.8 76.839 59.282 75.2zm3.843-6.11a1.384 1.384 0 1 1-1.384 1.384 1.384 1.384 0 0 1 1.384-1.384zm1.614 4.382a1.022 1.022 0 1 1-1.022 1.022 1.022 1.022 0 0 1 1.022-1.022zm.072 2.734c-1.09.425-3.215.508-3.959-.494a1.039 1.039 0 0 1-.106-.96.94.94 0 0 1 .8-.547c.94-.063 1.624 1.795 3.266 1.995z" class="cls-8" transform="translate(-59.148 -69.088)"/>
                    </g>
                </g>
            </g>
        </g>
        <g id="Thumbnail-6" transform="translate(80 295)">
            <rect id="Mask-17" width="14.286" height="15" class="cls-5" rx="5" transform="translate(0 -2)"/>
            <g id="Group-6" class="cls-6" transform="translate(0 -1.286)">
                <path id="Image-6" d="M0 0H14.286V14.286H0z" class="cls-7"/>
                <g id="_Layer_6" transform="translate(3.214 2.143)">
                    <g id="Group_2-6">
                        <path id="Path_1-6" d="M59.282 75.2a2.374 2.374 0 0 1 .774-2.711 1.849 1.849 0 0 1 1.784-.246 4.255 4.255 0 0 0 1.285.43 4.251 4.251 0 0 0 1.285-.43 1.849 1.849 0 0 1 1.784.246 2.372 2.372 0 0 1 .773 2.711c-.49 1.56-3.843 3.888-3.843 3.888S59.8 76.839 59.282 75.2zm3.843-6.11a1.384 1.384 0 1 1-1.384 1.384 1.384 1.384 0 0 1 1.384-1.384zm1.614 4.382a1.022 1.022 0 1 1-1.022 1.022 1.022 1.022 0 0 1 1.022-1.022zm.072 2.734c-1.09.425-3.215.508-3.959-.494a1.039 1.039 0 0 1-.106-.96.94.94 0 0 1 .8-.547c.94-.063 1.624 1.795 3.266 1.995z" class="cls-8" transform="translate(-59.148 -69.088)"/>
                    </g>
                </g>
            </g>
        </g>
        <g id="Thumbnail-7" transform="translate(80 315)">
            <rect id="Mask-18" width="14.286" height="15" class="cls-5" rx="5" transform="translate(0 -2)"/>
            <g id="Group-7" class="cls-6" transform="translate(0 -1.286)">
                <path id="Image-7" d="M0 0H14.286V14.286H0z" class="cls-7"/>
                <g id="_Layer_7" transform="translate(3.214 2.143)">
                    <g id="Group_2-7">
                        <path id="Path_1-7" d="M59.282 75.2a2.374 2.374 0 0 1 .774-2.711 1.849 1.849 0 0 1 1.784-.246 4.255 4.255 0 0 0 1.285.43 4.251 4.251 0 0 0 1.285-.43 1.849 1.849 0 0 1 1.784.246 2.372 2.372 0 0 1 .773 2.711c-.49 1.56-3.843 3.888-3.843 3.888S59.8 76.839 59.282 75.2zm3.843-6.11a1.384 1.384 0 1 1-1.384 1.384 1.384 1.384 0 0 1 1.384-1.384zm1.614 4.382a1.022 1.022 0 1 1-1.022 1.022 1.022 1.022 0 0 1 1.022-1.022zm.072 2.734c-1.09.425-3.215.508-3.959-.494a1.039 1.039 0 0 1-.106-.96.94.94 0 0 1 .8-.547c.94-.063 1.624 1.795 3.266 1.995z" class="cls-8" transform="translate(-59.148 -69.088)"/>
                    </g>
                </g>
            </g>
        </g>
        <g id="Thumbnail-8" transform="translate(80 335)">
            <rect id="Mask-19" width="14.286" height="15" class="cls-5" rx="5" transform="translate(0 -2)"/>
            <g id="Group-8" class="cls-6" transform="translate(0 -1.286)">
                <path id="Image-8" d="M0 0H14.286V14.286H0z" class="cls-7"/>
                <g id="_Layer_8" transform="translate(3.214 2.143)">
                    <g id="Group_2-8">
                        <path id="Path_1-8" d="M59.282 75.2a2.374 2.374 0 0 1 .774-2.711 1.849 1.849 0 0 1 1.784-.246 4.255 4.255 0 0 0 1.285.43 4.251 4.251 0 0 0 1.285-.43 1.849 1.849 0 0 1 1.784.246 2.372 2.372 0 0 1 .773 2.711c-.49 1.56-3.843 3.888-3.843 3.888S59.8 76.839 59.282 75.2zm3.843-6.11a1.384 1.384 0 1 1-1.384 1.384 1.384 1.384 0 0 1 1.384-1.384zm1.614 4.382a1.022 1.022 0 1 1-1.022 1.022 1.022 1.022 0 0 1 1.022-1.022zm.072 2.734c-1.09.425-3.215.508-3.959-.494a1.039 1.039 0 0 1-.106-.96.94.94 0 0 1 .8-.547c.94-.063 1.624 1.795 3.266 1.995z" class="cls-8" transform="translate(-59.148 -69.088)"/>
                    </g>
                </g>
            </g>
        </g>
        <g id="Thumbnail-9" transform="translate(80 355)">
            <rect id="Mask-20" width="14.286" height="15" class="cls-5" rx="5" transform="translate(0 -2)"/>
            <g id="Group-9" class="cls-6" transform="translate(0 -1.286)">
                <path id="Image-9" d="M0 0H14.286V14.286H0z" class="cls-7"/>
                <g id="_Layer_9" transform="translate(3.214 2.143)">
                    <g id="Group_2-9">
                        <path id="Path_1-9" d="M59.282 75.2a2.374 2.374 0 0 1 .774-2.711 1.849 1.849 0 0 1 1.784-.246 4.255 4.255 0 0 0 1.285.43 4.251 4.251 0 0 0 1.285-.43 1.849 1.849 0 0 1 1.784.246 2.372 2.372 0 0 1 .773 2.711c-.49 1.56-3.843 3.888-3.843 3.888S59.8 76.839 59.282 75.2zm3.843-6.11a1.384 1.384 0 1 1-1.384 1.384 1.384 1.384 0 0 1 1.384-1.384zm1.614 4.382a1.022 1.022 0 1 1-1.022 1.022 1.022 1.022 0 0 1 1.022-1.022zm.072 2.734c-1.09.425-3.215.508-3.959-.494a1.039 1.039 0 0 1-.106-.96.94.94 0 0 1 .8-.547c.94-.063 1.624 1.795 3.266 1.995z" class="cls-8" transform="translate(-59.148 -69.088)"/>
                    </g>
                </g>
            </g>
        </g>
        <g id="Thumbnail-10" transform="translate(80 375)">
            <rect id="Mask-21" width="14.286" height="15" class="cls-5" rx="5" transform="translate(0 -2)"/>
            <g id="Group-10" class="cls-6" transform="translate(0 -1.286)">
                <path id="Image-10" d="M0 0H14.286V14.286H0z" class="cls-7"/>
                <g id="_Layer_10" transform="translate(3.214 2.143)">
                    <g id="Group_2-10">
                        <path id="Path_1-10" d="M59.282 75.2a2.374 2.374 0 0 1 .774-2.711 1.849 1.849 0 0 1 1.784-.246 4.255 4.255 0 0 0 1.285.43 4.251 4.251 0 0 0 1.285-.43 1.849 1.849 0 0 1 1.784.246 2.372 2.372 0 0 1 .773 2.711c-.49 1.56-3.843 3.888-3.843 3.888S59.8 76.839 59.282 75.2zm3.843-6.11a1.384 1.384 0 1 1-1.384 1.384 1.384 1.384 0 0 1 1.384-1.384zm1.614 4.382a1.022 1.022 0 1 1-1.022 1.022 1.022 1.022 0 0 1 1.022-1.022zm.072 2.734c-1.09.425-3.215.508-3.959-.494a1.039 1.039 0 0 1-.106-.96.94.94 0 0 1 .8-.547c.94-.063 1.624 1.795 3.266 1.995z" class="cls-8" transform="translate(-59.148 -69.088)"/>
                    </g>
                </g>
            </g>
        </g>
        <g id="Thumbnail-11" transform="translate(80 395)">
            <rect id="Mask-22" width="14.286" height="15" class="cls-5" rx="5" transform="translate(0 -2)"/>
            <g id="Group-11" class="cls-6" transform="translate(0 -1.286)">
                <path id="Image-11" d="M0 0H14.286V14.286H0z" class="cls-7"/>
                <g id="_Layer_11" transform="translate(3.214 2.143)">
                    <g id="Group_2-11">
                        <path id="Path_1-11" d="M59.282 75.2a2.374 2.374 0 0 1 .774-2.711 1.849 1.849 0 0 1 1.784-.246 4.255 4.255 0 0 0 1.285.43 4.251 4.251 0 0 0 1.285-.43 1.849 1.849 0 0 1 1.784.246 2.372 2.372 0 0 1 .773 2.711c-.49 1.56-3.843 3.888-3.843 3.888S59.8 76.839 59.282 75.2zm3.843-6.11a1.384 1.384 0 1 1-1.384 1.384 1.384 1.384 0 0 1 1.384-1.384zm1.614 4.382a1.022 1.022 0 1 1-1.022 1.022 1.022 1.022 0 0 1 1.022-1.022zm.072 2.734c-1.09.425-3.215.508-3.959-.494a1.039 1.039 0 0 1-.106-.96.94.94 0 0 1 .8-.547c.94-.063 1.624 1.795 3.266 1.995z" class="cls-8" transform="translate(-59.148 -69.088)"/>
                    </g>
                </g>
            </g>
        </g>
    </g>
</svg>
