<svg xmlns="http://www.w3.org/2000/svg" width="32" height="26.029" viewBox="0 0 32 26.029">
  <path id="ic-walnut" d="M8.024,23.478a9.394,9.394,0,0,1-5.3-5.18C.987,17.347.79,15.486.767,14.021a1.044,1.044,0,0,1,0-2.013C.79,10.543.987,8.682,2.723,7.73a9.4,9.4,0,0,1,5.3-5.18C10.015.2,13.05,0,16,0s5.985.2,7.976,2.551a9.4,9.4,0,0,1,5.3,5.18c1.736.952,1.933,2.813,1.956,4.278a1.044,1.044,0,0,1,0,2.013c-.022,1.465-.22,3.325-1.956,4.278a9.4,9.4,0,0,1-5.3,5.18C21.985,25.826,18.95,26.029,16,26.029S10.015,25.826,8.024,23.478ZM5,17.029a.987.987,0,0,1-.329.731c.587,1.546,2.7,3.579,4.108,3.847l.378.072.234.307c1.3,1.718,3.326,2.044,6.61,2.044s5.31-.326,6.609-2.044l.234-.307.378-.072c1.325-.252,3.292-2.075,4.007-3.577H27a1,1,0,0,1,0-2h1.856a4.157,4.157,0,0,0,.37-1.948H2.774a3.208,3.208,0,0,0,.569,2.207A.988.988,0,0,1,4,16.029,1,1,0,0,1,5,17.029Zm-2.227-5.08H29.226a3.208,3.208,0,0,0-.569-2.208A.984.984,0,0,1,28,10a1,1,0,0,1-1-1,.985.985,0,0,1,.329-.731c-.588-1.546-2.7-3.579-4.108-3.847l-.378-.072-.234-.307C21.31,2.326,19.283,2,16,2s-5.31.326-6.61,2.044l-.234.307-.378.072C7.454,4.674,5.487,6.5,4.772,8H5a1,1,0,0,1,0,2H3.144A4.17,4.17,0,0,0,2.774,11.948Zm9.941,10.4a3.8,3.8,0,0,1-2.323-2.306,1,1,0,1,1,1.942-.473,2.061,2.061,0,0,0,1.07.9l.358.061L14,20.8c.325.38.981.455,2,.455s1.677-.075,2-.455l.236-.274.358-.061a2.054,2.054,0,0,0,1.071-.9l.2-.637.684-.118a2.971,2.971,0,0,0,2.487-2.058c.006-.019.02-.032.027-.05a.944.944,0,0,1,.108-.2.677.677,0,0,1,.271-.278.858.858,0,0,1,.109-.074.936.936,0,0,1,.223-.071,1,1,0,0,1,.153-.031A.632.632,0,0,1,24,16.029a.992.992,0,0,1,.171.034,1.069,1.069,0,0,1,.108.01c.014,0,.024.015.039.02a1,1,0,0,1,.221.115.959.959,0,0,1,.117.08.979.979,0,0,1,.139.165.894.894,0,0,1,.093.139.938.938,0,0,1,.059.18.919.919,0,0,1,.04.2c0,.02.013.038.013.059a1.119,1.119,0,0,1-.027.135,1.182,1.182,0,0,1-.011.138,5.03,5.03,0,0,1-3.649,3.414,4.091,4.091,0,0,1-2.028,1.631A4.583,4.583,0,0,1,16,23.254,4.58,4.58,0,0,1,12.714,22.346ZM10,18.029a1,1,0,1,1,0-2h6a1,1,0,1,1,0,2ZM6,17a1,1,0,1,1,1,1A1,1,0,0,1,6,17ZM24,9a1,1,0,1,1,1,1A1,1,0,0,1,24,9Zm-8,1a1,1,0,1,1,0-2h6a1,1,0,1,1,0,2ZM7.933,9.987a.954.954,0,0,1-.211-.031.26.26,0,0,1-.039-.02.962.962,0,0,1-.221-.116.861.861,0,0,1-.117-.079.923.923,0,0,1-.14-.166,1.152,1.152,0,0,1-.093-.138.978.978,0,0,1-.059-.18,1,1,0,0,1-.041-.2C7.011,9.038,7,9.021,7,9a.969.969,0,0,1,.027-.135,1.182,1.182,0,0,1,.011-.138,5.032,5.032,0,0,1,3.648-3.415,4.091,4.091,0,0,1,2.029-1.63A4.58,4.58,0,0,1,16,2.775a4.583,4.583,0,0,1,3.286.908,3.807,3.807,0,0,1,2.323,2.306,1,1,0,1,1-1.943.472,2.065,2.065,0,0,0-1.069-.9l-.359-.059L18,5.229c-.325-.38-.981-.454-2-.454s-1.678.074-2,.454l-.236.276-.359.059a2.056,2.056,0,0,0-1.07.9l-.2.636-.684.118A2.971,2.971,0,0,0,8.96,9.28c-.006.021-.022.037-.029.057a.741.741,0,0,1-.066.134.963.963,0,0,1-.225.282,1.032,1.032,0,0,1-.153.1.877.877,0,0,1-.148.076.95.95,0,0,1-.241.05c-.034,0-.064.02-.1.02S7.956,9.988,7.933,9.987Z"/>
</svg>
