<svg xmlns="http://www.w3.org/2000/svg" width="88" height="88" viewBox="0 0 88 88">
    <defs>
        <clipPath id="clip-path">
            <path id="Path_8153" d="M628.755 385.983a44 44 0 0 0 44 44 44 44 0 0 0 44-44 44 44 0 0 0-44-44 44 44 0 0 0-44 44z" class="cls-1" transform="translate(-628.755 -341.983)"/>
        </clipPath>
        <style>
            .cls-1{fill:#fff}.cls-4{fill:#221f1d}.cls-5{fill:#ad7b4d}.cls-7{fill:#774927}.cls-11{fill:#312c2a}
        </style>
    </defs>
    <g id="Group_2641" transform="translate(-628.755 -341.982)">
        <g id="Group_2640" transform="translate(628.756 341.982)">
            <path id="Path_8133" fill="#f5f6f6" d="M716.755 385.982a44 44 0 1 1-44-44 44 44 0 0 1 44 44z" transform="translate(-628.756 -341.982)"/>
        </g>
        <g id="Group_2618" clip-path="url(#clip-path)" transform="translate(628.755 341.983)">
            <ellipse id="Ellipse_560" cx="9.937" cy="8.497" class="cls-4" rx="9.937" ry="8.497" transform="translate(18.349 11.04)"/>
            <ellipse id="Ellipse_561" cx="7.976" cy="8.497" class="cls-4" rx="7.976" ry="8.497" transform="translate(30.247 6.385)"/>
            <ellipse id="Ellipse_562" cx="9.619" cy="8.497" class="cls-4" rx="9.619" ry="8.497" transform="translate(42.589 6.454)"/>
            <ellipse id="Ellipse_563" cx="7.789" cy="8.497" class="cls-4" rx="7.789" ry="8.497" transform="translate(54.039 11.04)"/>
            <ellipse id="Ellipse_564" cx="7.789" cy="8.497" class="cls-4" rx="7.789" ry="8.497" transform="translate(60.232 21.029)"/>
            <ellipse id="Ellipse_565" cx="7.789" cy="8.497" class="cls-4" rx="7.789" ry="8.497" transform="translate(11.917 22.322)"/>
            <ellipse id="Ellipse_566" cx="7.183" cy="7.854" class="cls-4" rx="7.183" ry="7.854" transform="translate(60.233 33.292)"/>
            <ellipse id="Ellipse_567" cx="6.181" cy="7.146" class="cls-4" rx="6.181" ry="7.146" transform="translate(13.776 34.708)"/>
            <ellipse id="Ellipse_568" cx="8.143" cy="5.543" class="cls-4" rx="8.143" ry="5.543" transform="translate(52.089 44.622)"/>
            <ellipse id="Ellipse_569" cx="7.087" cy="5.779" class="cls-4" rx="7.087" ry="5.779" transform="translate(19.752 43.22)"/>
            <path id="Path_8135" d="M706.967 382.87c0 12.632-12.469 22.871-27.851 22.871s-27.851-10.24-27.851-22.871S663.734 360 679.116 360s27.851 10.24 27.851 22.87z" class="cls-4" transform="translate(-635.326 -347.242)"/>
            <path id="Path_8136" d="M694.172 441.049c2.136-3.958 4.226-3.085 3.666-8.862 0 0-6.968-2.056-6.936-8.895a13.158 13.158 0 0 1-4.56 1.349c-2.1.081-4.523-1.667-4.523-1.667s.55 7.379-5.366 8.935c-.725 6 .716 6.574 4.219 9.654 2.561 2.253 11.528 3.131 13.5-.514z" class="cls-5" transform="translate(-642.625 -365.626)"/>
            <path id="Path_8137" fill="#ffae2e" d="M703.149 439.691c-2.772-2.626-13.438-4.708-13.438-4.708s-.622 6.555-9.756 6.4c-8.915-.152-9.05-6.281-9.05-6.281S660.04 437 656.8 439.691s-2.625 8.607-2.625 8.607v8.712h51.592v-8.672l.012-.04s.142-5.981-2.63-8.607z" transform="translate(-636.161 -369.131)"/>
            <path id="Path_8138" d="M713.563 398.658s1.052-2.062 2.223-.666.941 7.084-2.784 7.091c-.002 0 .541-5.074.561-6.425z" class="cls-5" transform="translate(-653.348 -358.191)"/>
            <path id="Path_8139" d="M713.819 401.542s.754-2.023 1.5-.981a2.416 2.416 0 0 1-.753 3.312s.51-3.68-.747-2.331z" class="cls-7" transform="translate(-653.586 -358.996)"/>
            <path id="Path_8140" d="M665.484 398.658s-1.051-2.062-2.223-.666-.835 7.084 2.887 7.091c0 0-.648-5.074-.664-6.425z" class="cls-5" transform="translate(-638.653 -358.191)"/>
            <path id="Path_8141" d="M665.844 401.542s-.754-2.023-1.5-.981a2.415 2.415 0 0 0 .75 3.312s-.51-3.68.75-2.331z" class="cls-7" transform="translate(-639.03 -358.996)"/>
            <path id="Path_8142" d="M700.384 387.15c.772-23.847-16.986-22.121-16.991-22.119S665.627 363.3 666.4 387.15c0 0-.024 9.956 2.65 13.682a19.153 19.153 0 0 0 14.342 7.455c4.39 0 10.888-2.236 14.344-7.455 2.728-4.121 2.648-13.682 2.648-13.682z" class="cls-5" transform="translate(-639.737 -348.703)"/>
            <path id="Path_8143" fill="#c79a69" d="M691.8 408.293c0 .707-.91 1.281-2.03 1.281s-2.029-.574-2.029-1.281.909-1.281 2.029-1.281 2.03.573 2.03 1.281z" transform="translate(-645.973 -360.966)"/>
            <path id="Path_8144" fill="#e0493d" d="M685.253 416.744a4.81 4.81 0 0 0 7.57 0z" transform="translate(-645.248 -363.807)"/>
            <path id="Path_8145" fill="#dd342d" d="M690.693 414.9c-.644-.258-1.214.294-1.656.294s-1.013-.552-1.655-.294a17.356 17.356 0 0 0-2.13 1.286 27.776 27.776 0 0 0 7.571 0 17.473 17.473 0 0 0-2.13-1.286z" transform="translate(-645.247 -363.248)"/>
            <path id="Path_8146" d="M704.765 400.552a2.146 2.146 0 1 1-2.148-2.146 2.146 2.146 0 0 1 2.148 2.146z" class="cls-11" transform="translate(-649.691 -358.454)"/>
            <path id="Path_8147" d="M704.883 399.767a.691.691 0 1 1-.69-.691.69.69 0 0 1 .69.691z" class="cls-1" transform="translate(-650.575 -358.649)"/>
            <path id="Path_8148" d="M678.805 400.552a2.146 2.146 0 1 1-2.148-2.146 2.146 2.146 0 0 1 2.148 2.146z" class="cls-11" transform="translate(-642.112 -358.454)"/>
            <path id="Path_8149" d="M678.923 399.767a.691.691 0 1 1-.691-.691.69.69 0 0 1 .691.691z" class="cls-1" transform="translate(-642.997 -358.649)"/>
            <path id="Path_8150" d="M700.486 394.543a4.463 4.463 0 0 1 4.852.327c.386.308.938-.235.547-.548a5.265 5.265 0 0 0-5.791-.448c-.439.233-.049.902.392.669z" class="cls-4" transform="translate(-649.524 -356.939)"/>
            <path id="Path_8151" d="M677.882 394.543a4.464 4.464 0 0 0-4.853.327c-.385.308-.937-.235-.548-.548a5.266 5.266 0 0 1 5.791-.448c.442.233.051.902-.39.669z" class="cls-4" transform="translate(-641.481 -356.939)"/>
            <path id="Path_8152" d="M663.718 387.689s-3.584-19.611 14.828-24.591a13.747 13.747 0 0 0 6.44 0s20.491 4.033 15.757 24.591a3.643 3.643 0 0 0-1.464.984 1.3 1.3 0 0 1-1.334-.2 16.132 16.132 0 0 1 0-1.889 10.3 10.3 0 0 0-.46-3.133c-.3-1.063-1.116-5.181-4.265-6.2-.838-.271-1.457.255-2.42-.177-.465-.209-2.244.295-2.495.177s-1.823.118-2.422-.059-1.5.059-2.1-.06-1.047.118-1.945-.059-2.1.414-2.844.236-1.647.3-2.472.058-1.8.237-2.319 0-.888-.086-2 .059c-3.317.434-4.739 3.547-5.187 4.847s-.526 6.329-.751 6.828-.767-.261-1.381-.753a3.837 3.837 0 0 0-1.166-.659z" class="cls-4" transform="translate(-638.879 -348.147)"/>
        </g>
    </g>
</svg>
