<svg xmlns="http://www.w3.org/2000/svg" width="88.001" height="88" viewBox="0 0 88.001 88">
    <defs>
        <clipPath id="clip-path">
            <path id="Path_8217" d="M446.3 385.983a44 44 0 0 0 44 44 44 44 0 0 0 44-44 44 44 0 0 0-44-44 44 44 0 0 0-44 44z" class="cls-1"/>
        </clipPath>
        <style>
            .cls-1{fill:#fff}.cls-4{fill:#ffe3c8}.cls-6{fill:#654236}
        </style>
    </defs>
    <g id="Group_2623" clip-path="url(#clip-path)" transform="translate(-446.297 -341.983)">
        <path id="Path_8204" fill="#f5f6f6" d="M534.3 385.983a44 44 0 1 1-44-44 44 44 0 0 1 44 44z"/>
        <path id="Path_8205" d="M512.465 439.327c2.407-4.46 4.763-3.478 4.13-9.985 0 0-7.851-2.317-7.816-10.025a14.823 14.823 0 0 1-5.139 1.522c-2.366.091-5.1-1.881-5.1-1.881s.62 8.316-6.047 10.07c-.817 6.759.807 7.408 4.754 10.878 2.89 2.54 12.997 3.53 15.218-.579z" class="cls-4" transform="translate(-13.427 -22.469)"/>
        <path id="Path_8206" fill="#ffae2e" d="M522.583 437.775c-3.124-2.958-15.247-5.36-15.247-5.36l-10.5 11.823-11.628-11.283s-11.21 1.785-14.865 4.82-2.96 9.7-2.96 9.7v9.817h58.147v-9.771l.011-.046s.165-6.74-2.958-9.7z" transform="translate(-6.141 -26.398)"/>
        <path id="Path_8207" d="M517.113 386.662c.671-22.253-14.771-20.641-14.776-20.641s-15.45-1.612-14.778 20.641c0 0-.023 9.292 2.3 12.768 3.054 4.567 8.656 8.732 12.473 8.732s9.466-3.862 12.472-8.732c2.377-3.845 2.309-12.768 2.309-12.768z" class="cls-4" transform="translate(-12.039 -7.01)"/>
        <path id="Path_8208" d="M498.758 397.125c0 .782-1.352 1.416-3.02 1.416s-3.019-.634-3.019-1.416 1.353-1.415 3.019-1.415 3.02.634 3.02 1.415z" class="cls-6" transform="translate(-13.551 -15.683)"/>
        <path id="Path_8209" d="M499.387 397.243a.777.777 0 1 1-.778-.779.779.779 0 0 1 .778.779z" class="cls-1" transform="translate(-15.044 -15.904)"/>
        <path id="Path_8210" d="M498.352 391.356a5.028 5.028 0 0 0-5.469.368c-.434.347-1.055-.266-.617-.618a5.93 5.93 0 0 1 6.525-.5c.497.259.057 1.011-.439.75z" class="cls-6" transform="translate(-13.375 -13.976)"/>
        <path id="Path_8211" d="M520.711 397.125c0 .782-1.353 1.416-3.021 1.416s-3.019-.634-3.019-1.416 1.353-1.415 3.019-1.415 3.021.634 3.021 1.415z" class="cls-6" transform="translate(-19.959 -15.683)"/>
        <path id="Path_8212" d="M521.339 397.243a.777.777 0 1 1-.778-.779.778.778 0 0 1 .778.779z" class="cls-1" transform="translate(-21.452 -15.904)"/>
        <path id="Path_8213" d="M514.857 391.356a5.03 5.03 0 0 1 5.469.368c.435.347 1.056-.266.617-.618a5.931 5.931 0 0 0-6.526-.5c-.496.259-.055 1.011.44.75z" class="cls-6" transform="translate(-19.821 -13.976)"/>
        <path id="Line_404" d="M0 0L7.472 0" transform="translate(486.555 392.559)"/>
        <path id="Path_8214" fill="#dd342d" d="M508.5 414.871c-1.793 1.209-3.516.1-4.768-1.274h6.139a5.959 5.959 0 0 1-1.371 1.274zm1.994-1.929h-7.38a.257.257 0 0 0-.209.023.34.34 0 0 0-.117.532c1.268 1.589 3.193 3.219 5.35 2.289a5.9 5.9 0 0 0 2.638-2.355.331.331 0 0 0-.282-.489z" transform="translate(-16.466 -20.71)"/>
        <path id="Path_8215" fill="#ffd4ae" d="M509.774 405.429c0 .792-1.018 1.434-2.274 1.434s-2.275-.642-2.275-1.434 1.018-1.434 2.275-1.434 2.274.641 2.274 1.434z" transform="translate(-17.202 -18.102)"/>
        <path id="Path_8216" d="M518.031 378.48a31.881 31.881 0 0 0-1.916-7.625 15.4 15.4 0 0 0-3.788-5.9 2.179 2.179 0 0 1-.729-1.487 9.381 9.381 0 0 0-6.265-8.055 16.134 16.134 0 0 0-10.2-.3 9.569 9.569 0 0 0-4.96 3.071 8.947 8.947 0 0 0-2.116 5.946.684.684 0 0 1-.159.458 20.4 20.4 0 0 0-4.478 6.321 29.76 29.76 0 0 0-2.564 10.258 42.47 42.47 0 0 0 .556 10.635 58.7 58.7 0 0 0 3.811 12.79c.166.4.339.79.51 1.184-2.217-7.5-1.328-14.494 3.21-20.963l.475-.642c.485-.6.968-1.21 1.466-1.8l.639-.7c.04-.05.087-.118.142-.178a24.833 24.833 0 0 1 4.766-4.129c2.082-1.34 4.2-2.628 6.294-3.948 2.51-1.582 5.049-3.13 6.929-5.586l-.024.2a18.007 18.007 0 0 0-.108 4.214 18.461 18.461 0 0 0 1.319 4.915c.824 2.02 1.738 4 2.506 6.044a29.577 29.577 0 0 1 1.555 13.25 41.4 41.4 0 0 1-1.839 8.887 1.511 1.511 0 0 0-.029.217.763.763 0 0 0 .091-.1c.218-.391.444-.776.65-1.173a43.166 43.166 0 0 0 4.624-18.971 42.052 42.052 0 0 0-.368-6.833z" class="cls-6" transform="translate(-10.054 -3.635)"/>
    </g>
</svg>
