<svg width="128" height="128" viewBox="0 0 128 128" fill="none" xmlns="http://www.w3.org/2000/svg">
<path d="M64 0C76.658 0 89.0317 3.75353 99.5565 10.7859C110.081 17.8184 118.284 27.8138 123.128 39.5083C127.972 51.2027 129.24 64.071 126.77 76.4858C124.301 88.9006 118.205 100.304 109.255 109.255C100.304 118.205 88.9006 124.301 76.4858 126.77C64.071 129.24 51.2027 127.972 39.5083 123.128C27.8138 118.284 17.8184 110.081 10.7859 99.5565C3.75353 89.0317 0 76.658 0 64C0 47.0261 6.74284 30.7475 18.7452 18.7452C30.7475 6.74284 47.0261 0 64 0V0Z" fill="#D8D8D8"/>
<path d="M53.77 83H73.954V76.156H62.818C62.18 76.156 62.064 76.156 61.542 76.272C61.658 75.75 61.658 75.634 61.658 74.996V44.314H53.77V83Z" fill="#3E3E3E"/>
</svg>
