<svg xmlns="http://www.w3.org/2000/svg" width="70" height="70" viewBox="0 0 70 70">
    <defs>
        <style>
            .cls-2{fill:#898d8d}
        </style>
    </defs>
    <g id="Group_2421" transform="translate(-24 -119)">
        <circle id="Ellipse_343" cx="35" cy="35" r="35" fill="#daeffa" transform="translate(24 119)"/>
        <g id="Group_2535" transform="translate(.502 -172.498)">
            <path id="Path_8016" d="M75.927 320.832h-11.2c.036-.392.055-.791.055-1.193a13.144 13.144 0 0 0-19.708-11.386.8.8 0 1 0 .8 1.379 11.55 11.55 0 1 1 5.769 21.556 11.42 11.42 0 0 1-7.242-2.554.8.8 0 0 0-.734-.141l-2.114.553.829-1.82a.794.794 0 0 0-.082-.8 11.561 11.561 0 0 1-.656-12.573.8.8 0 0 0-1.378-.8 13.149 13.149 0 0 0 .478 13.924l-1.334 2.93a.8.8 0 0 0 .926 1.1l3.387-.886a13.151 13.151 0 0 0 9.75 2.528v6.973a3.348 3.348 0 0 0 3.344 3.345h11.26l5.036 4.121a.8.8 0 0 0 1.3-.617v-3.5h1.514a3.348 3.348 0 0 0 3.344-3.345v-15.449a3.348 3.348 0 0 0-3.344-3.345zm1.751 18.793a1.754 1.754 0 0 1-1.751 1.752h-2.31a.8.8 0 0 0-.8.8v2.619l-3.933-3.218c-.216-.2-.407-.2-.833-.2H56.813a1.754 1.754 0 0 1-1.751-1.752v-7.3a13.189 13.189 0 0 0 9.421-9.9h11.444a1.754 1.754 0 0 1 1.751 1.752z" class="cls-2"/>
            <path id="Path_8017" d="M69.9 333.884a.8.8 0 0 0-.339-1.517h-.326l-2.568-5.853a.8.8 0 0 0-1.459 0l-2.568 5.853h-.326a.8.8 0 0 0-.338 1.517l-.957 2.18a.8.8 0 0 0 1.459.639l1.2-2.743H68.2l1.2 2.743a.8.8 0 1 0 1.459-.639zm-5.521-1.517l1.558-3.551 1.557 3.551z" class="cls-2" transform="translate(.432 .376)"/>
            <path id="Path_8018" d="M42.842 311.638a.8.8 0 1 0-.564-.233.8.8 0 0 0 .564.233z" class="cls-2" transform="translate(.068 .068)"/>
            <path id="Path_8019" d="M46.736 324.358a.8.8 0 1 0 .765 1.4 9.123 9.123 0 0 0 3.941-4.276 9.118 9.118 0 0 0 3.941 4.276.8.8 0 1 0 .765-1.4 7.534 7.534 0 0 1-3.825-5.48h3.537a.8.8 0 0 0 0-1.593h-3.621v-3.318a.8.8 0 1 0-1.592 0v3.318h-2.878a.8.8 0 0 0 0 1.593h2.792a7.534 7.534 0 0 1-3.825 5.48z" class="cls-2" transform="translate(.15 .128)"/>
        </g>
    </g>
</svg>
