<svg xmlns="http://www.w3.org/2000/svg" width="22.271" height="27.996" viewBox="0 0 22.271 27.996">
    <g>
        <g>
            <path fill="#ffc000" fill-rule="evenodd" d="M59.523 86.2c-.847-2.745-.313-5.813 2.166-7.591a5.178 5.178 0 0 1 5-.69 11.915 11.915 0 0 0 3.6 1.2 11.9 11.9 0 0 0 3.6-1.2 5.178 5.178 0 0 1 5 .69c2.48 1.776 3.015 4.846 2.166 7.591-1.371 4.368-10.759 10.887-10.759 10.887S60.965 90.791 59.523 86.2zm10.761-17.112a3.876 3.876 0 1 1-3.876 3.876 3.876 3.876 0 0 1 3.876-3.876zM74.8 81.357a2.862 2.862 0 1 1-2.863 2.861 2.862 2.862 0 0 1 2.863-2.861zm.2 7.655c-3.051 1.191-9 1.422-11.086-1.383a2.908 2.908 0 0 1-.3-2.689 2.633 2.633 0 0 1 2.229-1.532c2.65-.169 4.565 5.039 9.163 5.604z" transform="translate(-59.148 -69.088) translate(59.148 69.088) translate(-59.148 -69.088)"/>
        </g>
    </g>
</svg>
