<svg xmlns="http://www.w3.org/2000/svg" width="88" height="88" viewBox="0 0 88 88">
    <defs>
        <clipPath id="clip-path">
            <path id="Path_8175" d="M263.839 391.131a44 44 0 0 0 44 44 44 44 0 0 0 44-44 44 44 0 0 0-44-44 44 44 0 0 0-44 44z" class="cls-1" transform="translate(-263.839 -347.132)"/>
        </clipPath>
        <clipPath id="clip-path-2">
            <path id="Path_8179" d="M353.01 454.418a44.049 44.049 0 0 0 6.643-4.275c-1.425-7.149-3.163-16.277-3.362-16.626-.75-1.325-4.075-2.425-7.478-3.234z" class="cls-1" transform="translate(-348.813 -430.282)"/>
        </clipPath>
        <style>
            .cls-1{fill:#fff}.cls-4{fill:#ffc795}.cls-5{fill:#ffae2e}.cls-7{fill:#ffce9d}.cls-8{fill:#f7b881}.cls-9{fill:#2f1f17}.cls-10{fill:#282928}.cls-15{fill:#2c2e35}
        </style>
    </defs>
    <g id="Group_2639" transform="translate(-263.839 -347.131)">
        <path id="Path_8132" fill="#f5f6f6" d="M351.839 391.131a44 44 0 1 1-44-44 44 44 0 0 1 44 44z"/>
        <g id="Group_2619" clip-path="url(#clip-path)" transform="translate(263.839 347.132)">
            <path id="Path_8154" d="M328.667 434.8c2.123-3.932 3.938-3.346 3.381-9.084 0 0-6.662-1.767-6.631-8.564a13.1 13.1 0 0 1-4.532 1.343c-2.087.079-4.5-1.659-4.5-1.659s.548 7.334-5.333 8.881c-.72 5.961.712 6.533 4.194 9.6 2.554 2.239 11.462 3.112 13.421-.517z" class="cls-4" transform="translate(-277.57 -367.481)"/>
            <path id="Path_8155" d="M341.121 447.786c-1.186-5.325-2.474-13.651-3.223-14.972-1.651-2.914-14.972-4.94-14.972-4.94-1.787 2.578-6.762 3.047-8.708 3.1-1.945-.053-6.138-.333-7.924-2.912 0 0-14.1 1.838-15.756 4.752-.271.479-1.532 9.18-2.823 14.972z" class="cls-5" transform="translate(-270.809 -370.702)"/>
            <path id="Path_8156" fill="#ffcd9d" d="M334.843 381.234c.766-23.7-16.884-21.985-16.89-21.984s-17.658-1.718-16.889 21.984c0 0-.023 9.9 2.633 13.6a19.039 19.039 0 0 0 14.255 7.409c4.364 0 10.822-2.221 14.255-7.409 2.714-4.095 2.636-13.6 2.636-13.6z" transform="translate(-274.699 -350.661)"/>
            <path id="Path_8157" d="M347.941 392.672s1.047-2.049 2.209-.662.935 7.041-2.766 7.048c0 .001.537-5.042.557-6.386z" class="cls-7" transform="translate(-288.228 -360.092)"/>
            <path id="Path_8158" d="M348.2 395.54s.75-2.012 1.495-.975a2.4 2.4 0 0 1-.748 3.292s.498-3.657-.747-2.317z" class="cls-8" transform="translate(-288.464 -360.892)"/>
            <path id="Path_8159" d="M300.159 392.672s-1.046-2.049-2.208-.662-.776 7.041 2.925 7.048c0 .001-.701-5.042-.717-6.386z" class="cls-7" transform="translate(-273.627 -360.092)"/>
            <path id="Path_8160" d="M300.513 395.54s-.751-2.012-1.494-.975a2.4 2.4 0 0 0 .745 3.292s-.504-3.657.749-2.317z" class="cls-8" transform="translate(-273.996 -360.892)"/>
            <path id="Path_8161" d="M326.023 401.489c0 .7-.9 1.272-2.018 1.272s-2.018-.57-2.018-1.272.9-1.273 2.018-1.273 2.018.569 2.018 1.273z" class="cls-8" transform="translate(-280.814 -362.628)"/>
            <path id="Path_8162" d="M338.911 393.8a2.133 2.133 0 1 1-2.133-2.133 2.134 2.134 0 0 1 2.133 2.133z" class="cls-9" transform="translate(-284.509 -360.132)"/>
            <path id="Path_8163" d="M339.031 393.015a.686.686 0 1 1-.685-.687.687.687 0 0 1 .685.687z" class="cls-1" transform="translate(-285.389 -360.326)"/>
            <path id="Path_8164" d="M313.109 393.8a2.132 2.132 0 1 1-2.133-2.133 2.133 2.133 0 0 1 2.133 2.133z" class="cls-9" transform="translate(-276.977 -360.132)"/>
            <path id="Path_8165" d="M313.228 393.015a.686.686 0 1 1-.687-.687.687.687 0 0 1 .687.687z" class="cls-1" transform="translate(-277.856 -360.326)"/>
            <path id="Path_8166" d="M333.2 388.524a4.527 4.527 0 0 1 5.986.147c.434.358.971-.328.539-.684a5.386 5.386 0 0 0-7.05-.156c-.42.363.102 1.06.525.693z" class="cls-10" transform="translate(-283.889 -358.651)"/>
            <path id="Path_8167" d="M313.338 388.524a4.526 4.526 0 0 0-5.985.147c-.433.358-.97-.328-.537-.684a5.383 5.383 0 0 1 7.048-.156c.424.363-.098 1.06-.526.693z" class="cls-10" transform="translate(-276.338 -358.651)"/>
            <path id="Path_8168" fill="#f4a06e" d="M323.291 408.847l-4.36-.084s1.07 1.593 4.36 1.593 4.361-1.593 4.361-1.593z" transform="translate(-279.922 -365.123)"/>
            <path id="Path_8169" fill="#e79563" d="M327.652 408.45a6.579 6.579 0 0 1-1.614-.339 4.337 4.337 0 0 0-1.75-.41c-.4.045-.71.183-1 .2-.285-.019-.6-.156-.995-.2a4.332 4.332 0 0 0-1.751.41 6.576 6.576 0 0 1-1.614.339 39.036 39.036 0 0 0 8.721 0z" transform="translate(-279.922 -364.811)"/>
            <path id="Path_8170" fill="#9711f0" d="M335.992 382.423s.637-8.135-.983-13.436-3.68-7.593-8.978-9.8-15.016-6.478-19.58 1.472c0 0-5.742-.4-7.655 7.422a41.047 41.047 0 0 0-1.047 14.005s.732-.927 2.488.707c0 0 1.8-4.824 1.649-8.211 0 0 4.122-3.679 4.122-5.888 0 0 2.65 2.208 9.422 1.766s9.864-2.11 11.629-1.129 6.36 5.817 6.213 12.883c.001 0 1.572-1.935 2.72.209z" transform="translate(-273.681 -349.733)"/>
            <path id="Path_8171" d="M321.383 437.828a9.82 9.82 0 0 0 9.818-9.737c-.811-.142-1.31-.219-1.31-.219-1.787 2.578-6.762 3.047-8.708 3.1-1.945-.053-6.138-.333-7.924-2.912 0 0-.65.085-1.683.246a9.815 9.815 0 0 0 9.807 9.522z" class="cls-4" transform="translate(-277.774 -370.702)"/>
            <path id="Path_8172" d="M287.714 455.995h53.407v10.916h-53.407z" class="cls-5" transform="translate(-270.809 -378.911)"/>
            <path id="Path_8173" d="M297.235 430.282c-3.4.809-6.727 1.91-7.479 3.234-.271.479-3.423 17.388-4.714 23.18h7.6z" class="cls-4" transform="translate(-270.029 -371.405)"/>
            <path id="Path_8174" d="M348.813 430.282c3.4.809 6.728 1.91 7.479 3.234.27.479 3.424 17.388 4.715 23.18h-7.6z" class="cls-4" transform="translate(-288.645 -371.405)"/>
        </g>
        <g id="Group_2620" clip-path="url(#clip-path-2)" transform="translate(324.007 406.008)">
            <path id="Path_8176" d="M353.547 440a4.956 4.956 0 0 0-1.826.63 5.531 5.531 0 0 0-2.492 2.314 2.954 2.954 0 0 0 .557 3.7 2.694 2.694 0 0 0 3.1.515 2.4 2.4 0 0 0 1.192-2.74 2.175 2.175 0 0 0-2.014-1.374 1.8 1.8 0 0 0-1.209.709 1.7 1.7 0 0 0-.115.156 1.256 1.256 0 0 0 .5 1.91 1.115 1.115 0 0 0 1.168.049.782.782 0 0 0 .2-1.219.431.431 0 0 0-.615.062c-.057.072-.105.151-.175.251a.512.512 0 0 1 .074-.435.647.647 0 0 1 1.132.044.968.968 0 0 1-.075 1.234 1.732 1.732 0 0 1-2.424.381 1.691 1.691 0 0 1-.685-1.293 2.3 2.3 0 0 1 .523-1.769 2.135 2.135 0 0 1 2.124-.709 2.627 2.627 0 0 1 2.132 2.24 2.707 2.707 0 0 1-.7 2.371 3.482 3.482 0 0 1-5.91-2.665 3.562 3.562 0 0 1 .737-1.923 6.93 6.93 0 0 1 3.436-2.4 2.068 2.068 0 0 1 1.244-.079c.046.008.083.025.121.04z" class="cls-15" transform="translate(-348.578 -433.088)"/>
            <path id="Path_8177" d="M359.128 438.427a.765.765 0 0 1 .387.568.533.533 0 0 1-.327.549.9.9 0 0 1-1.355-.428 1.781 1.781 0 0 1 2.72-2.155 2.389 2.389 0 0 1 .863 2.642 2.354 2.354 0 0 1-2.127 1.607 2.648 2.648 0 0 1-2.524-1.046 2.928 2.928 0 0 1-.56-2.225 3.488 3.488 0 0 1 5.507-2.377 3.687 3.687 0 0 1 1.262 1.814 6.447 6.447 0 0 1 .194 3.785 3.357 3.357 0 0 1-.676 1.316c-.025.029-.055.052-.115.108a.574.574 0 0 1 .029-.132 4.189 4.189 0 0 0 .519-2.246 6.326 6.326 0 0 0-.615-2.771 3.057 3.057 0 0 0-4.474-1.18 2.507 2.507 0 0 0-.288 3.926 2.122 2.122 0 0 0 2.259.283 1.912 1.912 0 0 0 1.062-1.833 1.327 1.327 0 0 0-1.551-1.284 1.537 1.537 0 0 0-1.13.595.9.9 0 0 0 .331 1.281.629.629 0 0 0 .528.027.339.339 0 0 0 .222-.476c-.035-.104-.082-.205-.141-.348z" class="cls-15" transform="translate(-350.961 -431.631)"/>
            <path id="Path_8178" d="M360.088 448.1a.664.664 0 0 1-.863.012.8.8 0 0 1 .033-1.134.94.94 0 0 1 .808-.3 1.791 1.791 0 0 1 1.386 2.775 2.03 2.03 0 0 1-2.407.844 2.392 2.392 0 0 1-1.544-3.213 2.91 2.91 0 0 1 4.283-1.38 3.208 3.208 0 0 1 1.573 2.382 3.7 3.7 0 0 1-1.332 3.384 2.919 2.919 0 0 1-1.85.617 6.671 6.671 0 0 1-4.229-1.36 3.008 3.008 0 0 1-.925-1.065.192.192 0 0 1-.021-.12c.019.017.039.033.057.052a6.034 6.034 0 0 0 3.576 1.845 3.571 3.571 0 0 0 2.737-.618 2.935 2.935 0 0 0 .722-4.083 2.439 2.439 0 0 0-3.543-.378 1.921 1.921 0 0 0-.542 2.022 1.9 1.9 0 0 0 1.66 1.3 1.29 1.29 0 0 0 1.406-1.293 1.254 1.254 0 0 0-.44-1.145.943.943 0 0 0-1.2.12.552.552 0 0 0-.052.58.451.451 0 0 0 .46.217c.077-.016.153-.039.247-.061z" class="cls-15" transform="translate(-350.619 -434.649)"/>
        </g>
    </g>
</svg>
