<svg xmlns="http://www.w3.org/2000/svg" width="189.864" height="36.476" viewBox="0 0 189.864 36.476">
    <g>
        <g>
            <path fill="#ffc000" fill-rule="evenodd" d="M59.636 91.379c-1.1-3.576-.407-7.574 2.822-9.891a6.747 6.747 0 0 1 6.51-.9c1.455.554 2.913 1.462 4.689 1.567 1.776-.1 3.232-1.013 4.687-1.567a6.746 6.746 0 0 1 6.51.9c3.232 2.314 3.928 6.314 2.822 9.891-1.786 5.692-14.019 14.185-14.019 14.185s-12.142-8.199-14.021-14.185zm14.021-22.291a5.05 5.05 0 1 1-5.05 5.05 5.05 5.05 0 0 1 5.05-5.05zm5.888 15.986a3.728 3.728 0 1 1-3.73 3.727 3.729 3.729 0 0 1 3.73-3.727zm.264 9.973c-3.975 1.552-11.729 1.853-14.444-1.8a3.789 3.789 0 0 1-.385-3.5 3.43 3.43 0 0 1 2.9-2c3.444-.221 5.939 6.564 11.93 7.3z" transform="translate(-59.148 -69.088) translate(59.148 69.088) translate(-59.148 -69.088)"/>
            <g>
                <path d="M224.978 127.115h4.178l2.477 8.256a33.079 33.079 0 0 1 .926 3.778h.1a28.534 28.534 0 0 1 .926-3.778l2.452-8.256h4.153l2.052 16.687h-3.378l-.726-8.081a46.163 46.163 0 0 1-.2-4.9h-.125a42.279 42.279 0 0 1-1.2 4.728l-2.527 8.256h-2.977l-2.527-8.231a45.481 45.481 0 0 1-1.2-4.753h-.125v1.126a36.489 36.489 0 0 1-.2 3.778l-.75 8.081h-3.353z" transform="translate(-59.148 -69.088) translate(59.148 69.088) translate(38.368 12.566) translate(-222.951 -126.089)"/>
                <path d="M322.08 159.9a5.486 5.486 0 0 1-5.129 2.8 5.42 5.42 0 0 1-5.554-5.779c0-3.477 2.251-5.779 5.629-5.779 3.227 0 5.3 2.152 5.3 5.5v.926h-6.98a2.315 2.315 0 0 1-.75-.075c.175 1.776 1 2.677 2.427 2.677a2.53 2.53 0 0 0 2.477-1.551zm-3.578-4.228a2.719 2.719 0 0 1 .776.075 2.223 2.223 0 0 0-2.327-2.3 2.26 2.26 0 0 0-2.377 2.3 4.277 4.277 0 0 1 1-.075z" transform="translate(-59.148 -69.088) translate(59.148 69.088) translate(38.368 12.566) translate(-290.68 -144.492)"/>
                <path d="M373.028 139.048a4.435 4.435 0 0 1-3.628 1.776c-3.052 0-5.129-2.327-5.129-5.679s2.076-5.754 5.129-5.754a4.388 4.388 0 0 1 3.428 1.451l.075-.025a27.426 27.426 0 0 1-.125-3.252v-4.829h3.122v17.713h-2.952v-.6a1.92 1.92 0 0 1 .15-.776zm-5.5-3.978c0 1.776 1 3.177 2.627 3.177 1.726 0 2.827-1.376 2.827-3.227a2.826 2.826 0 0 0-2.8-3.077c-1.608 0-2.659 1.326-2.659 3.127z" transform="translate(-59.148 -69.088) translate(59.148 69.088) translate(38.368 12.566) translate(-331.169 -122.736)"/>
                <path d="M432.85 159.9a5.487 5.487 0 0 1-5.129 2.8 5.42 5.42 0 0 1-5.554-5.779c0-3.477 2.252-5.779 5.629-5.779 3.227 0 5.3 2.152 5.3 5.5v.926h-6.98a2.316 2.316 0 0 1-.75-.075c.175 1.776 1 2.677 2.427 2.677a2.53 2.53 0 0 0 2.477-1.551zm-3.578-4.228a2.72 2.72 0 0 1 .776.075 2.224 2.224 0 0 0-2.327-2.3 2.26 2.26 0 0 0-2.377 2.3 4.275 4.275 0 0 1 1-.075z" transform="translate(-59.148 -69.088) translate(59.148 69.088) translate(38.368 12.566) translate(-375.504 -144.492)"/>
                <path d="M478.352 122.736h3.127v17.713h-3.127z" transform="translate(-59.148 -69.088) translate(59.148 69.088) translate(38.368 12.566) translate(-418.529 -122.736)"/>
                <path d="M508.505 161.314a4.039 4.039 0 0 1-3.528 1.676c-3.427 0-5.154-2.251-5.154-5.554 0-3.4 2.076-5.754 5.129-5.754a4.358 4.358 0 0 1 3.6 1.751l.075-.025a1.743 1.743 0 0 1-.15-.75v-.6h3.052v10.558h-3.078v-.55a1.313 1.313 0 0 1 .15-.7zm-5.4-3.9c0 1.776 1.026 3 2.652 3 1.751 0 2.8-1.226 2.8-3.1a2.78 2.78 0 0 0-2.777-3.077c-1.628-.003-2.68 1.348-2.68 3.174z" transform="translate(-59.148 -69.088) translate(59.148 69.088) translate(38.368 12.566) translate(-434.972 -144.902)"/>
                <path d="M586.238 127.115h9.282v2.952h-5.379a1.873 1.873 0 0 1-.55-.05 1.881 1.881 0 0 1 .05.55v2.7a1.882 1.882 0 0 1-.05.55 1.873 1.873 0 0 1 .55-.05h5.379v2.977h-5.379a1.881 1.881 0 0 1-.55-.05 1.88 1.88 0 0 1 .05.55v6.556h-3.4z" transform="translate(-59.148 -69.088) translate(59.148 69.088) translate(38.368 12.566) translate(-501.145 -126.089)"/>
                <path d="M639.569 161.314a4.039 4.039 0 0 1-3.528 1.676c-3.427 0-5.154-2.251-5.154-5.554 0-3.4 2.076-5.754 5.129-5.754a4.357 4.357 0 0 1 3.6 1.751l.075-.025a1.74 1.74 0 0 1-.15-.75v-.6h3.059v10.558h-3.077v-.55a1.313 1.313 0 0 1 .15-.7zm-5.4-3.9c0 1.776 1.026 3 2.652 3 1.751 0 2.8-1.226 2.8-3.1a2.78 2.78 0 0 0-2.777-3.077c-1.628-.003-2.679 1.348-2.679 3.174z" transform="translate(-59.148 -69.088) translate(59.148 69.088) translate(38.368 12.566) translate(-535.336 -144.902)"/>
                <path d="M693.056 152.057h2.952v.676a2.155 2.155 0 0 1-.175.876l.1.025a3.874 3.874 0 0 1 3.4-1.951 3.032 3.032 0 0 1 3.077 1.951l.05.025a3.964 3.964 0 0 1 3.553-1.976 3.184 3.184 0 0 1 2.927 1.376 5.72 5.72 0 0 1 .5 2.6v6.955h-3.127v-6.18c0-1.476-.55-2.2-1.7-2.2s-1.776.776-1.776 2.2v6.18h-3.152v-6.254c0-1.426-.526-2.126-1.6-2.126-1.251 0-1.9.8-1.9 2.251v6.13h-3.127z" transform="translate(-59.148 -69.088) translate(59.148 69.088) translate(38.368 12.566) translate(-582.943 -144.902)"/>
                <path d="M777.884 132.089a1.877 1.877 0 1 1-1.877-1.876 1.82 1.82 0 0 1 1.877 1.876zm-3.453 3.528h3.128v10.558h-3.128z" transform="translate(-59.148 -69.088) translate(59.148 69.088) translate(38.368 12.566) translate(-645.027 -128.462)"/>
                <path d="M801.477 122.736h3.123v17.713h-3.127z" transform="translate(-59.148 -69.088) translate(59.148 69.088) translate(38.368 12.566) translate(-665.968 -122.736)"/>
                <path d="M824.729 153.284l1.151 3.2a18.521 18.521 0 0 1 1 3.252h.1a21.48 21.48 0 0 1 .951-3.277l1.076-3.177h3.428l-6.255 15.637h-3.6l2.552-5.829-4.1-9.807z" transform="translate(-59.148 -69.088) translate(59.148 69.088) translate(38.368 12.566) translate(-680.938 -146.129)"/>
            </g>
        </g>
    </g>
</svg>
