<svg xmlns="http://www.w3.org/2000/svg" width="88" height="88" viewBox="0 0 88 88">
    <defs>
        <clipPath id="clip-path">
            <path id="Path_8111" d="M446.3 192.654a44 44 0 0 0 44 44 44 44 0 0 0 44-44 44 44 0 0 0-44-44 44 44 0 0 0-44 44z" class="cls-1" transform="translate(-446.297 -148.655)"/>
        </clipPath>
        <style>
            .cls-1{fill:#fff}.cls-4{fill:#ffe5ad}.cls-6{fill:#ffd1a9}.cls-10{fill:#191615}.cls-11{fill:#2d2624}.cls-12{fill:#2c2e35}
        </style>
    </defs>
    <g id="Group_2636" transform="translate(-446.297 -148.654)">
        <g id="Group_2631" transform="translate(446.298 148.654)">
            <path id="Path_8089" fill="#f5f6f6" d="M534.3 192.654a44 44 0 1 1-44-44 44 44 0 0 1 44 44z" transform="translate(-446.298 -148.654)"/>
        </g>
        <g id="Group_2614" clip-path="url(#clip-path)" transform="translate(446.297 148.655)">
            <path id="Path_8091" d="M510.528 247.925c2.137-3.957 4.226-3.086 3.666-8.861 0 0-6.967-2.056-6.936-8.9a13.156 13.156 0 0 1-4.56 1.35c-2.1.081-4.522-1.668-4.522-1.668s.549 7.38-5.366 8.935c-.726 6 .716 6.574 4.218 9.653 2.561 2.259 11.53 3.137 13.5-.509z" class="cls-4" transform="translate(-459.822 -172.358)"/>
            <path id="Path_8092" fill="#ffae2e" d="M519.507 246.568c-2.772-2.626-13.439-4.707-13.439-4.707s-.622 6.556-9.757 6.4c-8.915-.152-9.05-6.281-9.05-6.281s-10.863 1.893-14.107 4.586-2.626 8.607-2.626 8.607v8.712h51.593v-8.671l.011-.041s.146-5.978-2.625-8.605z" transform="translate(-453.357 -175.864)"/>
            <path id="Path_8093" d="M529.92 205.535s1.053-2.061 2.223-.666.941 7.084-2.783 7.091c0 0 .54-5.074.56-6.425z" class="cls-4" transform="translate(-470.545 -164.924)"/>
            <path id="Path_8094" d="M530.177 208.418s.753-2.023 1.5-.98a2.414 2.414 0 0 1-.753 3.311s.511-3.68-.747-2.331z" class="cls-6" transform="translate(-470.783 -165.728)"/>
            <path id="Path_8095" d="M481.841 205.535s-1.052-2.061-2.222-.666-.836 7.084 2.886 7.091c.001 0-.647-5.074-.664-6.425z" class="cls-4" transform="translate(-455.849 -164.924)"/>
            <path id="Path_8096" d="M482.2 208.418s-.754-2.023-1.5-.98a2.416 2.416 0 0 0 .751 3.311s-.51-3.68.749-2.331z" class="cls-6" transform="translate(-456.226 -165.728)"/>
            <path id="Path_8097" d="M516.742 194.027c.772-23.847-16.987-22.119-16.992-22.119s-17.766-1.728-16.993 22.119c0 0-.026 9.957 2.649 13.681a19.156 19.156 0 0 0 14.341 7.456c4.392 0 10.887-2.237 14.344-7.456 2.729-4.12 2.651-13.681 2.651-13.681z" class="cls-4" transform="translate(-456.933 -155.435)"/>
            <path id="Path_8098" fill="#ffcfaa" d="M508.154 215.17c0 .707-.91 1.28-2.03 1.28s-2.029-.574-2.029-1.28.908-1.282 2.029-1.282 2.03.574 2.03 1.282z" transform="translate(-463.17 -167.698)"/>
            <path id="Path_8099" fill="#fa92c5" d="M501.609 223.621a4.811 4.811 0 0 0 7.57 0z" transform="translate(-462.444 -170.539)"/>
            <path id="Path_8100" fill="#f77ab9" d="M507.05 221.776c-.644-.258-1.214.295-1.655.295s-1.013-.552-1.656-.295a17.434 17.434 0 0 0-2.13 1.287 27.852 27.852 0 0 0 7.571 0 17.546 17.546 0 0 0-2.13-1.287z" transform="translate(-462.444 -169.981)"/>
            <path id="Path_8101" d="M516.843 201.42a4.463 4.463 0 0 1 4.852.326c.386.308.938-.236.547-.548a5.262 5.262 0 0 0-5.791-.448c-.439.235-.051.903.392.67z" class="cls-10" transform="translate(-466.721 -163.671)"/>
            <path id="Path_8102" d="M494.239 201.42a4.464 4.464 0 0 0-4.853.326c-.384.308-.936-.236-.547-.548a5.26 5.26 0 0 1 5.79-.448c.441.235.051.903-.39.67z" class="cls-10" transform="translate(-458.677 -163.671)"/>
            <path id="Path_8103" d="M498.687 170.385c-22.4 0-19.352 25.185-19.352 25.185.626-.935 2.558.04 2.558.04l.389-2.469c.342-1.626.967-5.762 2.136-7.337a13.462 13.462 0 0 0-.594 3.431 27.461 27.461 0 0 1 10.967-.026l.311-4.666.566 4.666a23.221 23.221 0 0 0 7.277-.36l-.1-3.936 1.39 3.78s6.366-.074 9.143 1.3a12.043 12.043 0 0 0 .135-3.135c.266.77 1.16 4.329 1.534 6.251l.387 2.456s1.551-1.409 2.177-.474c-.002.009 4.076-24.706-18.924-24.706z" class="cls-11" transform="translate(-455.9 -154.998)"/>
            <path id="Path_8104" d="M512.227 166c0 5-4.353 9.058-9.725 9.058S492.775 171 492.775 166s4.355-9.058 9.727-9.058 9.725 4.058 9.725 9.058z" class="cls-11" transform="translate(-459.865 -151.074)"/>
            <path id="Path_8105" d="M493.758 242.032s-3.116 7.054 1.528 9.454 7.9-3.174 7.9-3.174-6.699-.097-9.428-6.28z" class="cls-1" transform="translate(-459.853 -175.914)"/>
            <path id="Path_8106" d="M516.871 241.86s3.157 7.176-1.488 9.575-7.894-3.173-7.894-3.173 6.652-.219 9.382-6.402z" class="cls-1" transform="translate(-464.16 -175.864)"/>
            <path id="Path_8107" d="M522.408 205.8c0 .782-1.353 1.416-3.021 1.416s-3.019-.634-3.019-1.416 1.353-1.415 3.019-1.415 3.021.633 3.021 1.415z" class="cls-12" transform="translate(-466.752 -164.924)"/>
            <path id="Path_8108" d="M523.037 205.917a.777.777 0 1 1-.778-.779.779.779 0 0 1 .778.779z" class="cls-1" transform="translate(-468.245 -165.144)"/>
            <path id="Path_8109" d="M494.855 205.8c0 .782-1.353 1.416-3.021 1.416s-3.019-.634-3.019-1.416 1.353-1.415 3.019-1.415 3.021.633 3.021 1.415z" class="cls-12" transform="translate(-458.709 -164.924)"/>
            <path id="Path_8110" d="M495.483 205.917a.777.777 0 1 1-.778-.779.778.778 0 0 1 .778.779z" class="cls-1" transform="translate(-460.202 -165.144)"/>
        </g>
    </g>
</svg>
