<svg xmlns="http://www.w3.org/2000/svg" width="70" height="70" viewBox="0 0 70 70">
    <defs>
        <clipPath id="clip-path">
            <path id="Rectangle_1229" d="M0 0H38V38H0z" class="cls-1" transform="translate(0 -.348)"/>
        </clipPath>
        <style>
            .cls-1{fill:#898d8d}
        </style>
    </defs>
    <g id="Group_2421" transform="translate(-24 -119)">
        <circle id="Ellipse_343" cx="35" cy="35" r="35" fill="#fae7dd" transform="translate(24 119)"/>
        <g id="Group_2485" transform="translate(234 240.348)">
            <g id="Group_2485-2" clip-path="url(#clip-path)" transform="translate(-194 -105)">
                <path id="Path_7989" d="M23.112 34.556a1.556 1.556 0 1 1-1.556 1.556 1.557 1.557 0 0 1 1.556-1.556m0-1.556a3.112 3.112 0 1 0 3.112 3.112A3.112 3.112 0 0 0 23.112 33" class="cls-1" transform="translate(-4.286 -7.172)"/>
                <path id="Path_7990" d="M18.671 37.341H.778a.778.778 0 0 1 0-1.556c1.7 0 5.7-.935 6.174-2.677A18.443 18.443 0 0 1 0 18.671a18.671 18.671 0 1 1 18.671 18.67M6.528 35.785h12.143A17.115 17.115 0 1 0 1.556 18.671 16.914 16.914 0 0 0 8.249 32.15a.781.781 0 0 1 .3.617 3.592 3.592 0 0 1-2.026 3.018" class="cls-1" transform="translate(.156 .156)"/>
                <path id="Path_7991" d="M23.112 8.556a1.557 1.557 0 0 1 1.556 1.556v11.669a1.556 1.556 0 1 1-3.112 0V10.112a1.557 1.557 0 0 1 1.556-1.556m0-1.556A3.112 3.112 0 0 0 20 10.112v11.669a3.112 3.112 0 0 0 6.224 0V10.112A3.112 3.112 0 0 0 23.112 7" class="cls-1" transform="translate(-4.286 -1.399)"/>
            </g>
        </g>
    </g>
</svg>
