<svg width="128" height="128" viewBox="0 0 128 128" fill="none" xmlns="http://www.w3.org/2000/svg">
<path d="M64 0C76.658 0 89.0317 3.75353 99.5565 10.7859C110.081 17.8184 118.284 27.8138 123.128 39.5083C127.972 51.2027 129.24 64.071 126.77 76.4858C124.301 88.9006 118.205 100.304 109.255 109.255C100.304 118.205 88.9006 124.301 76.4858 126.77C64.071 129.24 51.2027 127.972 39.5083 123.128C27.8138 118.284 17.8184 110.081 10.7859 99.5565C3.75353 89.0317 0 76.658 0 64C0 47.0261 6.74284 30.7475 18.7452 18.7452C30.7475 6.74284 47.0261 0 64 0V0Z" fill="#D8D8D8"/>
<path d="M65.66 50.636C68.85 50.636 70.59 52.55 70.59 56.262C70.59 59.974 68.85 61.888 65.66 61.888H62.818C62.18 61.888 62.064 61.888 61.542 62.004C61.658 61.482 61.658 61.366 61.658 60.728V51.796C61.658 51.158 61.658 51.042 61.542 50.52C62.064 50.636 62.18 50.636 62.818 50.636H65.66ZM53.77 83H61.658V69.428C61.658 68.79 61.658 68.674 61.542 68.152C62.064 68.268 62.18 68.268 62.818 68.268H65.95C73.896 68.268 78.594 63.802 78.594 56.32C78.594 48.896 73.664 44.314 65.66 44.314H53.77V83Z" fill="#3E3E3E"/>
</svg>
