<svg id="Group_809" data-name="Group 809" xmlns="http://www.w3.org/2000/svg" width="70" height="70" viewBox="0 0 70 70">
  <circle id="Ellipse_214" data-name="Ellipse 214" cx="35" cy="35" r="35" transform="translate(0 0)" />
  <path id="Subtraction_9" data-name="Subtraction 9" d="M-10241.5-340a15.545,15.545,0,0,1-10.961-4.456,14.954,14.954,0,0,1-4.541-10.75c0-1.915.815-4.569,2.423-7.887a83.573,83.573,0,0,1,5.328-9.159c3.631-5.526,7.33-10.216,7.739-10.733l.012-.014a.24.24,0,0,1,.036.041c.659.834,3.02,3.859,5.725,7.764a119.961,119.961,0,0,1,8.234-12.8h0c.009,0,.016.011.021.02.5.68,3.148,4.283,5.73,8.474a66.854,66.854,0,0,1,3.954,7.241,16.423,16.423,0,0,1,1.8,6.237,11.864,11.864,0,0,1-10.058,11.918,15.046,15.046,0,0,1-4.87,10.006A15.56,15.56,0,0,1-10241.5-340Zm0-39.738h0a146.034,146.034,0,0,0-8.562,12.541c-3.272,5.477-4.932,9.512-4.932,11.991A13.37,13.37,0,0,0-10241.5-342a13.623,13.623,0,0,0,9.128-3.484,13.067,13.067,0,0,0,4.317-8.529c-.056,0-.111-.01-.165-.016h-.009c-.042-.005-.083-.01-.125-.013-.2-.015-.409-.036-.61-.062-.146-.022-.3-.046-.455-.075-.248-.044-.5-.1-.742-.154l-.112-.03-.006,0-.121-.032a11.938,11.938,0,0,1-8.6-11.625.543.543,0,0,1,0-.056c0-.019,0-.036,0-.052s0-.041,0-.062,0-.041,0-.062c0-1.784.687-4.106,2.1-7.1-1.421-2.076-2.97-4.224-4.6-6.384Zm14-4.857h0a106.147,106.147,0,0,0-6.28,10c-2.1,3.869-3.18,6.724-3.213,8.484a10.618,10.618,0,0,0,2.826,7.154A9.083,9.083,0,0,0-10227.5-356c.288,0,.574-.025.764-.041.287-.032.5-.059.676-.09a9.4,9.4,0,0,0,5.74-3.344,10.3,10.3,0,0,0,2.324-6.549c0-1.74-1.069-4.6-3.179-8.5a105.5,105.5,0,0,0-6.325-10.075Z" transform="translate(10271.999 399.001)" fill="#898d8d" stroke="rgba(0,0,0,0)" stroke-miterlimit="10" stroke-width="1"/>
</svg>
