<svg xmlns="http://www.w3.org/2000/svg" width="88" height="88" viewBox="0 0 88 88">
    <defs>
        <clipPath id="clip-path">
            <path id="Path_8069" fill="#fff" d="M93.272 192.654a44 44 0 0 0 44 44 44 44 0 0 0 44-44 44 44 0 0 0-44-44 44 44 0 0 0-44 44z" transform="translate(-93.272 -148.655)"/>
        </clipPath>
        <style>
            .cls-4{fill:#282928}.cls-5{fill:#d7b08c}.cls-7{fill:#9e5e53}.cls-8{fill:#c89a72}.cls-10{fill:#2f1f17}
        </style>
    </defs>
    <g id="Group_2633" transform="translate(-93.272 -148.654)">
        <g id="Group_2629" transform="translate(93.273 148.654)">
            <path id="Path_8052" fill="#f5f6f6" d="M181.272 192.654a44 44 0 1 1-44-44 44 44 0 0 1 44 44z" transform="translate(-93.273 -148.654)"/>
        </g>
        <g id="Group_2611" clip-path="url(#clip-path)" transform="translate(93.272 148.655)">
            <path id="Path_8054" d="M165.559 212.908l-18.154 5.463-18.153-5.463s-3.666 18.745 3.368 25.179a14.143 14.143 0 0 1-.924-6.65s.783 10.026 14.652 10.959v.077c.364 0 .71-.012 1.058-.023.348.011.695.023 1.058.023v-.073c13.868-.933 14.652-10.959 14.652-10.959a14.142 14.142 0 0 1-.924 6.65c7.033-6.438 3.367-25.183 3.367-25.183z" class="cls-4" transform="translate(-103.497 -167.412)"/>
            <path id="Path_8055" d="M159.763 247.925c2.136-3.957 4.227-3.086 3.665-8.86 0 0-6.967-2.056-6.936-8.9a13.157 13.157 0 0 1-4.56 1.35c-2.1.081-4.522-1.668-4.522-1.668s.55 7.38-5.365 8.936c-.725 6 .715 6.573 4.218 9.653 2.56 2.257 11.53 3.135 13.5-.511z" class="cls-5" transform="translate(-107.457 -172.358)"/>
            <path id="Path_8056" fill="#ffae2e" d="M168.741 246.548c-2.772-2.626-13.529-4.757-13.529-4.757l-9.312 10.492-10.32-10.012s-9.948 1.583-13.191 4.277-2.627 8.607-2.627 8.607v8.711h51.593V255.2l.011-.041s.147-5.986-2.625-8.611z" transform="translate(-100.991 -175.843)"/>
            <path id="Path_8057" d="M166.078 201.42a4.464 4.464 0 0 1 4.853.327c.384.308.937-.236.546-.547a5.26 5.26 0 0 0-5.791-.448c-.44.233-.049.902.392.668z" class="cls-7" transform="translate(-114.355 -163.671)"/>
            <path id="Path_8058" d="M143.474 201.42a4.464 4.464 0 0 0-4.853.327c-.384.308-.937-.236-.547-.547a5.259 5.259 0 0 1 5.79-.448c.442.233.051.902-.39.668z" class="cls-7" transform="translate(-106.312 -163.671)"/>
            <path id="Path_8059" d="M179.156 205.535s1.052-2.061 2.223-.666.94 7.084-2.783 7.091c.004 0 .541-5.074.56-6.425z" class="cls-5" transform="translate(-118.18 -164.924)"/>
            <path id="Path_8060" d="M179.412 208.419s.753-2.024 1.5-.981a2.414 2.414 0 0 1-.751 3.312s.508-3.68-.749-2.331z" class="cls-8" transform="translate(-118.418 -165.728)"/>
            <path id="Path_8061" d="M131.078 205.535s-1.054-2.061-2.224-.666-.836 7.084 2.888 7.091c-.001 0-.649-5.074-.664-6.425z" class="cls-5" transform="translate(-103.484 -164.924)"/>
            <path id="Path_8062" d="M131.437 208.419s-.753-2.024-1.5-.981a2.417 2.417 0 0 0 .751 3.312s-.511-3.68.749-2.331z" class="cls-8" transform="translate(-103.861 -165.728)"/>
            <path id="Path_8063" d="M165.977 194.027c.772-23.847-16.986-22.12-16.992-22.12s-17.766-1.728-16.993 22.12c0 0-.025 9.956 2.649 13.681a19.156 19.156 0 0 0 14.343 7.455c4.389 0 10.887-2.236 14.344-7.455 2.727-4.12 2.649-13.681 2.649-13.681z" class="cls-5" transform="translate(-104.568 -155.435)"/>
            <path id="Path_8064" d="M157.39 215.171c0 .706-.909 1.279-2.029 1.279s-2.029-.574-2.029-1.279.908-1.281 2.029-1.281 2.029.573 2.029 1.281z" class="cls-8" transform="translate(-110.805 -167.699)"/>
            <path id="Line_400" d="M0 0L10.092 0" transform="translate(39.496 51.406)"/>
            <path id="Line_401" d="M0 0L10.092 0" transform="translate(39.496 51.406)"/>
            <path id="Path_8065" fill="#ff6759" d="M156.274 223.228c-2.422 1.632-4.747.132-6.44-1.72h8.29a8.039 8.039 0 0 1-1.85 1.72zm2.694-2.606H149a.348.348 0 0 0-.28.032.459.459 0 0 0-.159.719c1.712 2.145 4.314 4.348 7.225 3.091a7.974 7.974 0 0 0 3.564-3.18.448.448 0 0 0-.382-.662z" transform="translate(-109.38 -169.659)"/>
            <path id="Path_8066" d="M166.285 208.118a1.774 1.774 0 0 1 3.545 0c.025.479.773.482.747 0a2.576 2.576 0 0 0-2.52-2.519 2.549 2.549 0 0 0-2.519 2.519c-.026.482.721.482.747 0z" class="cls-10" transform="translate(-114.368 -165.277)"/>
            <path id="Path_8067" d="M140.325 208.118a1.773 1.773 0 0 1 3.545 0c.026.479.773.482.748 0a2.577 2.577 0 0 0-2.52-2.519 2.548 2.548 0 0 0-2.519 2.519c-.027.482.721.482.746 0z" class="cls-10" transform="translate(-106.789 -165.277)"/>
            <path id="Path_8068" d="M137.4 181.657s12.947 14.382 27.308 13.96c0 0 1.073-1.355 1.8-.88 0 0 1.989-25.792-18.691-24.063 0 0-20.44-3.06-19.161 24.837a1.372 1.372 0 0 1 2.279.107s5.291-7.536 6.465-13.961z" class="cls-4" transform="translate(-103.587 -155.054)"/>
        </g>
    </g>
</svg>
