<svg xmlns="http://www.w3.org/2000/svg" width="311.302" height="302.883" viewBox="0 0 311.302 302.883">
    <defs>
        <style>
            .cls-1,.cls-16,.cls-17,.cls-6,.cls-7,.cls-8{fill:#fff}.cls-1,.cls-16,.cls-17,.cls-19,.cls-20,.cls-3,.cls-4,.cls-6,.cls-7,.cls-8{stroke:#898d8d}.cls-1,.cls-3,.cls-4,.cls-6,.cls-7{stroke-linecap:round}.cls-1,.cls-16,.cls-3,.cls-6{stroke-linejoin:round}.cls-18,.cls-19,.cls-20,.cls-3,.cls-4{fill:none}.cls-16,.cls-17,.cls-19,.cls-6,.cls-7{stroke-miterlimit:10}.cls-10{fill:rgba(137,141,141,.4)}.cls-11,.cls-22{fill:#898d8d}.cls-21,.cls-22{stroke:none}
        </style>
    </defs>
    <g id="Group_1580" transform="translate(-31.5 -112.161)">
        <g id="Group_1489" transform="translate(-35.559 -24.628)">
            <g id="Rectangle_233" class="cls-1" transform="translate(143 136.789)">
                <rect width="159.206" height="302.839" class="cls-21" rx="12"/>
                <rect width="158.206" height="301.839" x=".5" y=".5" class="cls-18" rx="11.5"/>
            </g>
            <g id="Subtraction_1" fill="#fff" stroke-linecap="round" stroke-linejoin="round">
                <path d="M42.63 285.036L8 285.035c-4.135 0-7.5-3.365-7.5-7.5V8C.5 3.865 3.865.5 8 .5h124.171c4.136 0 7.5 3.365 7.5 7.5v269.535c0 4.135-3.364 7.5-7.5 7.5h-34.63v-7.391c0-3.584-2.915-6.5-6.5-6.5h-41.91c-3.585 0-6.501 2.916-6.501 6.5v7.392z" class="cls-21" transform="rotate(180 146.484 215.488)"/>
                <path d="M42.13 284.536v-6.892c0-3.86 3.14-7 7-7h41.911c3.86 0 7 3.14 7 7v6.89h34.13c3.86 0 7-3.14 7-7V8c0-3.86-3.14-7-7-7H8.001C4.14 1 1 4.14 1 8v269.535c0 3.86 3.14 7 7 7h34.13m1 1H8c-4.411 0-8-3.589-8-8V8C0 3.59 3.589 0 8 0h124.171c4.412 0 8 3.589 8 8v269.535c0 4.411-3.588 8-8 8h-35.13v-7.891c0-3.308-2.691-6-6-6h-41.91c-3.31 0-6.001 2.692-6.001 6V285.536z" class="cls-22" transform="rotate(180 146.484 215.488)"/>
            </g>
            <g id="Rectangle_236" class="cls-1" transform="translate(209.4 145.442)">
                <rect width="25.958" height="6.922" class="cls-21" rx="3.461"/>
                <rect width="24.958" height="5.922" x=".5" y=".5" class="cls-18" rx="2.961"/>
            </g>
        </g>
        <g id="Group_852" transform="translate(81.338 158)">
            <g id="Ellipse_244" class="cls-3" transform="translate(.104)">
                <circle cx="10.5" cy="10.5" r="10.5" class="cls-21"/>
                <circle cx="10.5" cy="10.5" r="10" class="cls-18"/>
            </g>
            <path id="Path_945" d="M-3170.5-402v7.551" class="cls-4" transform="translate(3181.104 408.5)"/>
            <path id="Path_946" d="M0 7.551V0" class="cls-4" transform="rotate(90 1.827 12.327)"/>
        </g>
        <g id="Group_1492" transform="translate(279.338 116)">
            <g id="Ellipse_244-2" class="cls-3" transform="translate(.104)">
                <circle cx="8" cy="8" r="8" class="cls-21"/>
                <circle cx="8" cy="8" r="7.5" class="cls-18"/>
            </g>
            <path id="Path_945-2" d="M-3170.5-402v5.815" class="cls-4" transform="translate(3178.69 407.006)"/>
            <path id="Path_946-2" d="M0 5.815V0" class="cls-4" transform="rotate(90 1.418 9.505)"/>
        </g>
        <g id="Floor" transform="translate(32 414.034)">
            <path id="Line_3" d="M310.3 0L0 0" class="cls-3"/>
        </g>
        <g id="Group_870" transform="translate(287.086 342.602)">
            <g id="Group_867" transform="translate(6.993 7.853)">
                <g id="Group_865">
                    <g id="Group_858" transform="translate(0 10.207)">
                        <path id="Path_975" d="M-647.145 371.684s13.6 9.146 17.971 25.922" class="cls-3" transform="translate(647.145 -370.106)"/>
                        <path id="Path_976" d="M-621.946 383.1a12.907 12.907 0 0 1 5.262.07.033.033 0 0 0 .013 0" class="cls-3" transform="translate(622.67 -375.975)"/>
                        <path id="Path_977" d="M-626.376 368.363a17.008 17.008 0 0 1 4.006 9.143" class="cls-3" transform="translate(630.474 -368.363)"/>
                        <path id="Path_978" d="M-625.982 392.287a5.452 5.452 0 0 0-5.221-.319" class="cls-3" transform="translate(636.379 -380.478)"/>
                        <path id="Path_979" d="M-638.4 400.824a9.3 9.3 0 0 0 .3-1.719" class="cls-3" transform="translate(651.909 -384.5)"/>
                    </g>
                    <g id="Group_864" transform="translate(6.768)">
                        <path id="Path_980" d="M-669.864 457.417c.161.036 5.631.036 5.793 0 4.015-.882 18.272-5.566 5.422-20.737H-675.1c-12.843 15.165 1.221 19.855 5.236 20.737z" class="cls-3" transform="translate(680.392 -394.017)"/>
                        <g id="Group_863" transform="translate(.252)">
                            <g id="Group_862">
                                <g id="Group_860" transform="translate(15.432 5.999)">
                                    <g id="Group_859">
                                        <path id="Path_981" d="M-671.869 371.918s-10.734 7.331-13.84 25.869" class="cls-3" transform="translate(685.709 -366.021)"/>
                                        <path id="Path_982" d="M-684.926 376.838a9.5 9.5 0 0 0-4.532-.05" class="cls-3" transform="translate(700.547 -368.455)"/>
                                        <path id="Path_983" d="M-679.25 359.5a19.461 19.461 0 0 0-3.5 10.774" class="cls-3" transform="translate(691.682 -359.505)"/>
                                        <path id="Path_984" d="M-680.417 391.365a6 6 0 0 1 5.862-1.155" class="cls-3" transform="translate(685.881 -375.442)"/>
                                        <path id="Path_985" d="M-663.444 392.35a14.6 14.6 0 0 1-.594-7.452" class="cls-3" transform="translate(667.09 -372.835)"/>
                                    </g>
                                </g>
                                <g id="Group_861">
                                    <path id="Path_986" d="M-651.162 352.51s8.856 12.385 6.881 35.031" class="cls-3" transform="translate(656.853 -349.834)"/>
                                    <path id="Path_987" d="M-640.846 356.6c5.1-.009 7.787 1.959 7.949 2.081" class="cls-3" transform="translate(640.846 -351.979)"/>
                                    <path id="Path_988" d="M-646.445 357.363a23.33 23.33 0 0 0 .853-10.486" class="cls-3" transform="translate(655.97 -346.877)"/>
                                    <path id="Path_989" d="M-642.081 380.462a7.7 7.7 0 0 0-6.39-3.884" class="cls-3" transform="translate(653.662 -362.468)"/>
                                    <path id="Path_990" d="M-657.535 385.911a17.532 17.532 0 0 0 3.576-8.434" class="cls-3" transform="translate(669.845 -362.94)"/>
                                </g>
                            </g>
                            <path id="Path_991" d="M-653.942 431.269h-17.286l-1.049-4.9h19.383z" class="cls-3" transform="translate(675.784 -388.606)"/>
                        </g>
                    </g>
                </g>
                <g id="Group_866" transform="translate(9.5 45.868)">
                    <path id="Path_992" d="M-632.21 449.493a10.954 10.954 0 0 0-.994 5.488c.112 1.34.606 2.821 1.829 3.38" class="cls-3" transform="translate(633.24 -446.611)"/>
                    <path id="Path_993" d="M-634.43 443.427a10.532 10.532 0 0 0-1.155 1.457" class="cls-3" transform="translate(637.409 -443.427)"/>
                </g>
            </g>
            <path id="Path_994" d="M-642.75 362.639c1.8-1.334 7.115 2.677 8.7 2.941s1.309-3.137 3.534-1.9 2.076 8.482 4.516 8.982c1.172.239 1.046-.945 1.369-1.7a13.408 13.408 0 0 1 3.2 1.671 11.9 11.9 0 0 1 .447 1.308c-.547 1.554-4.949-1.171-3.837 1.862a16.191 16.191 0 0 0 4.762 6.122c-.02 1.873-.215 3.235-.518 3.3-2.418.5-6.98-.988-9.014-2.878-2.064-1.918 2.836-1.4 2.035-3.057s-6.287.7-7.808-1.61 2.717-2.5 2.316-3.746-4.632-.194-6.5-2.6 2.173-1.613 1.378-2.606-6.375-4.756-4.58-6.089z" class="cls-3" transform="translate(643.104 -347.156)"/>
            <g id="Group_869" transform="translate(29.431 8.091)">
                <path id="Path_995" d="M-708.885 376.865c.041.069-.329.418.889.472 3 .133 8.305-.054 10.305-2.776 2.856-3.886-3.706-3.548-3.061-5.694s7.687-.371 9.071-3.433-3.743-2.478-3.5-4.055 5.614.483 7.4-2.764-2.921-1.521-2.156-2.866 6.746-6.937 4.333-8.194-8.034 4.582-9.883 5.2-2.261-5.123-4.7-3.209-.866 10.589-3.7 11.657c-2.113.8-.953-2.308-3.557-2.2-3.54.159-4.739 12.311-1.441 17.862z" class="cls-3" transform="translate(710.823 -347.378)"/>
                <g id="Group_868" opacity="0.1">
                    <path id="Path_996" d="M-708.885 376.865c.041.069-.329.418.889.472 3 .133 8.305-.054 10.305-2.776 2.856-3.886-3.706-3.548-3.061-5.694s7.687-.371 9.071-3.433-3.743-2.478-3.5-4.055 5.614.483 7.4-2.764-2.921-1.521-2.156-2.866 6.746-6.937 4.333-8.194-8.034 4.582-9.883 5.2-2.261-5.123-4.7-3.209-.866 10.589-3.7 11.657c-2.113.8-.953-2.308-3.557-2.2-3.54.159-4.739 12.311-1.441 17.862z" class="cls-3" transform="translate(710.823 -347.378)"/>
                </g>
            </g>
            <path id="Path_997" d="M-662.2 341.562c-.7-3.637 3.247-.551 2.932-2.066s-4.289-8.673-1.608-9.128 6.239 6.827 7.809 7.986 3.15-2.68 4.879-.11-2.428 10.343-.056 12.231c1.766 1.406 2.032-2.637 4.059-1a2.154 2.154 0 0 1 .581.769c-2.131 1.07-3.181 6.846-2.53 11.979-1.327 2.846-2.7 4.986-3.154 4.862-2.9-.795-7.024-4.92-8.187-8.092-1.18-3.218 3.848.047 3.893-2.193s-7.2-2.714-7.578-6.052 4.323-1.21 4.577-2.784-4.917-2.764-5.617-6.402z" class="cls-3" transform="translate(675.756 -330.348)"/>
        </g>
        <g id="Group_1488" transform="translate(-1051.684 470.625)">
            <g id="Group_1487" transform="translate(1300.835 -287.752)">
                <path id="Path_1610" d="M1342.379-248.695a8.694 8.694 0 0 0 .729-.657 2.752 2.752 0 0 0-.235-.986c-.01-.022-.023-.04-.034-.062a8.343 8.343 0 0 1-2.478 1.093 7.326 7.326 0 0 0 1.81-2.041 3.5 3.5 0 0 0-.3-.275c-.917.785-1.715.8-3.167 1.571a4.361 4.361 0 0 1-1.411.936c-1.949.612-2.388-1.8-2.646-2.226s-1.175-.488-1.462-.6-.086-.544 0-1.29a6.634 6.634 0 0 1-1.6-.23 5.807 5.807 0 0 1-.4-1.347s-2.121.8-2.694 0c.4-2.637.4-4.7-2.35-8.025-1.964-2.373-1.475-5.418-1.034-6.967-.051-.059-.1-.116-.151-.179 0 0 .036-.3.146-.811.045-.209.1-.452.175-.725l.015-.055c.035-.13.073-.264.115-.406v-.011c.042-.139.088-.285.137-.435l.033-.1c.05-.152.1-.307.163-.468l.006-.017c.056-.152.117-.31.181-.469l.05-.124c.068-.165.139-.332.214-.5l.035-.076q.1-.226.216-.457l.066-.135q.13-.26.274-.524l.06-.108q.128-.23.267-.462l.076-.126q.164-.267.345-.536l.086-.124c.054-.079.107-.157.163-.236a10.276 10.276 0 0 0-4.93 4.653c-2.828 4.968-3.669 9.707-2.14 17.044s6.879 5.777 7.949 6.175a6.056 6.056 0 0 1-3.953-4.952 23.912 23.912 0 0 0 3.953 3.707c1.07.841 2.6 7.376-.306 9.669 2.14-1.07 4.051-4.28 3.593-6.114.535 1.223.21 3.439-.965 5.2a6.048 6.048 0 0 0 2.417-2.828c-.306 2.216-.153 2.981-1.872 4.586 5.105-.934 8.227-3.439 10.849-7.639.111-.58.747-1.062.749-1.534-.244.077-.49.155-.744.223z" class="cls-6" transform="translate(-1319.955 281.789)"/>
                <path id="Path_1611" d="M1376.271-223.247c-.078.083-.157.168-.234.247-.016.083-.037.165-.057.246.12-.204.22-.369.291-.493z" class="cls-6" transform="translate(-1350.71 252.342)"/>
                <path id="Path_1612" d="M1370.69-220.652l.034.062a2.757 2.757 0 0 1 .235.986 14.235 14.235 0 0 0 2.117-2.849c.021-.081.041-.162.057-.246a13.957 13.957 0 0 1-2.443 2.047z" class="cls-6" transform="translate(-1347.806 252.041)"/>
                <path id="Path_1613" d="M1368.544-222.239a3.517 3.517 0 0 1 .3.275 8.345 8.345 0 0 0 .7-1.4 6.5 6.5 0 0 1-1 1.125z" class="cls-6" transform="translate(-1346.628 252.405)"/>
                <path id="Path_1614" d="M1337.472-277.409c-.058.078-.117.156-.173.235h.008c.055-.081.108-.158.165-.235z" class="cls-1" transform="translate(-1329.476 282.074)"/>
                <path id="Path_1615" d="M1331.352-264.256c.045-.208.1-.453.176-.725-.073.273-.128.516-.176.725z" class="cls-6" transform="translate(-1326.211 275.252)"/>
                <path id="Path_1616" d="M1337.108-276.9h-.008l-.164.236c.056-.072.115-.152.172-.236z" class="cls-1" transform="translate(-1329.277 281.792)"/>
                <path id="Path_1617" d="M1376.626-223.523c.065-.069.128-.133.194-.2-.014-.077-.081.015-.194.2z" class="cls-6" transform="translate(-1351.065 252.618)"/>
                <path id="Path_1618" d="M1397.708-226.851a7.323 7.323 0 0 0 1.125-2.727 7.323 7.323 0 0 1-1.125 2.727z" class="cls-1" transform="translate(-1362.637 255.817)"/>
                <path id="Path_1620" d="M1362.328-264.673a23.912 23.912 0 0 0-3.123-8.661q-.421-.754-.883-1.509a55.908 55.908 0 0 0-4.248-5.955 22.655 22.655 0 0 0-5.355-4.93q-.6-.377-1.189-.682t-1.179-.539a11.734 11.734 0 0 0-1.743-.546q-.288-.066-.572-.114a9.917 9.917 0 0 0-1.683-.143 9.349 9.349 0 0 0-1.089.066 9.1 9.1 0 0 0-1.576.334 9.315 9.315 0 0 0-1.005.374 9.617 9.617 0 0 0-.964.492q-.236.137-.466.289a10.579 10.579 0 0 0-.9.661c-.2.165-.39.334-.576.505l-.129.121c-.179.169-.354.341-.519.515l-.055.06q-.227.241-.435.486l-.109.127c-.148.176-.29.354-.425.533l-.076.1c-.057.077-.111.154-.166.232s-.116.159-.171.239l-.086.124q-.181.269-.344.536l-.076.126q-.139.231-.268.462l-.06.108q-.144.264-.274.524l-.066.135q-.113.231-.216.457l-.035.076c-.076.17-.146.337-.214.5l-.05.124c-.064.159-.125.317-.181.469l-.006.017c-.059.161-.113.316-.163.468l-.033.1c-.049.15-.1.3-.137.435v.011c-.042.142-.08.276-.115.406l-.015.055c-.073.272-.13.516-.176.725-.11.508-.146.811-.146.811.048.063.1.12.151.179 2.518 2.921 7.417.67 9.365 2.992a3.921 3.921 0 0 0 3.89 1.368 10.425 10.425 0 0 1 .413-2.339 4.158 4.158 0 0 1 .219-.544c.316-.64.784-1.045 1.478-.759 1.539.634 2.251 3.091 1.75 5.141a4.759 4.759 0 0 1-.323.912 4.064 4.064 0 0 1-.314.557 12.6 12.6 0 0 1 .042 2.718 27.386 27.386 0 0 1-1.846 7.3 23.847 23.847 0 0 1-1.072 2.405c1.452-.771 2.25-.786 3.167-1.571a6.505 6.505 0 0 0 1-1.123 8.366 8.366 0 0 1-.7 1.4 7.322 7.322 0 0 1-1.81 2.041 8.342 8.342 0 0 0 2.477-1.093 13.956 13.956 0 0 0 2.443-2.047c.077-.079.156-.164.234-.247.113-.185.18-.271.194-.2-.066.072-.129.136-.194.2-.075.124-.172.289-.291.493a14.248 14.248 0 0 1-2.117 2.849 8.694 8.694 0 0 1-.729.657c.254-.069.5-.147.742-.231.317-.11.579-.721.774-.979 1.622-2.142 2.791-4.253 6.37-4.651 2.124-.236 4.76 1.733 4.76 1.733a7.323 7.323 0 0 0 1.125-2.727 10.37 10.37 0 0 0 .099-3.158z" class="cls-6" transform="translate(-1326.034 287.752)"/>
                <path id="Path_1622" d="M1346.245-260.456c-.694-.286-1.162.12-1.478.759a4.175 4.175 0 0 0-.219.544 10.457 10.457 0 0 0-.414 2.339 3.921 3.921 0 0 1-3.89-1.368c-1.948-2.322-6.847-.071-9.365-2.992-.441 1.548-.931 4.593 1.033 6.966 2.752 3.325 2.752 5.389 2.351 8.026.573.8 2.694 0 2.694 0a5.825 5.825 0 0 0 .4 1.347 6.638 6.638 0 0 0 1.6.23c-.085.745-.286 1.175 0 1.29s1.2.172 1.462.6.7 2.838 2.646 2.226a4.365 4.365 0 0 0 1.41-.936 23.855 23.855 0 0 0 1.072-2.405 27.385 27.385 0 0 0 1.845-7.3 12.564 12.564 0 0 0-.042-2.718 4.061 4.061 0 0 0 .314-.557 4.749 4.749 0 0 0 .322-.912c.514-2.049-.201-4.506-1.741-5.139z" class="cls-6" transform="translate(-1325.734 273.163)"/>
            </g>
            <path id="Path_1623" d="M1340.455-130.213c-.26-9.616 5.334-19.664-2.583-34.832h-.006c-.1-.205-.194-.411-.3-.614-6.573-12.688 4.127-31.031 5.5-36.84s-2-20.783-9.172-24.305-12.076 9.669-12.076 9.669-3.554 5.656-6.764 6.86-8.283 2.121-9.9 6.133c-1.851 4.584-.6 7.109-1.026 8.828s-6.917 3.975-14.1 10.854-5.809 21.095 3.974 29.044c1.487 1.405 1.947 6.987 2.056 11.819l-10.932 84.958s1.114 3.343 6.845 2.07v3.5s4.139 3.5 10.188 0v-2.069s0 2.388 6.049.955 9.859 2.547 21.479 1.592 11.181-5.2 11.181-5.2 1.433 2.866 6.05 1.592v-3.024s3.5.955 5.094-1.433c0 0-11.18-55.635-11.557-69.557z" class="cls-6" transform="translate(0 -33.131)"/>
            <path id="Path_1624" d="M1330.061-188.981s1.155-17.743 3.677-19.5c3.88-2.7 8.893-1.559 9.335 4.1.371 4.755-6.008 35.383-7.32 37.774s-22.56 10.187-29.286 11.18c-.917.459-1.739 2.408-2.771 4.185s-4.3 3.21-4.987 4.357a4.373 4.373 0 0 1-1.72 1.834c-.4.172.229-2.924 1.777-4.242-1.261.631-2.522 2.751-3.325 2.924s-1.232.4-1.719-.287 2.465-3.783 3.468-4.357a26.368 26.368 0 0 0-3.522 2.522c-.834.745-2.182-.286-1.752-1.347a15.308 15.308 0 0 1 2.694-3.153s-1.921 1.719-2.981 2.665-1.548-1.118.516-3.7 3.354-3.2 3.7-4.653-1.07-.612-2.637-1.185-2.14-2.713-1.185-2.751 3.478.65 5.885.42 2.484 1.337 4.2 1.452 3.631-.5 7.835-2.14 14.56-7.338 16.566-9.86 3.38-11.652 3.552-16.238z" class="cls-6" transform="translate(-3.07 -42.753)"/>
            <path id="Path_1625" d="M1345.509 182.008c4.224-4 3.828-9.827 3.179-14.537a21.693 21.693 0 0 0-2.713-6.318 20.575 20.575 0 0 1 .378 6.465c-.88 4.26-2.273 9.329-6.573 11.967 4.674.16 5.587 1.615 5.729 2.423z" class="cls-6" transform="translate(-30.003 -246.427)"/>
            <path id="Path_1626" d="M1377.945 211.018v-2.71s-1.476.17-3.679.391a27.4 27.4 0 0 1-4.25 3.443c2.822-.284 5.524-.651 7.929-1.124z" class="cls-6" transform="translate(-46.601 -272.313)"/>
            <path id="Path_1627" d="M1313.687 195.132c-7.429 0-8.7 7.217-8.915 10.613 0 0 2.539.081 6.437.094a13.583 13.583 0 0 1 1.035-3.014 8.613 8.613 0 0 1 2.136-2.816 7.96 7.96 0 0 1 5.327-1.786c.193 0 .378 0 .56.007v-.13s.849-2.968-6.58-2.968z" class="cls-6" transform="translate(-10.785 -265.08)"/>
            <path id="Path_1628" d="M1366.588 170.739c-1.505-1.822-3.572-6.57-5.633-12.158-.162-.006-.32-.014-.478-.023a47.65 47.65 0 0 1-8.582-1.34l-.774-.166c.379.631.741 1.25 1.079 1.849a21.7 21.7 0 0 1 2.713 6.318c.65 4.711 1.045 10.538-3.179 14.537a1.314 1.314 0 0 1-.005.533v4.245c.123.015.259.027.394.039a52.86 52.86 0 0 0 6.591-.03c.31-.162.619-.344.93-.538a27.407 27.407 0 0 0 4.25-3.443 47.228 47.228 0 0 0 3.755-4.093s2.971-.848-1.061-5.73z" class="cls-6" transform="translate(-36.229 -244.176)"/>
            <path id="Path_1629" d="M1339.421 202.009c-.1 0-.2-.007-.3-.009v.188c.105-.058.202-.119.3-.179z" class="cls-1" transform="translate(-29.643 -268.85)"/>
            <path id="Path_1630" d="M1340.6 209.209a52.865 52.865 0 0 1-6.591.03c-.135-.012-.27-.024-.393-.039v-4.245a1.323 1.323 0 0 0 .005-.533c-.142-.807-1.056-2.263-5.729-2.423-.1.06-.195.121-.3.179v-.188c-.183 0-.367-.007-.561-.007a7.958 7.958 0 0 0-5.327 1.786 8.611 8.611 0 0 0-2.137 2.816 13.57 13.57 0 0 0-1.035 3.014 19.365 19.365 0 0 0-.417 3s23.56.751 37.357-1.959v-2.71s-8.172.94-14.872 1.279z" class="cls-6" transform="translate(-18.111 -268.841)"/>
            <path id="Path_1631" d="M1301.329-146.663s.143-4.305 2.655-6.673a8.134 8.134 0 0 1 7.354-1.866c1.758.359 3.552 2.691 3.552 2.691s.395 1.112-.969 1.291-2.391-1.289-2.75-1.755-.483-.516-.483-.516a2.8 2.8 0 0 0 1.14 1.938c1.077.789 3.062 1.123 3.78 1.733s1.184 1.435.645 1.866-1.543-.287-2.942-.825-4.581-1.578-4.787-3.43c-.323.61.48 1.814 1.508 2.6a9.129 9.129 0 0 0 2.815 1.39c1.077.359 2.186 1.809 1.5 2.454s-3.821-1.363-5.444-2.3a11.814 11.814 0 0 1-2.875-2.175 2.983 2.983 0 0 0 .434 2.35c.682 1.184 2.253 1.762 2.755 2.48s.143 1.9-.574 1.829a9.04 9.04 0 0 1-3.408-2.117 7.133 7.133 0 0 1-1.363-2.224c-.143.359-.753 1.65-.538 2.224s1.507 1.405 1.829 2.12-.968.93-1.973.32a3.829 3.829 0 0 1-1.861-3.405z" class="cls-1" transform="translate(-8.895 -72.652)"/>
            <path id="Path_1632" d="M1340.073-243.869a2.567 2.567 0 0 0 2.494-2.178" class="cls-7" transform="translate(-30.164 -22.894)"/>
            <path id="Path_1633" d="M1335.879-249s.774-3.267 3.841-2.666" class="cls-7" transform="translate(-27.862 -19.769)"/>
        </g>
        <g id="Group_1490" transform="translate(5057.441 664.065)">
            <g id="Rectangle_520" class="cls-1" transform="translate(-4929 -513)">
                <rect width="116.246" height="41.76" class="cls-21" rx="6"/>
                <rect width="115.246" height="40.76" x=".5" y=".5" class="cls-18" rx="5.5"/>
            </g>
            <g id="Ellipse_254" class="cls-8" transform="translate(-4919.39 -506.065)">
                <circle cx="14" cy="14" r="14" class="cls-21"/>
                <circle cx="14" cy="14" r="13.5" class="cls-18"/>
            </g>
            <rect id="Rectangle_521" width="63.617" height="4.576" fill="rgba(137,141,141,0.6)" rx="2.288" transform="translate(-4884.952 -506.135)"/>
            <rect id="Rectangle_522" width="63.617" height="1.629" class="cls-10" rx=".814" transform="translate(-4884.952 -490.494)"/>
            <rect id="Rectangle_523" width="63.617" height="1.629" class="cls-10" rx=".814" transform="translate(-4884.952 -486.83)"/>
            <rect id="Rectangle_524" width="31.581" height="1.629" class="cls-10" rx=".814" transform="translate(-4884.952 -483.165)"/>
            <path id="Path_1638" d="M2.168-2.432a.421.421 0 0 0-.129-.188.427.427 0 0 0-.208-.1l-1-.151-.445-.947A.43.43 0 0 0 .222-4 .423.423 0 0 0 0-4.062.423.423 0 0 0-.222-4a.4.4 0 0 0-.159.181l-.449.952-1 .151a.427.427 0 0 0-.208.1.42.42 0 0 0-.129.19.409.409 0 0 0-.013.226.435.435 0 0 0 .11.2l.737.752-.176 1.067A.422.422 0 0 0-1.5 0a.429.429 0 0 0 .085.161.411.411 0 0 0 .146.112.424.424 0 0 0 .178.039.42.42 0 0 0 .207-.053L0-.229l.884.488a.42.42 0 0 0 .205.054.424.424 0 0 0 .178-.04.424.424 0 0 0 .146-.11A.406.406 0 0 0 1.5 0a.434.434 0 0 0 .01-.183l-.177-1.062L2.07-2a.435.435 0 0 0 .11-.2.419.419 0 0 0-.012-.232z" class="cls-11" transform="translate(-4882.809 -495.065)"/>
            <path id="Path_1637" d="M2.168-2.432a.421.421 0 0 0-.129-.188.427.427 0 0 0-.208-.1l-1-.151-.445-.947A.43.43 0 0 0 .222-4 .423.423 0 0 0 0-4.062.423.423 0 0 0-.222-4a.4.4 0 0 0-.159.181l-.449.952-1 .151a.427.427 0 0 0-.208.1.42.42 0 0 0-.129.19.409.409 0 0 0-.013.226.435.435 0 0 0 .11.2l.737.752-.176 1.067A.422.422 0 0 0-1.5 0a.429.429 0 0 0 .085.161.411.411 0 0 0 .146.112.424.424 0 0 0 .178.039.42.42 0 0 0 .207-.053L0-.229l.884.488a.42.42 0 0 0 .205.054.424.424 0 0 0 .178-.04.424.424 0 0 0 .146-.11A.406.406 0 0 0 1.5 0a.434.434 0 0 0 .01-.183l-.177-1.062L2.07-2a.435.435 0 0 0 .11-.2.419.419 0 0 0-.012-.232z" class="cls-11" transform="translate(-4876.809 -495.065)"/>
            <path id="Path_1636" d="M2.168-2.432a.421.421 0 0 0-.129-.188.427.427 0 0 0-.208-.1l-1-.151-.445-.947A.43.43 0 0 0 .222-4 .423.423 0 0 0 0-4.062.423.423 0 0 0-.222-4a.4.4 0 0 0-.159.181l-.449.952-1 .151a.427.427 0 0 0-.208.1.42.42 0 0 0-.129.19.409.409 0 0 0-.013.226.435.435 0 0 0 .11.2l.737.752-.176 1.067A.422.422 0 0 0-1.5 0a.429.429 0 0 0 .085.161.411.411 0 0 0 .146.112.424.424 0 0 0 .178.039.42.42 0 0 0 .207-.053L0-.229l.884.488a.42.42 0 0 0 .205.054.424.424 0 0 0 .178-.04.424.424 0 0 0 .146-.11A.406.406 0 0 0 1.5 0a.434.434 0 0 0 .01-.183l-.177-1.062L2.07-2a.435.435 0 0 0 .11-.2.419.419 0 0 0-.012-.232z" class="cls-11" transform="translate(-4870.809 -495.065)"/>
            <path id="Path_1635" d="M2.168-2.432a.421.421 0 0 0-.129-.188.427.427 0 0 0-.208-.1l-1-.151-.445-.947A.43.43 0 0 0 .222-4 .423.423 0 0 0 0-4.062.423.423 0 0 0-.222-4a.4.4 0 0 0-.159.181l-.449.952-1 .151a.427.427 0 0 0-.208.1.42.42 0 0 0-.129.19.409.409 0 0 0-.013.226.435.435 0 0 0 .11.2l.737.752-.176 1.067A.422.422 0 0 0-1.5 0a.429.429 0 0 0 .085.161.411.411 0 0 0 .146.112.424.424 0 0 0 .178.039.42.42 0 0 0 .207-.053L0-.229l.884.488a.42.42 0 0 0 .205.054.424.424 0 0 0 .178-.04.424.424 0 0 0 .146-.11A.406.406 0 0 0 1.5 0a.434.434 0 0 0 .01-.183l-.177-1.062L2.07-2a.435.435 0 0 0 .11-.2.419.419 0 0 0-.012-.232z" class="cls-11" transform="translate(-4864.809 -495.065)"/>
            <path id="Path_1634" d="M0-3.711a.066.066 0 0 1 .063.044l.513 1.084a.074.074 0 0 0 .054.044l1.147.171a.07.07 0 0 1 .056.049.073.073 0 0 1-.017.073l-.835.854a.079.079 0 0 0-.02.063l.2 1.206a.069.069 0 0 1-.017.059.072.072 0 0 1-.056.024.06.06 0 0 1-.034-.01L.034-.61A.06.06 0 0 0 0-.62a.06.06 0 0 0-.034.01l-1.021.562a.06.06 0 0 1-.034.01.065.065 0 0 1-.054-.024.091.091 0 0 1-.02-.059l.2-1.206a.079.079 0 0 0-.02-.063l-.835-.854a.073.073 0 0 1-.017-.073.07.07 0 0 1 .056-.049l1.149-.173a.074.074 0 0 0 .054-.044l.513-1.084A.066.066 0 0 1 0-3.711zm0-.352A.423.423 0 0 0-.222-4a.4.4 0 0 0-.159.181l-.449.952-1 .151a.427.427 0 0 0-.208.1.42.42 0 0 0-.129.19.409.409 0 0 0-.013.226.435.435 0 0 0 .11.2l.737.752-.176 1.067A.422.422 0 0 0-1.5 0a.429.429 0 0 0 .085.161.411.411 0 0 0 .146.112.424.424 0 0 0 .178.039.42.42 0 0 0 .207-.053L0-.229l.884.488a.42.42 0 0 0 .205.054.424.424 0 0 0 .178-.04.424.424 0 0 0 .146-.11A.406.406 0 0 0 1.5 0a.434.434 0 0 0 .01-.183l-.177-1.062L2.07-2a.435.435 0 0 0 .11-.2.409.409 0 0 0-.012-.229.42.42 0 0 0-.129-.19.427.427 0 0 0-.208-.1l-1-.151-.445-.948A.43.43 0 0 0 .222-4 .423.423 0 0 0 0-4.062z" class="cls-11" transform="translate(-4858.809 -495.065)"/>
            <g id="Intersection_1" fill="#898d8d">
                <path d="M10 22.5c-3.536 0-6.857-1.36-9.37-3.833-.086-.48-.13-.971-.13-1.462 0-1.848.61-3.617 1.766-5.116 1.137-1.474 2.705-2.574 4.537-3.18l.874-.29-.72-.576c-1.022-.817-1.609-2.002-1.609-3.249C5.348 2.426 7.435.5 10 .5s4.651 1.926 4.651 4.294c0 1.247-.586 2.432-1.609 3.25l-.72.575.875.29c3.77 1.249 6.303 4.583 6.303 8.296 0 .491-.044.982-.13 1.462C16.857 21.14 13.535 22.5 10 22.5z" class="cls-21" transform="translate(-4915.39 -501.065)"/>
                <path d="M10 22c3.35 0 6.5-1.268 8.904-3.577.064-.401.096-.81.096-1.218 0-3.497-2.395-6.64-5.96-7.822l-1.75-.58 1.44-1.15c.903-.723 1.421-1.764 1.421-2.859C14.151 2.702 12.29 1 10 1 7.71 1 5.848 2.702 5.848 4.794c0 1.095.519 2.136 1.422 2.859l1.44 1.15-1.75.58C5.224 9.958 3.738 11 2.662 12.394 1.575 13.804 1 15.468 1 17.205c0 .408.032.817.096 1.218C3.5 20.733 6.65 22 10 22m0 1c-3.845 0-7.323-1.563-9.832-4.087C.058 18.359 0 17.789 0 17.205c0-4.045 2.772-7.488 6.646-8.771-1.1-.88-1.798-2.183-1.798-3.64C4.848 2.147 7.155 0 10 0s5.151 2.147 5.151 4.794c0 1.457-.697 2.76-1.797 3.64C17.227 9.717 20 13.16 20 17.205c0 .584-.058 1.154-.168 1.708C17.322 21.437 13.845 23 10 23z" class="cls-22" transform="translate(-4915.39 -501.065)"/>
            </g>
        </g>
        <g id="Group_1491" transform="translate(5005.441 724.065)">
            <g id="Rectangle_520-2" class="cls-1" transform="translate(-4929 -513)">
                <rect width="116.246" height="41.76" class="cls-21" rx="6"/>
                <rect width="115.246" height="40.76" x=".5" y=".5" class="cls-18" rx="5.5"/>
            </g>
            <g id="Ellipse_254-2" fill="#fff" stroke="#ffcd00" transform="translate(-4919.39 -506.065)">
                <circle cx="14" cy="14" r="14" class="cls-21"/>
                <circle cx="14" cy="14" r="13.5" class="cls-18"/>
            </g>
            <rect id="Rectangle_521-2" width="63.617" height="4.576" fill="#ffcd00" rx="2.288" transform="translate(-4884.952 -506.135)"/>
            <rect id="Rectangle_522-2" width="63.617" height="1.629" class="cls-10" rx=".814" transform="translate(-4884.952 -490.494)"/>
            <rect id="Rectangle_523-2" width="63.617" height="1.629" class="cls-10" rx=".814" transform="translate(-4884.952 -486.83)"/>
            <rect id="Rectangle_524-2" width="31.581" height="1.629" class="cls-10" rx=".814" transform="translate(-4884.952 -483.165)"/>
            <path id="Path_1638-2" d="M2.168-2.432a.421.421 0 0 0-.129-.188.427.427 0 0 0-.208-.1l-1-.151-.445-.947A.43.43 0 0 0 .222-4 .423.423 0 0 0 0-4.062.423.423 0 0 0-.222-4a.4.4 0 0 0-.159.181l-.449.952-1 .151a.427.427 0 0 0-.208.1.42.42 0 0 0-.129.19.409.409 0 0 0-.013.226.435.435 0 0 0 .11.2l.737.752-.176 1.067A.422.422 0 0 0-1.5 0a.429.429 0 0 0 .085.161.411.411 0 0 0 .146.112.424.424 0 0 0 .178.039.42.42 0 0 0 .207-.053L0-.229l.884.488a.42.42 0 0 0 .205.054.424.424 0 0 0 .178-.04.424.424 0 0 0 .146-.11A.406.406 0 0 0 1.5 0a.434.434 0 0 0 .01-.183l-.177-1.062L2.07-2a.435.435 0 0 0 .11-.2.419.419 0 0 0-.012-.232z" class="cls-11" transform="translate(-4882.809 -495.065)"/>
            <path id="Path_1637-2" d="M2.168-2.432a.421.421 0 0 0-.129-.188.427.427 0 0 0-.208-.1l-1-.151-.445-.947A.43.43 0 0 0 .222-4 .423.423 0 0 0 0-4.062.423.423 0 0 0-.222-4a.4.4 0 0 0-.159.181l-.449.952-1 .151a.427.427 0 0 0-.208.1.42.42 0 0 0-.129.19.409.409 0 0 0-.013.226.435.435 0 0 0 .11.2l.737.752-.176 1.067A.422.422 0 0 0-1.5 0a.429.429 0 0 0 .085.161.411.411 0 0 0 .146.112.424.424 0 0 0 .178.039.42.42 0 0 0 .207-.053L0-.229l.884.488a.42.42 0 0 0 .205.054.424.424 0 0 0 .178-.04.424.424 0 0 0 .146-.11A.406.406 0 0 0 1.5 0a.434.434 0 0 0 .01-.183l-.177-1.062L2.07-2a.435.435 0 0 0 .11-.2.419.419 0 0 0-.012-.232z" class="cls-11" transform="translate(-4876.809 -495.065)"/>
            <path id="Path_1636-2" d="M2.168-2.432a.421.421 0 0 0-.129-.188.427.427 0 0 0-.208-.1l-1-.151-.445-.947A.43.43 0 0 0 .222-4 .423.423 0 0 0 0-4.062.423.423 0 0 0-.222-4a.4.4 0 0 0-.159.181l-.449.952-1 .151a.427.427 0 0 0-.208.1.42.42 0 0 0-.129.19.409.409 0 0 0-.013.226.435.435 0 0 0 .11.2l.737.752-.176 1.067A.422.422 0 0 0-1.5 0a.429.429 0 0 0 .085.161.411.411 0 0 0 .146.112.424.424 0 0 0 .178.039.42.42 0 0 0 .207-.053L0-.229l.884.488a.42.42 0 0 0 .205.054.424.424 0 0 0 .178-.04.424.424 0 0 0 .146-.11A.406.406 0 0 0 1.5 0a.434.434 0 0 0 .01-.183l-.177-1.062L2.07-2a.435.435 0 0 0 .11-.2.419.419 0 0 0-.012-.232z" class="cls-11" transform="translate(-4870.809 -495.065)"/>
            <path id="Path_1635-2" d="M2.168-2.432a.421.421 0 0 0-.129-.188.427.427 0 0 0-.208-.1l-1-.151-.445-.947A.43.43 0 0 0 .222-4 .423.423 0 0 0 0-4.062.423.423 0 0 0-.222-4a.4.4 0 0 0-.159.181l-.449.952-1 .151a.427.427 0 0 0-.208.1.42.42 0 0 0-.129.19.409.409 0 0 0-.013.226.435.435 0 0 0 .11.2l.737.752-.176 1.067A.422.422 0 0 0-1.5 0a.429.429 0 0 0 .085.161.411.411 0 0 0 .146.112.424.424 0 0 0 .178.039.42.42 0 0 0 .207-.053L0-.229l.884.488a.42.42 0 0 0 .205.054.424.424 0 0 0 .178-.04.424.424 0 0 0 .146-.11A.406.406 0 0 0 1.5 0a.434.434 0 0 0 .01-.183l-.177-1.062L2.07-2a.435.435 0 0 0 .11-.2.419.419 0 0 0-.012-.232z" class="cls-11" transform="translate(-4864.809 -495.065)"/>
            <path id="Path_1634-2" d="M0-3.711a.066.066 0 0 1 .063.044l.513 1.084a.074.074 0 0 0 .054.044l1.147.171a.07.07 0 0 1 .056.049.073.073 0 0 1-.017.073l-.835.854a.079.079 0 0 0-.02.063l.2 1.206a.069.069 0 0 1-.017.059.072.072 0 0 1-.056.024.06.06 0 0 1-.034-.01L.034-.61A.06.06 0 0 0 0-.62a.06.06 0 0 0-.034.01l-1.021.562a.06.06 0 0 1-.034.01.065.065 0 0 1-.054-.024.091.091 0 0 1-.02-.059l.2-1.206a.079.079 0 0 0-.02-.063l-.835-.854a.073.073 0 0 1-.017-.073.07.07 0 0 1 .056-.049l1.149-.173a.074.074 0 0 0 .054-.044l.513-1.084A.066.066 0 0 1 0-3.711zm0-.352A.423.423 0 0 0-.222-4a.4.4 0 0 0-.159.181l-.449.952-1 .151a.427.427 0 0 0-.208.1.42.42 0 0 0-.129.19.409.409 0 0 0-.013.226.435.435 0 0 0 .11.2l.737.752-.176 1.067A.422.422 0 0 0-1.5 0a.429.429 0 0 0 .085.161.411.411 0 0 0 .146.112.424.424 0 0 0 .178.039.42.42 0 0 0 .207-.053L0-.229l.884.488a.42.42 0 0 0 .205.054.424.424 0 0 0 .178-.04.424.424 0 0 0 .146-.11A.406.406 0 0 0 1.5 0a.434.434 0 0 0 .01-.183l-.177-1.062L2.07-2a.435.435 0 0 0 .11-.2.409.409 0 0 0-.012-.229.42.42 0 0 0-.129-.19.427.427 0 0 0-.208-.1l-1-.151-.445-.948A.43.43 0 0 0 .222-4 .423.423 0 0 0 0-4.062z" class="cls-11" transform="translate(-4858.809 -495.065)"/>
            <g id="Intersection_1-2" fill="#ffcd00">
                <path d="M10 22.5c-3.536 0-6.857-1.36-9.37-3.833-.086-.48-.13-.971-.13-1.462 0-1.848.61-3.617 1.766-5.116 1.137-1.474 2.705-2.574 4.537-3.18l.874-.29-.72-.576c-1.022-.817-1.609-2.002-1.609-3.249C5.348 2.426 7.435.5 10 .5s4.651 1.926 4.651 4.294c0 1.247-.586 2.432-1.609 3.25l-.72.575.875.29c3.77 1.249 6.303 4.583 6.303 8.296 0 .491-.044.982-.13 1.462C16.857 21.14 13.535 22.5 10 22.5z" class="cls-21" transform="translate(-4915.39 -501.065)"/>
                <path d="M10 22c3.35 0 6.5-1.268 8.904-3.577.064-.401.096-.81.096-1.218 0-3.497-2.395-6.64-5.96-7.822l-1.75-.58 1.44-1.15c.903-.723 1.421-1.764 1.421-2.859C14.151 2.702 12.29 1 10 1 7.71 1 5.848 2.702 5.848 4.794c0 1.095.519 2.136 1.422 2.859l1.44 1.15-1.75.58C5.224 9.958 3.738 11 2.662 12.394 1.575 13.804 1 15.468 1 17.205c0 .408.032.817.096 1.218C3.5 20.733 6.65 22 10 22m0 1c-3.845 0-7.323-1.563-9.832-4.087C.058 18.359 0 17.789 0 17.205c0-4.045 2.772-7.488 6.646-8.771-1.1-.88-1.798-2.183-1.798-3.64C4.848 2.147 7.155 0 10 0s5.151 2.147 5.151 4.794c0 1.457-.697 2.76-1.797 3.64C17.227 9.717 20 13.16 20 17.205c0 .584-.058 1.154-.168 1.708C17.322 21.437 13.845 23 10 23z" transform="translate(-4915.39 -501.065)"/>
            </g>
        </g>
        <g id="Group_1493" transform="translate(-354.858 -81.393)">
            <path id="Path_1639" d="M421.813 430.082a3.646 3.646 0 0 1-.377-.385 3.32 3.32 0 0 1-.383-.6 3.8 3.8 0 0 1-.352-2.057 4.365 4.365 0 0 1 .118-.7 1.132 1.132 0 0 0 .043-.295 1.153 1.153 0 1 0-2.307 0 1.382 1.382 0 0 0 .039.3 4.849 4.849 0 0 1 .14 1.009 3.911 3.911 0 0 1-.068.848 3.533 3.533 0 0 1-.207.688 3.394 3.394 0 0 1-.277.53 3.2 3.2 0 0 1-.28.374 2.516 2.516 0 0 1-.218.223 3.692 3.692 0 0 0-.646.721 3.166 3.166 0 0 0-.525 1.752h6.387a3.219 3.219 0 0 0-1-2.318c-.024-.031-.055-.061-.087-.09z" class="cls-8" transform="translate(-2.371)"/>
            <rect id="Rectangle_525" width="9.435" height="2.844" class="cls-8" rx="1.422" transform="translate(412.62 432.489)"/>
            <path id="Path_1640" d="M421.1 454.389a2.976 2.976 0 0 1-.335-.539 9.18 9.18 0 0 1-.7-2.049 8.475 8.475 0 0 1-.08-3c.018-.115.038-.23.066-.343H412.4a6.964 6.964 0 0 1 .163 1.645 8.56 8.56 0 0 1-.884 3.777c-.293.588-.7 1.1-1.016 1.678a3.7 3.7 0 0 0-.41 1.734 3.908 3.908 0 0 0 3.908 3.908h4.262a3.9 3.9 0 0 0 3.372-5.877 9.8 9.8 0 0 0-.695-.934z" class="cls-8" transform="translate(1.114 -13.121)"/>
            <rect id="Rectangle_526" width="45.35" height="4.486" class="cls-8" rx="2.243" transform="translate(394.8 448.075)"/>
            <path id="Path_1641" d="M395.431 530.08a1.131 1.131 0 0 1-1.121-1.285l5.713-41.459h4.118l-7.6 41.815a1.131 1.131 0 0 1-1.11.929z" class="cls-8" transform="translate(5 -34.775)"/>
            <path id="Path_1642" d="M403.011 530.08a1.131 1.131 0 0 0 1.121-1.285l-5.714-41.459H394.3l7.6 41.815a1.131 1.131 0 0 0 1.111.929z" class="cls-8" transform="translate(32 -34.775)"/>
        </g>
        <g id="Group_1522" transform="translate(450.526 -447.789)">
            <path id="Path_1687" d="M-241.073 772.909c-16.122-4.134-54.472-6.679-57.478-6.874 2.6.169 30.533 2.041 42.328 5.065 12.376 3.173 8.886 15.549 8.886 15.549s-4.111 15.944-7.919 29.272-16.206 11.586-23.457 11.624c-7.457.04-20.032.04-20.032.04s-12.574 0-20.032-.04c-7.251-.038-19.649 1.7-23.458-11.624s-7.918-29.272-7.918-29.272-3.491-12.376 8.885-15.549c11.794-3.024 39.73-4.9 42.328-5.065-3.007.195-41.356 2.74-57.478 6.874-16.782 4.304-12.05 21.091-12.05 21.091s5.575 21.624 10.74 39.7 21.98 15.713 31.814 15.765c10.114.054 27.169.054 27.169.054s17.054 0 27.168-.054c9.835-.052 26.65 2.31 31.815-15.765s10.74-39.7 10.74-39.7 4.734-16.787-12.051-21.091z" class="cls-8" transform="translate(0 -.008)"/>
            <path id="Path_1686" d="M-237.63 771.456c-13.263-3.4-45.57-5.441-45.57-5.441s-32.308 2.04-45.57 5.441-9.522 16.664-9.522 16.664 4.405 17.087 8.486 31.37 17.368 12.416 25.139 12.457c7.992.042 21.467.042 21.467.042s13.476 0 21.468-.042c7.771-.041 21.058 1.826 25.138-12.457s8.487-31.37 8.487-31.37 3.74-13.263-9.523-16.664z" class="cls-8" transform="translate(-15.544)"/>
        </g>
        <g id="Group_1521" transform="translate(102.292 264.067)">
            <path id="Path_1643" d="M322.077 147.018c2.147-12.045 6.559-25.163 11.568-28.629s14.311-2.378 15.923-3.9a3.315 3.315 0 0 0 .815-1.754l-.009-5.078c-2.357-1.111-2.75-5.169-.917-5.89a3.049 3.049 0 0 1 4.191 1.911 31.9 31.9 0 0 1 2.507-4.931q.259-.4.522-.8c2.713-4 7.043-7.864 12.161-3.241a8.668 8.668 0 0 1 .786 6.122s-2.581 12.7-9.666 13.61a2.111 2.111 0 0 0 1.445 2.877c2.726.815 9.714.786 13.761 5.644s10.054 22.881 10.667 31.464.122 13.621-10.667 14.167c-9.991.506-24.5-4.058-26.592-4.738a14.8 14.8 0 0 1-2.556.076c1.105.639 2.135 1.225 2.99 1.707a18.979 18.979 0 0 0 5.835 2.507c2.452.565 2.854 1.1 4.817 1.908s.189 1.675-2.1 1.248-1.832.15-.34.848 5.627.511 6.431 1.572c.415.547-.873.933-2.617 1.087.872-.1-.769 1.273-3.742 1.281a3.187 3.187 0 0 1-2.1.676c-1.121-.079-4.712-.349-8.093-4.9 0 0-16.554-3.267-22.517-6.487s-4.65-6.311-2.503-18.357zm35.992-28.629z" class="cls-16" transform="translate(-298.985 -76.894)"/>
            <path id="Path_1644" d="M349.428 61.595a2.417 2.417 0 0 1 3.06-.065 6.007 6.007 0 1 1 11.69 2.687c2.906.216 5.877.358 8.521 1.566a9.506 9.506 0 0 1 4.351 3.917 7.083 7.083 0 0 1 2.872 2.545 5.129 5.129 0 0 1 .721 4.578 17.222 17.222 0 0 0-1.039 2.4c-.3 1.413.42 2.818 1.038 4.124s1.15 2.862.5 4.152c-.911 1.8-3.672 2.153-4.337 4.055a4.227 4.227 0 0 0 .079 2.388 6.561 6.561 0 0 1 .328 2.388 1.893 1.893 0 0 1-1.464 1.71 3.9 3.9 0 0 0-.9-4.964c-2.542-2.5-.152-4.684 2.052-6.309 1.085-.8.328-1.556-.656-2.6a31.439 31.439 0 0 0 1.056-3.69 8.668 8.668 0 0 0-.786-6.122c-5.118-4.623-9.449-.758-12.161 3.241q-.263.4-.522.8a31.892 31.892 0 0 0-2.507 4.931 3.049 3.049 0 0 0-4.191-1.911c-1.833.721-1.441 4.779.917 5.89a6.314 6.314 0 0 0 .363.945 9.207 9.207 0 0 1-6.063-3.263 10.847 10.847 0 0 1-1.83-9.705 13.069 13.069 0 0 1 3.077-5.323 10.286 10.286 0 0 1-3.668-2.436 5.554 5.554 0 0 1-1.529-2.904 3.346 3.346 0 0 1 1.028-3.025z" class="cls-16" transform="translate(-306.66 -56.546)"/>
            <g id="Group_1520" transform="translate(17.908 20.78)">
                <g id="Group_1519">
                    <g id="Group_1495" transform="translate(0 82.689)">
                        <g id="Group_1494">
                            <path id="Path_1645" d="M426.356 301.666q-4.936-1.578-9.92-3c-3.32-.958-6.677-1.791-10.051-2.551q-2.534-.556-5.093-.991c-1.705-.291-3.416-.559-5.138-.735a45.562 45.562 0 0 0-10.359-.1 42.933 42.933 0 0 1 5.171-.008c1.721.078 3.437.25 5.145.478 3.418.432 6.809 1.076 10.176 1.812 3.374.714 6.718 1.565 10.06 2.43z" class="cls-11" transform="translate(-385.794 -294.035)"/>
                        </g>
                    </g>
                    <g id="Group_1497" transform="translate(17.617 84.895)">
                        <g id="Group_1496">
                            <path id="Path_1646" d="M335.136 314.21c3.717-1.423 7.353-3.04 11.018-4.58s7.326-3.089 11.044-4.487c3.7-1.435 7.458-2.736 11.273-3.83 1.907-.548 3.834-1.03 5.781-1.412a43.581 43.581 0 0 1 5.9-.8 49.488 49.488 0 0 0-11.776 1.865 119.3 119.3 0 0 0-11.345 3.74q-5.569 2.158-11.02 4.6l-5.438 2.455q-2.708 1.246-5.437 2.449z" class="cls-11" transform="translate(-335.136 -299.1)"/>
                        </g>
                    </g>
                    <path id="Path_1647" d="M417.462 261.686a82.249 82.249 0 0 0 11.517 3.623c.375.6.772 1.188 1.182 1.764a12.309 12.309 0 0 0 4.744 4.444 7.213 7.213 0 0 0 1.723.5 20.927 20.927 0 0 1-8.874 1.763c-3.229-.149-6.813-1.081-8.713-3.7-1.453-2-1.278-3.306-5.131-3.306 1.437-2.131 2.58-3.799 3.552-5.088z" class="cls-17" transform="translate(-408.315 -193.091)"/>
                    <g id="Group_1498" transform="translate(34.545 40.301)">
                        <path id="Path_1649" d="M394.266 196.744c1.013 2.618 3.169 6.656 1.976 11.659" class="cls-11" transform="translate(-394.266 -196.744)"/>
                    </g>
                    <g id="Group_1503" transform="translate(36.614 76.698)">
                        <g id="Group_1500" transform="translate(1.758)">
                            <g id="Group_1499">
                                <path id="Path_1650" d="M382.872 280.682l-1.548.009c-.515-.007-1.028 0-1.54-.028a14.539 14.539 0 0 1-3.048-.376 5.957 5.957 0 0 0 1.487.467 10.465 10.465 0 0 0 1.552.167 13.534 13.534 0 0 0 1.557-.032 11.7 11.7 0 0 0 1.54-.207z" class="cls-11" transform="translate(-376.735 -280.286)"/>
                            </g>
                        </g>
                        <g id="Group_1502" transform="translate(0 .967)">
                            <g id="Group_1501">
                                <path id="Path_1651" d="M389.955 283.257a18.473 18.473 0 0 1-1.911-.277c-.314-.06-.625-.134-.936-.213s-.618-.177-.936-.261a5.1 5.1 0 0 0 1.822.728 5.379 5.379 0 0 0 .981.107 4 4 0 0 0 .98-.084z" class="cls-11" transform="translate(-386.172 -282.506)"/>
                            </g>
                        </g>
                    </g>
                    <g id="Group_1508" transform="translate(20.028 57.934)">
                        <g id="Group_1505">
                            <g id="Group_1504">
                                <path id="Path_1652" d="M422.461 237.216a11.633 11.633 0 0 0 .926 1.246 13.529 13.529 0 0 0 1.062 1.135 10.413 10.413 0 0 0 1.2.992 5.949 5.949 0 0 0 1.37.737 14.5 14.5 0 0 1-2.393-1.917c-.375-.349-.73-.718-1.094-1.081z" class="cls-11" transform="translate(-422.461 -237.216)"/>
                            </g>
                        </g>
                        <g id="Group_1507" transform="translate(1.92 3.86)">
                            <g id="Group_1506">
                                <path id="Path_1653" d="M421.236 246.076a3.994 3.994 0 0 0 .623.759 5.425 5.425 0 0 0 .76.626 5.086 5.086 0 0 0 1.79.794c-.282-.169-.567-.316-.839-.487s-.543-.338-.8-.52a18.45 18.45 0 0 1-1.534-1.172z" class="cls-11" transform="translate(-421.236 -246.076)"/>
                            </g>
                        </g>
                    </g>
                    <g id="Group_1510" transform="translate(10.39 56.975)">
                        <g id="Group_1509">
                            <path id="Path_1654" d="M448.756 235.671a13.938 13.938 0 0 0-2.2-.265c-.725-.029-1.445.023-2.169.041-.169 0-.214-.271-.041-.3a11.624 11.624 0 0 1 4.487.229c.194.043.111.336-.082.3z" class="cls-11" transform="translate(-444.24 -235.015)"/>
                        </g>
                    </g>
                    <path id="Path_1655" d="M417.172 219.97l-1.643-.094" class="cls-11" transform="translate(-389.565 -169.497)"/>
                    <path id="Path_1656" d="M382.3 232.711a4.748 4.748 0 0 0 1.626 2.782" class="cls-11" transform="translate(-341.849 -176.74)"/>
                    <path id="Path_1657" d="M368.328 163.7a7.315 7.315 0 0 1 5.292-1.136" class="cls-11" transform="translate(-325.449 -137.096)"/>
                    <path id="Path_1658" d="M404.15 162.981a12.418 12.418 0 0 0-5.79-1.4" class="cls-11" transform="translate(-369.063 -136.597)"/>
                    <g id="Group_1518" transform="translate(39.117)">
                        <g id="Group_1511" transform="translate(.16)">
                            <path id="Path_1660" d="M363.685 106.847a2.365 2.365 0 0 0-2.338.011c-.624.308-.5.813-.271.8a4.045 4.045 0 0 1 2.11-.35c.814.184 1.083-.108.499-.461z" class="cls-11" transform="translate(-351.863 -105.541)"/>
                            <path id="Path_1661" d="M379.975 104.481a3.668 3.668 0 0 1 2.973.174c.823.359.72.869.421.84a6.7 6.7 0 0 0-2.716-.506c-1.018.132-1.387-.189-.678-.508z" class="cls-11" transform="translate(-379.608 -104.242)"/>
                        </g>
                        <path id="Path_1662" d="M375.441 128.859s.678 1.936 1.855 2.41 2.531-.659 2.531-.659" class="cls-11" transform="translate(-373.872 -118.134)"/>
                        <g id="Group_1513" transform="translate(5.062 5.675)">
                            <g id="Group_1512">
                                <path id="Path_1663" d="M374.481 117.335c.118.4.264.789.359 1.194a2.862 2.862 0 0 1 .148 1.219c-.173.765-1.091.873-1.728.762a.179.179 0 0 1 .032-.356c.526-.015 1.373.024 1.365-.717a7.362 7.362 0 0 0-.145-1.029 9.394 9.394 0 0 0-.2-1.042c-.03-.109.14-.137.171-.031z" class="cls-11" transform="translate(-373.103 -117.268)"/>
                            </g>
                        </g>
                        <g id="Group_1515" transform="translate(8.08 4.083)">
                            <g id="Group_1514">
                                <path id="Path_1664" d="M364.5 113.7a3.2 3.2 0 0 0 2.355 1.95c.218.054.127.395-.086.377a3.078 3.078 0 0 1-2.546-2.239c-.05-.157.223-.246.277-.088z" class="cls-11" transform="translate(-364.222 -113.613)"/>
                            </g>
                        </g>
                        <g id="Group_1517" transform="translate(0 3.735)">
                            <g id="Group_1516">
                                <path id="Path_1665" d="M383.751 113.012a3.387 3.387 0 0 1-3.964 1.1.2.2 0 0 1 .142-.38 3.355 3.355 0 0 0 3.61-.872c.108-.124.315.014.212.151z" class="cls-11" transform="translate(-379.662 -112.813)"/>
                            </g>
                        </g>
                    </g>
                    <path id="Line_301" d="M0 0L0.952 2.824" class="cls-18" transform="translate(55.712 70.973)"/>
                </g>
            </g>
            <path id="Path_1667" d="M436.687 336.345q3.268.293 6.919.427a15.023 15.023 0 0 0 1.538 6.418c-.447.227-.873.447-1.208.63a12.443 12.443 0 0 0-2.4 6.36c-.3 2.509-2.322 6.475-3.777 1.521-.6-2.815-.519-5.51-1.5-8.205-.822-2.251-1.759-6.077.428-7.151z" class="cls-16" transform="translate(-408.258 -214.443)"/>
            <path id="Path_1668" d="M467.8 258.593c-.971 1.288-2.115 2.96-3.551 5.094a47.693 47.693 0 0 0-6.347.12 21.551 21.551 0 0 1 4.3-6.258 11.928 11.928 0 0 1 1.7-1.344 20.885 20.885 0 0 0 3.898 2.388z" class="cls-16" transform="translate(-440.744 -169.219)"/>
            <path id="Path_1670" d="M331.819 217.041c-.6-2.734.477-6.388 2.718-7.85 1.357-.885 2.612-.472 3.8-1.486a8.724 8.724 0 0 1 5.9-2.58 5.7 5.7 0 0 1 .82-.3 7.872 7.872 0 0 1 4.357.195l.779.358a8.7 8.7 0 0 1 4.663 4.288 10.5 10.5 0 0 1 .885 6.322 8.323 8.323 0 0 1-2.4 4.826 9.131 9.131 0 0 1-4.467 2.051c-4.1.808-6.918 1.088-10.74-.5l-1.423-1.62-4.139.5c-.293-.1-.551-.553-.789-1.267a4.571 4.571 0 0 1 .036-2.937z" class="cls-16" transform="translate(-273.79 -140.098)"/>
            <path id="Path_1671" d="M386.84 201.456a40.984 40.984 0 0 1 2.613-4.746l.089.015c-.47-2.727.142-3.679.329-4.04s.891-.214.719 1.727c0 0 1.121-3.488 1.5-3.348s.453.979-.179 3.727c0 0 1.9-3.85 2.5-3.468s-.2 2.2-.816 4.034c.945-1.981 2.359-3.466 2.3-2.567s-1.532 3.283-1.07 2.911 2.777-1.362 2.145-.186-1.642 1.617-2.523 2.76l-.093.026-.862 5.448 2.442.314c.017-.023.031-.046.049-.068 6.614.751 9.029 1.017 10.19 3.681a7.469 7.469 0 0 0 .162 1.724 5.107 5.107 0 0 0-.231.976 3.974 3.974 0 0 0 .2 1.957 3.251 3.251 0 0 0 .7 1.089 30.47 30.47 0 0 1-5.6.257l.007-.007a18.971 18.971 0 0 1-5.866-2.426c-2.113-1.359-2.772-1.277-4.72-2.113s-1.329 1.033.571 2.371 1.169 1.414-.369.834c-1.408-.531-3.827-3.154-5.239-3.469a4.156 4.156 0 0 1-.523-2.284 15.816 15.816 0 0 1 1.575-5.129z" class="cls-16" transform="translate(-348.31 -132.455)"/>
            <path id="Path_1672" d="M359.61 162.719c4.046 4.857 10.054 22.881 10.667 31.464s.123 13.617-10.667 14.167c-9.991.506-24.5-4.058-26.592-4.738-5.337.591-7.932-1.685-8.749-2.413a3.182 3.182 0 0 1-.98-1.972c-2.066-2.13-2.23-4.259-1.692-3.567-1.106-1.354-1.727-2.543-1.047-2.628 1.319-.164 4.067 2.92 5.605 3.5s2.269.5.369-.834-2.519-3.207-.571-2.371 2.607.754 4.72 2.113a18.966 18.966 0 0 0 5.866 2.426l-.007.007c1.008.109 3.532.076 9.82-.766a6.165 6.165 0 0 0 1.423 1.62c3.822 1.589 6.639 1.5 10.74.693a9.125 9.125 0 0 0 4.467-2.051 8.32 8.32 0 0 0 2.4-4.826 10.5 10.5 0 0 0-.885-6.321 8.7 8.7 0 0 0-4.663-4.288l-.779-.358a9.567 9.567 0 0 0-1.054-.264" class="cls-16" transform="translate(-283.432 -116.462)"/>
            <path id="Path_1673" d="M382.952 183.919s.835.238 5.486 3.458c.464.321.975.662 1.52 1.015a4.479 4.479 0 0 0 2.43 2.943 11.725 11.725 0 0 0 4.6 1.315c1.156.669 2.23 1.28 3.118 1.781a18.942 18.942 0 0 0 5.826 2.5c2.452.565 2.855 1.1 4.817 1.908s.189 1.675-2.1 1.249-1.832.15-.34.847 5.626.511 6.431 1.573c.414.547-.873.933-2.617 1.087.872-.1-.769 1.273-3.742 1.282a3.185 3.185 0 0 1-2.1.676c-1.121-.078-4.712-.348-8.093-4.9 0 0-16.554-3.267-22.517-6.487s-4.651-6.321-2.5-18.366 6.559-25.164 11.568-28.63 14.311-2.378 15.923-3.9" class="cls-16" transform="translate(-350.065 -105.494)"/>
            <path id="Path_1674" d="M397.622 226.589a4.308 4.308 0 0 0-.033 2.933 3.261 3.261 0 0 0 .7 1.089 30.443 30.443 0 0 1-5.6.257l.007-.007a18.965 18.965 0 0 1-5.866-2.426 14 14 0 0 0-1.564-.888 9.659 9.659 0 0 1 2-6.363c6.614.751 9.029 1.017 10.19 3.681a7.474 7.474 0 0 0 .166 1.724z" class="cls-16" transform="translate(-339.592 -149.455)"/>
            <path id="Path_1675" d="M435.6 185.18l-2.93 7.969-4.081 14.4" class="cls-16" transform="translate(-395.776 -129.137)"/>
            <path id="Path_1676" d="M403.617 215.942s-2.373-5.617-8.548-5.838" class="cls-17" transform="translate(-349.188 -143.202)"/>
            <path id="Path_1677" d="M294.565 281.463c4.632-7.865 15.687-8.435 22.03-8.155a12.9 12.9 0 0 1 2.751.435c1.161.54 1.418 1.554 2.375 2.871 1.9 2.616 5.483 3.548 8.713 3.7a20.929 20.929 0 0 0 8.874-1.763 11.518 11.518 0 0 0 6.107-.941 9.177 9.177 0 0 0 3.878 1.106 3.186 3.186 0 0 0 2.1-.676 6.3 6.3 0 0 0 3.883-1.056c.154-.021.309-.035.463-.059a20.342 20.342 0 0 0 4.968-1.4c1.568-.679 3.155-1.6 4.855-1.433.787.079 1.842.259 2.141-.473.008-.02.012-.042.019-.062 7.167.132 17.17 1.476 22.059 7.728 7.983 10.207-5.8 22.471-45.959 25.813-4.414.523-13.092 1.936-13.092 1.936a16.471 16.471 0 0 1-2.291-7.855c-28.932-1.038-39.553-10.073-33.874-19.716z" class="cls-16" transform="translate(-293.092 -178.84)"/>
            <path id="Path_1678" d="M361.044 225.28c.863-.054 1.91.1 2.259.9a1.6 1.6 0 0 1-.9 1.939 4.085 4.085 0 0 1-2.326.178 6.462 6.462 0 0 0-2.351-.075" class="cls-16" transform="translate(-292.698 -151.761)"/>
            <path id="Path_1679" d="M374.082 265.691a19.717 19.717 0 0 1-3.251 2.631 30.135 30.135 0 0 1-3.544 1.946" class="cls-16" transform="translate(-307.549 -174.571)"/>
            <path id="Path_1680" d="M338.976 188.326c-3.323.623-6.358 3.2-8.184 7.13l.849.128c1.813-3.542 4.477-5.842 7.8-6.465z" class="cls-16" transform="translate(-257.008 -130.912)"/>
            <path id="Path_1681" d="M424.013 162.564c.934-1.418 1.876-10.542.631-17.025l.84-.436c1.244 6.483.4 15.734-.657 18.151-.244.68-2.156 5.255-.085 8.467" class="cls-17" transform="translate(-384.188 -106.521)"/>
            <path id="Path_1682" d="M361.891 196.3a8.181 8.181 0 0 0 .558 4.257" class="cls-19" transform="translate(-293.531 -135.415)"/>
            <path id="Path_1683" d="M385.659 140.273A5.333 5.333 0 0 1 381 138.19" class="cls-19" transform="translate(-325.102 -102.62)"/>
            <path id="Path_1684" d="M-4325.732 419.9s22.3-13.615 40.533-15.611" class="cls-20" transform="translate(4360.894 -297.353)"/>
            <path id="Path_1685" d="M-4308.66 402.719s8.907-4 37.172 7.256" class="cls-20" transform="translate(4326.656 -297.812)"/>
        </g>
        <g id="Group_1523" transform="translate(-2.559 -4.258)">
            <path id="Path_1688" d="M395.935 499.506c-.991 0-1.755-.173-1.619-.366l8.257-11.8h5.951l-10.981 11.905a3.231 3.231 0 0 1-1.608.261z" class="cls-8" transform="translate(-282.3 -81.336)"/>
            <path id="Path_1689" d="M406.889 499.506c.991 0 1.755-.173 1.619-.366l-8.257-11.8H394.3l10.981 11.905a3.231 3.231 0 0 0 1.608.261z" class="cls-8" transform="translate(-212.815 -81.336)"/>
        </g>
    </g>
</svg>
