<svg xmlns="http://www.w3.org/2000/svg" width="258.417" height="306.312" viewBox="0 0 258.417 306.312">
    <defs>
        <clipPath id="clip-path">
            <path id="Path_1079" d="M77.149 257.861c.311 4.662 1.485 16.723 5.539 23.989 4.688 8.4 13.055 13.319 16.228 14.954v-49.178H86.592a15.7 15.7 0 0 1-9.443 10.235z" class="cls-1" transform="translate(-77.149 -247.626)"/>
        </clipPath>
        <clipPath id="clip-path-2">
            <path id="Path_1080" d="M133.856 296.805c3.165-1.626 11.521-6.525 16.225-14.956 4.048-7.255 5.226-19.324 5.538-23.989a15.7 15.7 0 0 1-9.443-10.235h-12.323V296.8z" class="cls-2" transform="translate(-133.853 -247.626)"/>
        </clipPath>
        <style>
            .cls-1,.cls-2,.cls-5{fill:none}.cls-1,.cls-3,.cls-5{stroke:#898d8d;stroke-linecap:round}.cls-1,.cls-3{stroke-linejoin:round}.cls-15,.cls-3{fill:#fff}.cls-9{fill:#898d8d}.cls-12{fill:#f4ca28}.cls-14{fill:#ca2027}.cls-19{stroke:none}
        </style>
    </defs>
    <g id="Group_897" transform="translate(-64.979 -111.099)">
        <g id="Rectangle_233" class="cls-3" transform="translate(147 240)">
            <rect width="92" height="175" class="cls-19" rx="12"/>
            <rect width="91" height="174" x=".5" y=".5" class="cls-2" rx="11.5"/>
        </g>
        <g id="Subtraction_1" fill="#fff" stroke-linecap="round" stroke-linejoin="round">
            <path d="M73 164.5H8c-4.135 0-7.5-3.364-7.5-7.5V8C.5 3.865 3.865.5 8 .5h16.424l-.001.148v1.379c0 3.584 2.916 6.5 6.5 6.5h19.154c3.584 0 6.5-2.916 6.5-6.5V.648L56.576.5H73c4.135 0 7.5 3.365 7.5 7.5v149c0 4.136-3.365 7.5-7.5 7.5z" class="cls-19" transform="translate(153 245)"/>
            <path fill="#898d8d" d="M73 164c3.86 0 7-3.14 7-7V8c0-3.86-3.14-7-7-7H57.077v1.027c0 3.86-3.14 7-7 7H30.923c-3.86 0-7-3.14-7-7V1H8C4.14 1 1 4.14 1 8v149c0 3.86 3.14 7 7 7h65m0 1H8c-4.411 0-8-3.588-8-8V8C0 3.59 3.589 0 8 0h16.957c-.022.21-.034.428-.034.648v1.379c0 3.308 2.692 6 6 6h19.154c3.308 0 6-2.692 6-6V.648c0-.216-.011-.434-.034-.648H73c4.411 0 8 3.589 8 8v149c0 4.412-3.589 8-8 8z" transform="translate(153 245)"/>
        </g>
        <g id="Rectangle_236" class="cls-3" transform="translate(186 245)">
            <rect width="15" height="4" class="cls-19" rx="2"/>
            <rect width="14" height="3" x=".5" y=".5" class="cls-2" rx="1.5"/>
        </g>
        <path id="Path_944" d="M-1077.29-836.8a14.689 14.689 0 0 0-14.685-14.413 14.7 14.7 0 0 0-3.96.544 25.978 25.978 0 0 0-23.888-25.763 25.977 25.977 0 0 0-27.752 21.9 19.562 19.562 0 0 0-12.622-4.595 19.648 19.648 0 0 0-19.648 19.648 19.8 19.8 0 0 0 .241 3.074 22.363 22.363 0 0 0-18.351 20.214 22.355 22.355 0 0 0 20.487 24.079h.044l-.044.071h92.558a23.027 23.027 0 0 0 23.027-23.028 23.032 23.032 0 0 0-15.407-21.731z" class="cls-1" transform="translate(1318.025 988.126)"/>
        <g id="Group_852" transform="translate(247.2 215.564)">
            <g id="Ellipse_244" class="cls-1" transform="translate(-.2 .436)">
                <ellipse cx="11" cy="10.5" class="cls-19" rx="11" ry="10.5"/>
                <ellipse cx="11" cy="10.5" class="cls-2" rx="10.5" ry="10"/>
            </g>
            <path id="Path_945" d="M-3170.5-402v7.551" class="cls-5" transform="translate(3181.187 408.418)"/>
            <path id="Path_946" d="M0 0v7.551" class="cls-5" transform="rotate(90 2.135 12.328)"/>
        </g>
        <g id="Group_853" transform="translate(112.57 281.36)">
            <g id="Ellipse_244-2" class="cls-1" transform="translate(.43 -.36)">
                <ellipse cx="13.5" cy="14" class="cls-19" rx="13.5" ry="14"/>
                <ellipse cx="13.5" cy="14" class="cls-2" rx="13" ry="13.5"/>
            </g>
            <path id="Path_945-2" d="M-3170.5-402v9.472" class="cls-5" transform="translate(3184.395 410.966)"/>
            <path id="Path_946-2" d="M0 0v9.472" class="cls-5" transform="rotate(90 2.464 16.167)"/>
        </g>
        <g id="Group_855" transform="translate(266.629 348.943)">
            <g id="Group_854">
                <path id="Rectangle_237" d="M0 0H45.815V60.816H0z" class="cls-1" transform="translate(2.969 3.675)"/>
                <path id="Rectangle_238" d="M0 0H34.463V11.758H0z" class="cls-1" transform="translate(9.051 8.946)"/>
                <path id="Rectangle_239" d="M0 0H34.463V34.057H0z" class="cls-1" transform="translate(9.051 24.353)"/>
                <path id="Rectangle_240" d="M0 0H52.028V3.649H0z" class="cls-1"/>
                <path id="Path_947" d="M381.49 274.439a1.487 1.487 0 1 0 1.486-1.487 1.487 1.487 0 0 0-1.486 1.487z" class="cls-1" transform="translate(-356.762 -262.52)"/>
                <path id="Path_948" d="M416.575 346.209a1.216 1.216 0 0 0 1.216-1.216V333.1a1.216 1.216 0 0 0-1.216-1.217 1.217 1.217 0 0 0-1.216 1.217v11.893a1.217 1.217 0 0 0 1.216 1.216z" class="cls-1" transform="translate(-403.605 -297.935)"/>
            </g>
        </g>
        <g id="Floor" transform="translate(65.479 414.034)">
            <path id="Line_3" d="M0 0L257.417 0" class="cls-1"/>
        </g>
        <g id="Group_870" transform="translate(80.829 332.005)">
            <g id="Group_867" transform="translate(11.659 9.02)">
                <g id="Group_865">
                    <g id="Group_858" transform="translate(23.09 11.725)">
                        <path id="Path_975" d="M-626.5 371.684s-15.617 10.505-20.643 29.776" class="cls-1" transform="translate(647.145 -369.872)"/>
                        <path id="Path_976" d="M-615.886 383.14a14.827 14.827 0 0 0-6.045.08.038.038 0 0 1-.015.005" class="cls-1" transform="translate(635.697 -374.951)"/>
                        <path id="Path_977" d="M-621.774 368.363a19.537 19.537 0 0 0-4.6 10.5" class="cls-1" transform="translate(637.71 -368.363)"/>
                        <path id="Path_978" d="M-631.2 392.412a6.262 6.262 0 0 1 6-.367" class="cls-1" transform="translate(639.902 -378.848)"/>
                        <path id="Path_979" d="M-638.05 401.079a10.682 10.682 0 0 1-.346-1.974" class="cls-1" transform="translate(643.17 -382.329)"/>
                    </g>
                    <g id="Group_864">
                        <path id="Path_980" d="M-661.474 460.5c-.185.041-6.469.041-6.654 0-4.612-1.013-20.988-6.394-6.228-23.82h18.9c14.75 17.42-1.406 22.807-6.018 23.82z" class="cls-1" transform="translate(685.339 -387.675)"/>
                        <g id="Group_863">
                            <g id="Group_862">
                                <g id="Group_860" transform="translate(0 6.891)">
                                    <g id="Group_859">
                                        <path id="Path_981" d="M-685.709 371.918s12.33 8.421 15.9 29.715" class="cls-1" transform="translate(687.755 -365.144)"/>
                                        <path id="Path_982" d="M-689.458 376.88a10.909 10.909 0 0 1 5.206-.057" class="cls-1" transform="translate(689.458 -367.251)"/>
                                        <path id="Path_983" d="M-682.746 359.5a22.355 22.355 0 0 1 4.016 12.376" class="cls-1" transform="translate(686.409 -359.505)"/>
                                        <path id="Path_984" d="M-673.684 391.587a6.888 6.888 0 0 0-6.733-1.327" class="cls-1" transform="translate(685.351 -373.298)"/>
                                        <path id="Path_985" d="M-664.252 393.458a16.771 16.771 0 0 0 .682-8.56" class="cls-1" transform="translate(678.007 -371.041)"/>
                                    </g>
                                </g>
                                <g id="Group_861" transform="translate(17.42)">
                                    <path id="Path_986" d="M-642.928 352.51s-10.172 14.227-7.9 40.239" class="cls-1" transform="translate(654.64 -349.436)"/>
                                    <path id="Path_987" d="M-631.7 356.6c-5.854-.01-8.945 2.251-9.131 2.39l-.005.005" class="cls-1" transform="translate(649.953 -351.293)"/>
                                    <path id="Path_988" d="M-645.189 358.922a26.8 26.8 0 0 1-.98-12.045" class="cls-1" transform="translate(652.497 -346.877)"/>
                                    <path id="Path_989" d="M-648.471 381.04a8.847 8.847 0 0 1 7.34-4.462" class="cls-1" transform="translate(653.417 -360.37)"/>
                                    <path id="Path_990" d="M-653.427 387.165a20.139 20.139 0 0 1-4.108-9.688" class="cls-1" transform="translate(657.535 -360.779)"/>
                                </g>
                            </g>
                            <path id="Path_991" d="M-671.072 432h19.856l1.2-5.626h-22.265z" class="cls-1" transform="translate(681.652 -382.991)"/>
                        </g>
                    </g>
                </g>
                <g id="Group_866" transform="translate(29.398 52.687)">
                    <path id="Path_992" d="M-632.281 449.493a12.583 12.583 0 0 1 1.141 6.3c-.129 1.539-.7 3.24-2.1 3.882" class="cls-1" transform="translate(634.52 -446.183)"/>
                    <path id="Path_993" d="M-635.585 443.427a12.094 12.094 0 0 1 1.326 1.674" class="cls-1" transform="translate(635.585 -443.427)"/>
                </g>
            </g>
            <path id="Path_994" d="M-617.04 362.679c-2.062-1.532-8.173 3.075-9.99 3.378s-1.5-3.6-4.059-2.181-2.384 9.743-5.188 10.317c-1.347.275-1.2-1.086-1.572-1.953a15.4 15.4 0 0 0-3.679 1.919 13.672 13.672 0 0 0-.513 1.5c.628 1.785 5.685-1.345 4.407 2.139a18.6 18.6 0 0 1-5.47 7.032c.022 2.152.247 3.716.6 3.787 2.777.57 8.017-1.135 10.354-3.306 2.37-2.2-3.258-1.608-2.338-3.512s7.222.8 8.969-1.85-3.121-2.868-2.66-4.3 5.321-.223 7.466-2.984-2.5-1.853-1.583-2.993 7.317-5.462 5.256-6.993z" class="cls-1" transform="translate(680.058 -344.895)"/>
            <g id="Group_869" transform="translate(0 9.293)">
                <path id="Path_995" d="M-683.431 381.249c-.047.08.378.48-1.021.542-3.446.152-9.54-.062-11.837-3.189-3.28-4.464 4.256-4.075 3.516-6.54s-8.829-.426-10.42-3.943 4.3-2.847 4.021-4.658-6.449.554-8.5-3.175 3.355-1.747 2.476-3.292-7.748-7.968-4.977-9.413 9.228 5.263 11.353 5.977 2.6-5.885 5.394-3.686.995 12.163 4.253 13.39c2.427.914 1.094-2.651 4.086-2.523 4.068.174 5.445 14.134 1.656 20.51z" class="cls-1" transform="translate(710.822 -347.378)"/>
                <g id="Group_868" opacity="0.1">
                    <path id="Path_996" d="M-683.431 381.249c-.047.08.378.48-1.021.542-3.446.152-9.54-.062-11.837-3.189-3.28-4.464 4.256-4.075 3.516-6.54s-8.829-.426-10.42-3.943 4.3-2.847 4.021-4.658-6.449.554-8.5-3.175 3.355-1.747 2.476-3.292-7.748-7.968-4.977-9.413 9.228 5.263 11.353 5.977 2.6-5.885 5.394-3.686.995 12.163 4.253 13.39c2.427.914 1.094-2.651 4.086-2.523 4.068.174 5.445 14.134 1.656 20.51z" class="cls-1" transform="translate(710.822 -347.378)"/>
                </g>
            </g>
            <path id="Path_997" d="M-640.92 343.23c.8-4.178-3.729-.632-3.367-2.373s4.927-9.962 1.847-10.486-7.166 7.842-8.97 9.174-3.618-3.079-5.6-.127 2.788 11.881.064 14.049c-2.029 1.615-2.334-3.029-4.662-1.147a2.474 2.474 0 0 0-.667.883c2.448 1.229 3.653 7.863 2.906 13.76 1.525 3.269 3.106 5.728 3.623 5.585 3.326-.913 8.069-5.652 9.4-9.295 1.356-3.7-4.42.053-4.472-2.519s8.271-3.117 8.705-6.952-4.966-1.389-5.257-3.2 5.647-3.175 6.45-7.352z" class="cls-1" transform="translate(688.77 -330.348)"/>
        </g>
        <g id="Group_885" transform="translate(168.293 163.124)">
            <g id="Group_884" transform="translate(10.757 20.406)">
                <g id="Group_883">
                    <g id="Group_882" transform="translate(11.122)">
                        <path id="Path_1005" d="M174.734 258.547c-.568-1.29-1.148-2.555-1.74-3.783" class="cls-3" transform="translate(-172.994 -254.764)"/>
                        <path id="Path_1006" d="M150.769 189.771a287.35 287.35 0 0 0-10.858-33.108" class="cls-3" transform="translate(-136.683 -149.377)"/>
                    </g>
                    <path id="Path_1007" d="M207.35 193.42c-.029-.67-.022-1.167-.065-1.766" class="cls-3" transform="translate(-207.285 -166.085)"/>
                    <path id="Path_1008" d="M206.846 162.853c.033-.315.278-8.12.1-14.413" class="cls-3" transform="translate(-206.78 -119.391)"/>
                </g>
            </g>
            <path id="Path_1009" fill="#fff" stroke="#898d8d" stroke-linecap="round" stroke-linejoin="round" stroke-miterlimit="10" d="M147.3 127.084l7.944-12.11 15.22 11.252-7.583.281.484 1.182a255.621 255.621 0 0 1 15.621 54.493l1.522 8.959-18.686.191.091-2.822a255.517 255.517 0 0 0-7.469-61.69z" transform="translate(-147.297 -114.974)"/>
        </g>
        <path id="Path_1010" d="M-1160.953-864.323a4.511 4.511 0 0 0-4.51-4.426 4.518 4.518 0 0 0-1.216.167 7.977 7.977 0 0 0-7.335-7.911 7.977 7.977 0 0 0-8.522 6.724 6.006 6.006 0 0 0-3.876-1.411 6.033 6.033 0 0 0-6.033 6.033 6.108 6.108 0 0 0 .074.944A6.867 6.867 0 0 0-1198-858a6.865 6.865 0 0 0 6.291 7.394h.014l-.014.022h28.421a7.071 7.071 0 0 0 7.071-7.071 7.073 7.073 0 0 0-4.736-6.668z" class="cls-1" transform="translate(1270.457 1072.602)"/>
        <path id="Path_1081" d="M-1151.837-861.323a5.62 5.62 0 0 0-5.618-5.514 5.633 5.633 0 0 0-1.515.208 9.938 9.938 0 0 0-9.139-9.856 9.939 9.939 0 0 0-10.617 8.377 7.484 7.484 0 0 0-4.829-1.758 7.517 7.517 0 0 0-7.517 7.517 7.565 7.565 0 0 0 .092 1.176 8.556 8.556 0 0 0-7.02 7.733 8.553 8.553 0 0 0 7.838 9.212h.017l-.017.027h35.41a8.81 8.81 0 0 0 8.81-8.81 8.811 8.811 0 0 0-5.895-8.312z" class="cls-1" transform="translate(1464.656 1018.471)"/>
        <g id="Group_881" transform="translate(207.227 345.772)">
            <g id="freepik--Device--inject-2">
                <path id="Path_998" d="M-138.743 279.385H-183.5l7.523 30.66 44.755-.007z" class="cls-3" transform="translate(183.5 -279.385)"/>
                <path id="Path_999" d="M-139.028 282.5h-39.565l7.049 28.7h39.558z" class="cls-3" transform="translate(181.668 -280.549)"/>
                <path id="Rectangle_241" d="M0 0H65.524V3.01H0z" class="cls-3" transform="translate(7.55 30.653)"/>
                <path id="Rectangle_242" d="M0 0H35.874V3.01H0z" class="cls-3" transform="translate(37.207 30.653)"/>
            </g>
            <g id="Group_880" transform="translate(8.052 4.853)">
                <g id="Group_873" transform="translate(0 9.933)">
                    <g id="Group_872">
                        <g id="Group_871">
                            <path id="Path_1001" d="M-133.794 306.757h-35.971l-.889-3.783h35.971z" class="cls-3" transform="translate(170.654 -302.974)"/>
                        </g>
                    </g>
                </g>
                <path id="Path_1000" fill="#ffcd00" d="M-139.587 304.52l.454 1.886h-28.35l-.452-1.886z" transform="translate(169.639 -293.618)"/>
                <g id="Group_879" transform="translate(13.863)">
                    <g id="Group_874" transform="translate(0 2.582)">
                        <path id="Path_1002" d="M-140.585 298.962h-5.663l-1.412-5.663h1.616l.12.481h-1.134l1.172 4.7h4.7l-1.172-4.7h-1.161l-.12-.481H-142z" class="cls-9" transform="translate(147.66 -293.298)"/>
                    </g>
                    <g id="Group_878" transform="translate(1.591)">
                        <g id="Group_875" transform="translate(.363)">
                            <path id="Path_1003" d="M-143.419 295.529h-.481l-1.35-5.413h.481z" class="cls-9" transform="translate(145.25 -290.115)"/>
                        </g>
                        <g id="Group_877" transform="translate(0 4.248)">
                            <g id="Group_876">
                                <path id="Path_1004" d="M-143.668 296.793l-2.03-.929.114-.428 1.763.807 1.278-.89.349.414z" class="cls-9" transform="translate(145.698 -295.353)"/>
                            </g>
                        </g>
                    </g>
                </g>
            </g>
        </g>
        <g id="Group_857" transform="translate(217.867 289.775)">
            <path id="Path_969" d="M-323.839 172.848c.05-3.514 2.94-7.158 1.2-10.21-1.631-2.86-5.9-2.554-8.593-4.452a5.516 5.516 0 0 1-.6-.493 8.749 8.749 0 0 0-.325 3.348c.334 1.05 1.6 2.3 1.346 3.551s-1.653 2.746-1.527 3.727 1.78 1.456 1.78 1.456 2.344 4.52 3.013 6.075 1.191 1.113 2.744 1a5.708 5.708 0 0 0 1.568-.444 13.663 13.663 0 0 1-.606-3.558z" class="cls-3" transform="translate(376.232 -143.313)"/>
            <g id="Group_856" transform="translate(45.961 17.917)">
                <path id="Path_951" d="M-328.254 165.421s.322-1.575 2-.14" class="cls-3" transform="translate(328.254 -164.677)"/>
                <path id="Path_952" d="M-326.54 170.616c.164.534.092 1.03-.164 1.107s-.587-.294-.751-.828-.091-1.025.159-1.1.596.287.756.821z" class="cls-3" transform="translate(327.903 -167.197)"/>
            </g>
            <path id="Path_953" d="M-333.89 294.417c-.759.3-1.537.57-2.308.806l-.033.01a2.833 2.833 0 0 0 .262 1.6 3.234 3.234 0 0 0 1.632 1.525 11.884 11.884 0 0 0 1.087-1.859 4.633 4.633 0 0 1 .68-1.713c.105-.322.2-.655.29-.994-.497.208-1.034.421-1.61.625z" class="cls-3" transform="translate(378.162 -210.477)"/>
            <path id="Path_954" d="M-300.884 150.344c2.172-4.244.253-9.748-2.571-13.589-4.651-6.326-14.52-8.2-21.937-7.2-3.476.471-6.963 2.156-8.763 5.166s-1.371 7.429 1.5 9.451c2.691 1.9 6.961 1.592 8.593 4.452 1.741 3.053-1.149 6.7-1.2 10.21-.031 2.215 1.094 4.319 1.1 6.534-.001.004 17.101-2.955 23.278-15.024z" class="cls-3" transform="translate(377.658 -129.304)"/>
            <path id="Path_955" d="M-317.607 135.043c-1.346 2.01-1.245 4.965-.488 7.385s2.065 4.524 3.017 6.84 2.129 4.71 1.335 7.111c1.177-5.155 1.316-12.7-.867-17.648" class="cls-3" transform="translate(369.473 -132.136)"/>
            <path id="Path_956" d="M-307.305 134.043c8.841 5.609 10.409 15.03 10.726 22.376" class="cls-3" transform="translate(363.877 -131.643)"/>
            <path id="Path_957" d="M-307.305 134.043c6.4 9.415 3.5 18.234 1.257 23.18" class="cls-3" transform="translate(363.877 -131.643)"/>
            <path id="Path_958" d="M-325.856 138.6a7.992 7.992 0 0 0-1.865 4.353" class="cls-3" transform="translate(373.952 -133.893)"/>
            <path id="Path_959" d="M-321.118 137.315a9.326 9.326 0 0 0-.137 6.067" class="cls-3" transform="translate(370.978 -133.257)"/>
            <path id="Path_960" d="M-290.666 136.88c3.608 2.544 6.07 7.32 6.37 12.355" class="cls-3" transform="translate(355.666 -133.043)"/>
            <path id="Path_961" d="M-280.613 139.75a6.97 6.97 0 0 1 2 2.609" class="cls-3" transform="translate(350.705 -134.459)"/>
            <path id="Path_962" d="M-349.273 317.21a22.149 22.149 0 0 0 10.661 14.72" class="cls-3" transform="translate(384.587 -222.032)"/>
            <path id="Path_963" d="M-343.536 313.556a7.987 7.987 0 0 0 5.7 7.322" class="cls-3" transform="translate(381.756 -220.229)"/>
            <path id="Path_964" d="M-314.695 302.5l-8.661 1.128c-.43.056-.932.163-1.11.559a.874.874 0 0 0 .315.985 2.492 2.492 0 0 0 1.025.41 58.975 58.975 0 0 0 11.466 1.489" class="cls-3" transform="translate(372.372 -214.774)"/>
            <path id="Path_965" d="M-306.465 373.184a31.3 31.3 0 0 1 8.741-2.637" class="cls-3" transform="translate(363.462 -248.353)"/>
            <path id="Path_966" d="M-313.4 228.19l-2.8 9.764" class="cls-3" transform="translate(368.265 -178.103)"/>
            <path id="Path_967" d="M-265.793 256.05c-1.184 8.986-.407 19.881 1.189 28.266" class="cls-3" transform="translate(343.674 -191.851)"/>
            <path id="Path_968" d="M-264.583 249.661l-.176 1.445" class="cls-3" transform="translate(342.881 -188.698)"/>
            <path id="Path_970" d="M-356.149 219.547c-.23-3.448-3.423-10.167-6.831-10.736a15.559 15.559 0 0 0-2.231 1.49c-1.3 1.038-1.691 3.105-1.8 7.474s.686 14.41.172 23.674c-.01.171-12.922 7.149-15.163 8.234l-.083.043c-.867-.539-3.451-2.1-4.237-2.023a17.9 17.9 0 0 0-2.559.844 3.165 3.165 0 0 0-1.768.289 5.783 5.783 0 0 0-1.083 1.192 14.562 14.562 0 0 0-1.694 1.12 21.251 21.251 0 0 0-3.184 4.263c-.23.489-.049.784.3.706l-.02.048.023-.049a.934.934 0 0 0 .345-.168c.372-.275 1.8-1.609 2.714-2.47.036-.009.071-.023.108-.032a4.6 4.6 0 0 1 4.051 1.078 8.05 8.05 0 0 0 1.522 1.372 4.141 4.141 0 0 0 1.955.328c.631 0 1.262-.018 1.893-.036q.439.009.879 0a10.171 10.171 0 0 0 4.163-.043c1.13-.15 3.866-.669 6.945-1.394 1.919-.408 3.822-.889 5.7-1.464.771-.237 1.549-.5 2.308-.806a12.5 12.5 0 0 0 4.262-2.168c4.972-5.148 3.313-30.766 3.313-30.766z" class="cls-3" transform="translate(408 -168.539)"/>
            <path id="Path_971" d="M-337.4 298.26a11.98 11.98 0 0 0 1.012-1.759 4.634 4.634 0 0 1 .68-1.713q.158-.483.29-.994-.745.315-1.609.622c-.759.3-1.537.57-2.308.806-1.083.332-2.177.626-3.276.9a6.449 6.449 0 0 0 2.558 1.581 19.136 19.136 0 0 0 2.653.557z" class="cls-3" transform="translate(381.3 -210.477)"/>
            <path id="Path_972" d="M-395.921 328.2c-3.632-7.275-4.783-15.364-.784-18.68a8.3 8.3 0 0 1 3.432-1.634c-8.353-2.332-18.22-3.631-22.184-1.2-7.823 4.8-2.605 18.055 15.08 26.813a86.1 86.1 0 0 0 11.7 4.814 29.446 29.446 0 0 1-7.244-10.113z" class="cls-3" transform="translate(418.992 -216.195)"/>
            <path id="Path_973" d="M-295.168 196.1c-.417-1.436-1-3.433-1.546-5.295a43.748 43.748 0 0 1-9.2 3.937c0 .027 0 .051-.008.079-.081.444-.162.878-.238 1.284a32.11 32.11 0 0 1 10.992-.005z" class="cls-3" transform="translate(363.313 -159.655)"/>
            <path id="Path_974" d="M-321.756 251.149a30.909 30.909 0 0 1-.169-4.118c-.051-8.664 3.439-16.7 2.57-29.849-.342-5.18-1.159-11.83-4.632-13.724-12.512-6.824-26.742-.706-30.567 1.193 3.349.744 6.448 7.306 6.674 10.7 0 0 1.658 25.618-3.317 30.764a8.57 8.57 0 0 1-2.648 1.543c-1.3 4.985-4.438 8.117-8.674 8.117-2.073 0-2.559 1.991-4.8 1.029-4.8-2.059-8.419-.554-10.121.858-7.034 5.833 1.855 26.438 12.18 31.393 9.215 4.423 19.1 1.543 23.967-.449a8.545 8.545 0 0 1 5.413.087c9.562 2.42 17.281-5.814 18.139-13.191 1.315-11.322-2.233-11.83-4.015-24.353z" class="cls-3" transform="translate(399.73 -164.345)"/>
        </g>
        <g id="Group_886" transform="rotate(-12.04 1199.077 -674.14)">
            <path id="Path_1011" d="M6.916 0h11.808l.037 4.157a228.509 228.509 0 0 0 1.5 24.244l-17.805.887-.922-5.278A104.038 104.038 0 0 1 0 8.473L6.918.021" class="cls-3"/>
            <path id="Path_1012" d="M7.617 8.284L0 8.392 6.851 0z" class="cls-3" transform="translate(.067 .021)"/>
        </g>
        <g id="Group_887" transform="translate(207.676 202.426)">
            <path id="Path_1011-2" d="M170.553 116.891h-10.441l-.033 3.676A202.057 202.057 0 0 1 158.75 142l15.744.784.818-4.667a92 92 0 0 0 1.356-13.739l-6.117-7.474" class="cls-3" transform="translate(-158.75 -116.891)"/>
            <path id="Path_1012-2" d="M158.856 124.249l6.736.1-6.058-7.421z" class="cls-3" transform="translate(-147.732 -116.905)"/>
        </g>
        <g id="Group_888" transform="rotate(-13 904.594 -585.382)">
            <path id="Path_1011-3" d="M4.992 0h8.523l.027 3a164.947 164.947 0 0 0 1.085 17.5l-12.853.64-.668-3.81A75.1 75.1 0 0 1 0 6.116L4.994.015" class="cls-3"/>
            <path id="Path_1012-3" d="M5.5 5.98L0 6.058 4.945 0z" class="cls-3" transform="translate(.048 .015)"/>
        </g>
        <g id="Mask_Group_7" clip-path="url(#clip-path)" transform="translate(172.02 284.777)">
            <g id="Group_895" transform="translate(-15.852 -.04)">
                <path id="Rectangle_257" fill="#2a378e" d="M0 0H84.373V49.219H0z"/>
                <path id="Path_1063" d="M1415.111 429.768l-.613 1.888h-1.987l1.607 1.169-.614 1.891 1.606-1.169 1.607 1.169-.614-1.891 1.607-1.169h-1.987z" class="cls-12" transform="translate(-1372.925 -424.298)"/>
                <path id="Path_1064" d="M1415.724 490.658l-.614-1.891-.613 1.891h-1.987l1.607 1.169-.614 1.888 1.606-1.167 1.607 1.167-.614-1.888 1.607-1.169z" class="cls-12" transform="translate(-1372.925 -450.486)"/>
                <path id="Path_1065" d="M1385.61 463.049l1.607 1.166-.613-1.891 1.607-1.166h-1.987l-.614-1.891-.614 1.891h-1.987l1.608 1.166-.614 1.891z" class="cls-12" transform="translate(-1359.83 -437.392)"/>
                <path id="Path_1066" d="M1400.362 433.721l-.613 1.891h-1.987l1.607 1.166-.613 1.89 1.606-1.169 1.607 1.169-.616-1.89 1.609-1.166h-1.987z" class="cls-12" transform="translate(-1366.378 -426.053)"/>
                <path id="Path_1067" d="M1389.565 444.518l-.616 1.89h-1.987l1.607 1.17-.613 1.888 1.61-1.166 1.606 1.166-.615-1.888 1.606-1.17h-1.987z" class="cls-12" transform="translate(-1361.585 -430.845)"/>
                <path id="Path_1068" d="M1390.178 475.91l-.613-1.888-.616 1.888h-1.987l1.607 1.169-.613 1.888 1.61-1.166 1.606 1.166-.615-1.888 1.606-1.169z" class="cls-12" transform="translate(-1361.585 -443.941)"/>
                <path id="Path_1069" d="M1400.976 486.71l-.614-1.89-.613 1.89h-1.987l1.607 1.166-.616 1.89 1.609-1.169 1.607 1.169-.616-1.89 1.609-1.166z" class="cls-12" transform="translate(-1366.378 -448.734)"/>
                <path id="Path_1070" d="M1447.212 461.158h-1.986l-.614-1.891-.615 1.891h-1.988l1.607 1.166-.613 1.891 1.609-1.166 1.605 1.166-.613-1.891z" class="cls-12" transform="translate(-1386.018 -437.392)"/>
                <path id="Path_1071" d="M1429.861 433.721l-.614 1.891h-1.986l1.608 1.166-.613 1.89 1.6-1.169 1.607 1.169-.611-1.89 1.607-1.166h-1.987z" class="cls-12" transform="translate(-1379.472 -426.053)"/>
                <path id="Path_1072" d="M1439.666 447.578l-.613 1.888 1.606-1.166 1.609 1.166-.615-1.888 1.607-1.17h-1.987l-.614-1.89-.614 1.89h-1.985z" class="cls-12" transform="translate(-1384.265 -430.845)"/>
                <path id="Path_1073" d="M1441.273 475.91l-.614-1.888-.614 1.888h-1.985l1.606 1.169-.613 1.888 1.606-1.166 1.609 1.166-.615-1.888 1.607-1.169z" class="cls-12" transform="translate(-1384.265 -443.941)"/>
                <path id="Path_1074" d="M1430.476 486.71l-.615-1.89-.614 1.89h-1.986l1.608 1.166-.613 1.89 1.6-1.169 1.607 1.169-.611-1.89 1.607-1.166z" class="cls-12" transform="translate(-1379.472 -448.734)"/>
            </g>
        </g>
        <g id="Mask_Group_6" clip-path="url(#clip-path-2)" transform="translate(193.9 284.777)">
            <g id="Group_894" transform="translate(-26.756)">
                <g id="USA">
                    <path id="Rectangle_243" d="M0 0H84.82V3.806H0z" class="cls-14" transform="translate(0 45.672)"/>
                    <path id="Rectangle_244" d="M0 0H84.82V3.807H0z" class="cls-15" transform="translate(0 41.865)"/>
                    <path id="Rectangle_245" d="M0 0H84.82V3.804H0z" class="cls-14" transform="translate(0 38.061)"/>
                    <path id="Rectangle_246" d="M0 0H84.82V3.806H0z" class="cls-15" transform="translate(0 34.255)"/>
                    <path id="Rectangle_247" d="M0 0H84.82V3.807H0z" class="cls-14" transform="translate(0 30.448)"/>
                    <path id="Rectangle_248" d="M0 0H84.82V3.804H0z" class="cls-15" transform="translate(0 26.644)"/>
                    <path id="Rectangle_249" d="M0 0H84.82V3.807H0z" class="cls-14" transform="translate(0 22.837)"/>
                    <path id="Rectangle_250" d="M0 0H84.82V3.804H0z" class="cls-15" transform="translate(0 19.03)"/>
                    <path id="Rectangle_251" d="M0 0H84.82V3.807H0z" class="cls-14" transform="translate(0 15.224)"/>
                    <path id="Rectangle_252" d="M0 0H84.82V3.807H0z" class="cls-15" transform="translate(0 11.417)"/>
                    <path id="Rectangle_253" d="M0 0H84.82V3.806H0z" class="cls-14" transform="translate(0 7.61)"/>
                    <path id="Rectangle_254" d="M0 0H84.82V3.803H0z" class="cls-15" transform="translate(0 3.807)"/>
                    <path id="Rectangle_255" d="M0 0H84.82V3.807H0z" class="cls-14"/>
                    <g id="USA-2">
                        <g id="Group_893">
                            <g id="Group_892">
                                <g id="Group_891">
                                    <g id="Group_890">
                                        <g id="Group_889">
                                            <path id="Rectangle_256" fill="#2b3561" d="M0 0H38.726V26.644H0z"/>
                                            <path id="Path_1013" d="M1471.605 276.039l.326 1.009h1.058l-.856.621.326 1.007-.854-.625-.857.625.326-1.007-.855-.621h1.057z" class="cls-15" transform="translate(-1468.112 -273.105)"/>
                                            <path id="Path_1014" d="M1471.605 283.622l.326 1.007h1.058l-.856.621.326 1.01-.854-.624-.857.624.326-1.01-.855-.621h1.057z" class="cls-15" transform="translate(-1468.112 -276.24)"/>
                                            <path id="Path_1015" d="M1471.605 291.206l.326 1.006h1.058l-.856.621.326 1.009-.854-.625-.857.625.326-1.009-.855-.621h1.057z" class="cls-15" transform="translate(-1468.112 -279.375)"/>
                                            <path id="Path_1016" d="M1471.605 298.788l.326 1.006h1.058l-.856.624.326 1-.854-.621-.857.621.326-1-.855-.624h1.057z" class="cls-15" transform="translate(-1468.112 -282.51)"/>
                                            <path id="Path_1017" d="M1471.605 306.371l.326 1.006h1.058l-.856.621.326 1.006-.854-.621-.857.621.326-1.006-.855-.621h1.057z" class="cls-15" transform="translate(-1468.112 -285.645)"/>
                                            <path id="Path_1018" d="M1476.884 280.036l.328 1.006h1.058l-.857.621.326 1.007-.855-.621-.857.621.328-1.007-.855-.621h1.058z" class="cls-15" transform="translate(-1470.296 -274.757)"/>
                                            <path id="Path_1019" d="M1476.884 287.619l.328 1h1.058l-.857.624.326 1.006-.855-.621-.857.621.328-1.006-.855-.624h1.058z" class="cls-15" transform="translate(-1470.296 -277.892)"/>
                                            <path id="Path_1020" d="M1476.884 295.2l.328 1.006h1.058l-.857.625.326 1.006-.855-.621-.857.621.328-1.006-.855-.625h1.058z" class="cls-15" transform="translate(-1470.296 -281.026)"/>
                                            <path id="Path_1021" d="M1476.884 302.781l.328 1.007h1.058l-.857.624.326 1-.855-.622-.857.622.328-1-.855-.624h1.058z" class="cls-15" transform="translate(-1470.296 -284.161)"/>
                                            <path id="Path_1022" d="M1482.233 276.039l.328 1.009h1.057l-.857.621.328 1.007-.856-.625-.858.625.328-1.007-.855-.621h1.058z" class="cls-15" transform="translate(-1472.507 -273.105)"/>
                                            <path id="Path_1023" d="M1482.233 283.622l.328 1.007h1.057l-.857.621.328 1.01-.856-.624-.858.624.328-1.01-.855-.621h1.058z" class="cls-15" transform="translate(-1472.507 -276.24)"/>
                                            <path id="Path_1024" d="M1482.233 291.206l.328 1.006h1.057l-.857.621.328 1.009-.856-.625-.858.625.328-1.009-.855-.621h1.058z" class="cls-15" transform="translate(-1472.507 -279.375)"/>
                                            <path id="Path_1025" d="M1482.233 298.788l.328 1.006h1.057l-.857.624.328 1-.856-.621-.858.621.328-1-.855-.624h1.058z" class="cls-15" transform="translate(-1472.507 -282.51)"/>
                                            <path id="Path_1026" d="M1482.233 306.371l.328 1.006h1.057l-.857.621.328 1.006-.856-.621-.858.621.325-1.004-.855-.621h1.058z" class="cls-15" transform="translate(-1472.507 -285.645)"/>
                                            <path id="Path_1027" d="M1487.512 280.036l.328 1.006h1.059l-.855.621.325 1.007-.856-.621-.857.621.328-1.007-.856-.621h1.057z" class="cls-15" transform="translate(-1474.69 -274.757)"/>
                                            <path id="Path_1028" d="M1487.512 287.619l.328 1h1.059l-.855.624.325 1.006-.856-.621-.857.621.328-1.006-.856-.624h1.057z" class="cls-15" transform="translate(-1474.69 -277.892)"/>
                                            <path id="Path_1029" d="M1487.512 295.2l.328 1.006h1.059l-.855.625.325 1.006-.856-.621-.857.621.328-1.006-.856-.625h1.057z" class="cls-15" transform="translate(-1474.69 -281.026)"/>
                                            <path id="Path_1030" d="M1487.512 302.781l.328 1.007h1.059l-.855.624.325 1-.856-.622-.857.622.328-1-.856-.624h1.057z" class="cls-15" transform="translate(-1474.69 -284.161)"/>
                                            <path id="Path_1031" d="M1492.86 276.039l.329 1.009h1.058l-.856.621.325 1.007-.856-.625-.856.625.327-1.007-.855-.621h1.057z" class="cls-15" transform="translate(-1476.902 -273.105)"/>
                                            <path id="Path_1032" d="M1492.86 283.622l.329 1.007h1.058l-.856.621.325 1.01-.856-.624-.856.624.327-1.01-.855-.621h1.057z" class="cls-15" transform="translate(-1476.902 -276.24)"/>
                                            <path id="Path_1033" d="M1492.86 291.206l.329 1.006h1.058l-.856.621.325 1.009-.856-.625-.856.625.327-1.009-.855-.621h1.057z" class="cls-15" transform="translate(-1476.902 -279.375)"/>
                                            <path id="Path_1034" d="M1492.86 298.788l.329 1.006h1.058l-.856.624.325 1-.856-.621-.856.621.327-1-.855-.624h1.057z" class="cls-15" transform="translate(-1476.902 -282.51)"/>
                                            <path id="Path_1035" d="M1492.86 306.371l.329 1.006h1.058l-.856.621.325 1.006-.856-.621-.856.621.327-1.006-.855-.621h1.057z" class="cls-15" transform="translate(-1476.902 -285.645)"/>
                                            <path id="Path_1036" d="M1498.142 280.036l.329 1.006h1.056l-.856.621.328 1.007-.857-.621-.856.621.326-1.007-.855-.621h1.057z" class="cls-15" transform="translate(-1479.085 -274.757)"/>
                                            <path id="Path_1037" d="M1498.142 287.619l.329 1h1.056l-.856.624.328 1.006-.857-.621-.856.621.326-1.006-.855-.624h1.057z" class="cls-15" transform="translate(-1479.085 -277.892)"/>
                                            <path id="Path_1038" d="M1498.142 295.2l.329 1.006h1.056l-.856.625.328 1.006-.857-.621-.856.621.326-1.006-.855-.625h1.057z" class="cls-15" transform="translate(-1479.085 -281.026)"/>
                                            <path id="Path_1039" d="M1498.142 302.781l.329 1.007h1.056l-.856.624.328 1-.857-.622-.856.622.326-1-.855-.624h1.057z" class="cls-15" transform="translate(-1479.085 -284.161)"/>
                                            <path id="Path_1040" d="M1503.489 276.039l.327 1.009h1.06l-.856.621.326 1.007-.857-.625-.856.625.329-1.007-.858-.621h1.059z" class="cls-15" transform="translate(-1481.296 -273.105)"/>
                                            <path id="Path_1041" d="M1503.489 283.622l.327 1.007h1.06l-.856.621.326 1.01-.857-.624-.856.624.329-1.01-.858-.621h1.059z" class="cls-15" transform="translate(-1481.296 -276.24)"/>
                                            <path id="Path_1042" d="M1503.489 291.206l.327 1.006h1.06l-.856.621.326 1.009-.857-.625-.856.625.329-1.009-.858-.621h1.059z" class="cls-15" transform="translate(-1481.296 -279.375)"/>
                                            <path id="Path_1043" d="M1503.489 298.788l.327 1.006h1.06l-.856.624.326 1-.857-.621-.856.621.329-1-.858-.624h1.059z" class="cls-15" transform="translate(-1481.296 -282.51)"/>
                                            <path id="Path_1044" d="M1503.489 306.371l.327 1.006h1.06l-.856.621.326 1.006-.857-.621-.856.621.329-1.006-.858-.621h1.059z" class="cls-15" transform="translate(-1481.296 -285.645)"/>
                                            <path id="Path_1045" d="M1508.77 280.036l.326 1.006h1.058l-.854.621.327 1.007-.857-.621-.857.621.329-1.007-.857-.621h1.059z" class="cls-15" transform="translate(-1483.479 -274.757)"/>
                                            <path id="Path_1046" d="M1508.77 287.619l.326 1h1.058l-.854.624.327 1.006-.857-.621-.857.621.329-1.006-.857-.624h1.059z" class="cls-15" transform="translate(-1483.479 -277.892)"/>
                                            <path id="Path_1047" d="M1508.77 295.2l.326 1.006h1.058l-.854.625.327 1.006-.857-.621-.857.621.329-1.006-.857-.625h1.059z" class="cls-15" transform="translate(-1483.479 -281.026)"/>
                                            <path id="Path_1048" d="M1508.77 302.781l.326 1.007h1.058l-.854.624.327 1-.857-.622-.857.622.329-1-.857-.624h1.059z" class="cls-15" transform="translate(-1483.479 -284.161)"/>
                                            <path id="Path_1049" d="M1514.118 276.039l.327 1.009h1.059l-.856.621.325 1.007-.855-.625-.855.625.326-1.007-.857-.621h1.059z" class="cls-15" transform="translate(-1485.69 -273.105)"/>
                                            <path id="Path_1050" d="M1514.118 283.622l.327 1.007h1.059l-.856.621.325 1.01-.855-.624-.855.624.326-1.01-.857-.621h1.059z" class="cls-15" transform="translate(-1485.69 -276.24)"/>
                                            <path id="Path_1051" d="M1514.118 291.206l.327 1.006h1.059l-.856.621.325 1.009-.855-.625-.855.625.326-1.009-.857-.621h1.059z" class="cls-15" transform="translate(-1485.69 -279.375)"/>
                                            <path id="Path_1052" d="M1514.118 298.788l.327 1.006h1.059l-.856.624.325 1-.855-.621-.855.621.326-1-.857-.624h1.059z" class="cls-15" transform="translate(-1485.69 -282.51)"/>
                                            <path id="Path_1053" d="M1514.118 306.371l.327 1.006h1.059l-.856.621.325 1.006-.855-.621-.855.621.326-1.006-.857-.621h1.059z" class="cls-15" transform="translate(-1485.69 -285.645)"/>
                                            <path id="Path_1054" d="M1519.4 280.036l.327 1.006h1.058l-.856.621.327 1.007-.855-.621-.858.621.327-1.007-.856-.621h1.06z" class="cls-15" transform="translate(-1487.872 -274.757)"/>
                                            <path id="Path_1055" d="M1519.4 287.619l.327 1h1.058l-.856.624.327 1.006-.855-.621-.858.621.327-1.006-.856-.624h1.06z" class="cls-15" transform="translate(-1487.872 -277.892)"/>
                                            <path id="Path_1056" d="M1519.4 295.2l.327 1.006h1.058l-.856.625.327 1.006-.855-.621-.858.621.327-1.006-.856-.625h1.06z" class="cls-15" transform="translate(-1487.872 -281.026)"/>
                                            <path id="Path_1057" d="M1519.4 302.781l.327 1.007h1.058l-.856.624.327 1-.855-.622-.858.622.327-1-.856-.624h1.06z" class="cls-15" transform="translate(-1487.872 -284.161)"/>
                                            <path id="Path_1058" d="M1524.747 276.039l.327 1.009h1.057l-.856.621.328 1.007-.856-.625-.857.625.328-1.007-.857-.621h1.058z" class="cls-15" transform="translate(-1490.084 -273.105)"/>
                                            <path id="Path_1059" d="M1524.747 283.622l.327 1.007h1.057l-.856.621.328 1.01-.856-.624-.857.624.328-1.01-.857-.621h1.058z" class="cls-15" transform="translate(-1490.084 -276.24)"/>
                                            <path id="Path_1060" d="M1524.747 291.206l.327 1.006h1.057l-.856.621.328 1.009-.856-.625-.857.625.328-1.009-.857-.621h1.058z" class="cls-15" transform="translate(-1490.084 -279.375)"/>
                                            <path id="Path_1061" d="M1524.747 298.788l.327 1.006h1.057l-.856.624.328 1-.856-.621-.857.621.328-1-.857-.624h1.058z" class="cls-15" transform="translate(-1490.084 -282.51)"/>
                                            <path id="Path_1062" d="M1524.747 306.371l.327 1.006h1.057l-.856.621.328 1.006-.856-.621-.857.621.328-1.006-.857-.621h1.058z" class="cls-15" transform="translate(-1490.084 -285.645)"/>
                                        </g>
                                    </g>
                                </g>
                            </g>
                        </g>
                    </g>
                </g>
            </g>
        </g>
        <path id="Union_2" d="M25 57S12.5 51.533 6.054 39.725C.447 29.456 0 11.444 0 11.444 9.837 8.528 10.112 0 10.112 0h29.776S40.164 8.528 50 11.444c0 0-.447 18.013-6.053 28.281C37.5 51.533 25 57 25 57z" class="cls-1" transform="translate(169 281)"/>
        <path id="Path_1077" d="M77.149 257.861c.311 4.662 1.485 16.723 5.539 23.989 4.688 8.4 13.055 13.319 16.228 14.954v-49.178H86.592a15.7 15.7 0 0 1-9.443 10.235z" class="cls-1" transform="translate(95.063 37.343)"/>
        <path id="Path_1078" d="M133.856 296.805c3.165-1.626 11.521-6.525 16.225-14.956 4.048-7.255 5.226-19.324 5.538-23.989a15.7 15.7 0 0 1-9.443-10.235h-12.323V296.8z" class="cls-1" transform="translate(60.239 37.343)"/>
        <path id="Rectangle_258" d="M0 0H2V54H0z" class="cls-15" transform="translate(193 282)"/>
        <g id="Group_896" transform="translate(178.836 383.771)">
            <path id="Path_14" d="M263.47 310.387c0 .562.223.9.731.9s.722-.338.722-.9v-4.77h.65v4.734c0 .946-.437 1.578-1.4 1.578s-1.391-.633-1.391-1.578v-4.734h.687z" class="cls-9" transform="translate(-262.783 -305.555)"/>
            <path id="Path_15" d="M268.828 305.617c.98 0 1.4.58 1.4 1.525v.749c0 .989-.464 1.507-1.453 1.507h-.616v2.46h-.7v-6.241zm-.054 3.156c.517 0 .766-.241.766-.838v-.83c0-.57-.205-.856-.713-.856h-.67v2.523z" class="cls-9" transform="translate(-263.984 -305.555)"/>
            <path id="Path_16" d="M271.951 311.858v-6.241h.7v5.608h1.783v.633z" class="cls-9" transform="translate(-265.136 -305.555)"/>
            <path id="Path_17" d="M275.923 307.1c0-.954.473-1.57 1.427-1.57s1.435.616 1.435 1.57v3.227c0 .946-.472 1.569-1.435 1.569s-1.427-.624-1.427-1.569zm.687 3.262c0 .571.241.9.74.9s.74-.329.74-.9v-3.3c0-.562-.233-.9-.74-.9s-.74.339-.74.9z" class="cls-9" transform="translate(-266.156 -305.533)"/>
            <path id="Path_18" d="M281.294 310.6l-.242 1.257h-.642l1.2-6.241h1.006l1.195 6.241h-.695l-.241-1.257zm.089-.6h1.39l-.7-3.6z" class="cls-9" transform="translate(-267.308 -305.555)"/>
            <path id="Path_19" d="M287.177 305.617c.972 0 1.418.589 1.418 1.551v3.148c0 .954-.446 1.542-1.418 1.542h-1.462v-6.241zm-.009 5.608c.5 0 .74-.312.74-.882v-3.21c0-.57-.24-.882-.749-.882h-.749v4.974z" class="cls-9" transform="translate(-268.669 -305.555)"/>
            <path id="Path_20" d="M291.162 305.617v6.241h-.7v-6.241z" class="cls-9" transform="translate(-269.889 -305.555)"/>
            <path id="Path_21" d="M292.975 311.858h-.624v-6.241h.882l1.444 4.511v-4.511h.616v6.241h-.723l-1.6-5.046z" class="cls-9" transform="translate(-270.373 -305.555)"/>
            <path id="Path_22" d="M300.007 307.1v.534h-.659v-.57c0-.562-.223-.9-.731-.9s-.731.339-.731.9v3.3c0 .562.233.9.731.9s.731-.338.731-.9v-1.249h-.642v-.623h1.3v1.836c0 .946-.446 1.569-1.409 1.569s-1.4-.624-1.4-1.569V307.1c0-.946.446-1.57 1.4-1.57s1.41.627 1.41 1.57z" class="cls-9" transform="translate(-271.617 -305.533)"/>
        </g>
        <path id="Rectangle_259" fill="#ffcd00" stroke="#ffcd00" stroke-linecap="round" stroke-linejoin="round" d="M0 0H28.606V4.806H0z" transform="translate(167.969 394.274)"/>
        <path id="Rectangle_260" fill="none" stroke="#898d8d" stroke-linecap="round" stroke-linejoin="round" stroke-miterlimit="10" d="M0 0H49.433V4.806H0z" transform="translate(167.969 394.274)"/>
    </g>
</svg>
