<svg xmlns="http://www.w3.org/2000/svg" width="243.68" height="306.281" viewBox="0 0 243.68 306.281">
    <defs>
        <style>
            .cls-10,.cls-11,.cls-12,.cls-13,.cls-14,.cls-17,.cls-19,.cls-2,.cls-20,.cls-4,.cls-5,.cls-6,.cls-7,.cls-8,.cls-9{stroke:#898d8d}.cls-11,.cls-14,.cls-20,.cls-6,.cls-7,.cls-9{stroke-miterlimit:10}.cls-12,.cls-13,.cls-14,.cls-2,.cls-20{fill:#fff}.cls-13,.cls-17,.cls-19,.cls-2,.cls-20,.cls-4,.cls-6,.cls-7{stroke-linecap:round}.cls-2,.cls-20,.cls-4,.cls-6{stroke-linejoin:round}.cls-11,.cls-17,.cls-19,.cls-23,.cls-4,.cls-6,.cls-7,.cls-8{fill:none}.cls-21,.cls-5{fill:#ffcd00}.cls-10,.cls-15,.cls-24,.cls-9{fill:#898d8d}.cls-19{stroke-width:1.5px}.cls-22,.cls-24{stroke:none}
        </style>
    </defs>
    <g id="Group_1802" transform="translate(-65.5 -111.567)">
        <path id="Union_9" fill="rgba(0,0,0,0)" stroke="#898d8d" stroke-miterlimit="10" d="M4026.6-15.634a2 2 0 0 1-2-2v-.706a2 2 0 0 1 2-2h62.824a2 2 0 0 1 2 2v.706a2 2 0 0 1-2 2zm-2-8.058l-11.385-11.681c1.106-.813 2.3-1.636 3.545-2.446a8.973 8.973 0 0 0 3.248 4.052 8.931 8.931 0 0 0 5.089 1.579 8.986 8.986 0 0 0 8.986-8.966 8.927 8.927 0 0 0-1.266-4.571c1.762-.62 3.529-1.173 5.251-1.642a8.949 8.949 0 0 0 2.9 5.707 8.975 8.975 0 0 0 6.034 2.322 8.986 8.986 0 0 0 8.987-8.965 8.936 8.936 0 0 0-.064-1.036h5.367a8.814 8.814 0 0 0-.065 1.036 8.986 8.986 0 0 0 8.985 8.965 8.97 8.97 0 0 0 5.913-2.22 8.963 8.963 0 0 0 2.974-5.483c1.572.454 3.235 1.006 5.087 1.686a8.97 8.97 0 0 0-1.049 4.2 8.985 8.985 0 0 0 8.985 8.966 8.952 8.952 0 0 0 4.814-1.4 9.027 9.027 0 0 0 3.25-3.627c.954.64 1.811 1.242 2.624 1.84l-11.385 11.681zm28.423-8.147a5 5 0 0 0 4.99 4.99 5 5 0 0 0 4.989-4.99 5 5 0 0 0-4.989-4.99 5 5 0 0 0-4.987 4.99zm19.392 0a3.7 3.7 0 0 0 3.7 3.7 3.7 3.7 0 0 0 3.7-3.7 3.7 3.7 0 0 0-3.7-3.7 3.7 3.7 0 0 0-3.697 3.7zm-36.25 0a3.7 3.7 0 0 0 3.7 3.7 3.7 3.7 0 0 0 3.7-3.7 3.7 3.7 0 0 0-3.7-3.7 3.7 3.7 0 0 0-3.697 3.7zm65.061-9.363a2.9 2.9 0 0 1 2.9-2.9 2.9 2.9 0 0 1 2.9 2.9 2.9 2.9 0 0 1-2.9 2.9 2.9 2.9 0 0 1-2.897-2.898zM4009-41.2a2.9 2.9 0 0 1 2.9-2.9 2.9 2.9 0 0 1 2.9 2.9 2.9 2.9 0 0 1-2.9 2.9 2.9 2.9 0 0 1-2.9-2.9zm70.4-11.4a2.9 2.9 0 0 1 2.9-2.9 2.9 2.9 0 0 1 2.9 2.9 2.9 2.9 0 0 1-2.9 2.9 2.9 2.9 0 0 1-2.9-2.9zm-48.573 0a2.9 2.9 0 0 1 2.9-2.9 2.9 2.9 0 0 1 2.9 2.9 2.9 2.9 0 0 1-2.9 2.9 2.9 2.9 0 0 1-2.899-2.9zm24.287-4.5a2.9 2.9 0 0 1 2.9-2.9 2.9 2.9 0 0 1 2.9 2.9 2.9 2.9 0 0 1-2.9 2.9 2.9 2.9 0 0 1-2.899-2.9z" transform="translate(-3871 172.067)"/>
        <g id="Group_1775">
            <g id="Rectangle_233" class="cls-2" transform="translate(117 165)">
                <rect width="140.182" height="225.161" class="cls-22" rx="12"/>
                <rect width="139.182" height="224.161" x=".5" y=".5" class="cls-23" rx="11.5"/>
            </g>
            <g id="Subtraction_4" fill="#fff" stroke-linecap="round" stroke-linejoin="round">
                <path d="M4124.42 160.187H4017c-4.136 0-7.5-3.364-7.5-7.5V-45.067c0-4.136 3.364-7.5 7.5-7.5h29.475v3.899c0 3.584 2.916 6.5 6.5 6.5h35.47c3.585 0 6.5-2.916 6.5-6.5v-3.9h29.476c4.136 0 7.5 3.365 7.5 7.5v197.755c0 4.136-3.364 7.5-7.5 7.5z" class="cls-22" transform="translate(-3883.374 225.685)"/>
                <path d="M4124.42 159.687c3.86 0 7-3.14 7-7V-45.067c0-3.86-3.14-7-7-7h-28.975v3.399c0 3.86-3.14 7-7 7h-35.47c-3.86 0-7-3.14-7-7v-3.4H4017c-3.86 0-7 3.14-7 7v197.755c0 3.86 3.14 7 7 7h107.42m0 1H4017c-4.411 0-8-3.588-8-8V-45.067c0-4.412 3.589-8 8-8h29.975v4.399c0 3.308 2.692 6 6 6h35.47c3.309 0 6-2.692 6-6v-4.4h29.976c4.411 0 8 3.59 8 8v197.755c0 4.412-3.589 8-8 8z" class="cls-24" transform="translate(-3883.374 225.685)"/>
            </g>
            <g id="Rectangle_236" class="cls-2" transform="translate(175.465 172.619)">
                <rect width="22.856" height="6.095" class="cls-22" rx="3.047"/>
                <rect width="21.856" height="5.095" x=".5" y=".5" class="cls-23" rx="2.547"/>
            </g>
        </g>
        <g id="Group_1776">
            <g id="Ellipse_244" class="cls-4" transform="translate(81 215)">
                <circle cx="10.5" cy="10.5" r="10.5" class="cls-22"/>
                <circle cx="10.5" cy="10.5" r="10" class="cls-23"/>
            </g>
            <path id="Path_945" d="M-3170.5-402v8" class="cls-4" transform="translate(3261.951 623.5)"/>
            <path id="Path_946" d="M0 8V0" class="cls-4" transform="rotate(90 -65.119 160.619)"/>
        </g>
        <g id="Group_1795">
            <circle id="Ellipse_223" cx="17.722" cy="17.722" r="17.722" class="cls-5" transform="translate(235.555 210.806)"/>
            <path id="Path_763" d="M3825.659 3538.365a.391.391 0 0 0-.3-.135h-1.893a.392.392 0 0 0-.388.446l.473 3.39a.391.391 0 0 0 .388.337h.947a.392.392 0 0 0 .388-.337l.473-3.39a.389.389 0 0 0-.088-.311z" class="cls-6" transform="translate(-3572.679 -3310.826)"/>
            <path id="Path_764" d="M3825.434 3573.53a1.155 1.155 0 1 0 1.154 1.154 1.156 1.156 0 0 0-1.154-1.154z" class="cls-6" transform="translate(-3573.696 -3340.717)"/>
            <path id="Path_765" d="M3795.271 3516.2a7.17 7.17 0 1 1-8.891 2.283" class="cls-6" transform="translate(-3540.456 -3292.174)"/>
            <circle id="Ellipse_224" cx="3.935" cy="3.935" r="3.935" class="cls-6" transform="translate(247.803 217.738)"/>
            <path id="Line_218" d="M0 1.544L3.194 0" class="cls-7" transform="translate(260.396 225.13)"/>
            <path id="Line_219" d="M0 0L3.673 0" class="cls-7" transform="translate(261.035 230.506)"/>
            <path id="Line_220" d="M0 0L3.034 1.704" class="cls-7" transform="translate(260.29 233.807)"/>
        </g>
        <g id="Group_1790" transform="translate(-13.001)">
            <circle id="Ellipse_108" cx="10.5" cy="10.5" r="10.5" class="cls-8" transform="translate(190.001 279)"/>
            <path id="Path_363" d="M228.685 2031.585a.122.122 0 0 0-.141-.035 6.251 6.251 0 0 1-7.631-9.164.122.122 0 0 0-.149-.179 6.5 6.5 0 1 0 7.93 9.524.122.122 0 0 0-.009-.146zm-5.455 2.884a6.252 6.252 0 0 1-2.725-11.879 6.5 6.5 0 0 0 7.764 9.325 6.226 6.226 0 0 1-5.039 2.554z" class="cls-9" transform="translate(-22.629 -1738.835)"/>
            <path id="Path_364" d="M231.224 2025.091h1.226l-1.324 1.765a.123.123 0 0 0 .1.2h1.474a.123.123 0 0 0 0-.246h-1.23l1.324-1.765a.123.123 0 0 0-.1-.2h-1.471a.123.123 0 0 0 0 .245z" class="cls-9" transform="translate(-31.604 -1740.49)"/>
            <path id="Path_365" d="M237.756 2029.01h.751l-.853 1.281a.122.122 0 0 0 .1.19h.98a.122.122 0 1 0 0-.245h-.752l.854-1.28a.123.123 0 0 0-.1-.191h-.98a.123.123 0 1 0 0 .245z" class="cls-9" transform="translate(-35.684 -1742.938)"/>
            <path id="Path_366" d="M233.732 2035.158a.123.123 0 0 0 .1.058h.49a.123.123 0 1 0 0-.245h-.292l.4-.8a.123.123 0 0 0-.11-.177h-.49a.123.123 0 1 0 0 .245h.292l-.4.8a.124.124 0 0 0 .01.119z" class="cls-9" transform="translate(-33.236 -1746.202)"/>
        </g>
        <g id="Group_1788" transform="translate(7)">
            <circle id="Ellipse_110" cx="10.5" cy="10.5" r="10.5" class="cls-8" transform="translate(138 314)"/>
            <path id="Path_370" d="M113.365 2103.316a3.349 3.349 0 0 0-.768-1.7.128.128 0 0 1-.015-.179.713.713 0 0 0 .1-.356 7.934 7.934 0 0 0-.093-1.814.952.952 0 0 0-.71-.769.98.98 0 0 0-.244-.057c-.417-.019-.828-.1-1.248-.1-.639.01-1.279.029-1.918 0-.824-.044-1.648-.089-2.473-.118-.472-.017-.946 0-1.418 0s-.946-.018-1.419-.036a2.329 2.329 0 0 0-1.081.224.808.808 0 0 0-.443.455 2.757 2.757 0 0 0 .175 2.715.185.185 0 0 1 0 .255 1.314 1.314 0 0 0-.1.142 4.183 4.183 0 0 0-.664 1.449 5.5 5.5 0 0 0-.065 1.979c.054.271.1.3.357.279.037 0 .073-.012.11-.019.368-.065.4-.058.584.272a.324.324 0 0 0 .333.2c.447-.023.574.077.7.517a1.223 1.223 0 0 1 .038.168.242.242 0 0 0 .166.206.885.885 0 0 1 .5 1.006c-.02.1-.043.191.043.266a.9.9 0 0 1 .269.783c-.014.318 0 .354.277.489a1.876 1.876 0 0 0 .447.157c.2.042.4.079.6.137a6.013 6.013 0 0 0 1.961.161 8.151 8.151 0 0 0 1.809-.3c.358-.1.357-.08.324-.474a.948.948 0 0 1 .084-.672.779.779 0 0 0 .145-.593.579.579 0 0 1 .244-.577.409.409 0 0 0 .163-.318.823.823 0 0 1 .622-.7.354.354 0 0 0 .256-.224.5.5 0 0 1 .481-.327.708.708 0 0 1 .3.035.27.27 0 0 0 .286-.044.614.614 0 0 1 .881 0c.151.136.287.078.361-.123a1.479 1.479 0 0 0 .08-.305 5.465 5.465 0 0 0-.037-2.09zm-.193 2.012a.341.341 0 0 1-.1.235.868.868 0 0 0-1.026-.045.621.621 0 0 1-.408.036.8.8 0 0 0-.843.434.329.329 0 0 1-.167.14 1.208 1.208 0 0 0-.78.938.287.287 0 0 1-.105.165 1.03 1.03 0 0 0-.3.839.389.389 0 0 1-.045.277 1.223 1.223 0 0 0-.183.824c0 .223 0 .224-.211.294a6.011 6.011 0 0 1-2.03.278c-.176 0-.353-.011-.529-.011a3.365 3.365 0 0 1-.909-.115c-.313-.087-.632-.154-.942-.251-.248-.079-.253-.113-.263-.392a1.391 1.391 0 0 0-.214-.737.64.64 0 0 1-.1-.372 1.1 1.1 0 0 0-.573-1.07.215.215 0 0 1-.13-.169c-.009-.047-.025-.092-.038-.139a.752.752 0 0 0-.767-.659.355.355 0 0 1-.351-.217.529.529 0 0 0-.57-.27 1.346 1.346 0 0 0-.191.037c-.11.022-.169-.013-.2-.137a2.864 2.864 0 0 1-.042-.631 6.285 6.285 0 0 1 .147-1.259 2.152 2.152 0 0 1 .206-.565c.112-.21.236-.414.357-.62a.984.984 0 0 1 .2-.24c.159-.141.183-.219.044-.35a1.782 1.782 0 0 1-.494-1.335 2.557 2.557 0 0 1 .2-1.238.915.915 0 0 1 .639-.487 2.516 2.516 0 0 1 .746-.062c.723.026 1.446.007 2.169.015.527.006 1.055.044 1.582.064 1.167.045 2.333.115 3.5.085a5.479 5.479 0 0 1 1.269.128.739.739 0 0 1 .621.682 8.5 8.5 0 0 1 .081 1.527c-.009.217-.056.426-.329.457-.055.007-.135.03-.144.115s.064.142.132.163a1.406 1.406 0 0 1 .85 1.1 5.714 5.714 0 0 1 .241 2.538z" class="cls-10" transform="translate(41.491 -1778.914)"/>
            <path id="Path_373" d="M113.521 2107.616c-.132-.02-.265-.023-.4-.033v.008h-.315c-.059 0-.118.014-.126.087s.05.114.123.124c.226.033.456.016.681.068.077.017.161 0 .173-.1s-.057-.142-.136-.154z" class="cls-10" transform="translate(33.742 -1784.974)"/>
            <path id="Path_374" d="M109.311 2107.831a3.706 3.706 0 0 1 .656.082.135.135 0 0 0 .175-.107c.021-.113-.06-.156-.153-.164s-.21 0-.316 0v-.021h-.345c-.07 0-.141.021-.137.11a.109.109 0 0 0 .12.1z" class="cls-10" transform="translate(36.041 -1784.996)"/>
            <path id="Path_375" d="M125.974 2107.592c.134 0 .268.014.4.021h.058c.087 0 .2 0 .193-.113 0-.087-.091-.138-.185-.139h-.461c-.084 0-.159.025-.155.127s.076.101.15.104z" class="cls-10" transform="translate(25.087 -1784.833)"/>
            <path id="Path_376" d="M123.189 2107.656a.119.119 0 0 0 .15-.1.135.135 0 0 0-.091-.159c-.109-.053-.226 0-.307-.015h-.318c-.072 0-.134.029-.136.114s.061.106.135.11a1.993 1.993 0 0 1 .567.05z" class="cls-10" transform="translate(27.285 -1784.838)"/>
            <path id="Path_377" d="M119.958 2107.339c-.113-.044-.225.014-.307.011-.127.01-.222.016-.316.027-.072.009-.132.039-.126.125s.069.1.143.1a1.968 1.968 0 0 1 .569 0 .119.119 0 0 0 .142-.11c.013-.082-.04-.128-.105-.153z" class="cls-10" transform="translate(29.445 -1784.805)"/>
            <path id="Path_378" d="M116.87 2107.339c-.113-.044-.226.014-.307.011-.127.01-.222.016-.317.027-.072.009-.132.039-.126.125s.069.1.143.1a1.968 1.968 0 0 1 .569 0 .119.119 0 0 0 .141-.11.135.135 0 0 0-.103-.153z" class="cls-10" transform="translate(31.478 -1784.805)"/>
            <path id="Path_379" d="M129.541 2107.669l.64.06a.177.177 0 0 0 .1-.014c.042-.03.116-.044.113-.114a.123.123 0 0 0-.13-.126c-.24.009-.478-.018-.717-.027a.11.11 0 0 0-.127.123c.006.071.06.092.121.098z" class="cls-10" transform="translate(22.635 -1784.886)"/>
            <path id="Path_380" d="M105.8 2107.871a3.518 3.518 0 0 1 .586.044c.15.021.254.013.264-.115.009-.113-.09-.137-.18-.138h-.663c-.074 0-.135.026-.129.116.008.074.064.092.122.093z" class="cls-10" transform="translate(38.422 -1785.023)"/>
            <path id="Path_382" d="M123.361 2129.325c-.055-.012-.092.059-.1.108-.02.092.041.139.123.15s.1-.041.114-.1a.156.156 0 0 0-.137-.158z" class="cls-10" transform="translate(26.795 -1798.984)"/>
        </g>
        <g id="Group_1786" transform="translate(18.999)">
            <circle id="Ellipse_111" cx="10.5" cy="10.5" r="10.5" class="cls-8" transform="translate(190.001 314)"/>
            <path id="Path_384" d="M231.652 2101.078v-1.028a.606.606 0 0 0-.6-.6h-4.032a.606.606 0 0 0-.6.6v1.028a1.01 1.01 0 0 0-.807.987v8.869a1.009 1.009 0 0 0 1.008 1.008h4.837a1.009 1.009 0 0 0 1.008-1.008v-8.869a1.009 1.009 0 0 0-.814-.987z" class="cls-11" transform="translate(-28.855 -1781.036)"/>
            <path id="Line_123" d="M0 0L5.241 0" class="cls-11" transform="translate(197.556 320.042)"/>
            <path id="Line_124" d="M0 0L3.628 0" class="cls-11" transform="translate(198.362 318.41)"/>
            <path id="Line_125" d="M0 0L1.613 0" class="cls-11" transform="translate(201.99 323.046)"/>
            <path id="Line_126" d="M0 0L1.613 0" class="cls-11" transform="translate(201.99 325.364)"/>
            <path id="Line_127" d="M0 0L1.613 0" class="cls-11" transform="translate(201.99 327.681)"/>
        </g>
        <g id="Group_1797">
            <circle id="Ellipse_225" cx="10.5" cy="10.5" r="10.5" class="cls-8" transform="translate(177 205)"/>
            <g id="Rectangle_507" class="cls-12" transform="translate(182 211)">
                <rect width="10" height="11" class="cls-22" rx="1"/>
                <rect width="9" height="10" x=".5" y=".5" class="cls-23" rx=".5"/>
            </g>
            <g id="Rectangle_508" class="cls-12" transform="translate(184 209.838)">
                <rect width="6" height="2.162" class="cls-22" rx="1"/>
                <rect width="5" height="1.162" x=".5" y=".5" class="cls-23" rx=".5"/>
            </g>
            <g id="Ellipse_253" class="cls-12" transform="translate(185.68 209)">
                <ellipse cx="1.321" cy="1.111" class="cls-22" rx="1.321" ry="1.111"/>
                <ellipse cx="1.321" cy="1.111" class="cls-23" rx=".821" ry=".611"/>
            </g>
            <path id="Path_1603" d="M7383.348 188.935l1 1 1.841-1.841" class="cls-2" transform="translate(-7199.384 25.484)"/>
            <path id="Path_1604" d="M7455.558 202.509h1.853" class="cls-13" transform="translate(-7266.84 11.369)"/>
            <path id="Path_1606" d="M7455.558 202.509h1.437" class="cls-13" transform="translate(-7266.84 12.568)"/>
            <path id="Path_1605" d="M7455.558 202.509h1.853" class="cls-13" transform="translate(-7266.84 15.586)"/>
            <path id="Path_1607" d="M7455.558 202.509h1.437" class="cls-13" transform="translate(-7266.84 16.785)"/>
            <g id="Rectangle_509" class="cls-12">
                <path d="M0 0H3V3H0z" class="cls-22" transform="translate(184 217)"/>
                <path d="M0.5 0.5H2.5V2.5H0.5z" class="cls-23" transform="translate(184 217)"/>
            </g>
        </g>
        <g id="Group_1793" transform="translate(7)">
            <circle id="Ellipse_217" cx="10.491" cy="10.491" r="10.491" class="cls-8" transform="translate(138 243.806)"/>
            <path id="Path_752" d="M3300.188 3491.786h-4.5a.359.359 0 0 1-.367-.305l-1.16-10.338h7.55l-1.16 10.338a.358.358 0 0 1-.363.305z" class="cls-11" transform="translate(-3149.448 -3232.167)"/>
            <path id="Line_217" d="M0 0L6.813 0" class="cls-11" transform="translate(145.079 252.371)"/>
        </g>
        <g id="Group_1794" transform="translate(13.222)">
            <circle id="Ellipse_222" cx="10.491" cy="10.491" r="10.491" class="cls-8" transform="translate(163.778 243.806)"/>
            <path id="Path_761" d="M3576.2 3488.064l1.4-.792 4.01-4.7a.553.553 0 0 0-.042-.756.553.553 0 0 0-.8.04l-4.333 4.9-.232 1.309" class="cls-11" transform="translate(-3402.883 -3232.557)"/>
            <path id="Path_762" d="M3547.34 3484.289v7.754h-8.249v-10.378h6.326" class="cls-11" transform="translate(-3368.797 -3232.557)"/>
        </g>
        <g id="Group_1792" transform="translate(19.444)">
            <circle id="Ellipse_223-2" cx="10.491" cy="10.491" r="10.491" class="cls-8" transform="translate(189.556 243.806)"/>
            <path id="Path_763-2" d="M3824.606 3538.31a.232.232 0 0 0-.175-.08h-1.12a.232.232 0 0 0-.23.264l.28 2.007a.232.232 0 0 0 .23.2h.56a.232.232 0 0 0 .23-.2l.28-2.007a.231.231 0 0 0-.055-.184z" class="cls-6" transform="translate(-3624.735 -3284.599)"/>
            <path id="Path_764-2" d="M3824.963 3573.53a.683.683 0 1 0 .683.683.684.684 0 0 0-.683-.683z" class="cls-6" transform="translate(-3625.828 -3316.697)"/>
            <path id="Path_765-2" d="M3791.091 3516.2a4.245 4.245 0 1 1-5.263 1.351" class="cls-6" transform="translate(-3590.134 -3264.57)"/>
            <circle id="Ellipse_224-2" cx="2.33" cy="2.33" r="2.33" class="cls-6" transform="translate(196.806 247.909)"/>
            <path id="Line_218-2" d="M0 0.914L1.891 0" class="cls-7" transform="translate(204.26 252.285)"/>
            <path id="Line_219-2" d="M0 0L2.174 0" class="cls-7" transform="translate(204.639 255.468)"/>
            <path id="Line_220-2" d="M0 0L1.796 1.008" class="cls-7" transform="translate(204.198 257.422)"/>
        </g>
        <g id="Group_1791" transform="translate(6.984)">
            <circle id="Ellipse_215" cx="10.491" cy="10.491" r="10.491" class="cls-8" transform="translate(138.016 279.143)"/>
            <path id="Path_746" d="M3273.554 3820.12a6.845 6.845 0 0 1-8.634 0 4.249 4.249 0 0 0-2.381 5.072 9.281 9.281 0 0 0 3.7 5.1 15.232 15.232 0 0 0 2.935 1.729.168.168 0 0 0 .133 0 15.25 15.25 0 0 0 2.935-1.729 9.28 9.28 0 0 0 3.7-5.1 4.249 4.249 0 0 0-2.388-5.072zm2.046 5c-.89 3.991-5.736 6.275-6.363 6.555-.627-.28-5.473-2.561-6.363-6.555a3.912 3.912 0 0 1 2.172-4.678 3.154 3.154 0 0 1 1.158-.224 3.338 3.338 0 0 1 2.885 1.846.179.179 0 0 0 .3 0 3.191 3.191 0 0 1 4.042-1.623 3.912 3.912 0 0 1 2.169 4.677z" class="cls-10" transform="translate(-3120.73 -3535.17)"/>
            <path id="Path_747" d="M3297.336 3859.108h-1.445a.172.172 0 0 0-.164.118l-.228.7-.612-3.01a.172.172 0 0 0-.333-.017l-.579 1.853-.134-.358a.172.172 0 0 0-.326.014l-.42 1.5-.7-3a.169.169 0 0 0-.174-.132.172.172 0 0 0-.164.145l-.444 2.809-.523-2.115a.172.172 0 0 0-.335.005l-.322 1.486h-1.633a.172.172 0 1 0 0 .343h1.777a.172.172 0 0 0 .168-.135l.194-.9.549 2.219a.172.172 0 0 0 .167.131h.008a.172.172 0 0 0 .162-.145l.44-2.781.653 2.793a.172.172 0 0 0 .333.007l.458-1.638.125.334a.172.172 0 0 0 .325-.009l.529-1.692.609 2.993a.172.172 0 0 0 .332.019l.391-1.2h1.32a.172.172 0 0 0 0-.344z" class="cls-10" transform="translate(-3144.633 -3568.818)"/>
        </g>
        <g id="Group_1789" transform="translate(-6)">
            <circle id="Ellipse_218" cx="10.5" cy="10.5" r="10.5" class="cls-8" transform="translate(215 279)"/>
            <path id="Path_753" d="M4046.559 3846.538a3.452 3.452 0 0 0 .936-.158c2.328-.638 4.355 1.033 3.979 3.893a8.735 8.735 0 0 1-1.354 3.385 2.552 2.552 0 0 1-2.274 1.4c-.57-.058-.875-.171-1.287-.171s-.718.113-1.287.171a2.552 2.552 0 0 1-2.274-1.4 8.731 8.731 0 0 1-1.354-3.385c-.376-2.86 1.651-4.531 3.979-3.893a3.452 3.452 0 0 0 .936.158z" class="cls-6" transform="translate(-3821.035 -3559.386)"/>
            <path id="Path_754" d="M4101.053 3805.22a3.6 3.6 0 0 0-1.764 3.233v.294" class="cls-6" transform="translate(-3873.765 -3521.889)"/>
            <path id="Path_755" d="M4061.467 3811.489a3.328 3.328 0 0 1-2.266.333 1.232 1.232 0 1 1 .686-1.94 3.4 3.4 0 0 1 1.58 1.607z" class="cls-6" transform="translate(-3835.791 -3526.059)"/>
        </g>
        <g id="Group_1787" transform="translate(13)">
            <circle id="Ellipse_214" cx="10.5" cy="10.5" r="10.5" class="cls-8" transform="translate(164 314)"/>
            <path id="Path_744" d="M3538.147 4165.076c.363-.479.76-1.007 1.191-1.6 2.754 3.758 4.118 5.061 4.082 6.771a4.086 4.086 0 0 1-8.163 0 3.872 3.872 0 0 1 .7-2.156z" class="cls-14" transform="translate(-3366.741 -3843.231)"/>
            <path id="Path_745" d="M3592.058 4153.888c.271-.357.567-.752.889-1.191 2.055 2.8 3.072 3.777 3.045 5.052a3.049 3.049 0 0 1-6.091 0 2.886 2.886 0 0 1 .521-1.609z" class="cls-14" transform="translate(-3415.971 -3833.516)"/>
        </g>
        <g id="Group_1785" transform="translate(-6)">
            <circle id="Ellipse_225-2" cx="10.5" cy="10.5" r="10.5" class="cls-8" transform="translate(151 205)"/>
            <path id="Path_766" d="M3913.6 3127.013l-3.2.777-2.367-1.367 2.367-1.367 3.2.776a.474.474 0 0 0 .11.013.462.462 0 0 0 .108-.912l-2.256-.548 2.027-1.17a.462.462 0 0 0-.462-.8l-2.027 1.17.653-2.228a.462.462 0 0 0-.887-.26l-.926 3.158-2.367 1.366v-2.733l2.272-2.381a.462.462 0 0 0-.669-.638l-1.6 1.68v-2.34a.462.462 0 0 0-.925 0v2.34l-1.6-1.68a.462.462 0 0 0-.669.638l2.271 2.381v2.733l-2.367-1.366-.926-3.158a.462.462 0 0 0-.887.26l.654 2.228-2.027-1.17a.462.462 0 0 0-.462.8l2.027 1.17-2.256.548a.462.462 0 0 0 .108.912.472.472 0 0 0 .11-.013l3.2-.776 2.367 1.367-2.367 1.367-3.2-.777a.462.462 0 0 0-.218.9l2.256.548-2.027 1.17a.462.462 0 0 0 .462.8l2.027-1.17-.654 2.228a.462.462 0 0 0 .314.573.45.45 0 0 0 .13.019.463.463 0 0 0 .444-.333l.926-3.158 2.367-1.366v2.733l-2.271 2.381a.462.462 0 0 0 .669.638l1.6-1.68v2.34a.462.462 0 0 0 .925 0v-2.34l1.6 1.68a.462.462 0 0 0 .669-.638l-2.272-2.381v-2.733l2.367 1.366.926 3.158a.463.463 0 0 0 .444.333.45.45 0 0 0 .13-.019.462.462 0 0 0 .314-.573l-.653-2.228 2.027 1.17a.462.462 0 0 0 .462-.8l-2.027-1.17 2.256-.548a.462.462 0 0 0-.218-.9z" class="cls-15" transform="translate(-3745.705 -2910.921)"/>
        </g>
        <g id="Group_1799" transform="translate(7)">
            <circle id="Ellipse_226" cx="10.5" cy="10.5" r="10.5" class="cls-8" transform="translate(202 205)"/>
            <g id="Group_1798" transform="translate(-1 1)">
                <g id="Ellipse_259" class="cls-8" transform="translate(210 211)">
                    <circle cx="3" cy="3" r="3" class="cls-22"/>
                    <circle cx="3" cy="3" r="2.5" class="cls-23"/>
                </g>
                <g id="Union_10" fill="none">
                    <path d="M4012.461-49.385a5.059 5.059 0 0 1 .114-7.036 5.057 5.057 0 0 1 7.154 0 5.059 5.059 0 0 1 .114 7.037l-.059.059-.056.057-.056.055-3.521 3.522z" class="cls-22" transform="translate(-3803.085 266.972)"/>
                    <path d="M4016.154-47.106l2.814-2.815.006-.005.005-.006.047-.046.036-.036.009-.01.004-.004.005-.005.003-.003.032-.034c.724-.771 1.113-1.779 1.097-2.837-.015-1.061-.437-2.058-1.188-2.809-.767-.767-1.786-1.189-2.87-1.189s-2.103.422-2.87 1.19c-.75.75-1.172 1.747-1.188 2.808-.016 1.058.374 2.065 1.097 2.836l.044.047 2.917 2.918m0 1.414l-3.693-3.693.002-.002c-1.86-1.983-1.822-5.1.114-7.036.988-.988 2.282-1.482 3.577-1.482 1.294 0 2.59.494 3.577 1.482 1.937 1.937 1.975 5.053.114 7.037l.001.001-.059.06-.056.056-.056.055-3.52 3.522z" class="cls-24" transform="translate(-3803.085 266.972)"/>
                </g>
                <path id="Line_302" d="M0 1.305L0 0" class="cls-17" transform="translate(213.396 213.147)"/>
                <path id="Line_303" d="M0 1.305L0 0" class="cls-17" transform="rotate(90 -.529 213.924)"/>
            </g>
        </g>
        <g id="Group_1796">
            <circle id="Ellipse_215-2" cx="19.07" cy="19.07" r="19.07" class="cls-5" transform="translate(85.016 297.984)"/>
            <path id="Path_746-2" d="M3282.671 3820.324c-2.906-1.154-5.938-.059-7.847 2.787-1.909-2.846-4.942-3.939-7.848-2.787-2.824 1.122-5.383 4.485-4.328 9.22.939 4.211 4.172 7.364 6.72 9.266a27.675 27.675 0 0 0 5.335 3.142.306.306 0 0 0 .242 0 27.711 27.711 0 0 0 5.335-3.142c2.548-1.9 5.781-5.055 6.72-9.266 1.055-4.735-1.5-8.098-4.329-9.22zm3.719 9.085c-1.617 7.254-10.427 11.407-11.566 11.915-1.14-.508-9.949-4.656-11.566-11.916-.977-4.378 1.362-7.478 3.948-8.5a5.735 5.735 0 0 1 2.1-.407 6.069 6.069 0 0 1 5.245 3.356.325.325 0 0 0 .537 0c2.086-3.5 5.163-3.817 7.349-2.95 2.59 1.024 4.929 4.123 3.953 8.502z" class="cls-15" transform="translate(-3170.738 -3511.784)"/>
            <path id="Path_747-2" d="M3304.461 3861.015h-2.627a.313.313 0 0 0-.3.215l-.415 1.27-1.113-5.471a.313.313 0 0 0-.6-.032l-1.052 3.368-.244-.65a.309.309 0 0 0-.306-.2.312.312 0 0 0-.288.228l-.763 2.725-1.272-5.446a.307.307 0 0 0-.316-.241.313.313 0 0 0-.3.263l-.808 5.107-.951-3.844a.313.313 0 0 0-.609.009l-.584 2.7h-2.979a.312.312 0 1 0 0 .624h3.23a.312.312 0 0 0 .306-.246l.353-1.63 1 4.034a.313.313 0 0 0 .3.238h.014a.314.314 0 0 0 .3-.263l.8-5.055 1.187 5.077a.313.313 0 0 0 .606.013l.833-2.977.227.606a.313.313 0 0 0 .591-.017l.961-3.076 1.108 5.441a.313.313 0 0 0 .6.035l.711-2.18h2.4a.312.312 0 0 0 0-.625z" class="cls-15" transform="translate(-3192.749 -3542.767)"/>
        </g>
        <g id="Ellipse_259-2" fill="#fff" stroke="#898d8d" stroke-width="1.5px" transform="translate(239 305)">
            <circle cx="12.5" cy="12.5" r="12.5" class="cls-22"/>
            <circle cx="12.5" cy="12.5" r="11.75" class="cls-23"/>
        </g>
        <path id="Line_302-2" d="M0 5.83L0 0" class="cls-19" transform="translate(249.898 313.273)"/>
        <path id="Line_303-2" d="M0 0L0 5.83" class="cls-19" transform="rotate(90 -31.687 287.415)"/>
        <g id="Group_1784">
            <g id="Group_1779">
                <path id="Path_1707" d="M404.16 223.821l14.612 31.223a223.988 223.988 0 0 0 33.438-17.686l-17.33-12.375 2.579-19.142a189.8 189.8 0 0 1-33.299 17.98z" class="cls-20" transform="translate(-143.53 133.791)"/>
                <path id="Path_1708" d="M334.967 255.043l14.612-31.223a189.8 189.8 0 0 1-33.3-17.98l1.707 21-16.457 10.512a223.9 223.9 0 0 0 33.438 17.691z" class="cls-20" transform="translate(-235.529 133.791)"/>
                <path id="Path_1710" d="M339.376 215.322l-14.613 31.223-11.853 6.362 15.29-32.663z" class="cls-20" transform="translate(-225.327 142.29)"/>
                <path id="Path_1711" d="M404.16 215.322l14.613 31.223 11.853 6.362-15.286-32.663z" class="cls-20" transform="translate(-143.53 142.29)"/>
                <path id="Path_1709" d="M512.422 250.581l-15.287-32.664a199.589 199.589 0 0 1-168.938 0l-15.287 32.664a235.707 235.707 0 0 0 199.512 0z" class="cls-20" transform="translate(-225.327 144.617)"/>
                <g id="Group_1778">
                    <path id="Path_1713" d="M69.869 364.23l7.026 1.728-.526 2.141-4.072-1a1.483 1.483 0 0 1-.406-.14 1.475 1.475 0 0 1-.065.426l-.526 2.139a1.445 1.445 0 0 1-.141.408 1.446 1.446 0 0 1 .426.063l4.072 1-.521 2.12-4.072-1a1.432 1.432 0 0 1-.406-.14 1.526 1.526 0 0 1-.065.426l-.611 2.48a1.5 1.5 0 0 1-.14.408 1.468 1.468 0 0 1 .426.065l4.071 1-.549 2.235-7.026-1.728z" class="cls-8" transform="translate(69.238 22.124)"/>
                    <path id="Path_1714" d="M78.278 372.571l-2.719-6.905 3.068.551 1.04 2.919c.249.718.281.863.466 1.49l.037.008c.391-.525.473-.648.975-1.231l2.009-2.372 3.07.551-5 5.559 2.8 7.255-3.07-.551-1.154-3.279a14.372 14.372 0 0 1-.478-1.53l-.037-.007c-.4.56-.521.7-.981 1.269l-2.2 2.674-3.09-.554z" class="cls-8" transform="translate(73.139 23.021)"/>
                    <path id="Path_1715" d="M91.538 380.283a7.489 7.489 0 0 1-4.09.612 6.588 6.588 0 0 1-5.988-7.506 6.722 6.722 0 0 1 7.742-6.158 7.221 7.221 0 0 1 3.661 1.418l-.34 2.981a4.431 4.431 0 0 0-3.517-2.009c-2.575-.294-4.5 1.33-4.815 4.059a4.046 4.046 0 0 0 3.684 4.833 4.783 4.783 0 0 0 4-1.21z" class="cls-8" transform="translate(78.384 23.964)"/>
                    <path id="Path_1716" d="M90.909 367.846l2.646.135-.525 10.292a1.438 1.438 0 0 1-.06.426 1.465 1.465 0 0 1 .429-.016l3.736.19-.117 2.3-6.77-.344z" class="cls-8" transform="translate(83.903 24.382)"/>
                    <path id="Path_1717" d="M107.294 376.4a5.289 5.289 0 0 1-.84 3.146 5.641 5.641 0 0 1-4.454 1.946 5.349 5.349 0 0 1-4.722-2.225 5.034 5.034 0 0 1-.674-2.739l-.1-8.359 2.61-.029.089 7.773c.024 2.084.932 3.107 2.763 3.086s2.736-1.083 2.711-3.148l-.089-7.774 2.61-.029z" class="cls-8" transform="translate(87.808 24.507)"/>
                    <path id="Path_1718" d="M107.024 377.626s1.131 1.457 2.336 1.363c1.088-.084 1.735-.565 1.652-1.634-.073-.932-.962-1.293-1.834-1.694l-1.215-.551a4.109 4.109 0 0 1-2.576-3.71c-.182-2.352 1.431-3.728 3.9-3.92a4.831 4.831 0 0 1 3.822 1.384l-1.527 1.995a2.669 2.669 0 0 0-2.232-1.057c-.915.071-1.379.616-1.322 1.353.068.876.356 1.3 2.152 2.022 2 .783 3.392 1.654 3.575 4 .192 2.467-1.436 3.905-4.1 4.111a4.6 4.6 0 0 1-4.1-1.618z" class="cls-8" transform="translate(93.346 24.142)"/>
                    <path id="Path_1719" d="M112.268 367.416l2.63-.331 1.62 12.894-2.63.331z" class="cls-8" transform="translate(97.652 23.907)"/>
                    <path id="Path_1720" d="M118.5 367.166l3.457 6.785a20.05 20.05 0 0 1 1.218 2.711l.078-.013a21.937 21.937 0 0 1 .218-2.969l.9-7.568 2.744-.492-2.039 13.58-2.82.505-6.556-12.037z" class="cls-8" transform="translate(99.795 22.992)"/>
                    <path id="Path_1721" d="M124.448 365.869l7.016-1.738.53 2.138-4.066 1.007a1.467 1.467 0 0 1-.426.065 1.485 1.485 0 0 1 .141.406l.53 2.138a1.526 1.526 0 0 1 .065.426 1.484 1.484 0 0 1 .406-.141l4.066-1.005.525 2.117-4.066 1.007a1.406 1.406 0 0 1-.426.065 1.463 1.463 0 0 1 .141.408l.614 2.477a1.46 1.46 0 0 1 .065.426 1.475 1.475 0 0 1 .408-.141l4.066-1.007.552 2.232-7.016 1.738z" class="cls-8" transform="translate(105.257 22.062)"/>
                </g>
            </g>
            <g id="Group_1783">
                <g id="Group_1781">
                    <path id="Path_1700" d="M423.534 431.767a4.824 4.824 0 0 1-.5-.51 4.4 4.4 0 0 1-.508-.8 5.028 5.028 0 0 1-.466-2.725 5.78 5.78 0 0 1 .157-.922 1.5 1.5 0 0 0 .057-.39 1.528 1.528 0 1 0-3.056 0 1.829 1.829 0 0 0 .051.392 6.424 6.424 0 0 1 .185 1.337 5.18 5.18 0 0 1-.09 1.123 4.676 4.676 0 0 1-.274.911 4.5 4.5 0 0 1-.367.7 4.241 4.241 0 0 1-.371.5 3.339 3.339 0 0 1-.288.3 4.891 4.891 0 0 0-.856.956 4.195 4.195 0 0 0-.7 2.321h8.468a4.264 4.264 0 0 0-1.321-3.071c-.036-.044-.079-.083-.121-.122z" class="cls-12" transform="translate(-232.84 -74.922)"/>
                    <rect id="Rectangle_535" width="12.499" height="3.768" class="cls-12" rx="1.475" transform="translate(181.658 360.034)"/>
                    <path id="Path_1701" d="M424.619 456.316a3.944 3.944 0 0 1-.444-.714 12.162 12.162 0 0 1-.933-2.715 11.227 11.227 0 0 1-.106-3.978c.024-.152.05-.305.088-.455H413.1a9.226 9.226 0 0 1 .216 2.179 11.34 11.34 0 0 1-1.171 5c-.388.779-.934 1.46-1.347 2.223a4.9 4.9 0 0 0-.543 2.3 5.177 5.177 0 0 0 5.177 5.177h5.646a5.172 5.172 0 0 0 4.468-7.786 12.984 12.984 0 0 0-.927-1.231z" class="cls-12" transform="translate(-230.255 -84.652)"/>
                </g>
                <g id="Group_1780">
                    <path id="Path_1700-2" d="M421.809 430.079a3.635 3.635 0 0 1-.376-.385 3.317 3.317 0 0 1-.383-.6 3.793 3.793 0 0 1-.352-2.056 4.359 4.359 0 0 1 .118-.7 1.132 1.132 0 0 0 .043-.294 1.153 1.153 0 1 0-2.305 0 1.38 1.38 0 0 0 .038.3 4.846 4.846 0 0 1 .14 1.009 3.909 3.909 0 0 1-.068.847 3.528 3.528 0 0 1-.207.687 3.4 3.4 0 0 1-.277.53 3.2 3.2 0 0 1-.28.374 2.5 2.5 0 0 1-.217.223 3.692 3.692 0 0 0-.646.721 3.164 3.164 0 0 0-.525 1.751h6.388a3.217 3.217 0 0 0-1-2.316z" class="cls-12" transform="rotate(-6.02 -336.438 2392.46)"/>
                    <rect id="Rectangle_535-2" width="9.429" height="2.842" class="cls-12" rx="1.421" transform="rotate(-6.02 3565.435 -1763.433)"/>
                    <path id="Path_1701-2" d="M421.09 454.385a2.975 2.975 0 0 1-.335-.539 9.171 9.171 0 0 1-.7-2.048 8.469 8.469 0 0 1-.08-3c.018-.115.038-.23.066-.343H412.4a6.96 6.96 0 0 1 .163 1.644 8.553 8.553 0 0 1-.883 3.774c-.293.588-.7 1.1-1.016 1.677a3.7 3.7 0 0 0-.41 1.733 3.905 3.905 0 0 0 3.905 3.905h4.259a3.9 3.9 0 0 0 3.37-5.874 9.792 9.792 0 0 0-.698-.929z" class="cls-12" transform="rotate(-6.02 -462.847 2365.846)"/>
                </g>
                <g id="Group_1782">
                    <path id="Path_1700-3" d="M421.809 430.079a3.635 3.635 0 0 1-.376-.385 3.317 3.317 0 0 1-.383-.6 3.793 3.793 0 0 1-.352-2.056 4.359 4.359 0 0 1 .118-.7 1.132 1.132 0 0 0 .043-.294 1.153 1.153 0 1 0-2.305 0 1.38 1.38 0 0 0 .038.3 4.846 4.846 0 0 1 .14 1.009 3.909 3.909 0 0 1-.068.847 3.528 3.528 0 0 1-.207.687 3.4 3.4 0 0 1-.277.53 3.2 3.2 0 0 1-.28.374 2.5 2.5 0 0 1-.217.223 3.692 3.692 0 0 0-.646.721 3.164 3.164 0 0 0-.525 1.751h6.388a3.217 3.217 0 0 0-1-2.316z" class="cls-12" transform="rotate(6.02 940.59 -2009.663)"/>
                    <rect id="Rectangle_535-3" width="9.429" height="2.842" class="cls-12" rx="1.421" transform="rotate(6.02 -3372.758 1717.41)"/>
                    <path id="Path_1701-3" d="M421.09 454.385a2.975 2.975 0 0 1-.335-.539 9.171 9.171 0 0 1-.7-2.048 8.469 8.469 0 0 1-.08-3c.018-.115.038-.23.066-.343H412.4a6.96 6.96 0 0 1 .163 1.644 8.553 8.553 0 0 1-.883 3.774c-.293.588-.7 1.1-1.016 1.677a3.7 3.7 0 0 0-.41 1.733 3.905 3.905 0 0 0 3.905 3.905h4.259a3.9 3.9 0 0 0 3.37-5.874 9.792 9.792 0 0 0-.698-.929z" class="cls-12" transform="rotate(6.02 1063.541 -1970.037)"/>
                </g>
            </g>
        </g>
        <g id="Group_1777" transform="translate(198 -42)">
            <g id="Ellipse_244-2" class="cls-4" transform="translate(81 215)">
                <circle cx="8" cy="8" r="8" class="cls-22"/>
                <circle cx="8" cy="8" r="7.5" class="cls-23"/>
            </g>
            <path id="Path_945-2" d="M-3170.5-402v6.15" class="cls-4" transform="translate(3259.533 621.996)"/>
            <path id="Path_946-2" d="M0 6.149V0" class="cls-4" transform="rotate(90 -65.555 157.7)"/>
        </g>
        <g id="Group_1800">
            <path id="Subtraction_6" d="M4039.339-46.2h-25.921L4009-52.487c.433-.441.883-.871 1.375-1.316.533 1.84 1.8 3.029 3.234 3.029 1.922 0 3.486-2.163 3.486-4.823a6.26 6.26 0 0 0-.492-2.459c.684-.334 1.37-.631 2.038-.884.185 2.463 1.675 4.319 3.467 4.319 1.922 0 3.486-2.163 3.486-4.823 0-.172-.008-.354-.025-.557h2.083c-.017.2-.025.384-.025.557 0 2.659 1.564 4.823 3.486 4.823a3 3 0 0 0 2.293-1.194 5.557 5.557 0 0 0 1.154-2.95c.613.246 1.258.543 1.973.907a6.26 6.26 0 0 0-.408 2.26c0 2.659 1.564 4.823 3.486 4.823a3.559 3.559 0 0 0 3.128-2.7c.374.348.706.672 1.018.989l-4.417 6.284zm-12.96-7.066a2.687 2.687 0 0 0-2.684 2.684 2.687 2.687 0 0 0 2.684 2.684 2.687 2.687 0 0 0 2.683-2.684 2.687 2.687 0 0 0-2.684-2.687zm7.052.694a1.992 1.992 0 0 0-1.989 1.99 1.991 1.991 0 0 0 1.989 1.989 1.992 1.992 0 0 0 1.99-1.989 1.992 1.992 0 0 0-1.991-1.993zm-14.124 0a1.992 1.992 0 0 0-1.99 1.99 1.992 1.992 0 0 0 1.99 1.989 1.991 1.991 0 0 0 1.989-1.989 1.992 1.992 0 0 0-1.989-1.993z" class="cls-21" transform="translate(-3921.716 336.142)"/>
            <rect id="Rectangle_545" width="25.673" height="2.532" class="cls-21" rx="1.266" transform="translate(91.826 291.742)"/>
            <circle id="Ellipse_265" cx="1.56" cy="1.56" r="1.56" class="cls-21" transform="translate(93.577 272.826)"/>
            <circle id="Ellipse_266" cx="1.56" cy="1.56" r="1.56" class="cls-21" transform="translate(85.016 278.959)"/>
            <circle id="Ellipse_267" cx="1.56" cy="1.56" r="1.56" class="cls-21" transform="translate(103.102 270.407)"/>
            <circle id="Ellipse_268" cx="1.56" cy="1.56" r="1.56" class="cls-21" transform="translate(112.627 272.826)"/>
            <circle id="Ellipse_269" cx="1.56" cy="1.56" r="1.56" class="cls-21" transform="translate(121.188 278.959)"/>
        </g>
        <g id="Group_1801" transform="translate(149 -87)">
            <path id="Subtraction_6-2" d="M4039.339-46.2h-25.921L4009-52.487c.433-.441.883-.871 1.375-1.316.533 1.84 1.8 3.029 3.234 3.029 1.922 0 3.486-2.163 3.486-4.823a6.26 6.26 0 0 0-.492-2.459c.684-.334 1.37-.631 2.038-.884.185 2.463 1.675 4.319 3.467 4.319 1.922 0 3.486-2.163 3.486-4.823 0-.172-.008-.354-.025-.557h2.083c-.017.2-.025.384-.025.557 0 2.659 1.564 4.823 3.486 4.823a3 3 0 0 0 2.293-1.194 5.557 5.557 0 0 0 1.154-2.95c.613.246 1.258.543 1.973.907a6.26 6.26 0 0 0-.408 2.26c0 2.659 1.564 4.823 3.486 4.823a3.559 3.559 0 0 0 3.128-2.7c.374.348.706.672 1.018.989l-4.417 6.284zm-12.96-7.066a2.687 2.687 0 0 0-2.684 2.684 2.687 2.687 0 0 0 2.684 2.684 2.687 2.687 0 0 0 2.683-2.684 2.687 2.687 0 0 0-2.684-2.687zm7.052.694a1.992 1.992 0 0 0-1.989 1.99 1.991 1.991 0 0 0 1.989 1.989 1.992 1.992 0 0 0 1.99-1.989 1.992 1.992 0 0 0-1.991-1.993zm-14.124 0a1.992 1.992 0 0 0-1.99 1.99 1.992 1.992 0 0 0 1.99 1.989 1.991 1.991 0 0 0 1.989-1.989 1.992 1.992 0 0 0-1.989-1.993z" class="cls-21" transform="translate(-3921.716 336.142)"/>
            <rect id="Rectangle_545-2" width="25.673" height="2.532" class="cls-21" rx="1.266" transform="translate(91.826 291.742)"/>
            <circle id="Ellipse_265-2" cx="1.56" cy="1.56" r="1.56" class="cls-21" transform="translate(93.577 272.826)"/>
            <circle id="Ellipse_266-2" cx="1.56" cy="1.56" r="1.56" class="cls-21" transform="translate(85.016 278.959)"/>
            <circle id="Ellipse_267-2" cx="1.56" cy="1.56" r="1.56" class="cls-21" transform="translate(103.102 270.407)"/>
            <circle id="Ellipse_268-2" cx="1.56" cy="1.56" r="1.56" class="cls-21" transform="translate(112.627 272.826)"/>
            <circle id="Ellipse_269-2" cx="1.56" cy="1.56" r="1.56" class="cls-21" transform="translate(121.188 278.959)"/>
        </g>
    </g>
</svg>
