<svg xmlns="http://www.w3.org/2000/svg" width="287.347" height="303.818" viewBox="0 0 287.347 303.818">
    <defs>
        <style>
            .cls-1,.cls-19{fill:#fff}.cls-1,.cls-11,.cls-13,.cls-19,.cls-2,.cls-4,.cls-6{stroke:#898d8d}.cls-1,.cls-11,.cls-13,.cls-2,.cls-6{stroke-linecap:round}.cls-1,.cls-2{stroke-linejoin:round}.cls-11,.cls-13,.cls-2,.cls-24,.cls-4,.cls-6{fill:none}.cls-4,.cls-6{stroke-width:1.5px}.cls-8{fill:rgba(137,141,141,.6)}.cls-9{fill:rgba(137,141,141,.4)}.cls-11{stroke-width:2px}.cls-16{fill:#ffcd00}.cls-23{fill:#898d8d}.cls-22,.cls-23{stroke:none}
        </style>
    </defs>
    <g id="Group_1582" transform="translate(-44.035 -114)">
        <g id="Group_881" transform="translate(158.748 334.012)">
            <g id="freepik--Device--inject-2">
                <path id="Path_998" d="M-131.088 279.385H-183.5l8.81 35.9 52.41-.008z" class="cls-1" transform="translate(183.5 -279.385)"/>
                <path id="Path_999" d="M-132.261 282.5h-46.332l8.255 33.606h46.324z" class="cls-1" transform="translate(182.195 -280.215)"/>
                <path id="Rectangle_241" d="M0 0H76.731V3.524H0z" class="cls-1" transform="translate(8.841 35.896)"/>
                <path id="Rectangle_242" d="M0 0H42.01V3.524H0z" class="cls-1" transform="translate(43.571 35.896)"/>
            </g>
        </g>
        <g id="Group_855" transform="translate(254 349.335)">
            <g id="Group_854">
                <path id="Rectangle_237" d="M0 0H45.815V60.816H0z" class="cls-2" transform="translate(3.244 3.675)"/>
                <path id="Rectangle_238" d="M0 0H34.463V11.758H0z" class="cls-2" transform="translate(8.514 8.946)"/>
                <path id="Rectangle_239" d="M0 0H34.463V34.057H0z" class="cls-2" transform="translate(8.514 24.353)"/>
                <path id="Rectangle_240" d="M0 0H52.028V3.649H0z" class="cls-2"/>
                <path id="Path_947" d="M384.463 274.439a1.487 1.487 0 1 1-1.486-1.487 1.487 1.487 0 0 1 1.486 1.487z" class="cls-2" transform="translate(-357.164 -262.52)"/>
                <path id="Path_948" d="M416.575 346.209a1.216 1.216 0 0 1-1.216-1.216V333.1a1.216 1.216 0 0 1 1.216-1.217 1.217 1.217 0 0 1 1.216 1.217v11.893a1.217 1.217 0 0 1-1.216 1.216z" class="cls-2" transform="translate(-377.517 -297.935)"/>
            </g>
        </g>
        <g id="Floor" transform="translate(44.535 414.034)">
            <path id="Line_3" d="M286.347 0L0 0" class="cls-2"/>
        </g>
        <g id="Group_1526" transform="translate(0 -69.195)">
            <g id="Union_6" fill="#fff">
                <path d="M3615.165 134.888l-56.643-56.643-.435-.435-1.107-1.107.012-.013-.494-.527c-14.024-14.954-21.748-34.486-21.748-54.999 0-5.456.55-10.909 1.634-16.207 1.056-5.162 2.633-10.24 4.685-15.093 2.015-4.765 4.51-9.36 7.414-13.66 2.877-4.258 6.18-8.262 9.82-11.901 3.639-3.64 7.643-6.943 11.901-9.82 4.3-2.904 8.895-5.399 13.66-7.414 4.852-2.052 9.93-3.629 15.093-4.685 5.298-1.084 10.751-1.634 16.208-1.634 5.456 0 10.909.55 16.207 1.634 5.162 1.056 10.24 2.633 15.094 4.685 4.764 2.015 9.36 4.51 13.659 7.414 4.258 2.877 8.262 6.18 11.902 9.82 3.639 3.639 6.943 7.643 9.82 11.901 2.904 4.3 5.398 8.895 7.414 13.66 2.052 4.852 3.629 9.93 4.685 15.093 1.084 5.298 1.634 10.75 1.634 16.207 0 20.513-7.724 40.045-21.748 54.999l-.495.527.013.013-1.178 1.178-.288.288-56.719 56.72z" class="cls-22" transform="translate(-3427.383 278.195)"/>
                <path d="M3615.165 133.828l56.19-56.19.286-.287.771-.771.873-.93c13.893-14.814 21.545-34.164 21.545-54.486 0-5.406-.545-10.808-1.619-16.056-1.046-5.115-2.608-10.145-4.641-14.952-1.997-4.72-4.468-9.273-7.345-13.532-2.85-4.218-6.123-8.186-9.729-11.79-3.605-3.606-7.572-6.88-11.79-9.73-4.26-2.877-8.812-5.348-13.533-7.344-4.807-2.033-9.837-3.595-14.952-4.641-5.248-1.074-10.65-1.619-16.056-1.619-5.407 0-10.809.545-16.057 1.619-5.115 1.046-10.145 2.608-14.952 4.64-4.72 1.997-9.273 4.468-13.532 7.346-4.218 2.85-8.186 6.123-11.791 9.728-3.605 3.605-6.878 7.573-9.729 11.791-2.877 4.259-5.348 8.812-7.344 13.532-2.033 4.807-3.595 9.837-4.642 14.952-1.073 5.248-1.618 10.65-1.618 16.056 0 20.322 7.651 39.672 21.545 54.486l.865.923.705.705.002.002.002.002.43.43.002.001.001.002 56.113 56.113m0 2.121l-57.173-57.173-.437-.438-1.633-1.633.029-.03C3542.336 62.16 3534 42.637 3534 21.166 3534-23.663 3570.338-60 3615.165-60c44.826 0 81.165 36.338 81.165 81.164 0 21.472-8.337 40.995-21.951 55.512l.03.03-1.707 1.706-.289.288-57.248 57.249z" class="cls-23" transform="translate(-3427.383 278.195)"/>
            </g>
            <g id="Ellipse_259" class="cls-4" transform="translate(139 251.195)">
                <circle cx="48.5" cy="48.5" r="48.5" class="cls-22"/>
                <circle cx="48.5" cy="48.5" r="47.75" class="cls-24"/>
            </g>
            <g id="Group_1542" transform="translate(169 281.195)">
                <g id="Group_1542-2" transform="translate(2.189 2.184)">
                    <path id="Path_1705" fill="rgba(255,205,0,0.2)" stroke="#ffcd00" stroke-width="1.5px" d="M519.073 161.617l-5.109-5.11a2.665 2.665 0 0 0-3.756.071l-2.574 2.574-.508-.283a24.117 24.117 0 0 1-10.678-10.68c-.1-.172-.187-.338-.277-.5l1.727-1.725.849-.851a2.661 2.661 0 0 0 .068-3.756l-5.109-5.11a2.661 2.661 0 0 0-3.756.071l-1.44 1.448.04.039a8.32 8.32 0 0 0-1.187 2.093 8.675 8.675 0 0 0-.528 2.123c-.674 5.593 1.881 10.7 8.817 17.64 9.587 9.586 17.313 8.862 17.647 8.827a8.631 8.631 0 0 0 2.128-.535 8.3 8.3 0 0 0 2.085-1.181l.032.028 1.459-1.428a2.666 2.666 0 0 0 .07-3.755z" transform="translate(-486.734 -135.511)"/>
                </g>
            </g>
        </g>
        <g id="Group_1527" transform="translate(268 114)">
            <g id="Ellipse_259-2" class="cls-4">
                <circle cx="12.5" cy="12.5" r="12.5" class="cls-22"/>
                <circle cx="12.5" cy="12.5" r="11.75" class="cls-24"/>
            </g>
            <path id="Line_302" d="M0 5.83L0 0" class="cls-6" transform="translate(10.898 8.273)"/>
            <path id="Line_303" d="M0 0L0 5.83" class="cls-6" transform="rotate(90 1.312 15.415)"/>
        </g>
        <g id="Group_1530" transform="translate(-171.441 86)">
            <g id="Path_1704" fill="#fff" stroke-linecap="round">
                <path d="M106.91 51.978L92.316 41.356l-.132-.096H6c-3.033 0-5.5-2.467-5.5-5.5V6C.5 2.967 2.967.5 6 .5h104.246c3.033 0 5.5 2.467 5.5 5.5v29.76c0 3.033-2.467 5.5-5.5 5.5h-6.39l.182.637 2.872 10.08z" class="cls-22" transform="translate(219.441 191.065)"/>
                <path d="M6 1C3.243 1 1 3.243 1 6v29.76c0 2.757 2.243 5 5 5H92.347l.263.192 13.421 9.768-2.474-8.686-.363-1.274h7.052c2.757 0 5-2.243 5-5V6c0-2.757-2.243-5-5-5H6m0-1h104.246c3.314 0 6 2.686 6 6v29.76c0 3.314-2.686 6-6 6h-5.728l3.27 11.475L92.022 41.76H6c-3.314 0-6-2.686-6-6V6c0-3.314 2.686-6 6-6z" class="cls-23" transform="translate(219.441 191.065)"/>
            </g>
            <rect id="Rectangle_529" width="51.836" height="4.576" class="cls-8" rx="2.288" transform="translate(270.49 200.93)"/>
            <rect id="Rectangle_532" width="51.836" height="2.206" class="cls-9" rx="1.103" transform="translate(270.49 210.395)"/>
            <rect id="Rectangle_533" width="51.836" height="2.206" class="cls-9" rx="1.103" transform="translate(270.49 215.359)"/>
            <rect id="Rectangle_534" width="31.581" height="2.206" class="cls-9" rx="1.103" transform="translate(270.49 220.322)"/>
        </g>
        <g id="Group_1531" transform="translate(-8.441 -46)">
            <g id="Rectangle_528" class="cls-1" transform="translate(219.441 191.065)">
                <rect width="116.246" height="41.76" class="cls-22" rx="6"/>
                <rect width="115.246" height="40.76" x=".5" y=".5" class="cls-24" rx="5.5"/>
            </g>
            <rect id="Rectangle_529-2" width="51.836" height="4.576" class="cls-8" rx="2.288" transform="translate(270.49 200.93)"/>
            <rect id="Rectangle_530" width="16.617" height="2.576" class="cls-8" rx="1.288" transform="translate(232 221.93)"/>
            <rect id="Rectangle_531" width="10.617" height="2.576" class="cls-8" rx="1.288" transform="translate(235 225.93)"/>
            <rect id="Rectangle_532-2" width="51.836" height="1.924" class="cls-9" rx=".962" transform="translate(270.49 211.945)"/>
            <rect id="Rectangle_533-2" width="51.836" height="1.924" class="cls-9" rx=".962" transform="translate(270.49 216.274)"/>
            <rect id="Rectangle_534-2" width="31.581" height="1.924" class="cls-9" rx=".962" transform="translate(270.49 220.604)"/>
            <g id="Group_1528" transform="translate(124.687 -21.869)">
                <g id="Ellipse_259-3" class="cls-4" transform="translate(109.766 221.393)">
                    <circle cx="6.153" cy="6.153" r="6.153" class="cls-22"/>
                    <circle cx="6.153" cy="6.153" r="5.403" class="cls-24"/>
                </g>
                <g id="Union_6-2" fill="none">
                    <path d="M2.759 15.962l-.05-.05-.188-.188a9.335 9.335 0 1 1 13.621 0l-.2.2-.033.033-6.574 6.581z" class="cls-22" transform="translate(106.617 218.195)"/>
                    <path d="M9.335 20.416l5.526-5.526.031-.03.074-.074.086-.092c1.366-1.457 2.119-3.36 2.119-5.359 0-4.32-3.515-7.835-7.836-7.835C5.015 1.5 1.5 5.015 1.5 9.335c0 1.999.752 3.902 2.119 5.359l.077.082.074.075.002.002.003.002.045.046 5.515 5.515m0 2.122L2.76 15.962l-.05-.05-.188-.189.004-.003C.959 14.05 0 11.805 0 9.335 0 4.18 4.18 0 9.335 0c5.156 0 9.336 4.18 9.336 9.335 0 2.47-.96 4.715-2.525 6.385l.003.003-.196.197-.033.033-6.585 6.585z" class="cls-23" transform="translate(106.617 218.195)"/>
                </g>
                <g id="Group_1529">
                    <path id="Path_1690" d="M115.92 225.425v4.5" class="cls-11"/>
                    <path id="Path_1691" d="M115.92 225.425v4.5" class="cls-11" transform="rotate(90 115.92 227.676)"/>
                </g>
            </g>
            <path id="Path_1690-2" fill="none" stroke="#898d8d" d="M-3364.64 300.065v41.315" transform="translate(3625 -109)"/>
        </g>
        <g id="Group_852" transform="translate(98.338 243)">
            <g id="Ellipse_244" class="cls-1" transform="translate(.104)">
                <circle cx="10.5" cy="10.5" r="10.5" class="cls-22"/>
                <circle cx="10.5" cy="10.5" r="10" class="cls-24"/>
            </g>
            <path id="Path_945" d="M-3170.5-402v7.551" class="cls-13" transform="translate(3181.104 408.5)"/>
            <path id="Path_946" d="M0 7.551V0" class="cls-13" transform="rotate(90 1.827 12.327)"/>
        </g>
        <g id="Group_1492" transform="translate(82.338 222)">
            <g id="Ellipse_244-2" class="cls-2" transform="translate(.104)">
                <circle cx="8" cy="8" r="8" class="cls-22"/>
                <circle cx="8" cy="8" r="7.5" class="cls-24"/>
            </g>
            <path id="Path_945-2" d="M-3170.5-402v5.815" class="cls-13" transform="translate(3178.69 407.006)"/>
            <path id="Path_946-2" d="M0 5.815V0" class="cls-13" transform="rotate(90 1.418 9.505)"/>
        </g>
        <g id="Group_870" transform="translate(66 344.949)">
            <g id="Group_867" transform="translate(6.763 7.594)">
                <g id="Group_865">
                    <g id="Group_858" transform="translate(0 9.871)">
                        <path id="Path_975" d="M-647.145 371.684s13.148 8.845 17.379 25.069" class="cls-2" transform="translate(647.145 -370.158)"/>
                        <path id="Path_976" d="M-621.946 383.1a12.481 12.481 0 0 1 5.089.068.033.033 0 0 0 .013 0" class="cls-2" transform="translate(622.646 -376.202)"/>
                        <path id="Path_977" d="M-626.376 368.363a16.449 16.449 0 0 1 3.876 8.837" class="cls-2" transform="translate(630.339 -368.363)"/>
                        <path id="Path_978" d="M-626.153 392.259a5.272 5.272 0 0 0-5.049-.309" class="cls-2" transform="translate(636.208 -380.839)"/>
                        <path id="Path_979" d="M-638.4 400.767a8.984 8.984 0 0 0 .292-1.662" class="cls-2" transform="translate(651.464 -384.981)"/>
                    </g>
                    <g id="Group_864" transform="translate(6.546)">
                        <path id="Path_980" d="M-670.21 456.734c.156.035 5.446.035 5.6 0 3.883-.853 17.67-5.383 5.244-20.055h-15.909c-12.42 14.667 1.182 19.202 5.065 20.055z" class="cls-2" transform="translate(680.391 -395.422)"/>
                        <g id="Group_863" transform="translate(.243)">
                            <g id="Group_862">
                                <g id="Group_860" transform="translate(14.924 5.802)">
                                    <g id="Group_859">
                                        <path id="Path_981" d="M-672.325 371.918s-10.381 7.089-13.384 25.017" class="cls-2" transform="translate(685.709 -366.215)"/>
                                        <path id="Path_982" d="M-685.075 376.828a9.185 9.185 0 0 0-4.383-.048" class="cls-2" transform="translate(700.182 -368.722)"/>
                                        <path id="Path_983" d="M-679.365 359.5a18.82 18.82 0 0 0-3.381 10.419" class="cls-2" transform="translate(691.387 -359.505)"/>
                                        <path id="Path_984" d="M-680.417 391.315a5.8 5.8 0 0 1 5.669-1.117" class="cls-2" transform="translate(685.701 -375.917)"/>
                                        <path id="Path_985" d="M-663.47 392.1a14.118 14.118 0 0 1-.574-7.207" class="cls-2" transform="translate(666.996 -373.232)"/>
                                    </g>
                                </g>
                                <g id="Group_861">
                                    <path id="Path_986" d="M-651.162 352.51s8.564 11.978 6.655 33.878" class="cls-2" transform="translate(656.666 -349.922)"/>
                                    <path id="Path_987" d="M-640.846 356.6c4.929-.009 7.531 1.895 7.688 2.012" class="cls-2" transform="translate(640.846 -352.131)"/>
                                    <path id="Path_988" d="M-646.445 357.018a22.562 22.562 0 0 0 .825-10.141" class="cls-2" transform="translate(655.656 -346.877)"/>
                                    <path id="Path_989" d="M-642.292 380.334a7.448 7.448 0 0 0-6.179-3.756" class="cls-2" transform="translate(653.491 -362.932)"/>
                                    <path id="Path_990" d="M-657.535 385.634a16.955 16.955 0 0 0 3.458-8.157" class="cls-2" transform="translate(669.44 -363.418)"/>
                                </g>
                            </g>
                            <path id="Path_991" d="M-654.546 431.108h-16.717l-1.014-4.737h18.745z" class="cls-2" transform="translate(675.668 -389.849)"/>
                        </g>
                    </g>
                </g>
                <g id="Group_866" transform="translate(9.188 44.358)">
                    <path id="Path_992" d="M-632.244 449.493a10.594 10.594 0 0 0-.961 5.307c.108 1.3.586 2.728 1.769 3.268" class="cls-2" transform="translate(633.24 -446.706)"/>
                    <path id="Path_993" d="M-634.468 443.427a10.18 10.18 0 0 0-1.117 1.409" class="cls-2" transform="translate(637.349 -443.427)"/>
                </g>
            </g>
            <path id="Path_994" d="M-642.762 362.63c1.736-1.29 6.881 2.589 8.411 2.844s1.266-3.034 3.417-1.836 2.007 8.2 4.368 8.686c1.134.232 1.012-.914 1.324-1.644a12.964 12.964 0 0 1 3.1 1.616 11.5 11.5 0 0 1 .432 1.265c-.529 1.5-4.786-1.132-3.71 1.8a15.659 15.659 0 0 0 4.6 5.921c-.019 1.812-.208 3.128-.5 3.189-2.338.48-6.75-.955-8.717-2.783-2-1.855 2.743-1.353 1.968-2.957s-6.08.673-7.551-1.557 2.628-2.415 2.239-3.622-4.48-.188-6.286-2.513 2.1-1.56 1.333-2.52-6.166-4.6-4.428-5.889z" class="cls-2" transform="translate(643.104 -347.657)"/>
            <g id="Group_869" transform="translate(28.462 7.824)">
                <path id="Path_995" d="M-708.948 375.894c.04.067-.319.4.859.456 2.9.128 8.032-.052 9.966-2.685 2.762-3.758-3.583-3.431-2.96-5.506s7.433-.359 8.772-3.32-3.619-2.4-3.385-3.922 5.429.467 7.152-2.673-2.824-1.471-2.085-2.771 6.523-6.709 4.19-7.925-7.769 4.431-9.558 5.032-2.186-4.955-4.541-3.1-.838 10.24-3.58 11.273c-2.043.77-.921-2.232-3.44-2.124-3.42.145-4.58 11.897-1.39 17.265z" class="cls-2" transform="translate(710.822 -347.378)"/>
                <g id="Group_868" opacity="0.1">
                    <path id="Path_996" d="M-708.948 375.894c.04.067-.319.4.859.456 2.9.128 8.032-.052 9.966-2.685 2.762-3.758-3.583-3.431-2.96-5.506s7.433-.359 8.772-3.32-3.619-2.4-3.385-3.922 5.429.467 7.152-2.673-2.824-1.471-2.085-2.771 6.523-6.709 4.19-7.925-7.769 4.431-9.558 5.032-2.186-4.955-4.541-3.1-.838 10.24-3.58 11.273c-2.043.77-.921-2.232-3.44-2.124-3.42.145-4.58 11.897-1.39 17.265z" class="cls-2" transform="translate(710.822 -347.378)"/>
                </g>
            </g>
            <path id="Path_997" d="M-662.2 341.193c-.676-3.517 3.14-.532 2.835-2s-4.148-8.387-1.555-8.828 6.033 6.6 7.552 7.723 3.046-2.592 4.718-.107-2.348 10-.054 11.828c1.708 1.359 1.965-2.55 3.925-.965a2.083 2.083 0 0 1 .561.743c-2.061 1.035-3.076 6.62-2.447 11.585-1.284 2.752-2.615 4.822-3.051 4.7-2.8-.769-6.793-4.758-7.917-7.825-1.141-3.112 3.721.045 3.765-2.121s-6.964-2.624-7.329-5.853 4.181-1.17 4.426-2.693-4.753-2.67-5.429-6.187z" class="cls-2" transform="translate(675.312 -330.348)"/>
        </g>
        <g id="Group_1539" transform="translate(-36.812 57.733)">
            <g id="Group_1533" transform="translate(145.811 110.383)">
                <path id="Path_1692" fill="#fdf1d2" d="M154.83 136.666h48.694a6.726 6.726 0 0 1 6.773 7.214l-1.35 22.042a7.8 7.8 0 0 1-7.656 7.214h-5.639l2.3 7.567-11.019-7.567H152.6a6.725 6.725 0 0 1-6.772-7.214l1.35-22.042a7.8 7.8 0 0 1 7.652-7.214z" transform="translate(-145.811 -136.666)"/>
                <g id="Group_1532" transform="translate(9.803 8.828)">
                    <path id="Path_1693" d="M206.219 154.069h-41.183a1.267 1.267 0 0 1-1.276-1.359 1.469 1.469 0 0 1 1.442-1.359h41.183a1.267 1.267 0 0 1 1.276 1.359 1.468 1.468 0 0 1-1.442 1.359z" class="cls-16" transform="translate(-162.772 -151.351)"/>
                    <path id="Path_1694" d="M181.518 167.456h-17.3a1.267 1.267 0 0 1-1.276-1.359 1.468 1.468 0 0 1 1.442-1.359h17.3a1.266 1.266 0 0 1 1.276 1.359 1.468 1.468 0 0 1-1.442 1.359z" class="cls-16" transform="translate(-162.446 -156.691)"/>
                    <path id="Path_1695" d="M195.975 180.844H163.4a1.267 1.267 0 0 1-1.276-1.359 1.469 1.469 0 0 1 1.442-1.359h32.578a1.267 1.267 0 0 1 1.276 1.359 1.469 1.469 0 0 1-1.445 1.359z" class="cls-16" transform="translate(-162.119 -162.03)"/>
                    <path id="Path_1696" d="M209.549 167.456h-6.806a1.267 1.267 0 0 1-1.276-1.359 1.468 1.468 0 0 1 1.442-1.359h6.806a1.267 1.267 0 0 1 1.276 1.359 1.469 1.469 0 0 1-1.442 1.359z" class="cls-16" transform="translate(-177.812 -156.691)"/>
                </g>
            </g>
            <g id="Group_1538" transform="translate(189.066 70.767)">
                <g id="Group_1536">
                    <g id="Group_1534">
                        <path id="Path_1697" d="M251.329 70.767h-26.548a6.067 6.067 0 0 0-5.957 5.614l-1.05 17.152a5.233 5.233 0 0 0 5.27 5.613h4.388l-2.514 5.888 9.3-5.888h15.379a6.068 6.068 0 0 0 5.957-5.613l1.05-17.152a5.234 5.234 0 0 0-5.275-5.614z" class="cls-16" transform="translate(-217.763 -70.767)"/>
                    </g>
                    <g id="Group_1535" opacity="0.5">
                        <path id="Path_1698" d="M251.329 70.767h-26.548a6.067 6.067 0 0 0-5.957 5.614l-1.05 17.152a5.233 5.233 0 0 0 5.27 5.613h4.388l-2.514 5.888 9.3-5.888h15.379a6.068 6.068 0 0 0 5.957-5.613l1.05-17.152a5.234 5.234 0 0 0-5.275-5.614z" class="cls-16" transform="translate(-217.763 -70.767)"/>
                    </g>
                </g>
                <g id="Group_1537" transform="translate(13.749 4.907)">
                    <path id="Path_1699" fill="#fff" d="M247.649 91.019a1.732 1.732 0 0 1-1.683 1.331H244.4q.029-.669.038-.815a5.653 5.653 0 0 1 .651-2.482 8.284 8.284 0 0 1 2.129-2.19 16.286 16.286 0 0 0 1.886-1.594 2.261 2.261 0 0 0 .531-1.314 2.082 2.082 0 0 0-.693-1.71 2.944 2.944 0 0 0-2.1-.712 3.434 3.434 0 0 0-2.224.742 3.543 3.543 0 0 0-.9 1.124 1.767 1.767 0 0 1-1.746.976 1.53 1.53 0 0 1-1.107-2.329 6.18 6.18 0 0 1 1.377-1.6 6.935 6.935 0 0 1 4.613-1.521 6.462 6.462 0 0 1 4.59 1.539 4.372 4.372 0 0 1 1.52 3.583 4.151 4.151 0 0 1-.769 2.141 15.349 15.349 0 0 1-2.9 2.75 5.714 5.714 0 0 0-1.433 1.448 2.4 2.4 0 0 0-.214.633zm-3.433 4.315l.011-.189a1.741 1.741 0 0 1 1.714-1.615h.189a1.5 1.5 0 0 1 1.516 1.615l-.011.189a1.74 1.74 0 0 1-1.714 1.615h-.189a1.5 1.5 0 0 1-1.515-1.615z" transform="translate(-240.634 -78.929)"/>
                </g>
            </g>
        </g>
        <g id="Group_857" transform="translate(171.208 268.438)">
            <path id="Path_969" d="M-322.384 175.44c.058-4.115 3.443-8.382 1.4-11.957-1.91-3.349-6.911-2.991-10.062-5.213a6.46 6.46 0 0 1-.7-.578 10.245 10.245 0 0 0-.38 3.92c.392 1.229 1.877 2.688 1.576 4.158s-1.936 3.215-1.788 4.365 2.085 1.705 2.085 1.705 2.745 5.293 3.528 7.114 1.395 1.3 3.213 1.17a6.684 6.684 0 0 0 1.836-.52 16 16 0 0 1-.708-4.164z" class="cls-1" transform="translate(383.739 -140.854)"/>
            <g id="Group_856" transform="translate(53.821 20.982)">
                <path id="Path_951" d="M-328.254 165.548s.377-1.844 2.338-.164" class="cls-1" transform="translate(328.254 -164.677)"/>
                <path id="Path_952" d="M-326.369 170.759c.192.625.107 1.206-.192 1.3s-.687-.344-.879-.969-.107-1.2.186-1.291.694.334.885.96z" class="cls-1" transform="translate(327.964 -166.754)"/>
            </g>
            <path id="Path_953" d="M-333.486 294.524c-.889.357-1.8.667-2.7.944l-.039.011a3.318 3.318 0 0 0 .307 1.877 3.787 3.787 0 0 0 1.911 1.785 13.917 13.917 0 0 0 1.273-2.177 5.427 5.427 0 0 1 .8-2.006c.123-.377.236-.767.34-1.164-.588.247-1.218.49-1.892.73z" class="cls-1" transform="translate(385.33 -196.227)"/>
            <path id="Path_954" d="M-295.01 153.942c2.543-4.97.3-11.416-3.011-15.914-5.447-7.408-17-9.6-25.689-8.426-4.071.552-8.153 2.524-10.261 6.05s-1.605 8.7 1.752 11.067c3.151 2.223 8.152 1.864 10.062 5.213 2.039 3.575-1.345 7.842-1.4 11.957-.037 2.594 1.281 5.057 1.29 7.651-.003.001 20.024-3.464 27.257-17.598z" class="cls-1" transform="translate(384.914 -129.304)"/>
            <path id="Path_955" d="M-317.429 135.043c-1.577 2.354-1.457 5.815-.572 8.648s2.418 5.3 3.533 8.01 2.493 5.515 1.563 8.327c1.379-6.037 1.541-14.867-1.015-20.666" class="cls-1" transform="translate(378.166 -131.639)"/>
            <path id="Path_956" d="M-307.305 134.043c10.353 6.569 12.189 17.6 12.56 26.2" class="cls-1" transform="translate(373.552 -131.232)"/>
            <path id="Path_957" d="M-307.305 134.043c7.5 11.025 4.095 21.353 1.472 27.145" class="cls-1" transform="translate(373.552 -131.232)"/>
            <path id="Path_958" d="M-325.537 138.6a9.359 9.359 0 0 0-2.184 5.1" class="cls-1" transform="translate(381.859 -133.088)"/>
            <path id="Path_959" d="M-321.019 137.315a10.921 10.921 0 0 0-.16 7.1" class="cls-1" transform="translate(379.407 -132.563)"/>
            <path id="Path_960" d="M-290.666 136.88c4.225 2.979 7.108 8.572 7.46 14.468" class="cls-1" transform="translate(366.783 -132.386)"/>
            <path id="Path_961" d="M-280.613 139.75a8.163 8.163 0 0 1 2.34 3.055" class="cls-1" transform="translate(362.693 -133.554)"/>
            <path id="Path_962" d="M-349.273 317.21a25.937 25.937 0 0 0 12.485 17.238" class="cls-1" transform="translate(390.627 -205.753)"/>
            <path id="Path_963" d="M-343.536 313.556a9.353 9.353 0 0 0 6.671 8.574" class="cls-1" transform="translate(388.293 -204.267)"/>
            <path id="Path_964" d="M-313.014 302.5l-10.142 1.321c-.5.066-1.091.191-1.3.655a1.024 1.024 0 0 0 .369 1.154 2.918 2.918 0 0 0 1.2.48 69.061 69.061 0 0 0 13.427 1.744" class="cls-1" transform="translate(380.557 -199.77)"/>
            <path id="Path_965" d="M-306.465 373.635a36.656 36.656 0 0 1 10.236-3.088" class="cls-1" transform="translate(373.211 -227.453)"/>
            <path id="Path_966" d="M-312.924 228.19l-3.274 11.434" class="cls-1" transform="translate(377.171 -169.536)"/>
            <path id="Path_967" d="M-265.7 256.05c-1.387 10.523-.476 23.282 1.393 33.1" class="cls-1" transform="translate(356.896 -180.871)"/>
            <path id="Path_968" d="M-264.553 249.661l-.206 1.692" class="cls-1" transform="translate(356.243 -178.271)"/>
            <path id="Path_970" d="M-349.21 221.383c-.269-4.038-4.008-11.906-8-12.572a18.219 18.219 0 0 0-2.612 1.744c-1.52 1.216-1.981 3.637-2.112 8.752s.8 16.875.2 27.723c-.011.2-15.132 8.372-17.757 9.643-.033.016-.065.034-.1.05-1.015-.631-4.041-2.457-4.962-2.369a20.964 20.964 0 0 0-3 .989 3.707 3.707 0 0 0-2.071.339 6.771 6.771 0 0 0-1.268 1.4 17.047 17.047 0 0 0-1.984 1.312 24.885 24.885 0 0 0-3.729 4.992c-.27.572-.057.918.354.826l-.024.056c.008-.02.019-.037.027-.057a1.094 1.094 0 0 0 .4-.2c.436-.322 2.109-1.884 3.179-2.893.043-.011.084-.027.126-.037a5.382 5.382 0 0 1 4.744 1.263A9.427 9.427 0 0 0-386 263.95a4.849 4.849 0 0 0 2.29.384c.739 0 1.478-.021 2.217-.043q.514.011 1.029 0a11.91 11.91 0 0 0 4.874-.05c1.323-.176 4.527-.783 8.133-1.633 2.247-.478 4.476-1.041 6.673-1.714.9-.277 1.814-.588 2.7-.944a14.633 14.633 0 0 0 4.991-2.539c5.825-6.028 3.883-36.028 3.883-36.028z" class="cls-1" transform="translate(409.929 -161.652)"/>
            <path id="Path_971" d="M-336.509 299.024a14.03 14.03 0 0 0 1.185-2.059 5.427 5.427 0 0 1 .8-2.006q.185-.566.34-1.164-.872.368-1.884.729c-.889.357-1.8.667-2.7.944-1.269.389-2.55.733-3.836 1.056a7.552 7.552 0 0 0 3 1.852 22.405 22.405 0 0 0 3.095.648z" class="cls-1" transform="translate(387.917 -196.227)"/>
            <path id="Path_972" d="M-391.975 332.1c-4.253-8.519-5.6-17.992-.918-21.875a9.717 9.717 0 0 1 4.019-1.913c-9.782-2.731-21.337-4.252-25.979-1.4-9.161 5.62-3.051 21.143 17.659 31.4a100.826 100.826 0 0 0 13.7 5.638 34.482 34.482 0 0 1-8.481-11.85z" class="cls-1" transform="translate(418.992 -200.941)"/>
            <path id="Path_973" d="M-293.288 197.008c-.488-1.682-1.172-4.02-1.811-6.2a51.228 51.228 0 0 1-10.776 4.61c0 .031 0 .06-.009.092-.095.52-.189 1.029-.279 1.5a37.6 37.6 0 0 1 12.875-.002z" class="cls-1" transform="translate(373.088 -154.327)"/>
            <path id="Path_974" d="M-311.8 259.844a36.194 36.194 0 0 1-.2-4.822c-.06-10.146 4.027-19.554 3.01-34.954-.4-6.066-1.357-13.853-5.424-16.071-14.652-7.992-31.315-.827-35.795 1.4 3.921.871 7.55 8.556 7.815 12.531 0 0 1.942 30-3.884 36.026a10.036 10.036 0 0 1-3.1 1.807c-1.518 5.837-5.2 9.506-10.158 9.506-2.427 0-3 2.332-5.625 1.205-5.625-2.411-9.859-.649-11.852 1-8.236 6.83 2.172 30.96 14.263 36.763 10.791 5.179 22.366 1.807 28.067-.526 2.04-.835 4.2-.439 6.338.1 11.2 2.834 20.237-6.809 21.241-15.447 1.544-13.262-2.61-13.853-4.696-28.518z" class="cls-1" transform="translate(403.111 -158.193)"/>
        </g>
        <g id="Group_1540" transform="translate(-11.511)">
            <path id="Path_1700" d="M421.813 430.082a3.646 3.646 0 0 1-.377-.385 3.32 3.32 0 0 1-.383-.6 3.8 3.8 0 0 1-.352-2.057 4.365 4.365 0 0 1 .118-.7 1.132 1.132 0 0 0 .043-.295 1.153 1.153 0 1 0-2.307 0 1.382 1.382 0 0 0 .039.3 4.849 4.849 0 0 1 .14 1.009 3.911 3.911 0 0 1-.068.848 3.533 3.533 0 0 1-.207.688 3.394 3.394 0 0 1-.277.53 3.2 3.2 0 0 1-.28.374 2.516 2.516 0 0 1-.218.223 3.692 3.692 0 0 0-.646.721 3.166 3.166 0 0 0-.525 1.752h6.387a3.219 3.219 0 0 0-1-2.318c-.024-.031-.055-.061-.087-.09z" class="cls-19" transform="translate(-128.229 -99.393)"/>
            <rect id="Rectangle_535" width="9.435" height="2.844" class="cls-19" rx="1.422" transform="translate(286.762 333.096)"/>
            <path id="Path_1701" d="M421.1 454.389a2.976 2.976 0 0 1-.335-.539 9.18 9.18 0 0 1-.7-2.049 8.475 8.475 0 0 1-.08-3c.018-.115.038-.23.066-.343H412.4a6.964 6.964 0 0 1 .163 1.645 8.56 8.56 0 0 1-.884 3.777c-.293.588-.7 1.1-1.016 1.678a3.7 3.7 0 0 0-.41 1.734 3.908 3.908 0 0 0 3.908 3.908h4.262a3.9 3.9 0 0 0 3.372-5.877 9.8 9.8 0 0 0-.695-.934z" class="cls-19" transform="translate(-124.744 -112.514)"/>
        </g>
        <g id="Group_1541" transform="rotate(98 176 299.85)">
            <path id="Path_1700-2" d="M421.813 430.082a3.646 3.646 0 0 1-.377-.385 3.32 3.32 0 0 1-.383-.6 3.8 3.8 0 0 1-.352-2.057 4.365 4.365 0 0 1 .118-.7 1.132 1.132 0 0 0 .043-.295 1.153 1.153 0 1 0-2.307 0 1.382 1.382 0 0 0 .039.3 4.849 4.849 0 0 1 .14 1.009 3.911 3.911 0 0 1-.068.848 3.533 3.533 0 0 1-.207.688 3.394 3.394 0 0 1-.277.53 3.2 3.2 0 0 1-.28.374 2.516 2.516 0 0 1-.218.223 3.692 3.692 0 0 0-.646.721 3.166 3.166 0 0 0-.525 1.752h6.387a3.219 3.219 0 0 0-1-2.318c-.024-.031-.055-.061-.087-.09z" class="cls-19" transform="translate(-128.229 -99.393)"/>
            <rect id="Rectangle_535-2" width="9.435" height="2.844" class="cls-19" rx="1.422" transform="translate(286.762 333.096)"/>
            <path id="Path_1701-2" d="M421.1 454.389a2.976 2.976 0 0 1-.335-.539 9.18 9.18 0 0 1-.7-2.049 8.475 8.475 0 0 1-.08-3c.018-.115.038-.23.066-.343H412.4a6.964 6.964 0 0 1 .163 1.645 8.56 8.56 0 0 1-.884 3.777c-.293.588-.7 1.1-1.016 1.678a3.7 3.7 0 0 0-.41 1.734 3.908 3.908 0 0 0 3.908 3.908h4.262a3.9 3.9 0 0 0 3.372-5.877 9.8 9.8 0 0 0-.695-.934z" class="cls-19" transform="translate(-124.744 -112.514)"/>
        </g>
        <rect id="Rectangle_536" width="34.407" height="3.169" class="cls-8" rx="1.585" transform="translate(172.012 346.934)"/>
        <rect id="Rectangle_537" width="33.407" height="1.333" class="cls-9" rx=".666" transform="translate(173.082 352.564)"/>
        <rect id="Rectangle_538" width="32.407" height="1.333" class="cls-9" rx=".666" transform="translate(174.082 355.563)"/>
        <rect id="Rectangle_539" width="28.581" height="1.333" class="cls-9" rx=".666" transform="translate(175.082 358.561)"/>
        <rect id="Rectangle_544" width="36.051" height="23.683" fill="rgba(137,141,141,0.2)" stroke="#898d8d" opacity="0.86" rx="3.331" transform="translate(56.986 285.695)"/>
        <path id="Path_1703" fill="#898d8d" d="M-305 155.036v-2.671l2.885 1.335 2.885 1.335-2.885 1.335-2.885 1.337z" transform="translate(377.038 142.837)"/>
    </g>
</svg>
