<svg xmlns="http://www.w3.org/2000/svg" xmlns:xlink="http://www.w3.org/1999/xlink" width="327" height="122" viewBox="0 0 327 122">
  <defs>
    <clipPath id="clip-path">
      <rect id="Rectangle_566" data-name="Rectangle 566" width="327" height="122" rx="10" transform="translate(10877 1387)" fill="#fff"/>
    </clipPath>
  </defs>
  <g id="Group_1976" data-name="Group 1976" transform="translate(-11018 -1893)">
    <rect id="Background" width="327" height="122" rx="10" transform="translate(11018 1893)" fill="#fdf1d2"/>
    <g id="Mask_Group_27" data-name="Mask Group 27" transform="translate(141 506)" clip-path="url(#clip-path)">
      <g id="Group_1693" data-name="Group 1693">
        <circle id="Ellipse_333" data-name="Ellipse 333" cx="154.5" cy="154.5" r="154.5" transform="translate(11039 1279)" fill="#fdfdfd" opacity="0.2"/>
        <circle id="Ellipse_334" data-name="Ellipse 334" cx="144" cy="144" r="144" transform="translate(11049 1289)" fill="#fdfdfd" opacity="0.2"/>
        <circle id="Ellipse_335" data-name="Ellipse 335" cx="133.5" cy="133.5" r="133.5" transform="translate(11060 1300)" fill="#fdfdfd" opacity="0.2"/>
        <circle id="Ellipse_336" data-name="Ellipse 336" cx="123" cy="123" r="123" transform="translate(11070 1310)" fill="#fdfdfd" opacity="0.2"/>
        <circle id="Ellipse_339" data-name="Ellipse 339" cx="112.5" cy="112.5" r="112.5" transform="translate(11081 1321)" fill="#fdfdfd" opacity="0.2"/>
        <circle id="Ellipse_338" data-name="Ellipse 338" cx="101.5" cy="101.5" r="101.5" transform="translate(11092 1332)" fill="#fdfdfd" opacity="0.2"/>
        <circle id="Ellipse_337" data-name="Ellipse 337" cx="90.5" cy="90.5" r="90.5" transform="translate(11102 1342)" fill="#fdfdfd" opacity="0.2"/>
        <circle id="Ellipse_340" data-name="Ellipse 340" cx="80.5" cy="80.5" r="80.5" transform="translate(11113 1353)" fill="#fdfdfd" opacity="0.2"/>
        <circle id="Ellipse_341" data-name="Ellipse 341" cx="70" cy="70" r="70" transform="translate(11123 1363)" fill="#fdfdfd" opacity="0.2"/>
        <g id="Group_1688" data-name="Group 1688" transform="translate(11095.652 1421.696)">
          <g id="Group_1687" data-name="Group 1687" transform="translate(0 0)">
            <path id="Path_1806" data-name="Path 1806" d="M246.4,459.784l-39.531-52.325,14.927-18.122L238.379,407.2Z" transform="translate(-206.866 -389.336)" fill="rgba(255,205,0,0.4)"/>
            <path id="Path_1807" data-name="Path 1807" d="M250.835,459.784l-23.5-52.325,14.927-18.122L258.85,407.2Z" transform="translate(-211.304 -389.336)" fill="rgba(255,205,0,0.4)"/>
            <path id="Path_1808" data-name="Path 1808" d="M257.339,459.784l39.531-52.325-14.927-18.122L265.357,407.2Z" transform="translate(-217.807 -389.336)" fill="rgba(255,205,0,0.4)"/>
            <path id="Path_1809" data-name="Path 1809" d="M255.12,459.784l23.5-52.325-14.927-18.122L247.106,407.2Z" transform="translate(-215.59 -389.336)" fill="rgba(255,205,0,0.4)"/>
            <path id="Path_1810" data-name="Path 1810" d="M206.866,407.459h79.063L271,389.336H221.793Z" transform="translate(-206.866 -389.336)" fill="rgba(255,205,0,0.4)"/>
          </g>
        </g>
        <g id="Group_1692" data-name="Group 1692" transform="translate(11174.715 1492.02) rotate(-180)" opacity="0.5">
          <path id="Path_1835" data-name="Path 1835" d="M0,51.394,39.641,0,79.062,51.395,64.135,69.517H14.927Z" transform="translate(0 0.931)" fill="none" stroke="#fff" stroke-linecap="round" stroke-linejoin="round" stroke-miterlimit="10" stroke-width="1"/>
          <path id="Path_1836" data-name="Path 1836" d="M39.531,0,0,52.325,14.927,70.448,31.513,52.58Z" transform="translate(0 0)" fill="none" stroke="#fff" stroke-linecap="round" stroke-linejoin="round" stroke-miterlimit="10" stroke-width="1"/>
          <path id="Path_1837" data-name="Path 1837" d="M23.5,0,0,52.325,14.927,70.448,31.513,52.581Z" transform="translate(16.035 0)" fill="none" stroke="#fff" stroke-linecap="round" stroke-linejoin="round" stroke-miterlimit="10" stroke-width="1"/>
          <path id="Path_1838" data-name="Path 1838" d="M0,0,39.532,52.326,24.6,70.448,8.019,52.581Z" transform="translate(39.531 0)" fill="none" stroke="#fff" stroke-linecap="round" stroke-linejoin="round" stroke-miterlimit="10" stroke-width="1"/>
          <path id="Path_1839" data-name="Path 1839" d="M8.015,0l23.5,52.325L16.586,70.448,0,52.58Z" transform="translate(31.515 0)" fill="none" stroke="#fff" stroke-linecap="round" stroke-linejoin="round" stroke-miterlimit="10" stroke-width="1"/>
          <path id="Path_1840" data-name="Path 1840" d="M78.124.214,0,0" transform="translate(0.686 52.065)" fill="none" stroke="#fff" stroke-linecap="round" stroke-width="1"/>
        </g>
        <g id="Group_1695" data-name="Group 1695" transform="translate(10913.374 1298.226)">
          <path id="Subtraction_3" data-name="Subtraction 3" d="M33.49,10.981H4.876L0,5.98c.48-.353.977-.695,1.517-1.048A3.844,3.844,0,1,0,8.394,1.547c.759-.267,1.515-.5,2.249-.7A3.832,3.832,0,0,0,14.47,4.282,3.848,3.848,0,0,0,18.318.443,4.009,4.009,0,0,0,18.291,0h2.3a3.787,3.787,0,0,0-.028.444,3.848,3.848,0,0,0,3.848,3.839,3.844,3.844,0,0,0,3.806-3.3c.675.195,1.386.431,2.177.722a3.844,3.844,0,1,0,6.851,3.487c.411.275.778.533,1.123.787l-4.875,5ZM19.184,5.357A2.137,2.137,0,1,0,21.32,7.493,2.139,2.139,0,0,0,19.184,5.357Zm7.752.553a1.584,1.584,0,1,0,1.583,1.584A1.586,1.586,0,0,0,26.935,5.909Zm-15.523,0A1.584,1.584,0,1,0,13,7.493,1.585,1.585,0,0,0,11.412,5.909Z" transform="translate(202.955 104.632)" fill="rgba(255,205,0,0.8)" stroke="rgba(255,255,255,0.44)" stroke-miterlimit="10" stroke-width="1"/>
          <rect id="Rectangle_545" data-name="Rectangle 545" width="28.613" height="2.015" rx="1.008" transform="translate(207.831 117.049)" fill="rgba(255,205,0,0.8)" stroke="rgba(255,255,255,0.44)" stroke-miterlimit="10" stroke-width="1"/>
          <circle id="Ellipse_265" data-name="Ellipse 265" cx="1.242" cy="1.242" r="1.242" transform="translate(210.497 101.992)" fill="rgba(255,205,0,0.8)" stroke="rgba(255,255,255,0.44)" stroke-miterlimit="10" stroke-width="1"/>
          <circle id="Ellipse_266" data-name="Ellipse 266" cx="1.242" cy="1.242" r="1.242" transform="translate(201.15 106.874)" fill="rgba(255,205,0,0.8)" stroke="rgba(255,255,255,0.44)" stroke-miterlimit="10" stroke-width="1"/>
          <circle id="Ellipse_267" data-name="Ellipse 267" cx="1.242" cy="1.242" r="1.242" transform="translate(220.896 100.067)" fill="rgba(255,205,0,0.8)" stroke="rgba(255,255,255,0.44)" stroke-miterlimit="10" stroke-width="1"/>
          <circle id="Ellipse_268" data-name="Ellipse 268" cx="1.242" cy="1.242" r="1.242" transform="translate(231.296 101.992)" fill="rgba(255,205,0,0.8)" stroke="rgba(255,255,255,0.44)" stroke-miterlimit="10" stroke-width="1"/>
          <circle id="Ellipse_269" data-name="Ellipse 269" cx="1.242" cy="1.242" r="1.242" transform="translate(240.642 106.874)" fill="rgba(255,205,0,0.8)" stroke="rgba(255,255,255,0.44)" stroke-miterlimit="10" stroke-width="1"/>
        </g>
      </g>
    </g>
    <path id="Path_8005" data-name="Path 8005" d="M9.321,7.593H5.72V8.5H7.826a1.2,1.2,0,0,0,.39-.039,3.074,3.074,0,0,1-.533,1.612A3.222,3.222,0,0,1,5.031,11.3,3.355,3.355,0,0,1,1.69,7.619,3.44,3.44,0,0,1,5.109,4.031,3.347,3.347,0,0,1,7.982,5.643l.806-.715A4.245,4.245,0,0,0,5.135,3.121,4.416,4.416,0,0,0,.559,7.749a4.2,4.2,0,0,0,4.472,4.459A4.265,4.265,0,0,0,8.515,10.7a4.061,4.061,0,0,0,.806-2.418Zm5.616,2.73A2.133,2.133,0,0,1,13.065,11.4c-1.066,0-1.716-.728-1.781-2.054a.634.634,0,0,0,.273.039H15.6V9.14a2.5,2.5,0,0,0-2.548-2.756,2.709,2.709,0,0,0-2.7,3,2.578,2.578,0,0,0,2.691,2.808,2.9,2.9,0,0,0,2.561-1.4ZM11.96,8.659a2.824,2.824,0,0,0-.585.039,1.737,1.737,0,0,1,1.677-1.547A1.576,1.576,0,0,1,14.612,8.7a1.16,1.16,0,0,0-.377-.039ZM16.328,7.32h.546a.975.975,0,0,0,.286-.026.975.975,0,0,0-.026.286V12H18.1V7.58a.975.975,0,0,0-.026-.286.975.975,0,0,0,.286.026h.7V6.579h-.7a.975.975,0,0,0-.286.026.975.975,0,0,0,.026-.286V4.408h-.962V6.319a.975.975,0,0,0,.026.286.975.975,0,0,0-.286-.026h-.546ZM27.6,11.142a1.391,1.391,0,0,0-.065.481V12h.949V6.579h-.949v.364a1.419,1.419,0,0,0,.078.507l-.052.013a2.035,2.035,0,0,0-1.937-1.079,2.728,2.728,0,0,0-2.769,2.977,2.626,2.626,0,0,0,2.691,2.834,2.208,2.208,0,0,0,2.015-1.066ZM25.662,7.255a1.868,1.868,0,0,1,1.872,2.054,1.844,1.844,0,1,1-3.666-.026A1.825,1.825,0,0,1,25.662,7.255Zm8.749,3.887a1.463,1.463,0,0,0-.078.481V12h.962V2.8h-.962v2.9a8.821,8.821,0,0,0,.091,1.755l-.052.013a2.043,2.043,0,0,0-1.95-1.079,2.725,2.725,0,0,0-2.756,2.977,2.619,2.619,0,0,0,2.691,2.834,2.217,2.217,0,0,0,2-1.066ZM32.474,7.255a1.89,1.89,0,0,1,1.872,2.054,1.9,1.9,0,0,1-1.9,2.041A1.863,1.863,0,0,1,30.68,9.283,1.825,1.825,0,0,1,32.474,7.255Zm8.749,3.887a1.463,1.463,0,0,0-.078.481V12h.962V2.8h-.962v2.9a8.821,8.821,0,0,0,.091,1.755l-.052.013a2.043,2.043,0,0,0-1.95-1.079,2.725,2.725,0,0,0-2.756,2.977,2.619,2.619,0,0,0,2.691,2.834,2.217,2.217,0,0,0,2-1.066ZM39.286,7.255a1.89,1.89,0,0,1,1.872,2.054,1.9,1.9,0,0,1-1.9,2.041,1.863,1.863,0,0,1-1.768-2.067A1.825,1.825,0,0,1,39.286,7.255ZM43.953,12h.962V6.579h-.962Zm.468-8.034a.657.657,0,1,0,.663.65A.661.661,0,0,0,44.421,3.966ZM46.046,7.32h.546a.975.975,0,0,0,.286-.026.975.975,0,0,0-.026.286V12h.962V7.58a.975.975,0,0,0-.026-.286.975.975,0,0,0,.286.026h.7V6.579h-.7a.975.975,0,0,0-.286.026.975.975,0,0,0,.026-.286V4.408h-.962V6.319a.975.975,0,0,0,.026.286.975.975,0,0,0-.286-.026h-.546ZM49.673,12h.962V6.579h-.962Zm.468-8.034a.657.657,0,1,0,.663.65A.661.661,0,0,0,50.141,3.966Zm4.615,2.418A2.839,2.839,0,0,0,51.805,9.27a2.93,2.93,0,0,0,1,2.288,3.343,3.343,0,0,0,1.924.637,2.8,2.8,0,0,0,2.99-2.912A2.838,2.838,0,0,0,54.756,6.384Zm0,.858a2,2,0,0,1,1.95,2.067A1.946,1.946,0,1,1,52.819,9.3,2.011,2.011,0,0,1,54.756,7.242ZM63.713,12V8.7c0-1.365-.585-2.314-2.015-2.314a1.844,1.844,0,0,0-1.6.936l-.052-.013a1.248,1.248,0,0,0,.078-.429V6.566h-.962V12h.962V8.8a1.412,1.412,0,0,1,1.352-1.521c.806,0,1.274.416,1.274,1.352V12Zm6.175-.858a1.391,1.391,0,0,0-.065.481V12h.949V6.579h-.949v.364a1.419,1.419,0,0,0,.078.507l-.052.013a2.035,2.035,0,0,0-1.937-1.079,2.728,2.728,0,0,0-2.769,2.977,2.626,2.626,0,0,0,2.691,2.834,2.208,2.208,0,0,0,2.015-1.066ZM67.951,7.255a1.868,1.868,0,0,1,1.872,2.054,1.844,1.844,0,1,1-3.666-.026A1.825,1.825,0,0,1,67.951,7.255ZM72.618,12h.962V2.8h-.962ZM.91,29.639h.962v-1.7a15.864,15.864,0,0,0-.078-1.794l.052-.013a2.253,2.253,0,0,0,1.989,1.066,2.655,2.655,0,0,0,2.717-2.912,2.682,2.682,0,0,0-2.73-2.9A2.194,2.194,0,0,0,1.833,22.45l-.039-.013a1.639,1.639,0,0,0,.078-.494v-.364H.91Zm2.782-7.41a1.884,1.884,0,0,1,1.833,2.08,1.846,1.846,0,1,1-3.666-.039A1.864,1.864,0,0,1,3.692,22.229ZM7.969,27h.962V24.257c0-1.1.52-1.924,1.235-1.924a1.246,1.246,0,0,1,.715.247l.546-.741a1.535,1.535,0,0,0-1.027-.364,1.594,1.594,0,0,0-1.508,1.053l-.052-.013a2.417,2.417,0,0,0,.091-.546v-.39H7.969Zm8.372-1.677A2.133,2.133,0,0,1,14.469,26.4c-1.066,0-1.716-.728-1.781-2.054a.634.634,0,0,0,.273.039H17V24.14a2.5,2.5,0,0,0-2.548-2.756,2.709,2.709,0,0,0-2.7,3,2.578,2.578,0,0,0,2.691,2.808A2.9,2.9,0,0,0,17,25.791Zm-2.977-1.664a2.824,2.824,0,0,0-.585.039,1.737,1.737,0,0,1,1.677-1.547,1.576,1.576,0,0,1,1.56,1.547,1.16,1.16,0,0,0-.377-.039ZM18.434,27H19.4V23.685a1.243,1.243,0,0,1,1.274-1.391c.689,0,1.131.416,1.131,1.326V27h.975V23.685a1.24,1.24,0,0,1,1.261-1.391c.715,0,1.144.4,1.144,1.339V27h.962V23.607a2.4,2.4,0,0,0-.286-1.313,1.859,1.859,0,0,0-1.664-.884,1.794,1.794,0,0,0-1.6.91,1.929,1.929,0,0,0-3.276,0l-.052-.013a1.14,1.14,0,0,0,.078-.416v-.312h-.91Zm9.516,0h.962V21.579H27.95Zm.468-8.034a.657.657,0,1,0,.663.65A.661.661,0,0,0,28.418,18.966Zm6.812,2.613h-.962v3.185c0,.988-.494,1.56-1.313,1.56s-1.287-.559-1.287-1.586V21.579h-.962v3.458a2.465,2.465,0,0,0,.273,1.2,2.284,2.284,0,0,0,1.976.962,2.386,2.386,0,0,0,1.911-.832,2.485,2.485,0,0,0,.364-1.326ZM37.037,27H38V23.685a1.243,1.243,0,0,1,1.274-1.391c.689,0,1.131.416,1.131,1.326V27h.975V23.685a1.24,1.24,0,0,1,1.261-1.391c.715,0,1.144.4,1.144,1.339V27h.962V23.607a2.4,2.4,0,0,0-.286-1.313A1.859,1.859,0,0,0,42.8,21.41a1.794,1.794,0,0,0-1.6.91,1.929,1.929,0,0,0-3.276,0l-.052-.013a1.14,1.14,0,0,0,.078-.416v-.312h-.91ZM48.88,22.32h.793a.975.975,0,0,0,.286-.026.975.975,0,0,0-.026.286V27h.936V22.58a.975.975,0,0,0-.026-.286.975.975,0,0,0,.286.026h1.209v-.741H51.155a.975.975,0,0,0-.286.026.975.975,0,0,0,.026-.286V19.551c0-.78.247-1.118.819-1.118a1.105,1.105,0,0,1,.624.195v-.845a1.833,1.833,0,0,0-.819-.182,1.688,1.688,0,0,0-1.3.559,2.028,2.028,0,0,0-.286,1.183v1.976a.975.975,0,0,0,.026.286.975.975,0,0,0-.286-.026H48.88Zm9.048-.741h-.962v3.185c0,.988-.494,1.56-1.313,1.56s-1.287-.559-1.287-1.586V21.579H53.4v3.458a2.465,2.465,0,0,0,.273,1.2,2.284,2.284,0,0,0,1.976.962,2.386,2.386,0,0,0,1.911-.832,2.485,2.485,0,0,0,.364-1.326ZM64.285,27V23.7c0-1.365-.585-2.314-2.015-2.314a1.844,1.844,0,0,0-1.6.936l-.052-.013a1.248,1.248,0,0,0,.078-.429v-.312h-.962V27H60.7V23.8a1.412,1.412,0,0,1,1.352-1.521c.806,0,1.274.416,1.274,1.352V27ZM70.3,25.739a2.108,2.108,0,0,1-1.547.585,1.928,1.928,0,0,1-2-2.015,1.955,1.955,0,0,1,1.976-2.054,2.135,2.135,0,0,1,1.573.624V21.761a3.588,3.588,0,0,0-1.625-.377,2.784,2.784,0,0,0-2.964,2.938,2.737,2.737,0,0,0,2.951,2.873,3.184,3.184,0,0,0,1.638-.39Zm.624-3.419h.546a.975.975,0,0,0,.286-.026.975.975,0,0,0-.026.286V27H72.7V22.58a.975.975,0,0,0-.026-.286.975.975,0,0,0,.286.026h.7v-.741h-.7a.975.975,0,0,0-.286.026.975.975,0,0,0,.026-.286V19.408h-.962v1.911a.975.975,0,0,0,.026.286.975.975,0,0,0-.286-.026h-.546ZM74.555,27h.962V21.579h-.962Zm.468-8.034a.657.657,0,1,0,.663.65A.661.661,0,0,0,75.023,18.966Zm4.615,2.418a2.839,2.839,0,0,0-2.951,2.886,2.93,2.93,0,0,0,1,2.288,3.343,3.343,0,0,0,1.924.637,2.8,2.8,0,0,0,2.99-2.912A2.838,2.838,0,0,0,79.638,21.384Zm0,.858a2,2,0,0,1,1.95,2.067A1.946,1.946,0,1,1,77.7,24.3,2.011,2.011,0,0,1,79.638,22.242ZM88.6,27V23.7c0-1.365-.585-2.314-2.015-2.314a1.844,1.844,0,0,0-1.6.936l-.052-.013a1.248,1.248,0,0,0,.078-.429v-.312h-.962V27h.962V23.8a1.412,1.412,0,0,1,1.352-1.521c.806,0,1.274.416,1.274,1.352V27Zm6.175-.858a1.391,1.391,0,0,0-.065.481V27h.949V21.579H94.7v.364a1.419,1.419,0,0,0,.078.507l-.052.013a2.035,2.035,0,0,0-1.937-1.079,2.728,2.728,0,0,0-2.769,2.977,2.626,2.626,0,0,0,2.691,2.834,2.208,2.208,0,0,0,2.015-1.066Zm-1.937-3.887A1.868,1.868,0,0,1,94.7,24.309a1.844,1.844,0,1,1-3.666-.026A1.825,1.825,0,0,1,92.833,22.255ZM97.5,27h.962V17.8H97.5Zm2.795,0h.962V21.579h-.962Zm.468-8.034a.657.657,0,1,0,.663.65A.661.661,0,0,0,100.763,18.966Zm1.625,3.354h.546a.975.975,0,0,0,.286-.026.975.975,0,0,0-.026.286V27h.962V22.58a.975.975,0,0,0-.026-.286.975.975,0,0,0,.286.026h.7v-.741h-.7a.975.975,0,0,0-.286.026.975.975,0,0,0,.026-.286V19.408h-.962v1.911a.975.975,0,0,0,.026.286.975.975,0,0,0-.286-.026h-.546Zm3.068-.741L107.7,26.22l-1.56,3.419h1.014l3.588-8.06h-1.014L108.9,23.5c-.338.793-.4.962-.663,1.69H108.2a16.439,16.439,0,0,0-.689-1.677l-.858-1.937Z" transform="translate(11042 1948)" fill="#646363"/>
    <path id="Path_8004" data-name="Path 8004" d="M-.015-10.005,3.315,0h2.2L8.91-10.005H6.765l-1.71,5.61a16.681,16.681,0,0,0-.57,2.22h-.06a15.5,15.5,0,0,0-.555-2.22l-1.695-5.61ZM10.47,0h2.04V-10.005H10.47Zm7.665-8.37c.825,0,1.275.5,1.275,1.455S18.96-5.46,18.135-5.46H17.4a1.125,1.125,0,0,0-.33.03,1.125,1.125,0,0,0,.03-.33V-8.07a1.125,1.125,0,0,0-.03-.33,1.125,1.125,0,0,0,.33.03ZM15.06,0H17.1V-3.51a1.125,1.125,0,0,0-.03-.33,1.125,1.125,0,0,0,.33.03h.81c2.055,0,3.27-1.155,3.27-3.09,0-1.92-1.275-3.105-3.345-3.105H15.06ZM30.42-8.37c.825,0,1.275.5,1.275,1.455S31.245-5.46,30.42-5.46h-.735a1.125,1.125,0,0,0-.33.03,1.125,1.125,0,0,0,.03-.33V-8.07a1.125,1.125,0,0,0-.03-.33,1.125,1.125,0,0,0,.33.03ZM27.345,0h2.04V-3.51a1.125,1.125,0,0,0-.03-.33,1.125,1.125,0,0,0,.33.03h.81c2.055,0,3.27-1.155,3.27-3.09,0-1.92-1.275-3.105-3.345-3.105H27.345ZM39.51-.75a.787.787,0,0,0-.09.42V0h1.845V-6.33h-1.83v.36a1.045,1.045,0,0,0,.09.45l-.045.015a2.613,2.613,0,0,0-2.16-1.05c-1.83,0-3.075,1.41-3.075,3.45,0,1.98,1.035,3.33,3.09,3.33A2.422,2.422,0,0,0,39.45-.78Zm-1.7-4.275A1.667,1.667,0,0,1,39.48-3.18,1.652,1.652,0,0,1,37.8-1.32a1.606,1.606,0,0,1-1.59-1.8A1.694,1.694,0,0,1,37.815-5.025ZM48.36-1.845a2.286,2.286,0,0,1-1.68.615,1.822,1.822,0,0,1-1.725-1.92,1.861,1.861,0,0,1,1.77-1.935,2.153,2.153,0,0,1,1.6.54V-6.3a5.191,5.191,0,0,0-1.77-.33,3.491,3.491,0,0,0-3.57,3.555A3.274,3.274,0,0,0,46.38.3a4.826,4.826,0,0,0,1.98-.4ZM50.28,0h1.875V-1.575a14.9,14.9,0,0,0-.06-1.68l.06-.03a16.589,16.589,0,0,0,1.08,1.71L54.3,0h2.445L54.09-3.465,56.535-6.33H54.27L53.2-4.965a16.861,16.861,0,0,0-1.05,1.47l-.06-.03c.06-1.2.06-1.47.06-2.85V-10.62H50.28Z" transform="translate(11042 1940)" fill="#646363"/>
  </g>
</svg>
