<svg xmlns="http://www.w3.org/2000/svg" width="18" height="18" viewBox="0 0 18 18">
  <g id="yellow" transform="translate(-177 -434)">
    <circle id="Ellipse_540" data-name="Ellipse 540" cx="9" cy="9" r="9" transform="translate(177 434)" fill="#fecd00"/>
    <g id="noun_edit_1219736" transform="translate(306 84.198)">
      <path id="Path_8225" data-name="Path 8225" d="M28.271,19.329a1.8,1.8,0,0,0-2.544,0L19.75,25.305a.32.32,0,0,0-.082.138l-.856,2.947a.32.32,0,0,0,.4.4l2.947-.856a.32.32,0,0,0,.138-.082l5.977-5.972a1.8,1.8,0,0,0,0-2.549Zm-8.157,6.866L21.4,27.476l-1.806.532ZM22.037,27.2,20.4,25.563l5.033-5.031,1.639,1.639Zm5.784-5.784-.3.3-1.639-1.639.3-.3a1.159,1.159,0,1,1,1.639,1.638Z" transform="translate(-143.8 335)" fill="#fff"/>
    </g>
  </g>
</svg>
