<svg xmlns="http://www.w3.org/2000/svg" width="88" height="88" viewBox="0 0 88 88">
    <defs>
        <clipPath id="clip-path">
            <path id="Path_8088" d="M263.839 192.654a44 44 0 0 0 44 44 44 44 0 0 0 44-44 44 44 0 0 0-44-44 44 44 0 0 0-44 44z" class="cls-1" transform="translate(-263.839 -148.655)"/>
        </clipPath>
        <style>
            .cls-1{fill:#fff}.cls-4{fill:#fd0}.cls-5{fill:#ffe1bf}.cls-7{fill:#ffd3ad}.cls-8{fill:#4b93ff}.cls-9{fill:#f2db0b}.cls-10{fill:#ffb991}
        </style>
    </defs>
    <g id="Group_2634" transform="translate(-263.839 -148.654)">
        <g id="Group_2630" transform="translate(263.84 148.654)">
            <path id="Path_8050" fill="#f5f6f6" d="M351.839 192.654a44 44 0 1 1-44-44 44 44 0 0 1 44 44z" transform="translate(-263.84 -148.654)"/>
        </g>
        <g id="Group_2612" clip-path="url(#clip-path)" transform="translate(263.839 148.655)">
            <path id="Path_8070" d="M305.676 195.641s6.958-4.954 10.778.215 1.22 15.309-6.464 22.117-.343 10.341 2.429 8.267c0 0-4.734 5.062-10.019 2.749s-4.692-8.287-2.65-12.593 5.926-20.755 5.926-20.755z" class="cls-4" transform="translate(-273.891 -161.747)"/>
            <path id="Path_8071" d="M328.306 251.779c2.123-3.932 3.938-3.345 3.381-9.084 0 0-6.662-1.767-6.631-8.564a13.1 13.1 0 0 1-4.532 1.343c-2.087.079-4.5-1.659-4.5-1.659s.548 7.334-5.333 8.881c-.72 5.961.712 6.533 4.194 9.6 2.549 2.234 11.462 3.104 13.421-.517z" class="cls-5" transform="translate(-277.464 -173.515)"/>
            <path id="Path_8072" fill="#ffae2e" d="M340.76 264.76c-1.186-5.325-2.475-13.652-3.223-14.972-1.651-2.913-14.972-4.94-14.972-4.94-1.787 2.578-6.762 3.047-8.708 3.1-1.945-.053-6.138-.334-7.924-2.912 0 0-14.1 1.839-15.756 4.752-.271.479-1.532 9.181-2.823 14.972z" transform="translate(-270.703 -176.736)"/>
            <path id="Path_8073" d="M334.483 198.208c.766-23.7-16.884-21.985-16.89-21.984s-17.658-1.718-16.889 21.984c0 0-.023 9.9 2.633 13.6a19.038 19.038 0 0 0 14.255 7.409c4.364 0 10.822-2.221 14.255-7.409 2.714-4.095 2.636-13.6 2.636-13.6z" class="cls-5" transform="translate(-274.594 -156.695)"/>
            <path id="Path_8074" d="M347.58 209.646s1.047-2.049 2.208-.662.936 7.041-2.765 7.048c0 0 .537-5.042.557-6.386z" class="cls-5" transform="translate(-288.122 -166.126)"/>
            <path id="Path_8075" d="M347.835 212.514s.75-2.012 1.495-.975a2.4 2.4 0 0 1-.748 3.292s.503-3.659-.747-2.317z" class="cls-7" transform="translate(-288.359 -166.925)"/>
            <path id="Path_8076" d="M299.8 209.646s-1.046-2.049-2.208-.662-.776 7.041 2.925 7.048c-.001 0-.702-5.042-.717-6.386z" class="cls-5" transform="translate(-273.522 -166.126)"/>
            <path id="Path_8077" d="M300.153 212.514s-.751-2.012-1.494-.975a2.4 2.4 0 0 0 .745 3.292s-.504-3.659.749-2.317z" class="cls-7" transform="translate(-273.891 -166.925)"/>
            <path id="Path_8078" d="M325.663 218.463c0 .7-.9 1.272-2.018 1.272s-2.018-.57-2.018-1.272.9-1.273 2.018-1.273 2.018.569 2.018 1.273z" class="cls-7" transform="translate(-280.709 -168.662)"/>
            <path id="Path_8079" d="M338.55 210.77a2.133 2.133 0 1 1-2.133-2.133 2.134 2.134 0 0 1 2.133 2.133z" class="cls-8" transform="translate(-284.404 -166.165)"/>
            <path id="Path_8080" d="M338.67 209.99a.686.686 0 1 1-.685-.687.687.687 0 0 1 .685.687z" class="cls-1" transform="translate(-285.283 -166.359)"/>
            <path id="Path_8081" d="M312.749 210.77a2.132 2.132 0 1 1-2.133-2.133 2.133 2.133 0 0 1 2.133 2.133z" class="cls-8" transform="translate(-276.872 -166.165)"/>
            <path id="Path_8082" d="M312.867 209.99a.686.686 0 1 1-.687-.687.687.687 0 0 1 .687.687z" class="cls-1" transform="translate(-277.751 -166.359)"/>
            <path id="Path_8083" d="M332.844 205.5a4.527 4.527 0 0 1 5.986.148c.434.357.971-.328.539-.684a5.385 5.385 0 0 0-7.05-.157c-.424.361.098 1.058.525.693z" class="cls-9" transform="translate(-283.784 -164.684)"/>
            <path id="Path_8084" d="M312.977 205.5a4.526 4.526 0 0 0-5.985.148c-.433.357-.97-.328-.537-.684a5.382 5.382 0 0 1 7.048-.157c.424.361-.103 1.058-.526.693z" class="cls-9" transform="translate(-276.233 -164.684)"/>
            <path id="Path_8085" d="M322.93 225.82l-4.36-.084s1.07 1.593 4.36 1.593 4.361-1.593 4.361-1.593z" class="cls-10" transform="translate(-279.816 -171.157)"/>
            <path id="Path_8086" d="M327.292 225.424a6.6 6.6 0 0 1-1.614-.338 4.325 4.325 0 0 0-1.75-.41c-.4.045-.71.183-1 .2-.285-.018-.6-.156-.995-.2a4.321 4.321 0 0 0-1.751.41 6.6 6.6 0 0 1-1.614.338 39.15 39.15 0 0 0 8.721 0z" class="cls-10" transform="translate(-279.816 -170.845)"/>
            <path id="Path_8087" d="M335.631 199.4s.637-8.136-.984-13.436-3.68-7.594-8.978-9.8-15.016-6.477-19.58 1.471c0 0-5.742-.4-7.655 7.423a41.047 41.047 0 0 0-1.047 14.005s.732-.928 2.488.707c0 0 1.8-4.825 1.649-8.211 0 0 4.122-3.679 4.122-5.888 0 0 2.65 2.209 9.422 1.767s9.864-2.111 11.629-1.129 6.36 5.817 6.213 12.883c.002-.003 1.573-1.938 2.721.208z" class="cls-4" transform="translate(-273.575 -155.767)"/>
        </g>
    </g>
</svg>
